<mxfile host="65bd71144e">
    <diagram id="6Z3vkFSuAbRHE5QhmhZm" name="Page-1">
        <mxGraphModel dx="1857" dy="777" grid="1" gridSize="10" guides="1" tooltips="1" connect="1" arrows="1" fold="1" page="1" pageScale="1" pageWidth="850" pageHeight="1100" math="0" shadow="0">
            <root>
                <mxCell id="0"/>
                <mxCell id="1" parent="0"/>
                <mxCell id="2" value="" style="shape=image;verticalLabelPosition=bottom;labelBackgroundColor=default;verticalAlign=top;aspect=fixed;imageAspect=0;image=data:image/jpeg,/9j/4AAQSkZJRgABAQAAAQABAAD/2wCEAAYGBgYHBgcICAcKCwoLCg8ODAwODxYQERAREBYiFRkVFRkVIh4kHhweJB42KiYmKjY+NDI0PkxERExfWl98fKcBBgYGBgcGBwgIBwoLCgsKDw4MDA4PFhAREBEQFiIVGRUVGRUiHiQeHB4kHjYqJiYqNj40MjQ+TERETF9aX3x8p//CABEIA20FsQMBIgACEQEDEQH/xAAvAAADAQEBAQAAAAAAAAAAAAAAAQMCBAUGAQEBAQEAAAAAAAAAAAAAAAAAAQID/9oADAMBAAIQAxAAAALaCAABo8r1PL7K6HzOOh85WqclDpIBd84dECR2EGWIEXiSrsICXIC3kpp1KItyDLxUTsOfSXIMtJSOsiS2IFdEsTTqOcOk5mXniZ1EAs+cLyzOuwgRZwC8c4Ot84dBzB0RzM7CCOlQDojmVdpAi7hovJTOl86Og5wvPODqUWWcA3jDN7mE6pEqz2O0WY6YhueclnnRms9EbyqLn6g5bVDkqWrktVxN0Zz5vslnoI5cdmaidDOfVxYx7JmMdInPqrlnLqnU89IRl1o55aiUgbK0rqIPm66HVxwa7Czm3ra8+6uJFSuajoSKuJKoed6HB30wIOTr806ejOwAAA5gAaYJo8r0/M9OtA4EMjtFb0iGJhG0asRjHYuPrNRtKyrTUOHuglWdUaIZOgSrKqicDEOWppYBQns1G0bNtMABxrEq1Mo+boCVolWmCaHC0SwmAAQtIs0wACF4F2plwFI0klWmAASrMoANZQNBQEMhclSVgAAAhjdhgDQE6ToAAAEbRsAA0wnWFjSaleN4rWsbgACdJmwBgBjcygmCYKHRKud32c27zjk7Oe9UaIaAnvGxgA0GNzpTQQAHB3cHfTDMS532DYAAABzAA0AAeV6nmejWxOBoMDyVaBpgSpIl0woHL38B3xtGrDUcXfzXHKsynL1I4+7i7QjaJVpjxqZy9E61UCOSPbit5nQqAmYX5ToxvJXl6IHS4SOyW5FmgAQ4XhVmEJCHK0DoedAAEbTLef6PFL2LOrCNpFhMBMJViWlXJmSCxrBWdEQ6eTrWVY2QTRChM1Xn6Bz2HP089ydZVJbMj3y9RG0bAxDEE6xqNoNZ0haxuGJhKk7aA4QwU6zNgDTQSrOygCgEE6TqgEMQT3jYwBoDGs6GCGIOHu4e6mBAGQcNFlNmgCAmAANB5no+b110PnZd85FcZlXac7LkCLxI11Q1znfxYqdclJOwiyriS2kpV1kUErANSOtwZaeQnVTTqItbKSFOsE63zs1F6LYzI6+K6IOuik1Guwg4upItBzOpxCpIKxeDpJBVyZWZI6orI78HQXip114mRR89CmFM6XFlcZyWnjJ0kmYthmaToBpk4dYcdypF1Dn3VnLR0JK4ctLBy0LVBdBEHdVy1KkXYiToEKOhIsSxx0ypFWkXUiU+mduXTJkoyUeuSIsEXUWM+qQixElZVzboGCqMKmjm3rIHP11koR53fxdqazpSwOgMa0AmAAcogYmAB5noef31QCBpijaNWT5SlZQjulpFMvnL65qFY3ilmmqYBKsrKg1AIJVjVWEAATrEq0xMwONo2VaYABG0SrQMJFJcvOeweP6xphK4XglmNUwCVZJUBRgHPfmsvLUjdgCNolRhGs2bnSRVpifL0q5WmlBkAC41lmwBpolWVQaAAI1xuwFhZ9HPZJXhcQMQBOsqgJgCM15+gGEpjc028tWAGNTrWShimdBKsSyFEr8Hdo5VlFGnE4dPPpcMxTl6kcvXw91T5OuBy9HOuj0ayrycHdw9wMIYAmgaAYg5QAAGmjzu3k66q04TQEOiFW4u6UVxz2J0xslxexk8Xq9BjlWJZgAmEbRqup7kYhXG0asBA0DjWZtjAEKO8WU1nQIYQtIprLCVQ4r2wbYQwakbRLCYwAjaZQAYgzC8LL50A0wjWZUEcyMr2S3hKho5dUnLspMsAABkYNpjQE6SqAAAE6yogDXlvPdStKqAAAEqysJpgCJWjY0BKZ1hNayxppXPeajcmFcbCdJJUEuc1BypIq0ofH2FZzuRbLRy9mQyZ0QtpVPomRyd3n+gMHCYgAAAADlABiGIODq5yu459RY52dECFdxz6NzGlpqR1qLlsRZWDlXWQxHU+fRWRGusipOgiW3ipHYRCykRaeZ2dRBy2JKzcVg6tcuyxzaLyzg6Nc2i5zh0yUzqcNLVxItDUTqcRLEgrPMzqcGtsxzZeJI6yIWcWViTOlYZme9jlbJp6JcG2Tl1RsCriLqqiqoT2E3tnPtWJOoTViOWmqVIqSwXQWcVdUIOyJK6OWpaoOjiSuHJUtU9a3Es3ystvRJ0cSn0zrLoEyjiceqVJ0cTVQjjplSKuJFQlLpnYzYuHsiOm6FohDDg7uLtpgQDBDQAAAcoAAAAcNpUrpBwJgc/RCrtMT4O2NxtIqAAMIXgT5erir06cHTFpvJUGAMJUmUaYABOsjbWgy82E6THvFDzfR8/Z2z5al9Y0MA1OkyjCVgBG0SoCACk6SKtCZaKcbRLAAAONZFgZHWXLbG8GloMaTHKsbLZUIu+TNdmctaiaABKsqjFIuc7jdY1GJqAEqTqmR5piZGsqiaYwROkrC3kXaCM6zoYATpM28zqxw1rplSUVAhiYp7mVaBghxrNKBzW0rydItJjAgAOHt4uytAQDQADQAAcoIYAMDjaddTTgADn6IVcCPP9Hg7jUayqwEMTDm6YnBye55ti9PNJXKsyjTBphKsijTAAc95DWdBnWbDG8BSNjhz18xVdMx7nsYMc9TLOejRkNRpE6DDNCcpOkyiaRNOiNolhMAAjaRZ5ZHc6S1nSZQAE0KNZWWaYgBTrMqJgCMbnQYAJhK0aGxOVoEnSVaEwQmQvGxlpjQEqzoMTNCa43OkMEPGsGxOgRDlSNlzBLQmG5udXc1FSQUmp10uRFCaNk0XcgoTRzdnD22bAlAAaBoAAOUAEwADkZGu9w0WIBeBE7SDIdvJYtIinWQa2cHFoqVdnndYFYheSwdJFHQRItJYrocNFiJFszSU3zbqqnNejMspS3HQ6FFF8TRSnNouQZaecltc7OhSRaKnXU4aipILzMLZYSbMsJVlVU3GTYTzeYOmjlo7Sxx0zrLqRHHQrIS7JGXYIq4Qx1TMl2c5cOXet1NXIiWDl3uhHVGTKkvNVVsmrIiro5Kaqc7roiWDkqVqTq4jvWzlq9kypLLN8Vl7IyaZiXROwehUaxGp1wNgAwUrSso05UDFjcygAAHH0QtZRpygANAAAAcjTAAGg5s6zXWBDACHRz1dpwjmZ0TrGrAQwAjaRUAGmEqTKCyUIhbEsnRvnuMAFpGNYpRnSFnGkxaFjQIM6RmkqgJhjczWsbABVOsUqANpjxSS7AQaBxrIqNAwFK0S4KXnVpnTjeDaaBMsI2kVAAGE6ZjTWR5zFehxtZoAQBKsqgxDedROsqqgATVkbSqY3nQAidY2AAYmYpOkrADG8jAGIHPcymdBCXZHS83mKARHWDS8qzijRDQxTpIqAAByVxuqtahAAAAAAHIwATAA55VjXcDgAHz3gXAITqFpViXAGJhKsC4AloCdJkOL1FXj79WkcfVtC3jYxMACUL1s8Sfv5X53p9XSc/TG4ADy0YrGwAKY3hDc9jACNpFBaDWdQ42jVBA2gcayKsAEwlWZVPMpHoiVSZoYI0hStOtjEAJXPeE2mC5+masCzYOVA6lvOwAQaZOk6KAQAJGsaUay1AElaNRiRpzB0hRaEyKZzgpqOiriykiVdJIiykysiddBJlSSSsyR1EWtSSKycjpJElSQs9SpV2nA0AAAAhhyiYAAIIwvx16ZzuLvndXgRO0gGWYjrlmddbgFtQUnRBwt7CGosRC2J5q+udlyJFs4yUpyUq5FxYiDpy1qyiSWzjNK3HU6CAXUQduSpYiFsYyU3z7KkgpgmWc9hvFBQ6IjNMwqhOXVEZUJFmQz0YDHRiVFQlLphTVmkSwsJ9cURYJFghjqkIsESwc+emYiwsSwnNre6kWIiWDlvi5N0JZlHXHQqnPujIuwctVYmUDBsJVxVQZCWkY3jYDBTpMoABOtEqyko0KDAjaRQAYIJ0mbYCYEM6xXS04AAAAARoORDBMEDI8vVyV6AtQDQ+fp5qu0weHDlaJVgMAIWkVaYABikx6zoAYlpErSqDOY6SWR15+gaBGgJUxS1AACSdoWGJqZ0klWVQACdJmt40PWdSkbSs2JgAErRKjQxMM6wUyyHzdcVM6VVaYCAlaRSdMpkMlpUmVAAAJVkWFgoSyapzdFaAhDCN4XBhADXnrOlmd5YwCNo2BoGIMVlVWChiDG57NHI66o7zGuHvxXB1OtbxueVM6lW3zFdcazigEAASpMoANASlaNdTTgAAAAAEHKADTEAT4+7gr0WiNCYQvz1dPEc9tyOiW5lwAaYRrIq0wADOshrGwaYAiVuboOXm76Hl9k+4haVhAA0yNZ0ABBMIXxSkxy5W0QritZbJM4rmsUxsW86glWFUedAAEqxLCBiYZ1g1udZXjeCOqxqrTQBqpVilgAACVZFQAACNolxMQMnoDQAAEbwuMRLoyEax3Y9RZYiDryVLEGWIM1bloXUiWpIp05qFXEis1OukkJVyFrIkdJIKkgrJTOokRUkVSZI6SWjZNGuekzracAAmIYAAHIAAANBnz/R8qvVfOR0vlZ0QUq7SAVhpR0SzKu45yOg5w6I5nXW+dnQQIsohSnJQuQC5Ap25Kl3zuKuIFuOtXIqLkCnXkqXIkWU0mqc1barBG0glWdRGgxmoQ26VHVSIy65WR3vREsznn2RrLsyJciGOqNKmqZsSwQh3TqR0M5zoE55dsiZ0C850NIS7JGDoDmfQHPPtiZOgOc6ReVdOUmXFgq5JVViZRxN7Dlrmlk9rQmwjWdAGAAYrKoA5UATpjYAxYpgbzsABTrIoADAI2iVGgCFWnWZthAAZ4+zjs7XnUoAAACYAHGADQMTF5vpebXpNOBgPn6OerMIZjJWF41YCGAOFpFGmMAE0TrOgADBEbw6AEwAI2jYRDnO84dFtxsbAAAxSdBgDQEqxsAAJoxSVQAHOmDG8bsHlhG0imssaaUlWKW3OkuB8h3T1koKRU5Q64vFdCyzRnUhjeDYNRMCVZJUSGIonvBXLBJ5ln0zoDTAERrG1mNINAEbQsMTATMVlVQCAGSxulct9gZ0ozudBiAnSZQAGgJVkVTCcenn06ZxrFGnACDh7uCu8CGAAAIYAHEwAAGgPM9PzK9NpwxMfPeFXAjhrTJ0QvGrAQxMJVkb0mMABolWVDPFPZLPq7rk7I2hiYAiVoXrEugjitYJVlVGgUAMUnQYAAEbRsAAJhG0qoAKZ1gWsasGkalSRV40MQEqyNX5rS7nQJveTedIjm+RYtCrgIAGpuZcy4YhXGkbLiBiQ57kXMC0MkLcdVYkRXM80V5apXOMlyIFuWlWcCLuGwrzUWpIipJhTmrVVIiqmrHXlqtSQVmSOkkFSaSsiR0uQUc0tZOSdBNrtzRTh6+M72iGAAAmIYg42mAAAB5np+TXrOBF3ALwI12kAtDWDpkpHYQcWcGWkp10a59FyBFiIaryWqriosRKLctSxBxYih25LWVINbEVDrzVqhgjayGKypTTcJbZzWxYmVCSsHLQsRLCRV8kCrqBdEp9Mye6OpOriOOmdYL6iO25VLpmBQJZ6FUJdcEasElYIz6pAVCaqE5dEhvbJvYYnaRVtgBLlorYnCTLI1nQM6DOp0JVlUAYaTJ0nRQCAAnvFAAAAlWVQADG8mhMAAnSdlAJQAJ0mbYCYBwd/BXcBDBDEDQxAHGJgAMAPM9PzK9JjgACHRCrpkA0ONpFQBgBOmB6xQlTzu0oJkrSqMAACVYXBpgmiNo2AAaAlWNgGhPzvQFqdAaYxBOsbDEwTCFo1GACaMPG7BNBikx6xsbTCdJlN50MCXM7YGaDJsJw64WM0zJoMyvI2aBDAlaJVpgAE64KNErECzuZRPNI0kjTOwBCaZisqjExtOWe50GAABOkqgJgASrKgwAzrIaxsAAlWVUacAgcqTKNMQ0HD3cNncBKNME0AACDkEwAGJh5npebXptOGgCN+c6ACG8haVZFgBiYZ1kzy9VK8M7rHB6mnErRsDTE0yNo2BoAAjaNgAGJkaxtUOX0lHkdFJ1Tp4KJ2tErEGKxqNoGgI2jUYAJpJ6numIDG8BvGxgwxTBreNqJ5jeHk2AMTCVZm0xEazRKkiwkaSDUdyOkyzTmS0msV0EiSriLWeYV1kRLEUb3zbq5BxYiwtybq7hqLOJK6c+6sSUWJAV5t1YiyhMhV5qWWIuWqmh15qVUkFZEk6XBrUmFJOZ0LDjRkp8fXxp3gSjENAAAAHGAMATQPzPT8qvVIuLPmZeKlXY+ch2gq6YqR2PnZd84dGJ5KV5KD57kU1EHfjpXQQIuSVO3FUuRIuRQ7clKuRCxJCrz1TaAjLsmTorLIq4iWDmoVqRYiLsHHV2qDsRJWDh3q1nOdKqGelHO67IlyI56cE6b0ssdOUhjpmM3qWToycumdJ7cTVUTx0ZrDoRMoJid51ptyoYLFMGwABIo2jVWAmBPSZoEMAlWVQ0EDRbik6QAxAGNZ0MTAAlWdAAAAnSVQACVZ2baJWAKdZlEA00Pg7uGu4TgAAAAAAOMAAYgA8z0/Nr0mOEMCHRAuIAjcJ1nW2EAMSaMVjYGgGIjeNgaBphKsq0AQAyNZbrRkNJBK3PdG8gxBmnPc0ClYglWVRtAwCNo2QAUy81K0aoAxLWTFJ1BgGKYN6y5TLSE6TrbTNPDl1OkiqAYAY3g2JgAhOmCgJWAGNxqyQNAEbRSwAAjI8lBMACVZWGBKAGNzoDAARnWNgAAMlSdBgAJka42DTCdMU3nQAQYpKqAQABw93DZ2icrAAAAAAOMQNoGJi830vMr1GiGJhG/OXzqBqvBg9OdJlDkhXpry0ejvze8LRtCaDSAlaFhgA0EqxvQBA0EKxtQAgAQvC4JoYBG0bD8/v0eTj2RfO9CVRtEMBI2jWtLJDQVK0LAwBNE6yqMQNDDWXKkFhjeDbyxiDUtyOgmzZgimDFtjBJsmFJqddJFFyCLyUzpcAuRC0SVdaiyykRWecV1ESLEWb3DZUkFSQrpzVShgl2TEKc9KoTIoTdqpz1NkwoTYqc9ChhG8gZ1iiI0LifRIaoGCgT4+/iO1pwAAAAAAHEAMABA/M9Py69TUSLEQtByrq56BCmiS8lKq7m1q4uKqJWrctCxIixFityWqriRZTEVuWlWJEtiSpU59JYkFMpkLTtWVQJlA5q5sSLERdQ5wgdOuTuMKwcdXaoO6iJcOSjtUVciJdHNR2IFmROjJJVZAuEcdOCbpokVZKfTEZRknvROfRgGwQwUrRKjAACVsmhoEwUbSKgxAxTrEq0wYzDA0IlGBjedUwIARneNINNRMJUxumJwJhjWN0wIE0TpOlAEE6TqgnAAHD3cNdrRDAAAAAAOITAAYmHmen5teg24TAJVlVgBgQSrJKMFBgJojeNhiYAE6xsAA0wjaNRgAASrKtmRoACNo2AGIAjaNgAEwIBaoXHADIXhYGAAEbRsDENDI2lUbWgTzLjWKWAAY3M1rOwYlcLxSjTA0hTpg2PIxMI9EjZpAINT3g2MEAKVYlmgYgJVmVYAAIEugcABjeN0AQAGNzpQBAATpOlAOEATpOlAEAFSrKoAQTpitNOAAXF3cNna05QAAAAAA4WmAAAw8z0vOr0hagBhC8iotAAE6yKCYNAxBK0qg0wASN42tAIYglWdBgAARtKoZ0VlNJG8Lg0jSYRpG9ICBpkbQvSYQxBG8LDEwBErRsDQDTI2j0AwgxpLKsqWMyx41kdJ6NLJLuNIWXcmWJi7wppdYyV1DRWBI69c2iynktjMjrIhZYyVkpV1kQupEVWcHQTZsm11hZS7mLQm4NSdVJhQwg3HaUJNdmQxWOzZlgmEqZomTQuCgc1FZJFVLjF8VjWtEygkuP0eE7QJWAAAAAAcLAAAaYeZ6Xm16ZMimoMtAlXW4OLEQvLOK6XFFyDiykjVuOtXIuKkXYW4rliQtiIOvJVLElLZxKVuWybMtVignLXF6mU0RKhzbdSSsyBYOWhYg7BEszjq7ESzILoI47Fqg7oi66jluVJqjliWVc290TnOhEc3yS29k9aYo9ER6NDWsq8byjTQaTFDoiUYwy0Oe5ljINDFKsiw2JgGN5XQA0yFik6oJwAGWKtAQAGN43YAKAE6ToAAAGNzoAEABOkq0AQJoWp0oAg4uzjrq1nUjAUAAEMA4WAAA0xeZ6fm136bjOmClaNWBwAxTpitazoaHAmiVo2oacABG8LWMTlGglaNrEwlACVZVRiaoYQpmtmG0ABC0qgAABC8bCYAAQvC9AOGIIXhYbGDCJ0lVRoGmidY0NACztE9rVACE6THvGjeQHlzKJAwBy3MsIAAJUmVABjFO0ipjQwJTG8VQTgAMZ1MsDQE1SeKoJwAE6T3TAgAJVjaxMJQCp7nRGBKAEayrYNErTVTpOohqDk6+Wr7nSBpgAAIADjAAAGmLzfS86vQ0iNABG0SzTBphKk63rGwAgAI3hehokYCxtGyDBQAjaVbBpygBG0LoNCtLkL2570xALSIWlVAXMdImRtGwAAARtGwADGzn6JVBpwAllaNRgDQEZVgdxjYCQtx2bMo1LeLHuLKkgrJTOlwdWIqLxcq6iRFSYUnqR0OTKGEUk4D6OWpdycUwpW9LkFVMNS1FOsmLRzRSZgu5CUJim40TRlqJtIUzUw9MmUDnoqkygTKBy2KEygsnQOaqqSdBJc/bzm6xsowgAE0AMOIAAAADzfS8yvTEjbkzcnE6nFxYiVaecF98zOggRciqd+OyWIBd87gvyUq5EWxEC/HVLkSWxIpV5rJoTlxydcrHTNyasEirXl3uicvP0UMHSHDSljmXUzke7HDbViEO7hOh46V5KupEsRIqzkqWsi6ksiocasqKa1E3SZimaCh085VaQt43QwkWKYpsAZiNS3OrNOABSdMJsABinN0cxvW8WUaJSdJlAxVBOFC0a6BOAAJ0lVGnACMtOm0wAJUnQGAAE6Sog0KNBKsqgBABU6SqgApC8Avz9ANOENA0DEHGCGAAAeZ6fm2dmttcPYZj0wSrGoMFOs01palTABqpWhcGEABG0bUNOAAjaNqAIYmQvG1gBLFzsYtyqutzpAT2TrOhxdXH2mmghWdaYKOHv8AM7AvC4+Lt4y1sbJVjQ1nXOLp5wd42BgASJ6hQ6gA59bFSdB89uI7o4yUcNFlz9BSG+c6K8darEcW4+vir0BOGJhGkrLiJWALmpM6p6Rubka081uN8w9oMYaqwOAQEqyqoEAFJPKbAUGiVZ0BgCAnTGwBiYiVZVAAACdJVQAlI2lU+nl6gaIAAAGIONDAAAA830vNs9ITlGmEqxqzThiYp1mbedDFoE1Ubwug05QQStC9DTgAqNoXACGAQvG1HM9yefc7bfN9Hi70868srvunSM7lWuDt5OmKAHPimKhbOgo0F42g5LcR375ugjqZVo9EYpzHQK0Lg0BG4cXTy9ZsyEVbJjo59leak0vy2KhQ2Foi7lvBTcWWJI1jUjpcQs4otPGU6lIWmM5FownUSFrFiayTOkmixJCcw6iQtSYUk5pZ5FYBmd5Jo2yZQOaj2uCgknQOahUkVFmUDlsqpIqLIqHLR1SRRkp9OF5+rl6hgQAADEAcYgYACYeb6XmV6TQaSI1Cka6XEixEL4xir652dBBliAO/FU6CBFyDovxWLkAuRAtyUToIC3ItFXluqMzMdKsnndGmcnXXREszkpqpxHZ569RUOWmqpEs1559YclXZI83dyLV1Zy01QkVcQdg4bK1YKuIuua4+mXUTdCMmkSrG1gwlaaJVjagFDy0hrG7QCCdJ1tpixoR4pNaAGcb0EtxS5kNmQ3PUyrQONchmkyoAwJVK0rKAABKSrKyoCgBPeWmgBoFnSdEAFGgnSVQAgAJVlShphjeTl6+PsRicoAAAAHEAAA0AeZ6fm2djq1kVZOfRI22xDIMUxRpaGBABUbRsMHAmqjeFkbTlEBG0rUAA0yF42OWfaQMK56yoj3OijTie50oxtxw9FM2S6OfoBPKjzoleNjPJ1zKaxpJ1laVNME8nPeHRY2iUntVHp5+hBpymdYqPRz2TYEoASpK1GXk0lpM7nRQCCe41UQgAbnrC0aYAGY2ilmmNNCjaJ0CatAE6SSrTABSVZJUBQCQlWdUAUAMDylAFDMx0nRGBKAEazrYASgCT3OloNAAcXbw9yDTlAAAAA4hAwAAH5npedXovOoGgcaxqzTGBBnWK1qdEGnKAEbRtRpENARtG9gJqAEbRsDTGIJ1jUYnABUKSoj3jSsQY3LaSvz7KJBO/N0jy0LWWTty3XabMAkzbn6AaJTGdWR6I3ABUnhMdHL0jMEu8ZxYV59nQ+Xa2cAdePaXOei01zpLb5tlyAtoqSX3zbroIkUzPFdZBxZxDU+bddj5XHSucq8kjpcXLUkJTCmdJIWqy0J7mUGzBQWc+iaIqyJYIY6ZiKs510h5vXy+gSLBIqHLQsslYIuonLR0JFQkVDh7uHuBpygAAAAcIAwAADzvR86vQYACjULRK6wVRyRbM0U3zaToIC9BzsL8VToOdnQoA78VktrnF6DnY68lUuQa2IgV5qm0MS2zk06WSK0OddLjh1etefq1jmLs47nREcdKObVmcHTDuJFmvPjrycV59Nk89GY8/ox1Lz2LEXVnMunKcvRjoJlETNslTFVnhbSj4utZUlVNaWjOd4MUhEvp6CekK0mLfJ1rqVMo9Y0MA46yrVQ1CaDU9JdmNjQBPfMdZzUKhg3KsygAI4jtnETrEjQmpKvOXYhgHnd/B3poTUAJVlQGAARKsq0AoADh7eLtsYErABMAA4QAaYmAeZ6fm11F2RLhGXXINbZltiztGKYoIYAwheNkYCgERvG1iYSgFSrKoAQwKlWNgaBgHPSdLDc6QwFlWe0hbkDp59aWfV59E6KY2JpnF3cHoKA4Ew4ejnvZR8XYc3TDC3tx9BSe+SHZ6slfn6DBqZRrROk9rz3lY5zOkOnn6BgSmN4rkqsJ2LnRdZoZ5+nC01zo6cjTLQOVIkjoiVOfY6Tus0NNZWlxqwZj1QR1bUjZDxuZQaObcaF51gm+StiV5dCrz/RimK4sA5rw+hydaaBK0wlSdEGAAEqToDQrQHB3cXcgBKMAAAA4QRpANDF5/oedXovOpABXG0qq86hiDWXmlSWzQgbRErQtWhOBDI2jagHACqVo2ACGJkbRtYADELCkqobnQYhZ0nQjSdCcumCRz0ZOpayq1nRxd3M06WhWCOSjE5O+eRlJrqsbhC5EaRzR1c10IXQqyalOahMojm7ZgrcyOtwC+ZiZtzVAQb3IXVOWhVTCqxlKOGzcaYK8nThSs2lXIWsdTSzk1qSCsnMuTZqVGZneSMqLyy6bJwa7ZmNWCJYIz6pCLBKHZyKbtlMujIuoctHQmUayKic1ChJ0CaqHB38PcDTlAAAAQcIANMAA8/wBDz69BoRtOUjaVVeQ0IGs5NU59lXELEUO3JUuQZYiBbkqXIMsRYrcdizgyxJBbkslCbXSbOfZZIurWJcOSm9HJXHWQLicdXYg7Cwdg5CtiDsEiwclHZIlglPpF5aFiLqyLqHLV0Sb2S5bdQtOgNOAAhnWqowgAJVlWxIJdAVGuNgwgTRik6UAQ50xRrOgaB41g28sAAxuZRoGgHKkiyaBgE6TKJgABKsiomKNgMbmVAAAnuexgQxFTnTKOvN0gBLw9vD3WNolGgYgADhBiYADDzfS86zqdRZOrIx7JJl1aydQwUyTrigAxDCVY2GDE0yNo2ExiaCVoXAAYmRtGwCYARKsbUAA0E6SqZoiAAjaVaGiACpVlUGnAASrG1AEDERvC1MCAAlWVRNMACVZVoaIYglaFqYnAIMUnszpBpCJ2jWh5cMQYpKlMRDzrItyrYASmN4rTzoAAlWZQQMAJ0mUABoCdZJQaUYClaJZAA0EqySoCtMJby01LfCdHRydRPeNnJ28HcMEvF28Pcg05QaGCAYcAA3lgAPzvR86vQExtA42iWExgDy0ZrKkDTARU7QuAmMRJK0bWjRABUrQuAmDERvGoxEMTI2jawE5QAnSVLG0KxBK0ajEQxFStGo3lyNAsrQtZnXLJfQQRK0a0w4TuJ0iVZUpmUUJIK82yzgFyAO3JQuQZYjlJdvkegtufXMds5sXX53UlyAXIg68tCxELEWrpy0SxIKqSLa59LUkJSfJY6DGgGzE+iaiqySsJKXVIRYWLqEZ9UkRYJFhYR7PJT0HUWRZJzlkcrxsdSxy72zg7OfuIuocHdxdoMJQAaAYg4QAYICdp5/oecnoNNRoHGsi4g0AGdZFuOyhIKkQd+KpdwC5AHfjonQQCxEHbiqdBEW5AR15KliQtFlkqYskyosnUTlo7ECzIFxeSmqpEs1gugOOrsQLhA6OYxQunDjpBbs146uxz8fo8R0lw5alUlrYuHtEbTqIYAERtG1AOFDo4jHfy9VHH2csO0L2cXf5vpiaco06jWdEAjLc4aVS3F1jaEFnQt42oBHD0ctq6HJpRw0VwJaE5nQKRTEROiMO5Z24e0cq8x0pM0II8W9p2gKEZHTh8iS6+O5014dFxYMdnN0gAvD28XagwlBoAAGHA0wAAAPN9LzrOl2CLsEpdcjLroiWaxXQjnq6GHoMtolaNkaYoMIWlYABiEjaVRgKAEbRsAAxOI1lWhpwAE6xrQAMTJUlUYnABUbRtADAMGKyrXOhHU+dheNifH2ch3icSrKtEbcsO2mT3ilR3KcdpOhzUharPntD8/r4K67cvWa5umMR6uTrs8/0fP71bTGIiVZVo5eoJV5sJevD1LTn6JmK8zS+50HKnOvN1zZjJtFho1ukgydCmLhBdGE5602cnWxVzdUTnO0Bgce7yS4IaaJcnbwFjsDnu2s+Tr4E7q5YzKXl7OHtTQEoAAAxBwsAAACjzvQ89PQaagMI2kVaYNOAAxudaYADRKsqjFqE0VG8LAwAAjaNgacAFRtGwAQAErRpTaAYEqyojE1ACVZUGADQStGowA5eqRHq4u48430GbsJVlUXB6HnnoPOiVJVDm6MFDiyW6eDqSkmymoi5MUK6g0px6yvVXloViIh281Dm7uO5VwC5EHXloWIiWUmFeWq1JBUkjVOaiV5qJXKokqrZh7azn0YMujJFQlPqmmSrJFRZS6pCdGSKtIy6pCLBLHRAisdYyosionHh9QPTMGxeDt5OtG05QAAAAOFpgBQAHnel5x36TAAJVkWEwaBiDFZUG8hozkzbloWcBLkAduSxVwFuQAvx2SrgLciBbkslSItlNmdxsA2ZVAhp1SLq1gXDl27ES4QLpOSrqsXVkSzOOrqeb1T7CJZnJUqSh2o5LQ7TloWJOgYeiIWlakwgB1G0bCYRwdmLVOsqA0xAyNZVATAAnSVQAAAlWVQaBgE9zoDQNNGN42DQE6YNNMaAc94NtCMBSVZFQQ2gJVmUADj7Ec1LRLAh81ecOpCbAlARx9XN02aacoAAACDiYA0DQB53o+fXS6tJFhYy7ImXYSRdEldHPTVCOqNcPTOe8bCYAwSVY2Bpq0BG0bAAMTIXjYTTAAlWNgaBiCdZUBpwAVKsqg0DBEbSqMCAAnSVazoIYBG0a0wIy2EqxpWhEMQTpOoCY0BG8LUxOGIqdJVBohoRK0LUPLGgJVlYTQDQStKgwAAJ0nQAABGKQuAAs6waaYwAnSZQAGmEbRLIYCBypJLIFYgcayLcXZklfz+9DJzHW/K6DtJhDo5eo205QAAQwDiEwAGgH5vo+fXdpNG0K5ViU0mMTABJ1nQGmoARtGwxMACN4WQeWrBEqysAANBG0bACNCCNo2GJjEGNyoNoGIJ1jUYmABKsbA0DEyNpVQAUAI1lUbRABUqxqjy5LV8XSFOfZUkosRlVrcdUu+drcgGnDBa3ndJ0nDMrbz6p6RBrnMNFung6EvPOV0Q5k9C3B1FiDWykJqnNssRCsN8ynVKxk2zil2xSmsdCyzvhOvMetEOhJ1RKfRgTqEXVrCXZFEWCLrJVOOU7TejzunUTo4/Q5hScjurOhy1nQqBKNMAQAHE0wAAAPP9Dz7O/SYAKSrMo0xiYAE6xqMAYkTrz0KkslyDHbjqlnAXoUEatx0OggF3zsdeSpYii752OvLUqp6NIZHaqTKhIsJyU1Ug7CxLhyUdiJYIlmcdXVIlxYlg5d7oRLBEsHJXVEjnoS8fVDpSVcbUc4HV59Ar08nSR3PpFqTExnD6PmekcGtYNTvzHotM4qSsbrKgzl6DXmen5qdHXy9INTWpzdBik6AAHH2cR0VnQSImoTwnobjZccXoJJxvwHX0cVC3D6MDn6+XpLCYZhJe6G8kejmsl+Lt5F6JX40O3k6w830vLPUnSZLl9PjOxojn1l1cCUBgmCAOICmBAAHn+h59dRXSQdhYz6pGXZkSzIq4nLTVCLsLJXRzXnYTYA0StGyACg0RvCwxMACVZVACAaqVZVGAABOkqDaIaZUqToMCAAlWVaGnAASpOlMAACVZ0ACGAT1kreXGOEpqza5tL1yAj0w6047zyuu/nrCk9U640cPo+Z6Rww7eM6JdM06t83QvB18fWaxmxydnDtOzg6YLvr4+wXN1c5jr5ugzSdAADi7OM6KyoZYEo9POdG51JqnOnNbHSc83o7MPZzPGTuaay5e8OatJjNgToHHH0olNCQ8zs5T0puR0R1xHbTksJZF6GgYEMQABxAUxMAA4O/gO5rSACk6yKNMGAAEqzqg8tRpkLwuAmDTiF5VoaBoCVZVAGABGsqjAACJVlSmAMQTpKowAAJVlRG0SsAjaNLNASsRU6SoMAYgnSVDSAYBN50mmiXhtG9cPXDrOefTs5+qYRxSiVQyebJdV5qJDHSGebs4TQ+kn1w0vMdGDk74WKLAm+bMinf5vYWIi2cQdOahYiynHdBTi7AxTRzx7cpKhQly9+SZYXm3TZF1EjPqkZ1RklYWU+maIqEioRn1SAqHm9dmZnaZsYqYJKdJHSBKwAAAYcIANFMAODv4Dt3jYABjeDbzpGJqhonaVBiYAidoVNGEUJIdeWpVwC5BhXlqVcQsRB05apYiFnFDry0W5ELKTDcKJRZataCGyiYVgkVZyUdSRYWBcOXeqES4SVw5N7okiwsSwcu97JaoEiqI0WzL0gGEqzog01ACdMbAAc9sheVQABNE6ToAAYoiNpVAAGmY3PYNAwCF57BoGJk6T2MQMAnSdAEwxvA9Y0MTCdJpQTUACVZFQAACdJFRMBMnDo5k6wJWAAAAHEAMToAH5/fwHRrW0kVCWOjJPWqESzIlheWjqSLBB2DlqWJa2gGEbSsJpgARtKomADROsqiaBtBKk6GkAwIlTG6YAAE942MHABUqToMABoxvGhgDEE942MAGET3jdAAARjWd00EMCpUnQbQMCJ0numJgCido1oAGhE6ToMTQAWVJVBgABOk6AAABik9gAABjc6AAABjeNDMbHjSFvGgYCxvBtpgAEqxSySXZMKR1M6CSLKTNc1Yp2oJRoGAABxAUNMTTg4e7hs7NY2DQrzrKKk6ADUAJ1lQGAAEqxsMAACNo2BpgCJWjYYkNpkazoAAwCVJ7TQnKAVOmNDAGJk942MEaAiNZ7rSAYgnSezQgYIy8UGCGAT3jRoAACe8bGIGYQU59pVxFsSB759pYiLciDpy1LEUXUhHTloWIhZxaqvNssSRZxYU5qJVxCxEUrz0TQNcqgc9CqSKhJ0F5o9nLYtdPJHQWDmo6EXVkM9OCbq1kVCU+maJ7BNiqdZmwYgDPL18idgErEwAEAcYnYNOAEr4e3is6qToACtCFSVQAGJkqyqg8tWJkbQuDyGgROsLDBgllM15mdJyTXvODZenHs6jnDoOdpqnNsuRRckGtc+1sTChNi1GqMYZNteahRJlhYlg5tb2SLpIuwc2t6XBZEXZHM66SRYWRZHNvejDoGDYQrnaAxQAlXG0AagInSdAAAAnSVUAFGInSVQBgATpPaMBQTJ0lVABQAnWNQAGgMSppCdWoATpKoNA8awmtZasTCVZFUANA57mUAAAXH28adgCsTgTQAH/xAAC/9oADAMBAAIAAwAAACFJ+IaqTzSTQD7C0wNDxjlHXLwuMOPu/kPeuc/f18XG0mkOtO9N+O+3NlG0+dP1+NeM01CiVICyihQpyInjawgo5zDLBzD6obzJ5Ta6wZ7HgbioJgqYf7pG1FOufPNctvtO8FPXjmFVv1ntGVt1GtV0fWcf9N9ZQ6Ip664pIRQryZ55K4BbowwozgDKaqh64YZIooJTa7qop7p7C6gBXmNXcu/9SNs8mVnZlc1mdUmPHgnnHukn90l8Mc/UHcsxJLI5bFy4hYrLZZbY4zCAAzCtcuiy6Aj5Cwy1kqAxwChSUhQFtM/PfXtfuc/veW0etHPvstXu312X0v1vfNel8W2O+HKxmfSyhXGDTLRThgJSjdbTBEG+9Iw5oygraLLe7aUAITLaYqaUEmuYHf2ZeKLMaI1EENP2XkwF9qZZSqa40CWPv8MkdGKe5oj6BR6DSpQxZAJwojQCxw17ZbSK7TYpYpYqIoCM7RK5rIY2Hl8qO1P7r5BJQqtmksVg33ZLLZLJIpb7+6he/wD7jPT+vjSIOQtEkQiiEUyUsgSak8oM/kOkS+AIdlKa42Ck3QMIyNShzD7fjL5AuWvzLit3/rDXp9mOB79Ztp7xTxONjnn5bTZJEsqw86YaSgSy5MCU+egyw08930s+SWc46Wieqcu+6SKOumadXntFvFd2Cqxg+rlHN9fZeeg8VLpAJlrB3/KCbFLXXHTsKe0SsIc2Y+mGT42giiOW08NA/lhcSW4+Gc2KWpe6iqCS8Y213LdnODZ55xN+6jtjZFbBmyUSpJJzNNLxhVabdpbvTfXdAeGuY6leKkGKoi2mimv28scwn7/a0c0QQN4q8osYUK8wW/BkDvN7jbb3TNjX8p3lfnjRq8yBjff/AE3zW12ybjVW+8x7Y6QeoBqqfHkrstSujnnlbFKfMPX7yHrtKlpBpvlqnjguqtokEHdxeSeR7wJ95ZPbS9Yd3rvtmSRTS60sSde5f4vvYYVS0WfoEgjCkiGNmMLmvlusOvOEPM2wDElnnmvljpksijIrmioscK8eWacEz503z9XYQ4SQankhtrFem51meiGASUPqzZPY56WCjpphNmnPBYTDPEyjOrQOcCpimDuBACiAJyOlqLHtrMjnH5Rxw613395y6fTlh18w+mhEcM94YwQU3gzT075iB54y32+AhosrluB7skvhqoonOsUbcG0+nHtlPCssgirjgoktsphvny0OCRyAc0R5duRfQ1eRcwuADMrTXfff1QZZ8z48p5RY7SUFiujkvnqqDAHunvnsKgRefXYnoABpLgslviivqhghqqgsviovz4SlsL9SYxUQf3eTVhoOeP8AXHP33P32PHHXpLNN8tuuVLBCKQGBBDTiICTjQoCiQHABC6TY7jT6iJYygbr4rDC7LyZSA5NBLKoZLyameuU0NEIbhhFszkcW3dXItwxzq4dcOdMGGp4JqJoKb6YbbzCaJkiCwjDC5LR6IC5Yz4Y5Yb6b4bJjqLYrZY77wzrCBDwKE2+1SP4Q5bLBgsvpIfunnGYqiIlFG9n2jrLADLI6JKbbJQroYxxThgCNcpTLpi6JCIq7JyDpqwIoaCKINbqJDSqBCNRQ2X88/e4Qqbr4FF3vrUEUfw7gpCu/92/GA74h7WhBSTU2WgPCSAZAyQCtGb46JBzSBoJyg7ZCbjRr7Hi5CLaR545YJpONPcuW/UWpZ4AdNv8APTbrj/RWIaBDZ3b9BI++ae6K+qa+pC+KiiieEMYADHWy6+kS2SWW6K6yiCSaqU+eea2yK8MaIQKACdXjfR/VEqGgRZBTRVj51JiO6k13Z9HJaWy2a+CGWmKW0qOKq29woUU8JUIcof2C2++OGw0KSi6Cm86+KMy0FmeOgQGAVNN33V38+O286/FLB9XBKojqEz35LjFlmYGCgA29OOgARswwSsNSkc8MBB/EaKgus0koQ4K+oewMyOEAE9xVYe2s+Co+Kbl5RXHsh7SeMKWom/8Aevrjo97/AHtfPeOQJKb5oqJaKoZUYLJ5ZgrzyjAZi/xbJIpYALK6oaaqZIgJrSxjuHlU57ILAPSQf3/PWUbP3l5Z4JYp/MRLTxzdPfc8NMJJ6IZrbrZIraoDx6RLoNr5zDw4Qnw8uY667RQQLZ4Za5haKYM+PcMMFgybPktUvOfOUmbms0lN3dAes2WUe/sFlMFc9kUy3K/H/jDzggSD0ADwCqJapDxYP7iI5jRfWDrzTYoiJtHIQ+NOXE20ed8XeUb938eOvVPvts89MvmEENN9s1Prsuev1E6aAIYepLQppQJbTKx7pQbb4AAvQERq6gQ6dbJ54oYoZIZb4H1udt+uOeHctbN9edkc0LmV0HzkGXEV1HU00Em+03tF0joLjb5jboR76zbzzpAJLcLryzCvHrhrvYoaJa4qKpOBI75Lb7Afu9Pn6oDs88td++lvd6svW36cFQ3P3+8ucfM3FPeHCGA7TwTkzTQgAGyBmYyiFdbLjACMopx6pD7JgRr4ypnnAhnaz2QNgm10lwzxjR3+WQ+ErRlNev0f8T0+FtF0+/s4OEBxaQ74Rb6FzzTzwBb4BKIgIicAAQyLqqzqLjqrjxoKjpYV64mKLMrJGEPO8cua7RsO+WN6wa4a7AF2MEE/PufcvcUMkawpI7soRoKxaomID0Ir25TDagqoAbxDahiYboqJzz7oy+JeLLWoK+JIgxQc2v8AzjHXBBDGuWOWauuKR/8A/wDnfE/9enXWXuSBS1SRSHyHznk22122Wyyy3miIKzAIDQRQiTJSCwIQU2t1Ty3LBFJV1HjEEX9uff0Ah6pmK6jaY7L4yOWWfWtb+/Jrmb7AowqISoZigDTAAWyzz7wHyAiraQwRj4EzzXCj3KaQyIKiopx5qUaZiba5KyTILZKIqLaKLrZTL4Zq5KoA6x5p07KoYKwqZDI7z7wlzTCBxTiTyjwn6CCbygwqr7U6qyorJZoSGJ4jIBjIKB/SXhaDbKDjCLL5xIJIYL7567vEWwxyBTCTFyhfgk3UFcwRWASeknY233wyXxzEnDQJ7jAwIoShrzrYjhCiwrCAxB0AESS3EknFSRHizXghR7rzaCzY43Yaj4Pz7wDWDAisN0W0mlULHX73zznVwnyxhLKSgAkj777Z55VjghTrDR4wxpQ0J7hCjD7zeiqjrMGTSAgHLrKs7xXoTdLJjRkiIik8ShQP9VsxiWnjUANEBT0AzVarkJNTSC2o7L4+JJgrLzAbQ347SZJlTTygQBLAcLz3vptmdTA+GIHMRcvpdsygvqNcRmE8F+F17UE4O8xG+vAMvXUuPdkmpCX020OoILDYIYjDZriywVAjTxiWwhdhTbQh3ldWmWsMdUi7V3YxiMPWkg1wfFUfWcPwtNGnMOLBi4hRQhDcmiCTjdiCTAKAb5/YZM/arJDhBAAhiDTBUQ4HIBT5RySD1/R3F6O1thpbucwCaUtFGDwGVJR+FVBSk8GMPg8jRUCCzSy2XBO3CsRBWEHGxzN6Jb0ZJqiv6CoZCwS4xppTIQzYqnEDsMhigvMTqWQSeexjIzfEgiCzyxtunywDGeVLWDMoQY46fJ++N3PMB+nFUjEu0mOoIL7rr6gXpARCiCQQZihhBhihCEQQPLDTx1sCw5wDtExhiTHaiS4IyZKH4DSIYR5BCwgzyiRwxTSDCBAjSgCAz4zG3L8a47IKZqGyjnzAShgRwiwCCyjQgAjbzTxyb6QbxSrohaawJIKr5iY4Qo4K56io4xaYlLQiBAwCQwyHSDQzT3BCVVU0WR+rYbLY74TyQBzxgKoyhw8ArghiSw5pFrL2RzwaxStoUh6QCrBQzSwyzzWzjSMVWGWj/G8bld+9JAVvSyNMCcAUscOWmVPL54D6PC3iCpTDDhziyASEGX9AFcTyPS0Mm5cjxjSR1EAjBQ2TSBAbzqYx41n6jVIyi3mAabGmhzxNRzpQDPjSN830GAebbwCqJ5H3UVlhAhAS1CxBQ3USjxRrypYhQhQ7CJoLTiCBx5hI5S4LwLATpVTgbTg1Rz1VhLulOIw8lSQBR2VWdPxMHwcL7g+IIj2ThQzqpxSRzqyzDjzIDjLITTAFjBxCwzSxTjTRijixD9kyY0QDhBSQhgHsABRvbv8AsKCMz7EKsJZ9NroB3JYDq+2CqMMwgAoIogko0c9tTkMJkQjM4akATgwYAF+8YcqYEEYcAKomYA2kso4EIAIAkQsAcsEcs80cItQgME048yEANCm7iyyMiuW4xkU1VjBoQIg9doY8cYo0QAsMkqUgsE0S6M+CoG6sCOyaesKEYiWoIY4sskw4800IQsUQEUoUYMZccsYN9d5jqCmOO+Sc9EUgchVgAUAgNs04UsYUo8cM0gMEYwYkIhQgUq4JUMA2wvoIAg0LAOLiTTIbX7yeibOi7bjvt43P63d/br97+qG86y29hc4QMwIwge0wb0UMEAuEuCKaCUxzs8IMItQMYMspoJAgokQ4kkQgsK+AXlkU880gsbU9LbhLZ62TqLxbBXnfe6SO8C+8BkMk4RDkUsEkpEUsEUUe0AI8GuQ0G+Aqi8k4A+CAqtcoFUicMIoJcGI5mAUsAwckceYBrDpX0Omw02BjBlRGs+M+MMs4RcwQkk3o4oMqwkYgQUcQy8kcYw8NmytSEEwIccoTucAwk3BUbXnX4aqtzDMg2A6a4/n/ADkgxw9DwfeSbabKb/rvPmrFLKEKESNJKNBmHOLCOIGGzZepPLWCE0adwPDsAMwIPgNANFASHAHKKAFNsBANKALABpCJDAIiFLPOSMNIMFCCI/ppjriEHERXS+7plLgJHPiAIPPALLPFAhEPNOlHANCPDOPIsOPoHsJLM7OPgMBEieGIMAHMBvHCANMnHBIMIABUPGDGB3riglKLvRbDY+FJMHHBPPqLKDKMPMNWtJNHFAAlGDKDFPBNPFOEOPA6MMfAGiHX/aJtqk6zr7HP+fod+9+c8AA/YEOHO9igvia1uWfLOMCJ/LLLBOMH+yjNqEdz/wBb7oecjuCQhEkwSTuwQxBifByvgRbzhkSQDggdAgsDSzhx3zxyQmwgByAhTTNQprL/xAAC/9oADAMBAAIAAwAAABB+/wB2ugWokS8y6TwR25m7DDS8hRAbntsjrClB2XgQHnDPtnZldAw2DZbajwVPagJlHdR0iVaMYYWUvQ69A6de6CiPF7n/AL6R342xr2xf9nbMrKmhFvF/PkQ/6QJditnkEd6f73VA0z6G4VcUSd+7AlyE2b/fVXtOvMlEUDsoNBrCuBv46Xwy99+xfbSaXMVRg8+/5PNipuqkrhnNublafHoBjbBe1vusz8sS2yzaWVGYO0RQClzWe59R1MwQz/CsutmiZNlDhjiml0e0ny8683grFuR4BT3YfAdQqlKjjMJ/FY2fBnjqFgCoPWiL88AtK9adV67242+abjEsRbR0YYxRdtFQ3Alm3aKjjLlkviDMXXskATHnYsrz3V4twkwqsWH9Jutotu4xwBRid9D4KD0JK9w0YVb51KVxmhHoKBBZJTId404AcH2vHBtKHrhM2VDIisoDpw3W/kWXew97e2hp/qs/0B1mNzWsvuz27YTU90OHFsAiPF4/d2A/QvjHOjHMrKo4vPUOkkAcdrz1rIlrfPhLoCqLNtK7cc/x/wAzcnZstaB1loroqtReBZU6FpHYIyJIZviwoUkvJ24yspvttoh3eFeHWm1N2qGv8YzNcEMyzoxx6SJ4RLpURdxemYXfdMwj9NBlNwUop/teCce9p7LCjJWzkt4X6XYQZ95Av2oJfzHIBpoltd51+T1ufja+8l00QW4qSpYTghyK6uVPhrF1CD3b3zN1rpaeuxMahkkaW8ecN6opqYlVUMSXioUGMVoL/PM77x1jz7hcf+lPfrv+v6cFkHilX8sQrQaQ7l5xSZ4665oRaFD+dP0BQzTlVYmAfio3whQBbxiJuHJBoID9us+VCuD4auEa4M04C7Ft9nKkmz8sfNL02WevM28vUbC55GS4q4I34BbYI/bu4s+pELPcdwHOldn+qo5jy4YGAiR5Qf8ACfFZuldBshHfXz8EUYQ97DVPBsNpvllra+tj33pfN6+QW/u2yE+IssZs4G2oDXvzk6XSzhWV3/y6OD028qiO98h0YTHOLEFFJ5Z/BlHBD53kIi+WahCLrI5a4W9xcmvjavnRvkYmWNAGCIMRzAI0P6yFOvFzlBtKeozcXo0zwW2IgWaSamALBHRoypuiKiM/XV7amJpCSeLenITtzTnQ9RxF1WIrlX791WKWO66KY3O+C6O2y3OJOmSxIyLqbOEQr2mGe71myo7vQ8qZX0Ill+rN/wDR3vUk88yw9ZHqHoDRW+c1rx0SbSa2sR14A56IJIq+gn8qKmII6nnhgdmwvouYyryRGc5hqCh+7WqN464kvKkoVzbLoL2V/wBE8MO8P/hCqPK1H2kdvoquM9M/YSWGZqbZdpBQJxHBbwhyZCJyDype+IPMeVY4qZRfhKJiya65bgS7rzpxwKeCbSYpoS5WevgCfULjII/H79kvMc8CnZ6BaoEXVfz8lyZZwbqBAJhbYDjtgnp5N888EmALWn0rDfBOzUBwxrM4SKqJoz4hZ7QLrbCD+vXfIcT8AxJYj/NBoO9X/nhD4wN0Oit+xjARIpqDpT2oIoyUVrbcdsOyGezU0FueB/sPVab6cRZzRgQxOz4LZJgaCUDJU9Ff38aaxSKTOktPr9ZOMr6RYhFHbC4djIqh5USzRQV0WTEiB62/Oc+HMG19fxgaSOLzir7QKTi6buj4Q56iRCbyqLf8E5ugukloYRhfCVKQlNH09H4jLOUc0qJXTbjKBYoT4b4EYQZPKn0ftv8A44BMPP0WFferS6e2mVuKhX62qOoe+6PMLCmu8J8JurJBqNIyhviZnbVtJ9Ed24pdnTZBu6HIOYgqMM+iMyseE+fOqG6/KnT67A3XxQTwu802KssiJvW8p0iQxQEYvWnWjb37P71Q4kY7ifBtXTtZaQTmetToS7l3+gfWsEyxKCwUJkcgak7EmODOvDgCivozFwZB0xuWkqAI3CcsAnplq6WEku8kaPdBcfzQDN+8YuOwKLlOEaav7lvSnFZ3ICaSWOymIOaW5GHyefWYyrfPxH8PjOGeak1L6vr2mAA007GKumP/APxBlpBqWsBe6LD8Rl8/epuGPnsWxqAAEj7taiRffuuoFtnuqoCtrvFPoLhrcoYzz1e2vZnEyjigEVIuU74ZlLpmH80kQNqluPA1Q7x4eJH+Wn/j+zWT0Gx0WT4tt/OFyCkQwQO4v4W4IAKLtHH/ADRQRBeP28PFg2fNNAncHTMjTtrx7+VYRNv5MCwzot8cAifMkpaJxOXALlEmnnOZbSQ2QMH+CkK1lUapRYY+prRJJgJKA7QqbKc8Xv3xsoEYP1WN+Je/494bgobhgX+HOGfodqZEyeCm7UpAG6dOouyOnU8er7OtkFM64qyGWxL6x7aR6BBK4gqgA6yqa2hUNM7wYNnnAtNdIuCvPC/i4pYaq5xCaUOiktnZYIXbqXeCs4V2usIUcBOWtwjSMucBxLFHh/rbYxBMij4p5NQAtYQA3loyc/HQUsvK7os+xJ9ZxLlvSCMbjFChmwgYxVe02UlrDGdH4S3EN4t2lQ0EJC5t9Vy8E3jzKjoqSJrWBAJRBSoJSqazozEYq7/NWEYe5gdn2lmcAZ62q4HJyMZKPc1ZCvbM83gn64dJbCoJa7We1PcijDmH8isWkIB7Ibv7iLYyoqn6hcIJ24RD7pKi9U8sGuT8GLEgkmubgNIeA4nvbsZ6wAAnL8K5oqwOsMSbwY4iD8LmXX8Q7T72frOMs8qRCdySoeKvhEelNul/saYoftjEH/6HfqyQmQKxqi6St2OHTz8IDH4XdVw9fvvCWFGxSYIHaLyqZYt7wPHW8G9qMPIaE6ZgpQrpSr5yiDoDwmzzTZDfyzwmGs8ecjugBehRGItViJ5wKpy59logboPdabxjZ5BtLsabQHapRBjbo7bS7xYpHb475ACK4xobhbyVyS6ByZiTLTQsJyo3dcL0XVN6+TovNrtlnaqgrA64JwPiFBtwYHihDoalj4I6DJYD6KuGEhjRzZCjf5j07NPds37CeYrFFeRMvfDwtYYv9qJDXr6NEpZDdwbcgqp6B4qpT4+xmphncUGeTSex5saRRKarKhAYbWgbibuTqhxMYywl0cM3HekKNnJ8Dy0kz9Swa54zhRXpBD83f/cBm5B5R7PmSNV2ppiQgBLzvbIRLGrJr46Noxqn4yuqDmyxhR3j6D9FbgDdGcBgS9WTtzftSj9wBe57NId7SwPzI/0x+9C4ZCyMRG7s4P6ch1JTUQpzvQBvF9x/1LjHcYOni3l6Etyy+6+Ej+lPCVOKMgjgGNYm204mmtvnmveexStfnE3LRg+vnrLW6KBRp/TLrr7+45VKBwLq7l+Dho9k6/DAT9jKYCcE/o85EGcXHHVYgW/mZ/AYxAyD6DTk9gaQSUxA6DKqaZF4rwIGOO9RDjoyCJRCdTIVbzd+Apxw31SMuIW8UDa4EU7y793WVgTsk4a8/c7AE1ctm7F5zPirrRac8omfxUzheVH/AAA1WshCXXbiL+tKfFPtX0L6YLEae23FMfVI+YtFiMbA0NZ84+a1bS+2umkRTrmigFpn8neN4ess4Zk9pljNZO9rjzONFBfJW9LNUun69m+kIsTXrAHW6OKOMgrkg9MSmApluDEUK99QOgoBWpc7aqz+JGAQ26y2EOkKIUmAc6UIOcc+48KQI+6s/wASvYjzfcY+H7Kl1gh7HOTtaLuPElCYDGyGJNA48LvGOh8N46E/6s8yTz4EohvHorpmjuqbmqFOhPCsLD5LFnNO3EK4SL3QCbs1QW4/lnANvPXRsmA8P9ptOgITlmsShvaIYDnIDzqZF7MGvOBMKEDmCWOBEf602bJazSF3aSZGo2Sqn7Ur5n9eFM8+zpp0T/o5B6CCBhV3qQjtiox+7fj9elsRr7d+CWlbjGj4x0inAeJCAGmgorKlWbqL+iBqaaIiK8ShrIfihEnNxMEIP57UGUt7/wCZ5L+WtMtVAKcZ9RDbQ1UASqyof76wAg5Jh7IZDTWFSuDLpib/AKi0M+tsMK60v+gxdUMRXdc8F/ouCozfVRFS5xMbSVvMi+wDassQbvaNVwekukwwq9AeekggPst2k0EEcK+wC8IaIi9DIgTOka6CuyC3ZSeqBgdRWOc+L5KAaDPz79kNRt8ySBL9851SYEyYcWahD2jDhKGj6uxmQIiWx62KS3EKGGEsNRS6kH+64uiwEV5SMkC8Y+EFe84gIiYcOpkKAsagA0oeRy2Ra8JOePbahSKf30fqKm457EEigsCo8qEcK+9/dEyW2CWXHjDC/CSq2m6IuCXqoU6cwic0CYMWk22k+Aga48vwsCOTrHlTCyFATvOatgigod54w+J0vsESQ8mkE+IFOs8K88KIoxkYeGovgIge0RCQuimnaQTAxheVBN88EjUIGtBDPi11IhH3LDtLW0kOvqOXlQSg4MQ/CdPCN6OSmmAmwoQgAkjlsUyG2vOmGKELkvOYGGIEuIuK0YAiZDYqqAO+kdWHdVDW3o8Jg9vB35PpiaT/APDt7i+vtvm1U1qulvXPD2bQ4tdBHTHkFuuvE30mFc0yqPydiM8vvNDVvzLOm1AkABhWqsOOuwZ7zAvKKkNBTZ71BrPAw8NHavcBIIAMTb5pF6uFAlIXIH1XLLpYO7hrcyVmFQnUDchDmhkU0gXVSQqDK4fUhiCpJGhb+eHJe5XtX17y218LQcmQwdxPctIPk3PomAnIxrqhkr5pY6yBms3MqUy7XNhHgkbjqINLLCA6DYuGEgFBFIHuaLpNIDSVnIuB+viB9CMmLImLFYmGc0yYFm74wYQEisCtniDOEvdELDHmUkoEAuqEoBRWDKiIioPoH3PDQj6N6CFNEUNvFWgMgI4NtjlHuAtrioG/juzkFghJTfaOq2ZE0eNitshoBqMEOpYJrUN8lIBKEvMosDLPNEJGFuABiHNZgt0pyNlxT6NNIK4eKZlhT+Da1444elkawog7KSi2f2S6l4bDntOBLlmmgosXX4OrNuz9QfFCIzeqQWulzwgnqfisgNLViJQPWALK+IPsIPaHDXACnuv1ghiP7AElbGo6oYA28f/EACsRAAICAgICAQQDAQADAQEAAAABEBEhMQJBIFFhEjAycQMigUIzU8GRof/aAAgBAgEBPwBy9cSmJM6GmUynTKZTEmUymJMfFn0sSaPpfofFiTsfFlMp2fSUxLJTKYlkplMoor5EmV8oS+RLcV8lYZXyUvZinkx7FXsxRS9mClSKRgrJS+TA6xsx8mB0mUjHodWYFVjotehNXoteoVRfwL9Rj1Nl4RZfwjpFlnN5X6UKc+DeFO0NwtOGLuU5W5WxwtytytyhQlK7lanpz1/svSHHShD6hHKEclmW8wvJeXS8ue1+lGKrwUIf4cRR15KVK3K3K2pW5W4Qtyp9iEhac9Of+Z6UvSKhy5e5ccdytyprDnqelPPr9fYQ1fBFMplOhplMScUJPIkyhJ2UyisoplMVlMpiTtFFCWTULY0UKvZj2UvYq9ox7Rj2KvYkvYq9irOSl7MFGIxRgx8lr5L4/JaG00i0WjFIx6LGWvRa9Dqy16Meh70izjtFl/CExX6hPZcWWxNluhWZKbRz4PhX/wDS2c/+f15dwh/ipWpUrcrcralbUrqVvwccdxYtzx3CFK05vDnqekKLwpfUty9wtqVsykMQj+XiuP012hRw/wDFzx6jjyfHR/M75LktM/gaX8iuqP5OPDn/AFfuz+RJc+VLFnLXH9fYR/wpvD8LcLcrcraGhnalbQ1C3Palblbnj3KKcLsuOnPU9eXSFuOW4Q4SzK2XaRzq8Cj6n9NTx5PjpHuOXJ8muji6pj/l5vn9Vuzk3ybbRy1w/X2a/qimUxcWfSxJiTKZTKyNMpiTsplM4p2hrJXyhIor5QlFCUV8i2il7MYyKrRgx7ElezHspexV7MFcfYkjBj5E+NMtGDFGDBijBSMUsGPRa9GKWC16L+C8LCL+CxvWIsbG/hFjbssTyWy2JstlsT2Wy2W6Zn2y2dFw/wAeHgzHuEI/4/2Vpyp7lbFC2pW0di2IaMnaHuFtStqU8ytypUrT8UP8f9npT6l9Qh7HDhPKEs7H/FX/AHxFK8OKTeXRzXFLjTTOhw/w4+TlfipWoYlK2hOFtStoahShwh7iooSyioSyKOO5UMUIWmVC1NYmsKXpS5e5e3FZhi2UUxJjVmfRmngoyU6KZTH+HHzUL8SmJP0U6KZTEmimUxJ2jJkSdoplFZQ1nZXyiihIoayV8oX7MPsx7FRS9mPZxq9lL2Y9iSsSRj5FVmD+vyYHRgX0mPRj0KqeC16Mei1Wi16LXo60X8F/BeCyy8Iv4RbLLZbG2WxtjbstibstlsTdlsVivwbhal/gv35ZFH/Lnpyv/g3C3CYtytjnty9vwuHuFse4X5KVsvxUrT8bE8T1PSm8KXL3C3K3HHl/H9PK+LWJr+Glnlr0JSlif+F+xyzHgl/RylhypW1PcPkXbQ5eGX8FjWZcIe3C3DOP5KV9lT1PU9S9KawpahpjuymJZKZkSdlMpiTKZTKZTKZWGUUyv6L9j80L8WUymU8lP0ymK7GmUxLJRQk7iis7Q9lGPY1llFfI6vZgx7GlbyY9ir2NKzAqh0KrQq9M/r8iq9F8THowMtehUJq9GPQn8F/CL+C8PBfwjfQngssvEWxvCLZbLdItn1MtlstjbuXuFuKdJi3K8v8Aj/R/YX4uV3KlbXg9ih7cvZcN5cvbhbLy4WxrIzj+SlYa8l5LTlaY46l6npS+hw57PoX/ALOJpnB8E2+SbHz/AI3wwnvAtnFcW8ukPj/D/wCx/wD55r/xv9/YTFji5U9xYtrwby55bZgY5ctliasbyy4e2M4/khxx2vLipUruVpz1L/FTTpFMpjTwU/RT9DTsp+mUxp2UxJ2imU6FxdlQkUV8oS+UOvZS9i/B/uF58dMp+hJiTKZTFxyUymJOynFDWdlfKK+UPZXyY9lK9mPZS9jq9mPZj2OrP6/Iq+R1Z/UVDq2No4vjaHVmPQmrWC16LXox6HXov4FyS6Pq+D6vhF/CPq+EfV8IXLDPqPqFywz62fWz63R9TPrZbrZb9stl4Rb9stjbxL8VscLcruErTfgvwcLxULXIbLE8zx2hqO/By9whlMp+hy4Q9y9uOO0PbhbUrcoQhdyvsM6npT6hjHCb48rQ+b5Ypf4oeyhLMrccforknaGktO5X4vyU8fxf6lStynnxpIv4HPLbLMjUscPcLY9uFuVuVscLcIW5SKKYlhlMSZWGVCT9Mp+mJP0fS6RTKY08H0soaeCmUxqK+UNZ2V8oW9lfJXyUYMCowUvYkq5fZWmUUxJlMpiTtFFOysoayyivlDWSivlFK9mPZj2Or2UvZS9j2Yh0Y+TA6swY9HKreDHoTV6LXotei1ejHosvJyedDedITzpFi5MTdlstlstlsTdM+p+y37LdMbZbOoTOlL6hsfXk4TlSnPHXL9edxw1yLcKeO14PblvLljh7ly9y9ueW3ClbHtwtnKFueO4QpWnN4c9CUdS9KX1Ll+K2OFPHXL9eOJ6OOnCFuGLaGo7O2WNjly14Y9Q0pcuEpWxwtjhLMrcrcrTjPoSdMp+in6FxdMXFlM+hn0s+llOkNFFayiihrWUV8ox7GlezHsx7KV7KXsVWsmDAqKRgVVy/X2eOmUUxJ2Uz6WLi01gadlMSGsi0UNGPZS9jSvcY9jq9lL2UhriY+TAzB/UdXotejHodXoTXox6HRa9F5Lyy/gsbyJmR3CbstlsTZb9lv2J/I2/ZbOnCFpz1L0h/YcuFscKePf68nPHTlXexR2pQ9yxw/GhpTyUvctQlke4Wx7cLcIWxwtwvBSpSxPUvSnpeTKhwtwjuePf6ivDuePcrcYFsadn0lZWR7ZUOXL6lzyi/g5S1kSEPcvbmhC3DRxWRplMSZT9Mpi4s+l+j6H6Fx3hn0splOmUyinQ1HRRXyjpRj2Yxkx7MGDBgdXswYMWYFVmDBw/L/PNiOPZTKYlkyUxJlMpiQ9lQ1kx7Meyl7MexUY9mDBgwYMGPRg5JCp9FIdei16ExvI3DeWWy2WWK7LY+TE3Zb9lsTzuUXFz05WnPQ468n149nbhbnh+X2EcO/wBFv3HcM7Q47Hty5cuEOXPKXuXueW3Hcpzw/JStyt+KE5WnPU9Kel9lx2p/j/JfZ4rf6lblbQ4Q4Q5cvoTEOXLl7Kjlscctwtj2OGUxXaGmUxJ+imNM4pj4sSZ9LKcJbKGisbjHs6ijFbMGDFIxGCkUh0YMDqzHoVXoxHD8l5qOPZRQimUyngplMoayVHcUUvZj2YHWMmDBgtFodFr0WvQ3rBa9F/A3kv4LGWWxt2Wy2Nuz6mWxvJbOLdrLG3nMLAoW4S8F2X49eXS8nLntxw/JD39jj3CbE8+bly9y5vQnDcuXL2XD8UzsbFscVmGLcqGLuUOOpqekMR1L6HDlxw/JD2/NHHv9StwhbQ1CHL3Ll9S+pb1LlzyeZ5bljFY4V2hlMSdlP0fSzinY0ynNCRRQkV8lRgpezFOKRijBgxSMfMNrBai16l1eoTysHLbH58NytlFMpjTKZTGtlfKKKyV8lL2NGPZj2OjAqHWCkYL1gssfLWD6vg+r4Hy1guz6mN6LZY27E2WxvJbLY7vZkt3st24TzFi3K3Kn39nqep6Xk44/kjltw/Lhtlsz7YjMdocvcd+b6jo6Uvo6UN6j0PoWxPI5exw4Q47lblblblSl9zqepfUsYto5/k/G547nuVtDhbHLWZfU+hVD8GsKOo6H0U4dYzLWYTGrKZ/g07jPpjTspiTsaZTEnZR9LEslQlkr5hGPfhS9lKnCoxRgtGKnFItei16HXqLiy8o5/ky5ydqeO5WyimJFMopjKKKK+YdFL2UhpGDBiLXobXowf4PrB/hZepfLRZbG2Wy2Mt+2Wx7l7cLcrcrcpW5Sldyu/Lqep9S+oWz+T8nC8uGxMbFdxmHLlwh9S+i4rAxj0pYtjWB9CcPoQkPqeShD3C8lsW47niOFKUry6nqFDEPqef5fY4bFC35IcuXL6npDhoaEcuoY+o2clqXCRy2ihJj2Uyn6Ppdn0s+ljTPpYllFFfIl8oa+ShdFCS9ir2YFXsVe4wKj+vyY+RUYMejFaLXosdJLBa9F/BpIv4RY3rCL+EWzm8/Y47lblFZKZTGmUUNFL3GIwYpZFXyKr7FWDBaG16PqXodVo5dCZY+i/hH1Mb0WXQ2y2Lk8ZOTeDPtlv2Nu4oexsQ1lwtj3CHuFs7cLY4XcqdJytOXpT1COlPPf+S/HjstlsWy/Jy3kcOX1N4Q46UdD6FsY5vCjY+jsRy6lzy3CGtlQ+/3C3K3K2OFCFHQu4Ypc9T0p59frwz4cNytz6H5qH1COlPSHHqX/APBDGp6UvoqH0KGnjBT9GRp2fSxJjWSoazsr5UOFuVVjqEYMCox8za9Fr0Yp4LXoVRZZeEWWXhFls5vX6+xw3K8HFMatlMoa1lFfMPopeyl7MUjBgtUtmIxRa9Fr0Nqlgv4RZeEWWO6RZbG3gtlsbeC2Wx9TyheDlwtocLcrcr7K1L1Pqef/AD+vscC2WLZbLZbsey3DeZfUvqXpS9KekOLwpelL0pfU9KX1L3LKEMqHCHtjFuVuVKlLc9T1PRy3HPXD9eGffhx3K34OXCHLWp9DisKXpS9IUPSl6RWI6Nw0zPqGng+ln0saeD6WUxqxI0xrJXyivlDWdlfJXyNZhJex1ZSEqayUjEYMCox6LXoTXotei/hCZZZeItlukNuy2ctcfDPhx3K3KinDTKZTKK+UV8jXzCr2VhFL2ykYpbMGBtFr0WvQ6pF/Bfwi8LBfwobLwWxt4LZbG9ZE37Zn2x9Qh9Qhi2js5blxQ9+Poe4W5Qx0LuepWprA4f48fDMo47ixPJbLZbiy2OXLl6U9Kawp6HHSl6R1D6FqH1L6KhwlC2NZY5ZdQ/BbhwtypRfj0XCl/jxhyp47ntStjlwkx9eT0prCnqepelC2M0o6F3D0pa0UxpmSmJYK0UNDRRQ/2UvZS9jq9zSvYqFQ6uFVjotehNWY9Fr0J/BZfwJliHobZbLwNstj/Dj9jjtSt+DimUymUxlDRWslfJgxGDFIwWi1SMRilPSLLLLwo6RbLZmi2W/bLwi3D6ix9S+pcvf2FuVuVKnacV4P8F+/DHhx2Y9ReSyyxt2WWO735dKep6GhOHHU9Kep6hHU9KXpS+oofUvqXLlwtjjuVuV3PTmmUJOx/gv39jjuVv7Tl9T1PU9T1L0pelL0p6mmUymO6WGUymNaKPpGsFFKo/0pD2Y9lL2NIdexU2OrMGKHUYsx6LFsssTyWW2Z9lsu0Wdw/wAP9ivFHHcrxpRs/wAKGmUyvlDWoqcGKRgwYpbMGDFIwWvRilgtei/gvCwWWXhFstlukW46hOnDj0M6Ooeh9DFLHCHLExFMTFsZR2Ojjs2x7OMJ4cV/T/fJxx2puLm2Wxstlj6n1L0p6l6Q46HHU9Kei46li0dykPoYmeoekdIYlk5blwuxx15JW5W5uOJWGIaP+f8AfscFmVvwfl6nqXpT1PU9RR1PXlWEM6hR0UymNMpiNS4Q9mIqFSHRgwY8UN/BYi2WxNlssTcr8X+/FTx2pXg1kahxT9MzSKZQ1FHSKilW4pRj0y18mKRiMUjEWq0X8Fl4RZZbotlvwzRbjqepelL6l9S+vsLY+4W47F5cV/R/tfY47Q9xibGx2Wxtlvx6nqepvEvU/wDKm56nqep6UI6hWPSjorC8ulCH1LH4LwcJRUUymVXDl9jjse3C8Ghw4Xh0VD1L1PU9Qzqep6nqepp0imUynSKZTKdFMoekVHSK+RV7KwjHsVDMfM2vRaLXos/weyyxt3CsbZbFK/B/Y47Q9uF4OXtFCmsHSKKKdDRRWEUUdCopRgdGKMQ6rRj0XNmaLZbLcW/bLdItxeFPSnqepelLep9eTeYUrfktcvH/xAAgEQEAAQUBAQEBAQEAAAAAAAABIAAQETBAQSExUFGB/9oACAEDAQE/AK8msckVk6CmOaYrHLwmorOgKNJpxEpk9+LHC39li5Zo0n7z/dBwMnQcxb7HJWa9LZs7mPlNNMG5r+3+0lY1kCGKxrI/JMWzd0smizQWbvWWdRoKJlFyOG/tiDqaOo2F2zzZzRt8rNLd1uhkcZNO5sU8zcuRdJd5GZLFvdflOxius4He2yWXcUW9hmzdj84Hccxw+6STrxB2prIEy7/B9v8A5TZYGki6DgdbzZuSC3t22aeApsa8cLA4XQV7REgacambJ0vAb1Mavb5l+sDQwPymTYkUaluydp3tDWbLsGLpdbxJA4XT7dk9RI1MDUcBTchiBS0wxZrGk/Njw53+WNjs+WaaLLfO00+TxElnSczJtmBTcizCLpa8k2SBF0ljrZv2DoPzQzIG8s6s780RZMfn+N/l82zWbDWbH5qGf3c6X+CwSLWLJM4jSfzmOG+abuhpomSINDxZhnabCRZk0JBrMD8guliXeR4jeQy0XYtymj81Ogr7csa3heVlm7FjnW0RPyBcgTbt2s9f2DpYFKXLfcSLkDZ6Rxoxdog9hMaYFFYgfkigoKO/NPWX8Lnksyz8ufhIkamzRc3lMcTYFmzIokfkPsiI/YESJDDWLYti2OQk8JIuavlN2xTpaLefwXu8o2tj9po1Ok4TQ3bNO8uavlZi2Gs3K8mTLFyB+62LxOnGk0OxsO40NHWRNZAuXbJMgWOBiSNJZb5gflZ2uto/NCbS7Qw+05jjUFwmXeQiaTQ6MRLlMfW+HeWIG53mkh/2DEiHy4ajvYFnZh1BbM807l5cXCsWD+Q0WLFNYo3hLFyJM0Fis7/vB7pI5j5Bhl2GosbnW3NTdmW9dDqPzRmi5AzpxE3sHgYmjBLG45SfzhIvFn7sD5Zl5I6FsdxbEG2Le6GIwyXzAuc+NBqxqeFixxu90NGouTz/AAC2aa9uxbt8UXMXI+aveguSK+6C5RbEUsV7NKbfdH4XzbOxmaCBsNTYp+2LkcWK+Z0JJokXGijcdBwOpor3QtHJnjNbFsaPsWJWKTQRIsVKGmskCnY1jgKDnKdrcrBpxBD+U7feT5k0PMdB+0On2H3fgmWf2H2xZu3dK0X9K93sMFNvKxLGkn5E3Ni//8QAPxAAAAQCBgcHAwMEAgMBAQEAAAECAxEgEhMxMlJxECEzUVNykQQiI0FigaFCQ2E0QIIUY5KxMMEFJPBEotH/2gAIAQEAAT8Cm7T+sa9pn9kvIFZMxcPmOZO2c9pj2qcjmXtGs5nPo5pnTuc0zn05ywDkKTeYgICGlW2Rkc33/wCEze1d9pm/q5j0x0tbNMrtwzHfBI1xMKTEghZt91Rat4N0vIKSZpI/yCWaNSiClxu6xQ1AiouaFalZkCM1J1QDbdHMOeRwCDSKSS+ogk0E8rvFrIhWN409RWtcRPUKcarNonqKbVO+nqK9niJCHmiW5FZa1ah/UM4hXI8jH9Q3v+DFe1v+DFc3vP8AxMNvIoFb0MRbpR7+VExXI9X+JgltEZwJX+JhaknrIlf4mHHCoxoqiX4CVl5pX/iEwI4khzKiDOJxoL6Ct9C+grP7a+gNREaTql2isPhq+AuksoVavgIVAoHaKao3RSXwz6ik5WJ8Py3g6RlA2o+4JuH2/kUncBdQ7WGVyz8hK3N0fcRcMnPD894aWdHVrONgWcXDzBJfQolITD3B9pxIgYQvs53iFamh3NZxsHi4S6jxdyQtl3WZQyDKHU+RBdbqu2jxfSIO0vpEHd6RB3EkQdxJ6AycrE95Nm4UXcRdBRdxl0FFzH8CivEKK8fwOzbd6XtJ3SDBd3/j7Xq7U17Csd4J9SFY9wD6isd4B9SFY5wT6kKxzgn1IPrWbSyNoy1AnF8JXwKxzgq+BWL4C/gVi+Cv4Fa5wV/ArV8FXwG3FQPw1WisVwlisVwlitVwlitVw1CtVwlgnFVq/DV5CsVw1itPhLFargrFafCWKw+GoG54heGoVx8JYrVcJYrT4SxWnw1itPhLC3TpNxbXaK4+EsViuEsVx8FYrD4axWq4Sw44fd8NVorVcJYrVcJfwK1fBUKxfBX8CtVwV/AdcVBPgqLvEK5fBV8Ctc4KvgVrnAUK1zgqFY5wVfAccc7vhHaK1zgmK1zgmKx3gn1IVjvBPqKx7g/IUtyKItQ17xWPcL5FPtHBL/IU3uEXUUn+Gn/IUu0cMv8AIKU9WI7ieoj2jCjqI9owo6iPaNyeo/8AZ3IH/tegf+xWfRYP/Y3oEO1YkdB/7GJHQQ7RjR0FHtONHQJJ+sX3kx89Qo9o4qf8RQf4pf4ig9xv/wCRQd4v/wDIoPcb/wDkghDve8bz3EKDvHPoQq3eOroQqnOOroQqV8dfwKpcNuv4DbSqBeKv4FSrjLFUfGc6ip/uudRU/wBxzqFs9xR1jlmIJZiku+5/kKgsbn+ZioRiX/kY/p0b1/5GP6VncfUw6wgkFbeL6jH9M1Cw+o/pmcPyP6drAP6dnAP6ZjADabQoqJQiENNqM6SSMf07HDSKhnhp6CoawEKpvAnoKpusuFZuFWjCXQUE4SFFOEhRLcQgQbLvu83/AFohI2UEwlVdOZf056TSR+QItB3yykMgpC0ayFecFFC0Nq1+4hF08xSo2iJRhEjDqe+YQhEC1SrsLOY76Zmf1L0q1U3DgElAiL/j7X+qZBSv7FfKEXUzM/XzHMW2VylMraI95llrRnM4USTzFM9dTzFM79PNM5CLeczm0a95vvlyzJ27mRTJPWvOZm5K5s15GEXSyleue5f7mdvN+4aVSWqX7ntMjaO5l/qZm77nKu6YKyVyws5jvFMSEmpcS8w+kiIoBfZyXriP6czvKiNSFQIOa1mEXSlcs95lXkzNfqnZH10UQ8zHZ0ROP/J2z9QzM7cVkEXUzNx7/MYdeJv8nuFZ2nhhPaTI4LKAI4lo+8fKWmMe0Jz0nfRoMyIomYQ4lcYaXPo5pVLSm0LPuoMsRaUOUohSkptPQ9cLmKWIe+nmLQ4uAqlK1qUel36OaZy+iWI+8XLMW3XkQsKIbepnCRu1zmmauaTUQpkHNmrIN7NOWg7Ai+eh7Z+5f7mcvtZnN9z+MyNq7mX+pmbvucq7qsgmyVywuYpjvJmTeWHEUy0uIpF+QhpVKJhu4WUq7syr6PeZH6xzScYagbLqld4wlJJKBf8AJ27bMzObNWQbuJyBSp+vMF3SNwyCTpJI94daS4mBjs6zQurOzR98+XSkv/YLSq8jQ/rMiDJQd1aXfo5pFKokCI3Fh0u4nmLSlVBwyMPKpqDJxbTkO0XC5i0qUlNpinWHAjgKBB1JQLmLQXeckd+jmmcvt+8x7ZOUyS8deRaExQ8Ujd5zOZm776Fq8glJQDqComPtnkGtmnLQsN3tD2z9y0mcApUSDZmaQ5ea5v8ArSpR2EDpF56PvFy6HAVgplSo6E7Zz2masPmP/cq7p5BNhSu3S5imVfR7zJ2i/aZu4Urlw5lXkzJ/WrympAj0REZ+37RkFKu4rINbNGUxFGsL8h9Pghk4tJ0OF/7Cc9H3/wCOk0QcpFpXeRoNJHaQLuulpd+3zSOIpEEOEjUZB0+4XMWlbSV2ioQSTgGFazSYfue5aVJSdpB1qj3iDRmaCiHrvuQVdMM3jC30lqLWYLtWvWnUCOJRD30c0zl9rOZe2RynMW2Vylo7RqMjIFZpReczmaunmf8AvRR1CmpC4GVtgjTVDqDunkGdmjLQZBG00PbI/bSZRCi7gaUUIGYcVFTZFiHlpWWuOj7qeXQaSMhQ/ITtNCds57SRLQ1YfMcqrp5BF0spXLvuUyr6PeZO0X7TN3Sld2agVkqrU5zF+tVlKpREDVEJjDUO8YoCgU/b7WQVkqrqsgxsm+Upm77mYUUUmQ7Mrumg/I9CDrHzPyLR9/8AjMu83npdapaytBOPlqoxCTeM9ZEQd+jmKRwzItQJCln3rA7cKG8pVM64kYdJdDWqOsgWhThEdoNRunqsBFAoB657kPIOIUnWQQbibG4iqW4cVagkiSkiIPWJ5imcvtZzK2zeRzFtj5S0PFFIZVFBaUbR3PQs4AowHe3CP4CFEKRCIMknaUSCW0JulAHYGj8NGQiKSd4NPfpEsoCmnEQdWigfeLqCdbhfT1Fa1xE9RXNcRPUVzXET1B1EdoXULWyVXBRalCvaxkK9nGK9rGDcaM74rm9/wYN1FYm2zcK5H56GK5Hq/wATFcncroYVRMyPX0Fb6VdASvEUcDsIVp4FCsPAoU1cNfwKR8JfwKauCr4Da1QV4SrT3Cm5wT6kKbnC+RTc4XyCW5w/kKU7A/D+Qg3aKe4Vm8Re4af8hF3AnqIvYE9R4uFPUOVtCxPkPF9I8X0jxvQPF3pEHd6QqtpI1ptEHcSegg7iT0EHMRdBB3GXQUXcZdAROVqu/wCReQouY/gUXMfwKLnE+BRXj+BRXxPgNJXR2h2mKC+IfwKtXFP4FA8ZigriGHGzq1eIqwE2cNooUDxqFX61Cq9SuoqvUrqFN3e8q3eKv8q6g0pKGs+oqk71dRVl+eoq0/nqCKj2yH40qOBCktQJs/MUS/4//IfbBOnDZLFarhLFafDWK0+GsVquEsG6dE/DWGXDJtPhqsFcrhLFafCWK0+GsVp8NYrT4aghw6bncVaK4+EsLJVKmlKiMKX2lRGRNw/IbOgmiTaxWHw1A1nXF3FXRWK4agTiuGoGtXk2oViuEv4FYrhLC3FUm/DVaKauGoViuEr4FYrhKFYrgq+BWL4KvgOrXBPhKvEKa+EoU3OEfwKbnCPqQpucI+opucI+odUuhs/MhTchsvkUnOH8im7wvkU3eF8im7wvkPKdoHFuHuKbvC+RSe4ZdRBZ66ouoi95Nl1FJ/hl1Dpu0daSt3ik/gT1B1x/QnqIv4E9RF/CnqI9owo6h2vgUaNpD/2PQIdo9Ag/vSKPaN6BQ7RiR0DiXoo75W6tQodo4iegoP8AELoKt/il/iKp7i/AqnuN8BTblNHib/IVTnFPoKlzjH0IVK+Mr4FUvjK+BVK4y/gVZ10Kxd38A2j4qxUnxFirNKr6oCp/uL6ip9a+oS0VY53ldRUJxL/yFQnerqEsoPzV1MVCPV/kYqEfnqYbZbOMSO3eKhrCKhvcKhvcP6dvcQ/p29fdIIZQaS7iRVN8NPQVaOGXQVTfDT0FW3wy6BaEUD7hAkowF0HdwiCcI1YR7B1MaGr6hAxrEDEBAKLxEZGIEIEIaS26+Upmvucxy+Qa2aMpXbhzLtRnopo3yfcPKZuw8zlXdVkE2aDUlN4yIEojKJaF/TmEuEZGZ6oBB01G6qwrCCVEotWlf60sv2P/AJCxvMJullKdhjs+xToNREWsV6AhaVWHoTtHPbQsFZpPbo5TmXa3nM9YXMUztw5n9kqZ7Zn7TPXS5imdtb55lbRHvMe3/hoWuAQg7T0p2i9JalaW/q5j0xKzSxskZCEjmzVkCsldsTzFMvaN++kwk+9o++fIUzdrnNMycWkZSuXDmVanMK1pgENIQUCIJ1HDT90+XSlzxFJ0t/VzHpcpnqT1DClU3UmcYWGF3FZBF0stCOzlGk73lDsh91fNoc+nMdoVA6PkFqggkEGXCJr8hpymmOhz9YnL9j/5G63mG7icpmNkWh0yNfesIFr1GgOIUg4pDaqaYhO0V7BS0pLWYV2lk/qBdoZL6yCH23DglWhW2RynM4ez5pn7pcxTPbM5EpgZgw/sVApX9mYLSt1CLTCu1n5EFdrcVqiQLtbxK3/gJ1kUj32+eZd9EytsXKFHBIbKkcZE7VftpOBawlZHob+rm0rvgtDGzTK7s15ArJXbpcxTKvo99B6hTH5BGPvnyTIvOc03Z41SMpXLigUq/ozCVRj+NB2lp+9/HQZwGtKqf50o+rPSeojMdmumrEYVdVkG7ictJ+D2gjK6u0tC7CzD7JrgZe4QlKe8rXhSO83TSZa1BtJJQRaHf1bf7H/yBeGjMNbNHKU3Z9mWhzUvWCsCyikx2aw8wW1XkQe7PT1kZhXZDxAuz7x2ZKELunE9Cts3kcz32+aZ657lM9s1SmH9krIFYUr5eGZkCs0uNJWE9jTS1nEOoSTeovMgREXlK9YjnKZd9uUwe3TyiASkkyFtV5FpUcQruwMEcSDdq+bS4ZHrBdoR+QhwlKDOzKVd1WQKwpXbv8imVeR7yLvaP/0fw/7mRfc5v+pmdmmVdxWQTZKv6cwojQ5S8jtBBJ0ln+NJ7UuXStBKQaT8wySybJK7S0JtVnJ/TuIM6tyCTBJgmAa2actCiOicLQTLi1pNxWpPlocs9yCyM0GRBns9A6Sjir/QcaS4WsMpNJQNUdD/AOpa/Y/+Q2RcwZ2SOUpmNn7nocbpEGnYdxdvkHXEpQesdmKCMwW1XkWhQSRCBaF7Zr3me1knmIEmHmcr1z3KZ7ZLylL8h7ZKyBWFK9slApXrnSZ6xHOUyryJj26eU5ihWqyLS4VEiClxIggu6QbvOc2lTZQOAQhJ2kEpIgxsylVYYKyV25/Iv9zKvIzkcIJsEPHLlmRfdz/60HIxsylcuKyBWSq8sxqMVcLDCEJQUC0/dLKZN9zPTERESDOzRkIiJbxEt4pFvDqk0OgppxEKad5CsRiIViMRCsRiIPqI32oH+x/8hsS5gzsW+Upuz7P+R6VISu0gTDRHGjoLaqyLQYLS5tWveZ2xPMUz2z9ykM4aHtmrIeUhh3Wy5kCuyvbNQKwpX9mcz11PMUy7zechmIhW3Ryno1CJCJCJAj8ZWRCkW8U04iC1I3kKDOrvfIrG8aeoQ4ikvvlbvFY3jT1Fa3jT1Fc1xE9RXM409RXNcRIadaJMKQr28Qr2sQrm9/wYrkfnoFPJoneswmEPJgWpX+JitTuX/iYrS3L6Ct9K+grfQvoHHO7cX0Fb/bWKw+GsVh8NXwKauEr4FNXCV8Ba1xb8M7d5Ckvhn1FJzh/IpOcL5Cqwy2fyE1vDLqDN2tLupu7xF7An/IRewp6iL25PUeNuSPH9HyEV1Nd20eN6B4u9PQeLvT0EHsSegg/jT0DRO0b/AMCi7xPgETvE+BRc4nwKC+J8BaF0FeKdm4glCoF4hiieMxVnxVfAoHjUKB4zDiDgXfVaQq/WrqKHqMVfqV1FX+VdRVl+eoU2VanWqw/MVRb1dTFWn89RVp/PUVSPz1FS3uCW0UnNXmKlrCKpvCKlvCQqm8BCqbwEGWm6BdwhVN4SFW3hIVbeAhQSX0kHEJoHqFFO4hAtwop3CBbhAh2qFazn+x7fsfcMvFVI7i7Nwr/QvoK30L6Cu/tr6Cu/tr6Cu/tr6BlyCTKrVeMVp8NYrT4axWHw1CsPhqFYfDUCcOtV4arCFYrhL+BWHw1CsVwlAlq4SvgU18JQW4qm14Sgbxla2fwC7RSMyJBisXwjFNcNmYpr4Zh1bkE+F9W8U3OF8glu8L5FN3hfIpvcP/8AoUnuH8h1TtWqKC6gjchcLqKT3DLqIvYE9RF7AnqIv4E9Q5XVaopTZvBG/Au6jqIv4UdR425AM3tyRF/0hdfQVGjYEV9EroOu3oCVOnYpA8f0CD+9IcJ2gqKk9ARPmV5PQUX8aegovYy6Cg9jLoKD3ELoHUO0DivVkCbd4vwKtzin0FWvin0IVa+KfwKtXFV8B1s4F4irSFUfEUKr+4sVX9xQqfWvqKksa+ocaKKNard4qU4ldTFSner/ACMGynerqKhH56iob/PUGyisQUPIxUNYR/TtYR/Ts4CFQzgIf07PDIVLVafcKwVDOAhUtcNIW0iGpJBLTeAhVt4C6BCExXqK0UU7iEC3ENWlm57nKu6rIN3E5Sv7M/YFK5a3zf8AUytsnlmTtHPbQcjN33P/AHKqwwmwpXLPcplbVGRzFfXM1cKVepJzdrvs5/se37H3Idm2DeUzF1XOemJF56fvq5Cmd2jOZjtJdwdntUe4Eel26WZTPbNUzuyXkE2FlpPQ5s15Bu4nIGUSCTovF00u7NeQTdKV0vDMeUr10uYpl2pzmVtUZHN908i0uhBxToK8qZqw8z0U07xSLfoVdMNbNOUr+zMFojpX9HNMca1PKcydq57aDBaWrp8x6S0HYYRdLKVy77lMraI95ivrmau+56VLOsQnfocuKyBS9s+0f5/Y9u2B5kOzbBvKZmxfOentB96ARdLR90+WZ4yI2lHiDy0mjUYYUlJqiYS+ilCIJwhTDtz+RTPbNUzpeGvIJsKV3ZryDWzTlofKBx/IPtiShAh/XIwmDcQ40qB+QTdTpLQ7s1DylfuFzFM59HNoORe1byOb738dLoZuFoK8qZvz5jB6wbJ7wbKvwDaX5EEkom+8cTDWzTlK/slaTSqAJStYpmFa6HNMe1Rkcydq57aD8pGbFcxynYYbuJyldu+5aFoUd1cBR7VG8QL+oI9dHQu+37zFtFe0zVh5noWypTtOmYNpymXfPMJIyLWcQ5cVkCsl7bY3mC/Ydu/Tq9h2T9O3lMx9znPSvvPafvHyzPopVZb1BfZVI10wSFqUcAz2U6cVnZ5Aklu0PXPcpntmrIFZK5s15BF1OUrmzVkGtmnLR2pIZ7O2pBGY/pmcIqUIbXDcEXU5Su7NQKyV657lMv6c5l7Rv3m+97aXQzcLQV9UzX1cxy+Qa2aZXdmsFZK5qocxTK2reRzJ2y8i0HbI19fMczezTlK5dmXfRMW0VlM1YeZyrumE2FL224jMFZ+w7d+nV7Dsn6dEzP3Oc9LRRey0/eLlmdtb5g4UUGOz6nxDvaXrnuUz2yXkCslc2a8gi4nKVdxWQZ2aMtDjdMg3WN900xIeQc2a8g3s05SvbJeQKwRkf2fuQIREdK/pzmXtG/eY9t/HS6GrhaCvqma+rmOZrZple2S8gVkrtieYplbRv30np+8rlLR5yN/XzHM1s05SuH3T0xFIt4pFvC1FSRr8xTTiIU0Yi6imjEQrEYiFY3iIViaw9ZWCsRiIViMQrUYhWo3itb3hDqe9r+oViRWJ/PQVqfz0Fan89DCnUwPUfQIWVEregp/g+grPSoU/SYp+lQ7YcWy1eYKwv2HbP06h2TYImatc5z0GGNqek9qXLM7a3zaHEKbcJRWRBd4o6Xtmcz2yXkE3SylVdVkEXE5SqunkGdkjKVdxWQRcTlK5s1ZBN0pXrnSSOhz6cxSLeIlvFJO8hTRiIG4jEQWtFNvvEKxvGQrW8ZCuaxpFe1jIV7WMhWt06VMrBXNYiBPN4gtaI2hLrZeYrkfnoK5FM7egrk+r/ExWluV0MV5YV9BXFhX0Fd6F9Ah293VW7hXf21itPhqFarhKFYvhK+BWL4Rhpa6BeGfUU3eF8im5w/kU3eF8im7w/kOKcq1RR5bwk3oF4af8hSewJ6iL2FPURf3IEXtyA5XQK7aQ8fegeNvT0HjYk9BB7EnoIPY09AsnabffLz8hRc4nwKLvE+BRc4nwKDnFPoQoL4quhCgqtPxFWCrXxVfAq1cRQqz4ixVf3Fiq9a+oQ3e76rd4qvUvqKosSv8AIVKcS/8AIxVJ3q/yMVSfz1DTSaCf/wDRUt7hVN7hVN7hVN4Q40igrukCaawEKpvAQoJ3CrbwkKtGEgtCKTfdK8KCcJCincQoluFEtwgQgVZ7CErdrnMcp2BFxOUvbdl7hFxOX7Dtn6dY7K6SWUlBXQVydyv8TFaW5XQVxYV9BXehfQV/9tfQNu63O4q9uFd/bX0Fd/bX0Ee+SqB6xWHw1CmeBQpnWl3FWCsVwlfArFcJQrF8JXwKa+GYpucJXwHVr7nhneFNzhH1IUl8L5FJfC+RF3hfIi5w/kOm5Vn3PkUncHyKT/DLqIvYC6iL2FPURfwJ6hytoqilNm8JN6iXdTZvHjbkjx/QPH9A8b0BVdBV2wN11BOtIg9vSIPb09BRfxp6Ci9jLoDS9C+XQNk6aCgougovcQugou8T4FB7i/AoO8X4Cm3KJ+IYS2uiXimKpfFMVSuKoVSuIoVR8RQca7iu+oEx3S8RfUVPrV1FSWJXUVCcSuoqE+rqHWSJs7RUI/PUVCBUN7gTDe4VLeEONIgWrzBstn9JCoawEKlrAQqm8JCqRhILbTSb7pCrRhIUE4SFBOEhQTuIUU7hAqwshDQV7TDvnM3avOZm4UruyXkEXSlculmUy7zec33f46PORu85zTN3Clc2asgUq/pzkJRGoy3aPr9pk2rzmauFlL2zY+4buJy/Ydr2Cx2PYJmbvPc//WmGk9qWUzv0c0zuzUPKVy4rIJullKd0w3s05SnYYY2SMpVXTyDdxOUq7h5BN0pXtmYKyVywsymcvN5zK2hZAtCjMrA0aqduj6pkX15zNFBBaVBJhy4rIJulK7c9y/3Mu83nN97+OhPnIi85nM3dlVdMFZKv6c9BmZBT5p+2oNON1q1RhS36Pr9tP9Q3TNG4E63iLQi85nM3dKXtmxPMNbNGX7Dtf6dwdi2CZm77vN/1pfU4m6GHFK1K0GfipyOZ2xPMUzuzUPIGtJeZCuaxkK9niEP6hniED7S2aVQjYG3DMi7p2SnYGtmjLSYNxBHCIiUD1hgyqkZCMh3TDWzTlK5s1ZBFxOUr+yUCsldu+5TO2t5zK2ictB2BNgbLv6PrmReczmRZoNYNRBV7ugkqS2uP5DdwpXbnuX+x5SrvN5zfe/joKRF9zmmRZ7yqumCslX9OclWk1LikjCEkgoFYD2ieXSfZ2qRnRtH9M1GzQm+vOZq4Uva9iYZ2aMv+ch2r9O7kOw7AswUrd97m0vXR2bzPQrbIyOZ6xPMWmIjoe2S8g6hKivwBsFxSFS3xPgJZSeIw12ZJWoIGlJIOBeQbuJyma2aMg+T1qTOH4Bq7RvUKb5fUoGazDfZ3lpjHUOzoIm0gpDsMNbNOUrmzXkEXE5SvbJQKzSWh/Z+5TO2ozmVtEaFWAroQZEo4glpM9Rj6/aZF9cyLNBkQgQUUAetB5BFxMruzP2BSuWt83/Ux7VPLoTIi+5nM3d9z/wByquqCbpZSuWFzFMrapyOZN9czV33OXtWwUGNijL9h2rYOZDsOw9zmb2j2ZaXrgYKCNC9s3kcz91POWmGl7ZLyFBMLBVI3CqbwECSRWFoVdPIN3CymZ2SMtJpJRQME2lNhaGNmmU7DDOyTlKu4rIN3E5SvbJeQKwpXrnuUzn0ZzHfToUCCmEmcQhtKLB9ftMm+uZHnnIpERYk8g1s05SuH3Dmc+jmmPap5TEQmRB+K57CJCJbxSTvIU0YiFYjEQQtED7xWn5isRiIViMRCsRiIViMRBTzVE++VgS6iiXeKwE4neK1G8Vid4rU/noHHUwK20vIVqfV0MVpfnoK0tyugrC3K6Cs/CugUvxEd1XmKz0KFP0qFM8ChTVw1Cmrhq+AlSqxfhq8hTVwz+BSVgMRXg+RSc4fyIuYPkNmujdEXMJdRF3AXURcwl1Hi4S6jtFZUqiRQHZ9ijL9h2j9O5yjsOx95kbV320vmEvtQIo6F7Vv3meulzF/uZ3ZLyBXSlO6eQa2acpmdkjKZjZJlOwMn4SMpVn3FZBs+4nIRIRLeIlvFIt4dURtq1lYEqTRLWKxGIhWIxEKxGIhWIxEHnEGm8QJ5GIVzeIVze8V7e8V7e8OOpOjzCvR+RXJ/PQV6dyugriwq6CuLcroDc76dShWelXQG5+DFZ6FCmeAxWHgMVqqdw7BWL4ZisXwxTc4YpucP5FJ3B8glPU1d0uopPYC6ik9gLqKT2FPURewkIvbkhFbrhC0eN6R429PQQexJ6CD2Iugg9A++XQNk7RLvl0EHuIXQUXeL8Ci7xfgUHOKfQOJWSD75mCQviqFWviqFWriqFWfEUKr+4sLQfc76r28VfqV1FX6ldRVFvV1FUnerqYqkerqYU0isSX4MVKP/AIxUoO0hUN4RUNYRUNYCBMt1iu4XkKlrAQqmsCRVt4SFWjCQq0YSDSUwPV9RiiW4QIQLQdhhu4WUrt3+Rf7mVtEe8xbVeRTN2HmcvaNisdm2KMv2D+wc5THY3EpaO23cK9Hq6GP6hHq/xMV6dyv8TFencroYriwq6BLniu91Xl5Cu9C+grv7bnQGul9tXQd3gqFYcNmsKcVTR4avMViuEr4FYvhK+BWOcI+orHOEfUhTXw/kPKcol4f1F5ik5w/kUnMHyKT3D+RF7AXURfwJ6hw3qtfcTZvCTfgXdT1EX8Keo8b0jx/SPG9IVXwO6Gq+gmBosEH8Segg9iT0FF7GnoIPYy6Ci7jLoGSdNpMF/Aou8T4FB3i/AoOcX4FW5xT6EKpfFUGW1G2XiGKpXEUKo+IoVR41Cp9auoqPWrqGmSUhJxV1FQnerqKhO9XUVCPz1FQj8hTCIGEMooJ1Cobwj+nawioawkKlrCQcabJtZkkrAhpuiXdIVSMJCrRhIUE4SFFO4PpKgeoElO4QLcIEIENQdIu7zTHfToK2T7vtMnaLma+rM5fIwzs05SuXFZApXbEc5TK2yMj0FIW1XkUzf1cxzNbNOUrt33LStdE06VX0TFtVZFMjzzOV/YryHZdin9g9sXOUx2DZHzTJ2zmRTL2jfvM/c9ymc2a8gm6Up2GGNkjKZnZJmZuFMzs0yqunkGdmnKV3ZryCLqcpXrhgrJXbE5zKtToSFKgQNJnrMN2A9qWUxbReg1/gVqRWtlarQ39WZzMbJGUruzXkE2FK9YnmIFKvao99BSfdVkUzf180zdwpXtmYNRJSZnYQe7WeqhDMKfrEERkUQ0+aoFQ0KvI0KWlNpglphGIpJ3lo+6fKUyPr5pX9kvIdk2JfsHtkvlMf+P2auaZO3cyLSaiIEolWaHL7Wcz+z9ymd2a+Uwi4nKU7DDOyRlpfUaYBOpJHSCn20+Y7MojbKEzNyXyDEaspVXTDOyRlK5s15BFwpXrhgrJXrCzmVakKsCbNDtgQZGWowe0LKYtqrRRIVZCqSehv685mLhAxr/I7+8Gay8/gUlqbciXkE3SleulzECslXtG/fQUhbdXKUzf180zepCQZHvFW/wAUVb3GCYkWs4h7ZKFpCrRCFEg4yihqIglJJLUUNC7zeehbKV2j+lTvUP6Vv86Pu/xmRavOV7ZOco7JsSzP9g7s15GP/H7Necyf1DnKnQpREUTBka4qUWryIMlBOhd5vObtGyPXuHlKu4rIN3E5S+QY2KMhGBawvtjabNYW8659OoNsLcKNLUEdkaT+QwUGymaue5y+QY1tlKdhhnZIylXs1ZBrZpyle2agVhSvXSzIeUqrUhQLQoygG0wiD2icpvunlMi1eczGzKVZdxWQRcKV+5/IgUrm0b99BSfePlKZu85zTNbNMr2yXlM5ajmm+7/GZF5fNK5s18o7Hsvc/wBgu4rIx/4+4vOYv1C+UtCkxCkxSCUpKdcAhVJMQ7eZ5v8AqZ/ZH7TOXFZBu4nKZtUGUHAFBRAmWyONAgaYpMgwqgtSD89DGz9zmau+5zN3ZmdkjKVZRSeQbuJylf2a8gm6Ur10s5lWpzFqtNAtB7ROU33TymbvOZzMXBGRdxWQRdLLTERD5lV+5f7HkIkKRbxTTiLqKaMRBbiaSNZWitbxp6iuaL60iva4iRXNYyFe1jIVzdbGl9Ir28Qr294r2/z0Fej89DFcj89DCHU0nL1u4xWluV0MVpbldBW+lfQVvoX0Fb6FhpcEXFCsPhqFYrhK+BTVw1fArFcNXwHVKqldw7BSXDZn1FJzh/IpO8L/APoUnMHyIuYC6hw3e73SvbxF7AnqPGwp6jxdyeo8b0jxvSPFrSu3R429Ig7vT0EHcSegg7iLoIO4i6BJO0l98rdwouY/gQXC/wDAoucT4FB3i/AWldBXf8h2LZfy/YKunkP/AB91ecxfqFcpaVHDyBJUs+9Zu0O3muaZ/ZnMq6rINXE5Tdn2KJIFoZue5zNXfc5mz1e4iQiQiW8Uk7yFNGIgytFWnWQrW8ZCtbxkKxGIhXNYyCnW6J97yDbqKCdfkK1veK1G8VyPz0Fej89A66k0Hb0CXkwK0V6dyugriwmK70qFd6FB1yKbp2itPAYrVcMxTVgMU14BTXgClr7vd8wk1xuik5gEXMIi7hIRdwkFVtMtRDxtxDxvwPG9I8b8Dxt5CDtZeKwQexEKL2IUXcfwKLuP4FBzGEpXSV3/ADFWviGKtfEMVa+IYqlY1CqPGoNN6rxip9SuoqfUrqKksSuoqSxK6hTKYGevqG2UUUnrs3iob3fIqG9wqG9wqGsJB1lskRo7hUNYCFS1gT0FU3gIVaMJCrRhIOIRSb1FeFBO4hRTGwUS3CiW4QGqu/johIm+5M1d9zld2a+UwVhSu2J5imPao5TmTeXKq6rIdi2Z5/sFWHkOxOIQS4n5j+ob3n0Mf1Dfq/xMf1CPV/iY/qEblf4mP6hO5f8AiYrCrjOiu7uFf6F9BXf219BXf2l9BXHwnBXK4Kw64qLfhKvfgVq+Cr4FY7wTFY9wj6isd4PyKb/C/wD6DynTbVFsuoJT/DLqKT+Auoi/gT1Hj4U9R/7G5AOvgdwN19BNwf8Asb0CD+9IovYk9BDtGNPQUX+IXQMpdq0wc+BQe4vwKDvF+BVucUxVucU/gVS+Mr4DTajTtVFrMVSuKsVJ8VfUVP8AcX1FT619RUljV1DLSTSetV4/MVCd6uoqUfnqKlH56iob3D+na3Btpsyu+YqGsIqGsBCoZwEKlrAQqm8BBltNWmKSFWjCQoJ3EKJbhRTuCiKieQa2aMhAQ0vF4asggiokICGiBB7Z+5ArJXfpzCLJVF3kzfd9tMNKC7y8xCVqw8zlVYYb2actKj1BvWHj8M/aZ21vm0ech7YuWZN9ftM3YeZyruKyCLqcpXLC5imVtUZHIwpSkRVbHQV9UqrDyHYriub9gfmOwfcEJf8A9H8JnbWueZ/YryBWSnYYZ2SMpuz7IveZq6fMczdiuYxSKVBf7mauFKdhhrZoyld2a8gi4Ur9z3IFZK7YWYbu6HDOAbs0KvJ0xIR0R8X2mK8qZqxXMckQYZ2SctBgqJXkxBQicCDqTonM59HNoVaUh7ZPKcydov2mbsPMw60ajiThkYodpL7oRTh3rdC7qsg3cTlK7d/kX+5l7Rv301zeIMmVNwo+cS0fcVkUvkY7FdVn+wMf+P8Au5zf/p/hpppDbhLjDy0O/RzFM/sl5ArClOwwzs0ZTdnPwy95mLp8yv8AehztBIOEDH9cnAY/rkYDCHzdOCQ2iMdfmKJFKiw8zmYuSnYYZ2SMpXNmrIIuJyle2ZgrJXrCzDdmhRRIHTT5hOsgq8nQa/wDjCIrYBCyWQPa+0xX1TN/VzHM1s05aTsCNRwDuzXkClc+jm0KsCT1aVbZHKcxbRWRTN/VzHKdhhrZpyldu+5TLvt++mBbgrs7ZqshkKlxOtDp5GC2h8pTdisXn+x/8f8Ad9pj/UFyaLSC+7SIdlunnoe+3zlN2jYuZArCmY2SMtC1GRBfa6J+Q/qu0LjRI+g/9ql9RDs0STYdtszNiuY9CkJVaQPszJ/SD7G1+Q0yhqwNfXzHMg9R5nMxc9zlOwMbJGUqrp5BF0pXtmYTYUrtnuGz0uJpEGqRFrC7yNK0hCSMtZAkkVgPallMW0VM2d/mOZnZp0kIEHdmvIFZK79HMWlOlW1RkcxbVWRTI+rOZnZIylcuHMu81n/1N90+UpuyWuZ/sewXnZj/AFCeQ9LiCMgzqjoe+jmKZ/YucoTYUzOyTkFRhqtDjfaFHrDfZyjrR1CUw0MXPc5mbFc6pmvq5zmR55zM3fc5mNkjKVV1WQRdSPOR24YTYUrlhZg9QScZFWpkIoaD2pZTFtVCIiIiIiGz1r5hERESFIt4pp3kGlJJCdYppxEKaMRCsRiIViMRB1xFBRUisBPNwLvkK1vEK5vEDeb3ivb3/AddRArbxeQrk/noK1O5XQVhR8+grS3K6Ct9CugU54iO6fmK30KFYfDUKw+GoViuGYpKwGKSq0+4d0hTXg+RSXg+RScwfIi5g+RFzCXUINyKu6Vu8d/cQ8TcQ8XckeN6R43pDVbVpu2Dxd6egg7iT0EHsSegg7iLoHCcoK73wCS7j+BRcx/AouY/gUXOJ8CgviH0ILQqLfiHb/0KCuIr4FBXEUKB4zFX61Cr9auoq/FvKu7xVepXUVZbzFWX56iqTvV1MVSfz1HZLzn7HsN90FKe3TynpMI1KPQ7dLmKZ7ZL5Qm6WUzOzTlMxc9zmZsVznM19fOemJCJbxSLeG1p72srwpoxEKxGIhWt4yFa3iIVzeMgy6iF7zMVqN4rUbxWoFcj89BXI/PQMupJtOoxXFuV0FaW5QrPSYrPQYNzun3DBOHQLuGKw8JisXgFYvAKa8AWtdA+4Eqco3RSdwiLuEhF3cQ8XcQXWQHi/gQcSEmtXmQg7vIQc3kFk5FPeFFzEKK8QoLxCgvGKC8ZhSVU094xQPEYqzxGKs8Rir9Riq9Rir75lExVJ3mKkt5iqT+RUpFUgIbRFeYqW9wqUbhVIwiqRhIVSMJBpCTQUUkKtGEVaMJCiW4QIOEVBWQRCiUrpd0uZP8AvSogWhe0b95vu/xmTeczmZ2ZSuXFZApV2o5pvue0vmOzbV79j2RSUrcpGK5vEK9veK9H56CvR6v8TFencr/Ewbya5JwVdP6TFeWFXQV3oX0Fd/bX0FM47JYrVcNQdcXAvCVeLcKxfCUKbnCPqKbnC+RTd4XyKTvDLqHFPUFRQVmIJN6iXdT1EX8Keo8fcgeP6B4/oHj70Bmuq0wUnoIPY09BRdxl0FF7iF0FB7i/AoO8X4DKV0dodpg23OKfwKpfGV8CqVxVCqPiKFT/AHF9Q01Gl31Xj8xVepXUVCd6uoqE71dRUI/PUVDf56htlB09XmKlvCKpvCKlvCQqm8BCqbwkENo72rzFBGEhRTuFFO4UU7hAgyWo8z0QkY2aZVXTyCNmnKV7ZqCbpSuWe4LRQ3CJ+YiQX9OcytonKb7p5aYiJCIQffXmIiIiIiIaPu++iIiIhR91WQQfdIRIR0vXPcpLFaF3kTfc9pk3l5zNXJV3FZArJXLEcxTHfLKZj9Q9+x7FtXZlbdHKcz10uYpndmvlMIupy0ViSVRjIzskzM3TzOZr6+Y5m/r5pIlZoSduczVh8xzM3ClOww3s05SuXFZBF0pXLvuCkokFpPu6/Md4RVuET3Cl+BE9wUZ1idQie4ax3hrED3iHiewgICBCBCARfczmZunmcqrDDdxOWmAgHS7h+wiYiIhQTrIOXm+ab7hZTFfXM1d9zlXcVkE3SyldsTzFMe0TkczP6l39j2PbOzK27fKczt33KZ3Zr5Q3cTlo7TfCTOimO4R0M3CmYuHzK/3M1a5znM3a5zSKil33BBNqs5mvq5jmZudZTsMNHFtOUrlxQRdKVy6CslX5TLLvom+57TI2jkzfnmcp2GGtmjIGcjuzVpgIAigHLW+aY9onI5i2i/aZuw+Y5VXTCLqcpXbv8i/3MraIyOZv9W7+x7J+oezOZe2a99Lrik/T7htdJMdD1z3KZdxWQa2aMg92h0jglAcNw9ZgifVvBM9pIEatQY2fvM1YfMczVrnNMi85zaHnVpsSP6h4OLUrWEdsTAqRGG326StfmEmR2HK39XMczN33OZvZlK5cVkEXSlXdBSr8s5l3kzHtCymRtXNMNLf1cxzN7NOUrmzVkPKV36OeY9qjI5i2qsimb+rmOU/MNbNGUr1z3L/cyz77fvoiW8RLeKRbyFNGIgiH9Y5A/L9j2X9Q9/8Aeczm2Z99L90MlBOh657kClVcVkGdkjIQIdqTrDGyTpZuTNWK5jmbtc55m7zvN/1pgQ7QkiDbDa0RH9IRmuB2GGGFNrt1So+rmmZu+5zN7MpV3FZBu4Uq7oTKuz3mXeTMe1LIUi3ikW8Uk7xTTvFYjeQSpNavvF5CmjEQrEYiFYjEQrUYiFcjEEut97X5itRvFaj/AOIVyPz0Fcn89BXJ/PQNOlQTe6CtLcroK70q6Ct9ChWnw1Bxw6CvDOwE4rhqFYvhmKxfDFNzh/IpucP5Dhuaoo+ovMUneH8iL2Auoi7gLqIvYU9RF3ckHW003fMeN6R4vpEHt6egg7iT0EHcSegg7WH3is3CDuMugou8T4FFzH8Ci5xPgUF8QwhC+/4h3vwKCuKr4FBXFV8CrVxFCrPiKFX61BpEW099Vm8VfqV1FUWJXUVRb1dRVJ3q6h5pNWdvUVLe75FSjcKlvcKlvCKlrCQUy3Sb7hWiqbwECabwkKtvCQq0YSFBGEgkodsXl+x7N+pd/wDvOZzas++lbZmqITo7Rs/cpjumGtmjLQ+g1p1BlyiVGicQkz0M3fc5mvr5jmavO88kREggypva/qFJOIhTRiIVjeMg8ptRXiHZ3ElSJRwCXWyU53ytFezjIV7WIV7WIVze8V7f56Bt1PetvCuTuV0FcncroK4sKugrvQoVp4FBpwyK4Z6zFarhqFYrhmKa+GYprwCk5g+Q2pyjdFJ3AKT2EhF7CQ8XcQVW0T1EEVtErB434EHt5CD28hRexEFk5RvBCXMYouYxRXjFWvGKtfEMLQrGYoHiMVfqMVXqMVfqMVRbzC2iinWYqk/kVafyKtIqkCqRuBsoplqFS3hIVTeEhVN4SFU3hIUEYSBITWK1eQop3CincIEIEIBBa15zMbMpXS8NeRhNhSu3S5imVeRN9ftMi85zTN3Cld2apl2ozm//AGnl+xZUlPanKRkVor2eIkV7OMh/UNYx/UN4vgx/UN/n/Ewt5FY1e8/IxXpwr/xMV5YF/wCIr/QvoK7+2voK4+EsOuKNs/CWVm4E6vgq+BWOcE+pCsd4XyKb3C+RSe4ZdQanoH3E9Q2b1WiCU2bxF/cjqPH9Ag/6B4+9PQUX8SegaJ6heLoKL/ELoKDvE+ASHeL8Cg5xTFUvjK+A22o6fiqLvGKk+IoVP9xfUVP9xfUVJY19RUJxK/yMIZQanLb28f07f56j+nb3fIqGsIqGsIqGcBBLLZrc7pWipawEKpvAQqm8BCgjCQqUU6UAhBU3NXmIEIaIaG7znNM1YrmOUwzdlVdPIN3ClXdMIslcsBSuWpzmO2b7h5TJtVnpjpY2fucrlxWQRdLKV27/ACL/AHMq1Oc31+0yby85mrhSu7NeQKVf0c0x/rfb/r9j2f8AVOe4gQhIsvFazOZ8vDVMdh5BrZpymZue5zN/VzTIvOc2mIjoQffdzERHRERCb7mcyLznNM19XMczN2VV08g1cKVy4YRZK5dBSr+nOY7xTfc9pitVnMxc/kcq7isgi4nKV257kClVajOb6/aZN9czV33OV3ZryMFZKv6eaZf61OX7Fj9W77zObRrM9B6iCCpKpHpdhQMeUp2GGdmjKZm57n/uZv6+aZu87zTI2ruZTIPxHM9MS0ovuZzNfXzHMxd95VWGGbiZVXTCbNB6XLoLTHQ59Ocx2lN9z2mSffczmZsPmOVV08g3cTlK7c6TKtTnMd9ORzJ2jntM3Yecq7i+Uwi6WUrnlzFMv9YjL9ix+sd95nL7WZ/60KumGrASkn5loe2Spa5vEIxLUYY2SMpmbp5nM1a5znMnaO5zI2rvtMjaOaDKKTIL7M4VmsUHy8jFN71Blx2J90FK1avm0x0s3feU7DDOzKU7phNkrl0FK4d3OY7Sm+57TJ2jkzNiuY5TsDWzRlK5cVMv6c5lQpoyOYr6vaZs9SuY9ESEREt4UZUVa/IIUmgnWVgppxEKxGIhWIxEK1vGQccbMi7xWkKxGIhWoxCtRvFaneKxIWZH2pv9i1+tX7zOX2ebQ8siKHmEtKcvKMEiDsCOw9D2yXkD7YhPkD7fuSP6jtCrEir7Wu3/AGC7EvzcIJTQRAMbJGUzN0+Y5mrXOaZO1dzL/UyNq57TJ2rmmOlF93OZv6+c5mbp5nKdgZ2ZSndMJsKVy6C0REREg6d3MEot4pFvFYneQpp3imjEQU4iKe8QpoxEKaMRCtRiIViMQrUbxWprPYV6BXo/+IVyfz0FaW4xWluUEueIrumK30KFb6FCsPAoVquGoU1YDDald7ueYpr4fyKbmD5FJ3AXUUncJdRF7CXUNm5QTAiEXdyR4vpHjekeL6QqtondHi709BB3EXQQdxF0EHMRdBRcx/AWTmrvee4UV4xRVjFE8YoHjMUFYzCkHWI76vMVZ41Cr9auoq/WoVfqV1FWW8+oqk1qtZ2F5igX56iqT+eoqkCqRuFWjcENo7/d8xVN4SFU3hIVTeEhVN4CBoTA9XkGkJoJ1FYKKdxCBbhAtwgW4OkVD+Rf7me/VNfsWv1y/eZ28zzf9AzgQS0Z0lKvGCNxMaKQy1R1nboe2S8gbLR6zQQJtBWJKQ7DDOyRlMzdPmOZq1zmmTfczESESESFNO8hWIxEErSTrh0i8hWt4yFc3iIV7WMhXtYiFe3vBOpprFcj89BXo9XQV6YWK6Cv9Kugr/QoE73l9xQPtGu6Yr/SYrvQYrVcMxWr4XyELciuCfMU3cApO4CEXcJCL2EhF7cQbNzXCFo8b8Dxt6RB7EQg9iIUXMQaJw0XhRcxig5jFBzGCbVxDBtqon3zCUHRvGDbPGYqjxGKr1GKr8mFtFA9ZhLSdVoqUipQKlG4VSNwdbQRFq8wTSNwq0bhVowirRuIUE7gtJRTqFEtwgQgQhoPalyiAhIW0WIStWr5pmtmmVy4rIFZKuz3mVeTN90+Upk/VnM1cTlK7c6TP/qGf2KDSXblxOFormuInqP6hniJ6iubxkK5vEK5vf8AAW6k1NW27gTifz0FcncroK0sKugrf7a+grT4aw64o0K8NQJa+Er4FNzhH1FNzh/IJTvD+RF7hl/kIvYS6ho3apECKweN6R43pBVvmaRBzyMugg7iLoGScheK0/IUHOJ8Cg5xPgVa+KfwKCuIoUFQvmENa199VoqfWvqKksa+oqU71dRVJ/PUVKPz1CWUGteof07eEVDWEhUNYCFS3gIVSMJBLaa1zVuFBO4UU7hRLcIEKITtV+wgQgQgICAQXiOZh+MQzFSpG7zmczNiuY5mNmUp2GE3ZV3DBWSu2e8yi1pmPbJ5ZvrOZu85zTM7MpVXTyBWFKuyY7Uzfd/jMm1eczOzTlK7cObtG3Y/YpKPblx/Iop3CBbhDS5eb5pntkvIF5TMbNGUzViuY5m7znNMjaO+0ydqv2mLar9pk7RYdTSINIolI1fd5pmvq5jmY2ZSndMJuyruGE2FK9d95lnrRnMrap5Tm+4eUzd5zmmZue5yqumE2FKu7Mq1Gc33f4zJvLzmZ2ZSu7NU3atqz+xT+uXM4etHNM9slZApTDGyTlM0eo8zmbvOc0yNo7MW1X7TJ2q/aZO1cmbvu5zNfXzTNXZVWGG7pSuXTCbCleu+4KVf05zK2iMjm+v2mRtHc5mbvucp2GEXSylXdOZf080x7VPKcxXlzNXJXLisgVkvar7Of7FP69Uzt5rmmd2asgVkzGyRlMzYfMczd5zmmTtXPaZO2XkUxbVWUydq57TN7RzOZr685mbsqrDDd0pV3TCbCldudAVkqvLOZW0R7zR8T2mRtHJkQLrKYb2acpV3Tmc+nmliDPxUZGIiJbyFIt4ppxEKxGIglxFYvvF5CsRiIU07xWIxEKxGIVzeINuoo2+ZitR+egrUfnoK1P56CsLcfQOOdxWo7NwJz0qFZ6VCmeExTPAoU1cNXwO1HE2jow/Yl+tOZy1vOZ7ZqyBWFL5BjZJyma+rmOZF5ecxQrFzJ2y8imLbKyKZO1X7TN7R3OZuEVZzM3feUw3dLRHSo+6YTdES3imneKad5CmjEQcWiifeIE4iF4hWI3kK1GIhWo3itRiCnW9WvzFagVqfyCdT+egrU7ldAbpYVdAtzvo1GK30KBO+hQrDwKFYrAYpqwGKS6yNDyFJzh/IpOYPkRcwl1FJzAXURdwl1BG5TXqIeLuIeN6R4vpEHt6R4u9IRWa9ZWiDmIhBeIUXMXwILx/AoL4gbSo0F3xRVjMUFYzFA8Zij6jC0d0+8YSj1GKv8n1FAt59RVlvPqKsvz1C0F3bbRVIFUjcKpG4VaNwq0H9JBTSKae6Qq28JCgjCQq0YSFEtwop3AiKsVq8iEC3CAhpasVzq/3Ku4rIIsKXttjef/DH/gL9ccztrXPM9sV5ArJfIMbNMzP18xzIvOZzJ2znsIkKSd5CkneQpt409RXNF9aeoJxFao6RQokK9rEQrm8Qrkf/ABCuR+egr0/noK0qwzgYri3K6Ct9ChW+hQrTwKFYrhmCWqsV3BWLwCsd4fyKbuAU3cBdRSdwkCNykuBEPH3JHjekeN6R434Hjb0hsnO/BRWii7jFB3iCi5jFBziGKtfEMNIVC+dooK4ihQPEYq/WoVXqUKssSuobaI02n1FQn8ipSKlAqkA2kER6ghtELAbaD8hVowirRuFBG4g6hJIPUCSmFgJJbhAtEAstRZzLvo0FJ9wspi2q/aZP1ZzNXClXdMFYUq7PeZV9v3m+s8imb+rmOU7DCbpZS9tuIzBWfsP/ANxisRiIVqMZCuZ4ieor28ZCvbxBx5szb731Cvb/APiMVyPz0MVydyugriwq6Cu/tr6B1wzbUVBVgJxXDUKxfCV8Cm5wvkEt3h/IpO4C6iL2BPUMm7QKCUwzHjekeN5URB7ekQfxJ6Ci9jLoGyd70F/UfkKDvF+BQc4gq1Q2ihVK4qhVHxFBDffcKmq3eKksSuoJpO9XUVCPz1FSjcKhrCCZbrFlQKGoVLWAhVN4SFWjCQq0YSFBO4gSSrlavIhRIURAQEB908hDRDSkvFXkQhpLQjauTIvLzmb885m7sqrphF0pXbigmyVUyy7yM5j2icpi2ysimT9WczdwpVXTCbClcu+5TLvN5zfdPlmbtXzSnYG7icpe27JOYTYX7A/1usVaMJCiW4UUiBbtDtrXNM7s1ZAvKZjZpma+vmOZF93OYtor2m++vlKb7x8pTJ2ysimTtlzN3l5zN+eczd2VVhhuwpXLigm6Uq7Jl3m85lbVORzFtT5SmTeVnKuwNXClOwwm6Urtw5l3m8/+pvr9pkXnOaZrZoyl7ZsvcIull+w//fM79vmme2S8gmyZjZlM19zmOZN9cxbVeRTfdPKb7x5TfdPKZO2c9pm77meiEjf1ZzN3QSiOQ7DCLsrlwwmwpXT7szv0ZzK2iPeb7p8oNRFKV5UqrAzZKdhhvZpylduKmctb55j2pcsyL7nN/wBTM7NOUvbNj7hu4nL9h/8Av/8At0zv2+eZ3ZLyCbpTdn2KZmfuc5zJ2jkxbZeRTfePlkho+9/Gb7x5FMnar9pmy77mczf1c0ybhhBwVIdgRdKV3ZqyCLpSu3OgKyV36OaZW0R7zfd/iFWhNkib65VXQydszWzTlJEOn3FAjES3ikneQppxEKxGIuocWjud4rwrW8ZCtbxkK1vEQrm8QrUbwbiKwtfkK1H56CtT+egrE7ldBWFuV0FZ6VdAlffc7ivIU/QoUzwmKauGoU1cNQpq4ZhpS6BdwUl4PkUnMBdRFzCXURdwl1HaadTrIoBrZoy/YH+v/wDt0z32+eZ3ZryCbCmY2SZmvuc8ydo5nMW2XkUhnqDb50jJVg++fKU1Hxo+nTXnSgSdP3vaZO2X7TJvrzma+vmmTcPQk9RaIkDUmFpBtZUC1kKaMRCmneQrEYiFYjEQW4g0Hr8glxBEXeFajEK1P56CtT+egrU/noHHCNNh9ATxQsV0Fb6FCtPAoVh4FCsVw1Bxau73DtFJeAxSc4fyIuYPkRd4fyIuYC6hZuRT3S6jxMJdR4m4h4n4Hi+keN6QqsJeuFgor3kEk7C8XQQcxF0EHMXwKK8YJK6au+KC+IYoK4higriKFA+IoGj1KDZRM9Zir/Kuoqy3n1FWW8+oqy3n1FUn89Q20igQqkbhUo3CqbwipbwkHGm6tfdKMASEYRVowkKCMJCgnCQop3EHSKCdX1EIEIFIrao5TmKFYv2mauy9q2J+wZ2SMv2Cv1xTPfb55ntk5ymE2FN2fZlM1a5zTI2jkxH4y+UhEt5CmnEQrG8aQp1uBwUQaUglKpGQporDOPkK5vEK5vf8CuR+ehiuR6uhitLcroDc791VgrfQoOOnRPuGGqUY0DMU3OEYpu8L5EV1lzy3im9w/kUnuGXURewEIvbiHj+kET1Yq6IP4kii9vT0CnnEKgcAROn9ZdBRdx/ASlymvvii5jFBfEMVa+KoUF8QxVnjUENxNXfO0VfrV1FV6ldRVJ3n1FUn89RUo/IS0iBgkEZKCGm4WCqbwiqbwkKtELpBpCaJd0UEbhAg7qgCLVYFkVFWryCC7paIaXLhzO2J5imVeTM7fLIQ7oRIV9Up2Bq05m7pSubNeQKyVywuYplbRHvMW1XkUzdnucvadiodn2SMv2CtXbiERSLeKaMRCtbxp6itbxp6h11vu99N4V7PkshXN4hXo/PQVyfz0FaW5XQOOxQsqKrNwJ3VcUK0+EsViuGoU3OEYpr4fyKTuAuoZN2gUEl1EXcKR43pHj+kePiR0EH8SegaJzvd4rdwoPcX4FBziGKC+IYq1cVQqv7iglqK1lSVqh5ipLErqKhO9X+RioR+eoqGzH9O1hIVTdaZUdUCFS1gIVbeEhVN4SDqUkg9Q7OkoGYh4/8AAQKX7nto7SeoiDJQTph438ZEvEa6MNBbZeRaXy747OrVDdoTtFzN2r5pvpUG9ZGElAtKlUQ1c0u2kCsC7p5Bu6Uq7pgrNJLIwayILURpLOZX0zK1u6E2yfcPLRGKtKrDDXnM3dlXcVkE3Sleue5f7mVtG/eb7y+UpmrFcxy9p2Kx2bYoy/YOER9tIVLXDIVTeEhVowl0FWjCQoJ3B4rnMISu7NeQTdKbs+zKZq1fNMnaue0331cpSP3AzsyH/wCj+Ex7UstHaT1kEXS0nrdhH6QgjJMDOOlXde99BbdXKWntF4Noo++hO0c9tK1USFeZH3i0EqBrzBHGX6V5mGrJL6g1d0uXiBWBxcCgEqMm4htw1AnO8ZBS9eoJPUHHDgcATpRgDMiCllAJtECBnDV6pTMKONDOU9QLaJ0fVoWoJMfcPIGcARn5BMYa9Dl0Neczd33OVV08gi6nKV657lMu83nN94+UpkfVzHK/sVjs2yT+wc/XJme+jmKZ3ZryCbpTdn2ZTN3nOaZO1c9pvvnylJ2g7A2UEkHV0HY+kV6itIIWS9ZaFOpTq8wRxIHtCy0do2gTZpPbfxEY2aFHArIh5zvkdEwh5K7AW2PlLT2i0gm6WhO0XrFNGItDmtREHUdzIMLiUNwReczlU8hIrYkqBeYZNe7VpcV9ISmBBuzQZwKyIcUpSrIAm1WqUCKMcgau4lP4CNRGYIxR7oM4ICj7oRqBxUKMECHdIxEoC2J/kFIdgMoUM5XD8hEiUgEDIawq8CIfc9hAQ0ueQatVM3YeZynYYbuJyleuH7TLtRnN97+MyLV80r2yXkOybFP7Bf65Mz0O5zFM7sl5BNhTMXJm7znNMnaue033z5dEQrtBfSUQtTi1AuzL3ih4pJtFEoQGtDkCCn4N+odmRS756PqLQ/fCbpaV7Qy9A7MfdWW49QWtSzJMNY7Ou1BjtRakmGiKgRj7x8pae0WkEwJJaKKVOKiQoILWErpWCPiBy4Y7NeUEbRzOQ7AlsrTIHAo5hF3StKiOJA3tV0MGZpjpcvjyFKgStQZRS1iqVEE0UY6KtIU0REo/wCQR+WmANsjDhESPcgUrn082k1A6QJMYgyIlo95FFA4glD7v8ZT1rCL6/aZs72YpEKRbxTRiIU04iFYjEQacRVo7xWCtbxEK1GIhXN4hXI3h11FWYrUfnoKxP56CsL89BWluV0FaWFXQLc2epV4Vh8NQpngUKauGr4FNWAwal+TfyDUutufTvFJeD5EXMBdRFzCXURdwp6jxdyQispLstHjekeNvSPG3p6Dxd5dA4TlBfeKzcOy7L9gv9ciZ6xHMUzuzXkE3SmY2fWZu85zTJ2zntN9/+OiiazOJ6gTSUhGt3Q1tvbQvX2jV5DtKTp2WhtNFOg9oWWjtNpGG7haT2/8AEdnKBrzCUn/UWBZUHUq8g6UWzDGzIfePl0OOUfKIcU4s9ZQDbKS1nr0GkzcVBUBVKM+8uIIiIg6g9RkFKWuBQDaKJBF9zOZV88wWohSLeQpJxEKaMRdRTaxJDTiIXiFa3jIVzeILWkzjEE6jf8A3G4efQNOJoJts3CuTuV0FaWFfQVvoV0FYfDUFuGaVeGqwJcOGzUKxXDUKa+GYpucP5FNfD+Q4blC58glOwuF1EXsCeoi7hLqKTuFPUEbp69QXXarto8X0jxd6RB7EnoFVlkSCUOYi6BSXKSO9v8hRXj+BRcxigviGKtXEP4FWeMxROsLvnYKv1qFX61dRVepXUKQUIxPqEIiCaTTUWvyFSj89RUoFS3uFS3hFS1gIJab73dK0VbeEhVowkKCcJCgncQop3BkvDTqECENL2yXkClc+jmmPap5Zk33M5XNmvlMdk2Xv+wc/WIme+jmKZzZryCLpZTMXOszd53mmLbL9po+P/EGooHrIIWgivEFuoon3iDK2yOJqIhXs4yBOoQ9GOoL7Sgk909YZMiVE49BXI3K/xMVycKugrvQvoDcOmXcVYK0+GoPKNRbNQZdXQhQj7im5w/kU3eH8gzdrS7hXd4i9w09RF7CkePuQIP8AoCEvJMyKA8WuPWUaIg/iT0FFzEXQOEukUTBJdhtPgUHOKfwKC6w/EMVa+Kr4FWviqFWfEUKn+4vqKr1K6g29a9Z2hLZGVquoqk/kVKPyKhvcKhrCEoSazKGqIqGcBCqbwkKpvCQoIwkKCMJBsigerzEBCRq4UqrqsgmwpXbhgrNKk0tDthcxaTOASUdehw+8jMREZDvlI5rOAIoAtorIpkWrzma2aZXdmvlBWFK5YnmKZW1RynMnaLlXcVkOybP3/YO/rUe0kSFNOIg8tMC7xXiFa1jSK9rGkV7WMhXt7xXI/PQOPINCr1m4wl4qJd1XQV3oWK0+GoVquEr4FYvhmKbvC+Qyp2hqR8ik/gT1EXsKeo8f0jx/SIP4k9AgnaS4LK3XqFF7ifAoO8T4FW5xT+BVL4qhVHxFAm/FWVI7CFQWJXUVCd59R/To/PUVDe4VDWEVTddCgUKIqkQukG0oOPdIP0SgUA0giSIEFoSbpFD6QTCARQkUXiJy0GUdQIzZc12AlEZaj0Hti5Zvv/x0u7UgWj7h5TWrcIFqKQ1Bm05mjtzOZm4Uqrp5BF0pXLigVmktDt33LTAtLtrfNMZ+InLSYJOgtsrlKZF5eczVwpXLisgm6UrlhcxTK2jfvMW1X7SquqyMdkuHn+weKPbEEYqG9wqG8JCpawEKhrAkVTeEg6hJJLUV4gSU7hRIQIQLQ5CrXkEXSEJWLnuf+5m77nNMnbLyKb7/APDQpVU5GGowUXVxBaF7ZHKYjKq+nSpCVlrIf09FXdWZCwfeLl0noIff/jpLW6C0fdPKYtqqQwojDOo1ZymGvPOZq4Up2GEXSld2asgVgOR257lM79HMClXtEe833faZN9eczd33OVdxWRhF0spXbpcxf7mXtG/eb7qsilOwx2Sxef7B39aj2meup5ymd2a8gi6WUzNz3OZF9zOYtqrIpvvfx0QiCIi0ubZHKcx7RMh6PvFyykPvfx0kgiPT908pTBbRYLSehu+5nKYb+rMFK1dlOwIulKq6oFZJEO3Pcpnfo5gUq9o2Cl+7/GZO0X7TN2HmcqrphvZpy0qURFrFcgOGRo6TLvN5zfdPlm7J9zP9g9+sb9pnrqeYpnLisgi6UzEKHucyL7uf/UxbZWRTfd/jM4XioyOY76dC3FJV+ARxLUD0feLKUh98uSb7vtIehO1XM3tFzN2rz0FI1Z7nL5BF0pV7NeQTYWgtLkKJgpKSY2h2wuYFpiIhV5E33S5dEREt4pFvIU04iBLTTV3iFY3jIVreMhWt4yFa3iIVzeIIdRrifmK1G8VyPz0Fcn89BXJ3K6BTpQuq6BtzuJ7iugrDwKFYfDUFGaoeGoHEyhVCmoihAUneH8ik5w/kUneGXURcwF1EXcBdQs3O5qTaPG3JHjekeN6BB7EnoIPYk9BB2svFd3Ci7jLoKLvE+BRc4nwKK+IYoKxmOyWr/YPfrG/aZ6xPMQKVdxWQbPuJymYu+5zN33M5i2yuUpvvFyzObVGR6YiOhR99OhUKwgg6JmnoD16PvIyPSegg8o0uJMtwQcSkMJ2v8ZDcTGEdCS8VWRSGIkEGVavWIlvIU04iFY3jLqK5rGQrm8ZBDjcVd4rRXtYyH9Q3iFe3v+BXt/noK9v1f4mG3iIj1KtPyFf6VCu/trFYcNmsVh8NQrV8JQbWuiXhmKbnD+RSd4fyKTvDLqDN3AXUKN2irulZvCDegXdSPH3IHj+keP6Af9R6AsnqB6yBV0Lyegg9jT0FF3GXQUHeL8CCqyEQ4hZJLxPMhQXxTFW5xVCqVxFCpPiKFQeNQUzCj31WipLErqKlO9XUVKd6uoqUfnqKlH/xg2UU06hUt4RUtYCFU3gIVbeEhVt4SBITWq7pWEKKcJCincQoluEBAN/VnKYZ2aMpXNTiswUrn2+ab7xcs3Zto7+wf/Vt+0z10uYgUqrqsg3cTlMxdPmOZG0czm+8eUxwri1/SIlvIU07yFa3jSK5riJFezxEhx1usQdLyMV7e8V6Pz0Fen89BXlhV0Fd6FdApw6xJ0VCuVgUDcVSLuGDWq2gKxzhim7w/kUnK0joFYKT/DT1EX8KR4+5I/8AY9IL+oj9Acpm4RHCIIn8Segg/jLoKL3E+Abbp/c+BVu8UxQWTl87LRVr4qhVL4qgbauIoOIgdoSyRleV1FV4plFVm8VCd59RUI/PUVLe4H2drCP6drCEsopqikVDWAhVowkKtGEhVowirTuCElFWYokNRCtQQJRHZob+rmPQUjGzSFKIhXJ3GCcIGeoKuKyDV0tC3UoCTiRHod2agmyT7oeue5AiEJF/TnMe0Tkc33T5ZkWq5pmtmmV3aKzBWSufRzFMe0Tkc3Z9s5+w7R+qb9pnj7nuQpJ3isRiLqK1vGnqK5rGkV7WMG8iB94Iebol/wD4K9Hq6GK9O5fQV3oX0FafDWK1XBV8Bpa4H4Z2mKx3hfIpv8MuopdowJ6iL+5I/wDY9ATW1i4GQg9iLoKL2MugoPcX4FW7xTFUviqFUdaffVYKn1r6ip9SuoqE71dR/Tt/nqP6drCDZbrSKjqogmGcBCpbwEKtGEhQTuFEtwcIqxGRiiQoiiW4USEAsvEQIEHS1kDIjLQQPbJyOY9sUxn45ZAtL1obukPvHylIehO1VMm+vPQ4esJIoBRVayMgSolEN/VmY1gpEKotAiUswlsiEBAHcPIN3CC1USCEEs4mLNC7isgm6UiL4eudAk9UhLIwuGo/yKZSGDUqmQ8SB6w2ukWimmMPPR9z20qOBGYKk6oVBlYswwajNUdBqSUjKiokmOuVzaLzBSu2J5imVtEZHMz+od/YdoifaUewqfUrqKhO9X+RioT+eoqG9wqGsBB1ltKNSSvF/sVLWBPQVTeAhQRhIUU7hAgou4rIN3E5CErFh8xzI2jk33faY9snlmc2qMjmXtG/fQ/YCsCjgFOKTrhEgSyUtEAZwKISukeoHp++Uz8Kwsgg9RCOh8gi6Q+9/HS65QIEbq9cQkzMtYLanorEkcDMViMRaU316C7y9D10MH3A3arObXVkGLJDsMN3SDx64BCYERCGhy4rIJulopEVphTyYaginHUHLBqQmIbcNUYhZ0lCMQV4LOMN0QoJNSjt1BS6Z/gUzgREImZRBXkhR09RBJQLRV+JHy0fc9tPaFaiIMlBMd4OwN6lLzClw8g4a4kcAlK1fUElAhrHeKCi3glOKIIJXmektdIwVkrt0uYplX0zNfqXf2HaP1TftM9dLmKZV1WQbuJymZunzHMjaOTfdPKY9sjlOZ3aN+8yrydDq12QCDdMoBZGRAyKrCNa0h1ZnAg2UCB6fvFM93nSIXUhtxVO23R2gtRBDyoQoCk4btzyBVn4GsP3iCCgktBbVXtoMiO0hVo3aU31hV0NaH1eQYLuhq8vOZBRTAQUg4kP6jekxXkdgScdDd0g43SFapN4gfafQYQqkkjC7p5ArpaDIjDhJIgnUgHrSowajVkQKNhA0wCEwSKKohwoJLMQME2e/UKJCiWhaCpJzBFpjr0fdLl09qK6YYcSpMPMtFNKVORPzFOmsoWBSaSQ0Z2GWlu5D8mEINB6rNLpwQoNl4bnKE2FK9c9y/3Mq+37zI/VufsO0fqWvaZ+4XMUyrp5Bu4jKZmw8zmRtHJvvHlMrapyOZzaN+8y76ND1gRdIPFqiFud2BBpMHEe4Pa+4TYD0EHdToKyUtb4eOCRCBEYTYHy1BpOqIj438dLyYlENqinQR+KehRRIUHeIEkZFrPQV9ejvossBv6tRBDalnEwRBu85zTNWe+g20mCbSXkC0N3dECFFO7Qq6eQRdLSrWoQ1BxKiSYabIkgkkUjt33IQlXajMRLeKRbxSTvCVppH3iFa3jIG4isT3isMVzeMhXN4g44hUIBSGzPzFBHrCaukfdUYJaS+lXQVvoX0FZ/bWKw+GoU1cNQbUrX3DtMUl4BScwfIpOYC6h5S9RGUARLJs+6VgSbtBOpI8bckeN6R43pEHd6Q7W0DiabSEHMRdBB3GXQUXOJ8CivGKK8YWhdJHiGKCsZirPGoVfrUKr1K6iqLerqEFDtai/H7DtH6lv2meue5TKuKyDVxOUzNiuY5kwrFzfe/jMraoyOZ3aN+8yrydDt0IukFFHUKkHqdR7g2lVhH5SEHyiaQyv6TlsdTkYdbpw1g2yMoBJrLuwCyigwzZAfe/jIprXFBwMGl49RmQSVFcPwKRbyFNGIuopoxEKxvGXUVzWNPUVzZLV3yFe1iFc3v+BWNf8AxCub/PQVqdyugS4VJeo7dwJzvH3TFafDWKw+Ev4FNfDMU18I+obUvX4fyIu8Muoi9gLqIu4S6jxNxdR4u5IbraOqiPG9I8f0CD+9HQQd3p6AydgfeT0CCdol3y6Ci7xC6Ci7xPgVS+IKC+IYcQqgfiGEtqgXiqFWfEUKr1qFV61dRVFiV1DjRUbyuoqk7z6ipR+eoqW93yKlvcKpvCFtI7vd8xUtYCFU3hIVaMJCgnCQop3EDSVYnV5GIFoUUXE6S2q/aZv6uY5D7z2Q8g3cTlK9s1ApV3m85v8A9h/sO0fqWvaZ64XMQKVV1WQbuJymasVzHMnaOe033v4zK2qcjEREt4pJ3kKxGIhWt4yC3G6SO8XmK1rEK5veK5H56CuR6ugrk7ldAt3vI7qhW+hQdWeEwlaoF4ahTXwj6ikvhfIWpdYjw9eYpO8P5EXsBdRF7CkePuSPH9IVXViLsQplxR2pBJexF0EHsZdBRe4hdBQd4nwDSusLxPIVbnFMVa+IoVauIoVXrV1FVBUInAG2VYRRVZvFSnerqKhH56ipb3CobwipbwkKluncKwVLeAhVN4SFWjCQop3EKKdxAiKsVMi+7mEbQ5W/qzmauSnYGrhSuXFZBNhSrugpXPLOZW0R76YafuHlM39XNpPUQaTae/Q1cTK7s1ApV/RmHzgkj/IbVSTGQ/1n7DtP6lr2mdu+5AtERSLeKxGIgbqIH3iDbrdEu8QrmsQrm94rU/noK0tyugriwq6Bty3uKtFNXDMU18MxTcwfIpO4C6iL2FPUJraxd0eP6R42Iugg9iLoKLmMUF8QxQVW3zsFUriKFT61dRUliV1FSnefUVCAbLdYgoeRioawEKhrAQqm8JCrRhIUE4SCyKsb9xAtwgUiy7yAZkQV316pF32/eZW1b95lbVGRzHtS5Zvue033DmTtHMxQgqMqPqz0GC0t2TN3SlXcVkE3SlcuGClcsLMpl325vunlMi8vm0mUdLOzTK7s1ZApXPo5g8UWzHZz7siv1hfsO07dAoK4ihVq4ihV+tQqvWrqKot6uodaSSPO0vMVKBUt4RUNYSFU3hIVSC+kgpCaKtQaIqCdXkIEIaICAaIypZnMnaL9pvu+0ytojI5l7Rv3mXeRoJBFIu+3MvaI95lbRGUx7ZPLN932m+6eUydo5Mi1WczVnvM3dlVdPIIulKu6YKV277lMu83nN97+MyLznNMzcKV3ZLyBWaFrJIbdpHA9Dv0cwXcVkOzecjn6tP7DtH6lqZ277lMq6YbuFM1YrM5k7Zz2m+9/GZe1Rkczl9v3mXeRMu+3Mu+3Mrao95lbZHKcx7X+M33TymTtXPaZJ61ZzN2HnM3dlVYYbuFK5cVkE2FK7d9ymVajOY9qXLMjaO5/9TNXZXdmvIJukFKgURrWsKIkrTAeQcsTzEDsPIdnvSO/q0fsO0/qGpn7n8i/3Mq6Ya2aMpmjvcxzJ2y/ab7vtMvat+8zl9uZdqZnLzWZzL2jfvMraI99ClpTaYI46VbROU33Sym+7/GZO1X7TE/4plDUZ6XnTbhqCFUkkf4D90dlUZpPOZu7Kdhhu6Uq7qsgm6UhrSRwiQdUVDoKSd5CmnEQrG8RCtbxpFc1jILdbinvFaK5vEK9vf8ABitT+egr07ldDFcWFXQG6VYXdVYK30KFYfDUKxXCV8CmvhmKbnC+QSnKxfc+RSd4ZdRSewJ6iL2FPUeNuQPH9AbU5dpJt8xB/EnoIPYy6Ci7j+BRd4nwHEOUFeJ5BKFwLxDDxKKBUzMNNHCNMxQ79piq9auocb1F3lWl5g20kR22bwyglKBMoFQ3uFS3hDpEntLcP2Haf1DXtM9d9yBSqunkGtmnKZr6uY5i2q/ab738Zl30TOX25l2pmXfbzmXtGveZe1b99Habo7Mqjq36V7VGR6X1nSgERoFHQZ+IWQiW8hSTiIU0YiFa3jT1Fc1xE9RWtVkaZWCvaxkK5svqFe3v+BXo/PQxXo9XQxXJrD1KsLyFd6F9BXf219BWq4SxWL4KvgKcco7Iy9wVKMRSe4ZdRF7AnqO0U/qIgzWVaYQhAOE7RONEdnp66MBB/egQf3oEH8SOgg/jT0FF7GnoEJdhtC6Cg7xfgUHeL8Cg5xT6CrXxTBtqhtDDTZmgjrFCrPiKFUfEWKr1q6ipLErqFMponrV1CGUwK91FQj89RUt7hUNYR2htCVJopIgbTdXcIE03gIVaMBCgjCQop3CBbg4V3MQKVW1RkcxbVftKY1mvM5V3FZBFwsg6qKzBOwIiIg2ol6/PQ5d9yCrh5Ds945H/ANQ1+w7T+oamfufyKZV08g3dKZr6uY5k7VftN90uWZe1b99ESES3iknEQpoxEFuIpN94hXNcRPUV7OMhXtYxXt7xXt/noFvJim3oK9OFXQV3pV0Fd6FiuPhqFcrhKC3FGpHhmKxzhH1FN3hfIpu8MuopPcMuopP4E9Qs3qbcUpHj7kD/ANj0CD+9HQQfxJ6Ci/xE9AtLtNHifAJDvF+A8hZJ1rMwlqKIkYQmmkjrVCp/uL6hTXiIKmvqKgsS+oNlED1q6mEpJSx/TtYR/TtYAppqsSVErBUM4CFU3gIVbeAhVowkKKdxCBVnsIEISFtlZFL2g+4GkUkKBaO1eQ7NcC7pjs+0OZvzzOZnZlKdhhF0pO030hWx9gVkq/LOUlpOwwraIyMUy8tYU47hDb1P8Hp+6rIpXlQSGSi5Kq6rII1NlkI94Nt+ZhKKKjPQ7c9yDpwbMdm+qTtG2a/Ydq27Uz9z+Rf7mUZQMNqTQTrKwViMRCtbxpFc3iIG83iFe3v+A26kiO29uFcWFfQVvoUK0+EoVi+EYprwCk5WK7hdRSewpHj+kQf3pEHsRdBRexl0BpdrSKs8rYCrc4qgTa+IoxU/3FCp9a+oqE71dQplNNBa+o/p29wqG9wqGsBCoawkKpvCQWhNNuBeYoJ3CBCBCBCActbzmcvN5zOX2/eVTjqFa0xLyMgZxU1q0dpujs2zBEWhe0b99C7hhjaaVbROUx7UspvvK5Sl7UdhDs5Qjp7VYQ7Ls/cLumGNtM3556XXaGYInV2qFQeMwitSnVrLcCOJaTWjEQiRkEXSkdOLwU6miZECcKBRCnO5Eg04a7Qp1KTFIg5YWYWuiQJ3VFQIwtUAZ6yMg4qkaQm8CDpQdiCs0VhE8qO4gSkn5yOKNQ7MWsz0rcUnyFYszFLu6xWHVkkJiZjvw8xFZbwTiwvW30D5wQOz3ZO07Vr9h2vbNiD2Iugou8T4FB3ifAoOcUxVr4hh1tRIvmeshVf3FdRVepXUVCd6uoqEfnqKhvcDZbgfdINMt0EnQKwVTeAhQTuFEhDQ19XMcydqr2mPallMvaImcvN5zLtRnM5a3nM5ebzmXfb0dpuDs1zSvaN++h24Y7NfPSraIyPS65QLUEtuHrNw4hNP6jiD2pZBRkRRFe1vBOtmcCVpN1snD73kCebM4Rkf2gQtBGcVAnEGeo9Habo7IepWYVdMM7aZv6sz09oQdoaUSkFoau6akz+oEykaiIN3S0uqooMNopmDSlKD1DWsyDhlYQbOCTB2g7BHw/cgZ0lBeuBeQbsCtagohRgaQhMVGKSy1QFBSjiYLQ4ik57A2DCUukC0ONknWOzl3TzkgQUVI4A7jZfgVJwpEKbv5CUqO0USDtwx2g+/D8BooJKTtV9v9h2rbNTPXPcplWGG7pTNfVzHMW1VkUx7Qspl7RuZy83nM59Gcztreczl5rOVS0pMiM7Q5faz0dpukGDSlvWYPtDZfkIfpnCiF32/fQ5cMdmvK0qvo99N57LSe0LLQsmSPvD/ANbeEuIVYeg0tk7r3Dwk+ZCujcIFHzDqlEWoQNa4HaEdnKlAwSSTYWh8ooMdltUFWBrbTN/XzSLZ10k2ik8kIU9YkiCEmRazjoWiPmIPYjBMn9RhqFDT2i6OzptMPq1QEe6RJtCk0UBBUhRVEVfdCknQFFRaoAkFDWCEBAjC7UZgkERyntS5ZVER2hooGspbCMz3BBUlJlduKF9eZgoCJbxSLeQppxEO0qIzbgfmC/5+1bZoFK9c9yBSnYeQZuJyma+vmOYtsrIpj2pZTL2iJnLzeczlqOaZy1Gczl5rOXtSSNJBtVJDcfIwZwIPqWcI6g2wayI4hPZ0EIBd5GhV0wzqc0rvo99JnQcidh6VrKtTAEDSSrRUICUkkoFoWklOQMvIf07YSkis0L1JMMa1mYLaK0vH3B2Y+8rQnU/Mi1fNM3DXnM1dLT2g7CDepBB5BGUYkGiSko0iBqb81ECU0X1JFa1jSK5vGQcdbNBwOIrm9/wK1P56CtL89BWFhV0FZ6FdAtzWnuKtFM+GoU1cJQpr4Z9RTc4XyKTvD+QZu1hdwrN4i7hT1Hi7kjxvQPG9Ig9iT0CSdpud4ugoucT4FBzifAoL4hhaVcQw73UwpGGWo64mKssSuoqi3q6ipT+eoqW9weQ2hFmsMNkqMSFWjCKtGEhVowkKCdw7WRFQzBf8/atq1M9c9yBSqunkGrhZTNfVzHMW1VlMe1TyzLLvtnnM7ebzmc+nOZz6c5nLW+aV5NJAa1UebR2m0gzsy0uXm89KioOgtC76BERLeFVaigZkKujdeIvcQUdvaC6hBNIWXfLMV7XESK9rGQrmsQrkb/gVyPz0MG6VZGCrNwrk4V/4iu9K+grDwLDyzowomQYpEVwzFNymfheW8UneH8ik9wy6hROqK6nqEtLScSJI8f0Cg4bh3YkIP70CD+JAg9iT0EHsSegg/jT0CUuxV3yt3Ci9xPgUHeJ8Cg5xj6Cg5xT+BVr4qg22fe8RVoqz4ihVetQqvWrqKosSuoqSxK6hDRGWs1dRUo/PUVDW4VCPIhUtYSBtNQPuEENool3SFWjCQop3CBbhAg5cMFKv6eaZW1RynMW1X7SOKgsgcVqDFwpXTpnqDZQSUvbLqMwVn/P2vatTPbP3KY7phnZIymZtXzHMW2VkUx7ZOUy9o3JERIOGUUa/MU0YiFY3jIVrWNIrmsZCubxkFuoOjr8xXN7xXo/PQVyfz0FcncroK4sKugW5d7qrRWHgUKxXDUKa+GYpucMU3eH8ha3O53PPeKT/AA09RF/AnqPH3JHj+gQf3pC0ukaNabdwg9jLoHaVPWYS2uG1PoQq18ZXwKpXFUHG+8iLirRVetfUVJYl9Q8zAolEMoQtOuPUVDYWy3SR3RUNYSFS1gIVTeAhVowkKCcJBSSrEat4gUp7UuWR/vLgEJgkh9w8pk7RcxXlTN2q5pkWSmG7hSu7NQKyVzyzmVtW8jmLaqyKTtBHSI/wGW/MNWHzHI8v6S9whs4Gf4CbJe23U5hNhf8AP2vatApX7hzHYYZ2actERSLeQrW8RdRXN4yDbiCpa/qFc3vFej89BXJ3K6Cu9ChWnw1AlqrVeGdhCmvAKTuAuoi9hSPH3JHjb0gydrU94rNwou4/gUHeIKC+IYq1cRQqj4igpvvI7xipLerqKlO8+oqGxUN7hUNYSC2UFRgkrRVIwkKtGEUE7hRTuEC3BwruYgUrlrfNM7a3zTO2t82iFJ2Ry1vm0wiE+E5+D0LvN5zK2iPeY9qnlkJnvRjo+57TFtV+0yb685kWr5pkeecyLpSuXFArJV2FmUy9o37zfcPKQyjoa+rmPStdEg2ilrMKuKyCbpS9s2ZZhN0v+ftm0bBG7C6Q8b0jxYfSPG3p6CD+JPQOpcoa1bvIUHOL8CgviGKtXEUKs8ahV+o+oNlMLVdQ2yk0kZipRuFS3hIVLeAgTaC+khRTuDRX9X1GNWjVpLbKyKZW0TlM5fbmdtRnM59Oczn0c0zv2+aZz6MxaQJJJskctbzkNJKtBBd5Gcyr6PeZW2Rkc33Pab7qsimTfXMi8vOZHnnM1cKVdxWQKwpXLPeZd9rOb7v8ZmrV8x6H6SFksjCSJwiVHQq6eQRcTkKad8nbNmWYbuJy/wCftm0aBSv7Ix5Sn5hrZpymatXzTfdVlMrapymcvtzO2t80zv05gpXfo5pnfo5pnPo5pnPo5pnLzeY1yqvo95lbVvI5j2hZTfePlKYr6pk3lzItVnKZwIMrSZQkiF3FZBNhSrs95nLzXNMe2LlmRa5zaFppJMh2dVBZp8hEgaigesgtZVKdYLX5kGn/ACV1FajEQrUYh2paTb1GG7icv+ftm0bBWSvbMwUp+YZ2acpm7V8033jyKZW1RlM5fbzmdtb5pl/TnM79HNM79HNM79HNM79vmmctb5pI6FXkzK2iPeY9oWQU4hNpivb/ACEqSqw9K30pdMy16gy8TkdWl140HCALtPpCHUms9KnUptFe3vFezjDZxWuZFqs5IjtC+4GyTRSuOsViMRCua4iRXtYyHaHEKTqUEuKIvxAIeRRK3oK5O5XQVpYVdAb6StSoE8R2JUYcWqjs1Cmrhn1FNfC+RTc4fyKTvDLqKT2AuocN3ud1N4ePuQPH9A8f0CD2JPQQexp6A0u1heJrhuFB3in0IVa+Mr4FWriKFV/cX1FUWJXUJaTSXrO3eKlH56iob3DtDZIMjKwNoZWgjoEKpsiukHUlQRAdnSmhYO0FBWog33kkYgO17L3DWzTl/wA/bC77Uz2yVMdgauFM1avmm+7D8TKPxUZHM5fbzmdtRzTO/TnM79HNM7Ynmmd+jmmd+jmmc+jPREOGmjaGlkVqhWN4yCnURT3iFc1jT1Fc1jIV7WMhXohqUC7T3tYU8isQefkK9v8AP+JivRuV/iK9OBf+IrfQvoK0+GsG4qsT4arA9SPWaDINxjCgR+8AmtL7ZdQ4+8k4USHiulELaUkwxTidGHuIPb0CD2JPQPEuPeMgylUDgZdBVKNZlSLoCbeL7vwKD3F+AplSrXAfZTxhSIeY7OhWvvGQq1cVQq1cVYqj4ixVf3F9RUliX1BMlSVrV1FQjer/ACMVLf56ioawipawEH0oI0JSkiiYbaRC6VooIwkKKdwgHi8Mw1BXZ4H+QwZ0YaHV0UxBpUpKlmOyWqDtwwhaVlq0moitMEpJ2GHfo5plbVHKcjrlEUFKMRdaNULCOCglZKSRlofTSbP8ax2VVqdBopMQ8yDbtBuyINVMw2UElo7VsTzDGyTl/wA/bL7Uz2zUClMNbNOUzd5zmm+8fKUytqjI5nL7eczv0ZiIpFvFNO8hTRiIViMRBxxB0e8VormsZCubxEK9vEK9uFor2/z0DjyThbbuFencroK4sKugrfQoV3oUK1XDUHFqMk+GZd4VjnCPqKbnC+RSd4fyKT/DT1EX8Keocru7Ek2j/wBj0CHaMSegov8AET0FF7iF0FB3i/AcQvu9/wCoVa+MoVSuIoVP9xfUVJY19RUI3q/yMLYb7ttu8VDWEVDWEgtlFE4IINJLzIEhGEgtKYo1FaIFuEC3CAgFFRcB2tnoU/DVRBOKwiOhV9IdLuGEX06O0pOkOy+Y7Re9gyfiaX7w7PdH3DylcvGGbTymK8qU9faU/gN2HnpNQUZ0D1eQ7NcWEFqI9C0EtMAbTt0/IMt0CHaV/SOzpgmO/QszJJwBEpwzOIZ1Oh2xPMUlYgvqLQ6okKQY/qFnYkg2uknQ7rWEEZJgYV9/2HZla6Og7DDBwd0NXCCmorM95BkyrIHp7VsTzDGyTl/z9svNgpXtmYKyZrZpk1CkneQQtFJyJlaK1vEQrmsQrm94r0fnoK9O5XQVviGdFVgrT4ahWL4Zim5w/kUnsBdRF7CnqFV1Ym7HWPH9Ig/iT0FF7GXQUHeL8Crc4phaFxRFw7RVK4ihU+tXUVBYldRUJ/PUVCPz1DjKCoZiobwioawipawkKpvCQq0YSDqE6tRWgkp3CiW4QIQ0O2J5iBSvWJ5imdsTzFM59PNM59Oek7AnUoagv6c9Di6BA3VKbiWodncUaoGY7QXeIwSiOrBmREDNClaj0L1FEIVEgd9IXdMFf0dpjqHZz70A6UV+wLUtOel+8Oz3B932BnAH2nckIUSyjocLvBm32LSbqC8x/VJwmCOIK+qVvbqCPqz0RCl0SjCJhTrx7gimRalBk10dZaYhxdEoiBrMzBvq+kg2/E6Jlr0KbJMVEGCi4HbpcxAtDzRq1guzq3BBUUwC7yCzBrQWqrDTkdVGGhep3Q8cFKLfAdmTaektoWYINXdFQZOfjT2nYqDGyT/z9tPW3mCcXDZmKbvC+RSewF1FJ7AnqIvbkh03atUaIKu3pEHsSegou4y6Cg5jFBfFMG2riKDbcUkdNQqS3q6ipR+eoqG9wqW8JCpbwEG20Ul90rRQTuEC3CBCGj7/APGZe1R7zOWozmd+nOZ2wuYFK7YWcz10uYpnbCzKZ2xPMUzlhZgj0KUREKR04xBqUo4it8Mt4T2k6WstQfsIGUGgzfHaCugtRkHFUoAyomEnEg8fdDbiCtMU4qSFn3DCLw8g86a/pCTUR6g2bhulHcFlAwg4pI9D18wzcIfc9g/dDJFHWCKFmh68GLT0HAyB1GIU+zxBHqBX1So/UKyCPqz0K0Op7o7NdVmG7haDTEUCDizXkKNBk4+YZSdoLW9EEHj7gYhAziHHEGUCOOsgWh0lmXdMVbh2mYZbhrMwq8j3BoSYJBEehxsll+RTdRqMhBS1hCaJaDOBBN/30N2e+hb6EKgEOpXZo7RsVDs+yT/z9tvNgpXtmrIFYUzWzKZF9zmmMvF9pl7REzl5Gczv0cwKV2wuYgUrthcxApXrC5imdulmUzt0symcsLPR5CoKMTOIfKBhpEUKC9wowIgo4oIK2aQ3eIO3Qd0gVodLUkw0fdDx6wlCYRgDtSF3TCT7xCMCiFGlSDMgVopkbqYbg/eDB92Gh2+YauEFqou+wPvpHfbPUK5zcGaUNYfLvDs9uk2NYqAkoFAfWqWztOYRavPQYKwOXDHZbFhq6Wl5eqAZb72sPFFArDoUQ01HWEIohSYlAf04qqKTPIFKq1Gc33Ty0RIPOFRhENEVMomKxvGQbWmB6ytMVreIPJSaokdoZUSE649BXI/PQPLI2lajHZtin/n7b9sFZK9s1ZArJmrhTIvuZza6/wDjMu+j3mdtbzmdsTzTO2FzFM9YXMUzt0uYpnbvuUzt3+RTOWFmUnaLR2cu4F3wtPcIER0BrM4CFEyC9aBAQ7wWXcDRag9GMRTiREQ80aHGTj3QaX1ajCGaJHELKBg0RomQVWfUOzxierQ8g4xCH6KYUQ4o1riGY1ZRECFBINREH947NfOb7h5Sv91xCwhaYr1+YppxEKxvGnqKxGIgbyLAwtJRCHUw8+grU+roKz8K6BSorsMEqBakGDWdE+4qwQiReGCNfD+RScwfIi5gLqIu4U9Q7W1ZxJIKu9I8b0Dxt6egg9iT0FFzH8BaXIo8TzFBfFMVZ41CrPiK6iqLErqKlPq6iqTWw9IqW8INpBFdIKTEw20RFrIUU7ghJRXmICGl7ZKHZtmX/P237YTZK9sl5ArCmauTI2jmc33faZd9EzlqOaZ2xPMQKV66XMUzt0syBWSvXPcpnrnuQKV677kCldu+5aYjtCTiGdSLQtHejErQZpNMKRBtSCjFRCkxGNJIUppX1pBLaJMKwgbjZQ75WisZ3kK5G/4Faj89DFancr/ExSThPoFOa091XQVh4FimvhK+BTXwz6ik7wvkOUqZxIINzuQIvMQeO1KBB4rKA8f0fIg8eAVS/R0FBwllcs3Ci9jT/iKL3ELoKDvF+A6hzFEGazhEMpVTvQ1Crc4x9CFWviq+BVr4qhVnxFirPiLFX376rN4qixr6ipTvV/kYqUfnqKhrcFMIhqIMkklqQsiiCbQX0kKKdxCBAyIEgklAggoF76TQlVpaPIwg4pKV3ZqyBWSufTzTHtS5Zk2rzle2Ssh2XZf8/bfthNkrlxWQTdKZq7Mi+5nMe19pl30TOfRzTOWFzECkiHTKHuCMt4pJ3kKacRCtRiIVreIg663RLvFaQrm8Qr2sQr294rUfnoK5O5XQOupNNh2kCd9KhWHgUKxXDUKxfBUKbvC+Q4tyjc894JT2Auoi9hT1Hj7kjxvSIP709A6T1HWpPQEl7GXQUHeL8CrXxTFWriqFT/cX1DjXdvKt3ipT+eoqW9wJtG4VTeEhVt4SC20QLulaKCMJCgncQop3EIENQdh3cxCVz6c5VtpUDSSTRCZV9MtWkUYOFlN9c1FKnD/EyfPOZF0pV3DBWSuWFnMe1LlmTeXnK5s1ZDsmy9/+fttiMwmwpXdmrIJulM3dmRtHMxEt4pphaQrEYiFc1jIVre8G6mn7bhWp3H0Fb6VCt/tqFYrhK+BTXw/kKUumjuCL2Euoi7hSPF/A8bekQexl0DiXO73vMUHcYoOcQxVr4ihVnjUKo+IrqHGoFeO3eKlO9XUVCd59RUoFQ3uFS3uDjSCTYQJpvAQqm8JCqRhIUE7hQTuDqSo2eZAklAQKR7Z+5ApXrhzO3DBSu3JnLvuQKVywswUq/pzmXajOZV9MytqnI5jvllN9apkWqzmbuyruKyCbpSuWFmUx7VORzJvLlcuKyHZNn7/8/bbEBLpQKBKs3Cs9KhWnw1CsVw1fApr4YWtdBXc8t4SpyBdwrN4i9hT1Hi/geN6RB7EXQUXcfwG0uQ2goL4ihVq4ihVepXUVCd6uoqEBLKKa9QqW8BAmmy+khQThIUU7hAHtSymcvt5zO/TzTPXS5iBSu3fcFK7cBWSvbMwUrlwFK7cMFK7cmcuzO2FmUy/pzmcvN5zLvImVtEe8x7UspvrOZNp5zIslVdVkG7icpXLvvMraIyOZN9cq7ish2O4ef/P26xARdLKVdxWQRcTlM1YeZzJ2q/aY9qnKZd5Ezv080zt33IFK7d9wUrtzoCsleuGCslcuHM7cMJslduGCslduTO3fcpl+Wczn0ZzLtRnMu+iY76cpvuHlMm8vOZFnuDMitMJWlVmk7DyDdwspXLkyz76BEvwKad5CsRjIVjeIhWI3gnE01axWJFancfQVhYVCn6TC1nRV3DsHZLh5zx/4O23U5hF1OUq7p5BFxOUzdh5nMnar9plbVORzOXkZzO2FmCldu+8zt0FK7cMFK/slApXdmqZy4YKyV24YKyV25M7d9yBSrs95nfp5pl2ozmXeRMraJyOb7v8AERLeKacRCtbxp6itbxkK1vECdRTVrFaj89BWp9XQVhbldBT9ChTPAYQtWvwztDy1GqEIBLbmqBaxXrLUaCjmKTxlcT1B1sLEhutoldHjb0jxsaegg7jLoKDnE+A4lRIM6ZirPiKFV61dRVFiV1FSnefUVLe4KaQSkahVIwkKtGEhRLcIENQh4isilVdVkOyXVZ/8/bbicw3cTlKu6rIN3E5TN2HzHMnar9tBSK2qcjmcvIzmdsLOZ277gpXLsztwwUr2zMFZK7s1ArJXdmvIFZK7s1ArJXD7gKwRLeKRbxWIxEK1vGkOut0b6bd4J5rGQrmsZCuaxCub3/ArkeroYW8mH1dBWelXQVvoWK3+2sViuEr4FNfCV8Bxa+74R3t4pOcP5FJ3hl1FJ7hl1EXsCeo8XckLre7qTaPG9A8bekQexI6CD2JPQQdxl0C0rpI7/wACg7xfgUHOL8CrXxT+BVr4yvgVauIoKbOkXfUKr1r6iqLEvqKlHq6mKlvd8ioawipbp3SsFU3gIVaMJCBbhAQCb6pk+eYSVJ8ws4JMMppKjpa2acpV3TBSqvIzm+4eUp2GOyWLz/5+27Msw1cTlKqww1cTlM39WcxbZWRTGffTM5ajOZyz3IFK7d9yBSuXQWmIiQcMqB6wS0YiFYjEQrW8ZCubxkK5rGQdebNBwUCdRAVyPz0Fcn1dBWluV0Fd6F9Atw6BxbUCcXq8IxTc4YpO4PkRewJ6jxsKeoXXUFRogq6Ba09BB7EXQUXeJ8Cg7xfgVa+KYcbVQPxFBLX9xYqfWrqKhOJXUxUo/PUVCNwcZQSDgQJhrAQqWsBCqbwEKtGEhQRhIOpTQsIERbhCR277lM7YnmKZZXc5nLUZzKvJm+57TFfVMn6swgoOqCiiQaSadUNLVwpV3DBSuWt5zfc9puyfXn/z9u2ZZhu4nKVVh5BrZpymb+vmmLaqymVtE5SHqEQtV3MG9D6R/U+kH2w8APtR4QT6z3A3V/i0UnN5dB4uMug8Q/r+BBfEMUF8Uw4lVHaGKs+IoVXrUKr1q6gm/UrqKot59Q40RJtMEyn8iqRuFS3uFS3hFS3hIPNtk2o6JAm0YSFWjcKCMJCincKJbg9cMJslcuGE2SubNWQRZKvWgwVkrl0wUrtwwVkq7szt0uYpnPpzmctb5plXkTHtCymLaKyKZP1ZiBStXClXcVkCslctb5pvue0vkOyfXn/wf//EACkQAAIBAQYGAwEBAQAAAAAAAAABESEQIDFBUWFxkaGx8PGBwdHhMED/2gAIAQEAAT8hvUb/ANzezOypWTA4XJOIzqebJu9LYzuNY0VmySTGbuxW7GZ+YvQOvJdzEUvMQtkTkQtBJECh7+xDQgRIWhCvnz+MbqOr7LiRgYbNNiSTpLsE9kpgqSjDKNB4qXyKk4YIRdRBXFUhTOUDMCWwpKoYxKKnBuEoSFq22m+LGjEQTG5iR475Ghm0oFUeiHqYkrUedBFKlOI98OnFPIh+iyB43xCFmuCZn+PyPNfolnS7sh09+DobHn2HJWeeBGs2gkI6M3hkJNt8Qz9RBK4LVlJtfS/RQvhr9PH/AEPxL8SPUjgKCGfyqHqA+O+TUnkU0aElNSe8zwv4JMaLFmHMFmplwGgwhY8hhDAZBkhVyWEYY53qVBJtvwyfEolk5kt4uxu5xIQ4DEjn5BBPCpqOoX8dnrGe4EcznitpAbIeFCOkkT5N3vrI5a/5vKSTaTcmM69SuaKaJ8TZTKoKJYUa1dSl5uov7v7Kb8nMWZzv0eH+hSJ9Wn6ecv0WlcY/TG+r9PDX6ZHYFtDogf8AKQtE+EL+Chr/ABX6U/pH7K8sT06PQnpUeiR6RGsliirQWi/C/TT5B6VC07kbhyG9v0qJmXxS/Tyv0eCv08j9C859jqXVFY/Rs8Xc93+jzV+nske/GKLpiqIf3R7lDpQBR+kbjlJtoNNaWOmT9g8z+HmPw0vNwJI1uGsf4cM4j2Al/cTCnPYvGShVi4og8qZ7MR/f/T2n9PZf0ap1EuHiLzP2enG25BemsJg7qvO7kY3mH0Ua+Bsem/A52Llg+jpawdj2K/BZzbRqpMMhmE6G1W6TSqPD42DRx9wfEzXOi9gJP9M2HNj0vNlQMj6EhAlmj0Vjq09EqfVKnR5D04X8VHrEVZ6BsCFwnYRkRa1MSYEyJlrdr4IsFbSxKvpbxIIVnUrkiaZQmUhyat6jkryGaQWqKDVUpdEPF9E0cisBCTEsxjcZ0CxJXIzbMVyCnyzubjGMzhXTK2K6qXBXcwCtaMDqx0SsdxIVxIgosxDaWdbES2ovKn4pareEXXqLCixEHbWUspZiXmL3ibXnL43vb8lbgUhWzr0vZRnG5NnpfGsRnZ5ewV2dBNucBM/q5BPT7lf8zGz+Dupi6GFwu9DvRn2dyCCG15ORGzAgEg4qJBJuCnASiESOaXw3GUT2dxYXYfE71PD+xWziMJ18sBL/ABzGRUG3cVxnFDokUu1p/wAChQ2YINrpBcSofEIadiVfyl2pkJdp6Gs2R4JFfcLWc8AWFyNliTsKPkGRMfBIowElBCqaX33FQghlFdlFhYihoqYIShWYjkRrb3YrW7D6/vfq3NDAQ2MNKbJG7iRasQ3fe1PMrw2dTOkEjwK7DOvKjwKCS+XbNj8uNk3FuwzMXyqJ3OqFC8LlDxmt7pneRfMuxCKYgShKzAnCYMR0qEo3T6Zqu4sLr2BXOltV6sMl6o12FrAV2bFcYnnuLBbCzs4WdbMftKsrrQ33EJ+bdCm8QmDMSsHoZhTpxsXQ97XP5mTZTx3ZXTomKgzIVmLywFatjZPtHIiBbPMREowEqWpJTQ4CgSfh1FYkkk8LTqJWrYjEveTSrM7xtzOgt7qewVs4kFKN4rtQJ1TR8yaZNvj7Cu4vF3GSUDcnVk1VIVOI5an5gq4ex6WuM/GbYA5jSfEQZOt91rDgHYlioLIfU97GhjqItwsfx6Wu2uy029WOisbt8DrbWyDVZXmB37LIsgaKuAJWRZ2HcWF3uL1IlcmCKEvCxpqQ1KXYOr+x5WxNlLK07jEbTC5gxbfMGSWaPiFifgWJGrHbHUTlKlmrzdmdhiypbi4dxW+sCtBbipF4u2oBwZXUi+MHeX2CwViWkxcGwNTEI4+VTphk3bDHkQjIBKkdGhoUNNySTRZ+1rFOdjZXsQrkW4V4+/BpR2ry/b/DaMlqJlTBzFP4HWjoohDqPVws8rcVVZFgjoyEGzAlgqpdGJOxCTFQCcpD6zvZEmLdEhKuZsTkW5VknIlPTv2qzrQ3LWzZ5u5Irj0LyFukmzviSSSRuUYXCySRsexSSSiTrQrczNRnANgBLONzsXZNHYrKXbvuLSKxjOvjJuV0Y3n0RvUjASTboc4wRgj81uKyc++eVrPhCDaPUop+bIpTuVO5FzBoEaR4ndmoTFvOmUpWQ1wEFI0VqTASnzqOHxGihVKjMdHUeSMMJDRQJXfN2vJUuGdmD8psS/VFZYqjslD0tnYbGVId0ZKaycOWIjW7Ewg1ihTCtwm0iVTHrFGKSpyEVmuY9BzKCqtUavNKbbhSGp+Bx/zR6cPD6IloWGExVbnYompsPJmy5M/CGJMKYTqYTWIfnvo834WDMiJYcjiBAkx4EHpiWe2jUm8anjfoS19v6KcZvYhEW/5TcchnumNUMQdnbzQ8h+HtP4UPt/hP9r8Hk1Mz1FhlfGTh6zwhkfwseTyGLuBk9D2r9PYf08/+nk/0pYXncgrTaG3OzHkQx/qK+PkGNoYLU9X+D0o89Gt0fwTqkNShAfWeYiX9BysjLnqIj/YVBM8FmH/QiWn3MeZhbkwdtjGlLKyFA1jEogX+DMfzI+OQhYDX8L9PTIl/Jfp6FfptW0Qk54WqShlD6l+mZ0UQ/kQzPKPUoRgfRRKqoelQ5q8TGOfLAiuJNY8RfyUNt4H5Mzsfox/H9FcRy/Rec+zzF+lZqhowrTiUk+0VX4OZ7Rfph+LmR/v+hugRmI98jE74Z4ofqFHO4DNi3E8zWOEB06+Q8ikv8yHIXKUlBaIs661IUjJ2TvxTorxGhz/4QYcMavwSaQriFmHgyPkNR9tqRp6jd6if82Nn5MX9J+lVyt+JFyd4eNTyKV9NxVBE35LDFm8j8CTTo/g9N+CphUuc1eA7+6/Bv7UjzIaOCscSxjDjPoe7DgdXi7MYkLfsDpyxWsWQvfZvubNiMqj2Y626Vmj1w9aGz8glfmKbRTJIgfQEkdF5Gx5EaHIoYGgrNgg7o21OIRF4UstogshQ8LFXgZ3sV1YsdFEUKWdn3Fha4s8DYgxoV6wJpqU5tXT3YI+Fjd6oYPCxfzRk2E1qiSc+eAkSE5Eu8UdIQW1LeZ+pnalYrkLW7AzrA8v2CGjAgwGxD4cCSbNBPOIhmwjBObdLJQnoVytWt4SrrFqaW0rYefjejW1XcixWPM7YWC4Xes7hYGdxK3jN7ztr2NvHp8Y2JmkSH8Csgalw7W4W2ee0anUp0seBN8JYi2NXUYDuukVpbCIOj+tqSiNVNiXmZu4rKa2e68PgYxtFcobsLBXYiWlbU6EMaEnyRb2ne2Zh5UtSIeE2wFTbfwH2JHUh1PsdGHMOMYJT5rBcBmwnixqcEfCdUNoQ24YvcWs6qHzeLKPFhYrztm4yEIidAIHa8GP1RCQknK1EyqVQX3UI3zJDBrAny0IISCxJzFaBxhY1mq5E01+orqN+XDFd7XvbUxLiYjQ5DKFdq+HuNRWZmsEYCihAo7QSK/cM2mobVyXK7Xupfa6zztxkmZVVYv8ASHNIoGehJlzmsQuMRog6K6k8aPQIwt8zrcTdiy3QQM8kmPBkw3irgSJC6bveXwaXmqLrpjBYibHrqw8jPlLQ+JNLVQb0eXZAbJXeifQJykSYuPa/ABJzzWzrg88NauBqe5Z0gcKpajOdgrFsdNUhVnLQWJZTZz8f7uybw4EvAwFcxEhc5vvZRPBJgCpSyHcbwVjC6IfMQlvoN80U0rMdkJM/zvQlnkvY0utHmxvIn8QsFcxiWqZWsWKIwrcVlOMULJTbkHStBbmAJdeLAVxea+11hs7P3GjJCLlNkYI6olCIl7HWrJKQdERUmuUjSHVPfvd6odMKybMHxrbWxmP37CR1IsVQeC9aXwl/K51gwLkC1OIfrvUqQqHstTza2p0okGggzqlgRc+kQ0JTaxhi0Ymbpix5atNjsmMgmM2UTOxlHwqNdhtFJmAtEIjiWDH9nZpZDl/7vCxeP+BvEyIuIWnwrYp+pi+ExPNDaiPlYWLAVNCCoVlS8eliwiy3yNu74m4hXGSmCwVuQjShpZWLpkKxYWPyTAraiVSE517jL/KEkflcXG7PPa3uIAmPAnEC3tiBEZWBDEh+Ek2JYrpmDpHd97vRswBXMK8utGNtZMaVHVea3FZ0XsM7KszIc/uSKyRueHp4WUJRJ2w0hpqUxKkMSIk52SPq+9kk28p9bJIWHqDLGyENUbYwqDYEpLWPcKH7DIL257UrRW4jHQ4aw1kX+NL8PgmMBWTZgNLeNSbIasUQPiJJJELCq/0PZXMbwqJ2wJsZGUQ4CsZgHgYVk4cLsMPI6a4hucu9lLaEbDoUJJPL2tmwgIBKJsG8aTQhV0WqnM94PUk+SWTQRL6BLsUo/wAh64P+YEEp/YUS0bIcvJngTN/4bFGjb5lL5nhA3pNhh76Qf7bBY3SxFjuE2HQRvXwv0VTxcz3v6H/c/R5LiKdJuA8qnmUp0MSyqObH6JFWyaZ4D/tPwf8Af/h7MTHuti1ElC5wmj0I18jHTXnv0Sj9z9Hl+XiTU8fyPq0qUunGVMPKcF4Sb+RVx8hvReEEwlpohvwXwj8PF/Ate5flg0h8UTZl7tnQ/sNznEN+S2Zb3ONbqED/AEPC2R/Rzeg3YoylELCefyCm+yZlNYNHlnqz1IkqI+CApchLS7QtAbHkbY2kIjYydxWpW0tpfZcsSTxGAqTJOyftMmM9Birpqyt9SKn1L9PUoTmk08jzV+k12KFTcreDqV/zIP4jfm7kX6L9HHQQ3SlaCKh4v9FcAspRUpzV+ixy3xQ0fojFDBkKsT5T0AWb0SXL44CzlNIZU1ZmPAYHzP4VV3f5YBs6mwf8NoCzFX7Bv5jFV97Ho9YlGdaJkky8LUhTbSvkkZO1Rb0+GVPqZo4YBUcdAs3y8bFLMIgKjkuiggfkeiFYzyfwef8AgQY96gXpyX9Cb+l2JJ+kSzrWtmcZUdSedzab5MVwp5jyK36ZQw2BFhZimJpwcQJX5nrEI0LgiCuyL+SFsKwUPVHrCNCIQqCqjykhW5mizDv4lyRn5s7CuJgZfZcdic13vdb2WYRW4uy7Ct6I6IVzBjyZkK5Dw8ruZTxF2vPN0eWLBWuylniti/wha/4N0MSpUggocCHk4iseIQnNWLwNXe8FoTIzOKiVJ2oqnk7FczXlRYK2Bj8+dGup/NOji3J6DtM6hY2JzpChorVZNGqwoFgu+d1FhdRX1xqhlcSt5qIUhoR1ljkliswHlNjTSJLl5kobksaeDu9n3MCsgJ2Y/LBmV1ZeX2EDuT8uVmNXHlNbWGdMzF7BXMDyrYrnQWM7jqLheo8mNqi2CNv4szWowK7S9xYv9MTKzTMnvRx5JHtRTPjCsUb0LisZxCX0I8lmi0KQz0JUGJUIwnxd6FTCBYK6xoSxcoVta7OqmhyGRoQKJLNQGvjMdMrrpBYBXPE6iwJuY7JouKrMRnbSXB3M7GiOF3pq49PJURJDHXQuOUhFwOBEKJiNyF2NfbuLAamhGJPAk8WY50kN4tCbscTwVjuM7JiuPF62qzoBlS0CueBuJ0IlsdbSmOgcLzQ6qkWtjkm70d5Cl5OyjHpsUnnVVgQVK1EnijCu4o1JCuxbFxWy+TuJAlkWOzudsYBWLpO95U5woOguayXATuJIiqUFKJCELl8GTdQ2BZWbX5k6Ja7ElOrnQ7HRTMlIbY4MI4PxZlfCCxtTHh+xgCJVr+PUml3s7HW4tabxq1daZW+PIuyS8mdkWvEh0+ArvTGFchFJiTu+B2FjZEW9RWLReJWIeDIuHCN1K+KFgYkWQd3arMzol5IT5N2tTZVw2PyrmR1keU/1pbB8TuOnfcm3KxlaKnqbEIfk3uKzw9mfASXFUHVFY0eTG9OnqMPhdShvGlmy7186LYqHPJjvxpijELzZ0O7OhiHo4WpJGqfhI1LELcPDuzfrA8Y2pURqwRz8LjsZXc8GLCNr2YXAi8RMkVnT/W2q1eXvY2JJsodwLGg8PgoSq0Vtkk6EJ0xJIamwKGAwro2ex709WH/bPfnuyFFKNbA2hi0DTFNRq/li9TYoo9TffJm9zDxMYdDRfJeccp4dRGftHgRgFM/yIjJbjGbf662MWfi7mryfe1W8JYVJnQuygj239riqSP49LEMSDNBTkkxG67mCEVsQzUeMzoV3rA3IWSTZ146Da7FlG4pRsuxF0BQmyURbqc+4lRiJpkrWwmoxHUVZRpyG0PdCmfcP6QleE3NT3J70ofcUPtPfjhUCgSYFjQ1VRwEySfkx6/MF+nlWwZNP6R/0pAClj5d0Cb+CKP5nir9PL/RL+qEFplMYCcvxPGh5lNFS7CJBs48YEv7/AMNHnvw9szxGYjw04kfwM87fpDL7v6ez/p4H9OawdlynhUp/mOZdAKfk8igVouafh4X4Kn4HvEJl+hIjW8q6EYrzp7lZB5J9mf3DCzw1Goz+WRKMIiwZCXKWNCEuyL+KbM9WenOGBhsesF/KNmLTcjaRGzSrEhoQtCKYELQ+DkCi4ktwI0NBFxaT0vt/loKl1eh3Gzc1ODvtZYnL7p7KQDAcFZ6FMxWQ01AU2h60Tf5D380pqV/F1PNX6ez/AEZXVQs7mfompkdKiOJ8W5Ci6l8DG+k+cK/XLqKSp8cDwf4eb/B5fk4Hsf4M64EsxtVZicvPZw9Rkp1HlUzqMtRKSGFFGVfrZVnrio/DzKQp50oqHmkooK4Z8gXoBueLkKgwnkhyCGNELN5aPNR5aJv3RBMymEiNgC180Uzexm/zRmKqmbFTfcFot/LPM2Sv0bYValTiYsVCOiJX4FL6z04uhRS5oesPWHrLGpYBppIx0EkJNmBVW1yLMFZi2JTEOLIsnR1nQXVfhYkUsTiLeqdr0c6d7FiueDtdlwiFEVzqZgV3Ht+tisXPHFY3QrStWN6d14CUdLrtTo/+WlmdyqfT7F5zu5yeZstgIyE5u9HNlvZYyXVle8fljK50rMqM7HYvIOh2Tb1oon0K71o6S68fH3MC1WOl5Vbz88ZX3ZFWDKS7pZn4f5XWyJcbWhC4xET486S67WIywtVnUu176e9idVis8fa2TB2Rj820s6UwL/ioU6mIM4CdFQawCaalNNMeG00ONrVkMOK/Gzx9ldY7rYxd6IdF/wAIKX+g+zqnd1J+bJbDUJPMl0KVmrKXZK5Gorx0wnROhiSvkiX2mF3R+b9FZpyyENxzE7mJwOn2RYlRZG+kwIBKCS1nSMeX7BK51M6ARcWQw7VUk87e94u15qe4WBjGNJUOzNwvebte7liE4Hc2Ng5BUvLaHQ2RbjiWC7jfNHeeDziamcyt8LZXUd93u1J2MDgTbJ2tlbEzTGqE1cJghuc+rW3WltWUDyPWzpXaylySqk3E56MVt/xqJjgzEOxF+DEbnO9w7JfGjlbjCNq5HV8zTMiIWUBKc3oZ/ksak4nwD6I2MBBRcXLFOhVHRrmQ8DppNQZgvvKyQ1piU0OOxqFuhhnoxIVpQK5kNZ0gQrXhuxgcCLjy97rsebtCtnbIJwQQRLMwd1PldkXMSubENOqNgmSsU7AdJZiQQJzO4wEEEEEvLmsm51TveYPZ2tixXvdMyrghCtx9piRY1Hype6tdr3Q7l2fyo6GL/CH/AIrSu+I0uULq7GduzbKiOVkBJWNDNGZIkyK+ES2GFisXF1XieD4FdnyIozxMqBqjgdfHS70hJy4wkmlx6e46ZdWV7zpLVZHyZidLuMcrq9ezKYEVMaJzNm7REDsTmK7I9OJbQVXmJJDcMvhFCVZKEL4O4nQlEkiY1d/0vN5GY6BpVrFQzn2FTFG2PdHu0e3QpN+sPbntiaF1z4/ciKx2ZnQgaOVPyyh+Dd5hSzxWLU2BJuXPFL9kap7wgRKZlJRCZ/iN9bkeUjy1+mn5OIlnWynU9uNN3yh5QeRD+QTVOLz3sp5v8NUU5uaJoTRMY/8AAWQ3NHfidRY3Hxdey2OF1IEr4EnQBYWVFZXe9WjePPBV2uTCR0O68HaDsY8GUIFZJKGq4HKFyUIg3CnNoN6ybQp4REqoMMMNT2hH+gv657AiqxF3IOA0ktr8iEUW6IQfwxe8PaD3gk/YJlynkMyZrtkv5CcsE5PsPoYe4RHn5nmasR6UUBvIKyQvZD2LsRoakT5sr/UeI/TYw6pgsP0ygmD5FNbolT6A8WpGEIo/o/DwF+Hmr8K/2iZfsKLRQqDR/rPbTyL7JqTAqOuHmPIceDpuFnj5Z5mzYWHFXDEKGR0UeoPVi/kHoxJEadw2RsI2kQhZm0Z0KyCFZg3ljdv9EKEeTc3en+yp/wDkwu7WQTDq0s+wp/F0KuHn2G9qPM2sOnfVmJTuYaWKhUYn8QvTQkQXS/TlLU/TR83E99+jifBZxKsUxoK6ZLTaldBsxtT5/wDCt4ehGHBi8ok+OsJ/hsPyMOE+LMX9nnUSgcYeTJKajFGe9D035GL5edl2zSDVSll8jgvieJDf8lhDavqQyYeB5yJ/4HuhhYBMtWWUCJvvT2Aas+ceZsl0OY1Yyx4lJsihVCtNlSmJyrBsG0NXlHrhfxCvh5CLkmWRCVHI00No2yGIGDAJIoJCpZ3NlVltLElDwGK3Gdl/gVLX0BX8a7GsMlyRwFhd8HsPAw38MzswgzuPBlTdpFynzYiswRR4sTs72xXMB5Vsytd7qxd/3/3ztpyIVxTUQilqZufZeWfPja7esnSq70x0e7mRSZ172K1iLG1IuZMWFXJsqT4axO3rp0S1Wdr3MC7iHpMriOrG6MxsrcCOf4JHEXixwkNpKSHNBTzHhBCaeFrMdjwZLchN3rJVwLtHl1MF3oTldJeVre7wVxujOVV3s+5gBEsRhEtQ+Bh5DGQt5lWdd9WI5UhpaSeE0PdFIPM3d5q8S7Vx5V84v8JtpY7SPNkzuLmW6GWxUm8qzq/a88eLEqK54TQr4W70R0C1dFwisaWszEFb2EJkbu5GDxfeyKWZDdRjd3omdMIMLIFnjRuSrE7nejhdn8cyV2XyjlYsPBX6g1PcLG70SGN4zbikSig3Vu5Gb0JZEBCPEOcy+A0mOHh6nS2fBWyPl4mhd12VjDc8Hq7ZtxJu7E2VsZNLYkKIHhRnNvhCRZmpLk9xqRNUaHXHrgNwSjCEKiUljRufWx2nKh7YrSEnBFe/2vQunqFjF/hSzW7V5VCrYsrCyLNB5OxjyCXBAV8tkfmdhXU+R3GN11s6IO48R00aMbUQ4akwpcxXYw8ywHCbT4yCRm+93I8je5A1Ik1u+9mZFi8i2It62dAsmtiOksyrchWJYLvUjTCMCsUaSQyWNzJJsT5a9G58rHsVbzv2F5NitwKe0wWRb1vYZGcl2QLD8pd7ytlefkXaD0sgizwtrk2N0+cSSSbaPFhdWV7v82WFiuImjKLoV2VCt83vZJVaEwkyhlA9TKJG53uMrcrIPi9wsFckhV1nTrrwZHjOhA5poZkl1gVAYowRvBYzaeFb2X4TdWAkQWEu68GV3AiB7hGtpFblbjci700WF6JtKlRqB+cFdT5a5NqvElXO+yhlCbG5obliSSGolJGok4xI3lzNlzPTj3aMb8NLnYogTDdDiS/oe7PYkDwQ0U7yeFMWXP4ZvcwafN2EGwdgv4lZlK6c/YsASinKGoSbDdYPNX6eD+jz/wBFH7v0O0ausqgonaFf8ytg5Pw2ZT8rzsajwge5/hP9L8Jj978Hs6zzqPe5a4SR/Cz279Hony/Ty/6eO/TDh+As1RxjUeZTyIY748loYnFZBna7fkQ3Z8EWKnPqHpZQ7WIzJVnitbYWJ8CW05AlCSSPE2YsLG7Wh3AWBInbCtqGXx7skKGhha3tOFKEeXvcTseX8620sTOrdzfQ9REeTme6HE+4Rpqpqe1PalOaWsnuCjVxQQyMpLL4EyPPmG7zBSpVLUYOwaCbIPQkf5HgQ2KOEclJHot5WdWxFPGYhziuKfybbmbfme+H/VGrZ8iQ1GJ6DjMYOiV3QHqDY8hbcM7c8kU2w8RHno1rcmc3ee8yH94vaHuR7iJzMLzDTiqTMbjmPA3Z6oNKIofcYL6J6IetF/PR6ZCnQmwhK2gSchsiOhCJTwyEYrYQuRmu1sW+JuUsje1nTXjZXfM6q6zql2u9YHo77juxYrKxZQ6t2KdcpFHYt5vwKuHn2F4J2NAhVpKKx6iQ6Ln/ABfp8Fsv08Bfo3S3grVTiL+oKWbxRxLgPEpseT8EMktfUaSD4f8ACmu7/CcnNE/1Mx5YXhJhlEUxPAmerZV+5+nu/wCmsNtiUtDrdM135RQfQhzfX+D0/wCBteilGTEv9lYKUVJjRNbmyU8Bx5MUledPK4veHiZ4WyWPAy5GzG38BIw5Y2fmP+aM1BGgkYcgh/I2gtByMErEKnwhDQhoQiCenWR8TsQIRsCrwZiSglZSzAEars3zkEEEEEV8JBFiCEQ+TAgQQQhJCrysSERaifCZ0gixScYKXixFhd8DaxnS3qXckVxqe/Zen5WI7nW+x8qF3HeE3Xic79JFnAmRiJrSLNfpYrU5o8ba4zL/AAzMyhg4GLT4CCx3KGWFkPhf3IEkQRZ03s78YFcrFbXwyXwbuaOt7r2m9t515WJViVdiT4rFa7dIrOmZ0y71k6VXUU/CtmruYFiFI047Jc0kkahISPCMk/5JfAzskmw1HwHfwiRZMRAGdsa0TJV5iLC72HazECtWr4SruZD4bzwWpR+3FExQj4ozNPUiSrjew+Hp7XcGxTa7UnMVWimIqksPnCqFi2E0talGx4e1925WZ2TZgfAythW6/Dja4m5wKLOqLJmVudmKY6AjG50xU7VR3KEyprPdYrcxpsZNzmNH7Cz0jW1JLHUiSZ1iwCu+W1vYK3fe70zvQs8UdIu9oPRY7WI9mfQ1OSQ0DO9GQOJDNxcBrgTJQjBNbJt7C/kjbtbozp1qDELMwK42dqTYSWpeBl/oCiHhJiRb0w08Hd8Tci71PZbNkGSuS2E/qGjxm93E8ra1f47W/JJjTw7Fah6O99bKMRnGJRYnaWAlhYreqnTCuPBzodHskyS4sexJsKMc4BJ8TEZ7NtIUxdp8utmALFmXgNaPkSNLjmzDeU1G5TZ4m9rsxLydeOjuJkeSdFdqQJVLeMFAHUOyETVRQgYSurJJHk3lXQ1iV8O1BzSUO0cwOArWTgSMhYpa3m6XUS2P2vd6TceDOg3XVTbuThdbnV1WSrJJKb33XcCcP+WSCozNFRxWdDAaNfYpFbQj42KsQ/NmBswaiVs52Vq3HRCtQ/qwqunROBW9xORjy3GIhY8rPA3uKzW+69gvWlcckVisow+y68HeSvjDpEOwrO2vBeQEoaEonbEEPksaHBKv9I/IVzMQ1MZeYhqJXmbyNse6FFFUPein+49+OWK3EZnUvSSKPANgbDqLKe1lTFzDVahmIh/ue4GNjnGnzBhFUeCip40eCv08Rfp4K/RRfgYLoErVlGj8gvXD0J2gxPByG/FlwJj9hP8AaT/U/wAODrPGphrhDJkf3D2n9PC/p5f9MPcBQUhzfkL1RvOSwhWs1rBUqMPycjyEOAZf3KBQ4R1EJ+8exG3PmWRL2Bh91/wanY97Cs0s8tralGinRiIp5v8AInSyamVlfHE/hWTa5rFzla2Dzm94XUm7llKJWqNwwaDZjS1TMg/QX9wUn2nsjBBB00n7hrMebkzcfITMHzBwP7hROVLQlJoco86sr9lZSuGU2yWp5niZR/Q/1UkNTzE7Ie0PbEhzaWKFkg4ugilHidsWdyik0x0PChemMtbHyspJTqJitszr/cfsiXSazPcntBuz5mLd5syq8xpUYWLLlNseuPQGuQyNhyF/AIchtoap5xMDkQtCFoNIgVZSCRcB01uQePsRbFmbgvYTT6/59AYLvK/S81ju1gKV7r/bIoLEjYU4SQ5TwpniYXmPoQp/ToBMoubtWm5Gp/j9F6P9HEw1Je7ie+Qq3ZG75DxKafh4DFFynwh7Rln/AA9i/Cf6GN6Oo4+ojNyGTQBRSZHkP0UtbH3xqN6/MedpCgiFqUHb/B4P4PLRQ+0mJGir+DIx9s3P5ntJ42HpcwYSlWsWLTEmKGSSprokH5mSceR6gS8psDaGHREVP3EIhoQRYkTW0sQS8gRcRRbHQWK3DrkFoiJIKtIlOE+ROzsCtas69eXTkkkNTcI6kdi8BwE9Ceg6mMG7ibxgloZaHATK3CY9FZQ1JRMnh73FLlJJDHzdxWOOK7QnzS6EXcCkVfe71gwOF1allNzqV6lW/wB/7KzByeDiQpEiBQQqCebmiKYCshWef1ErzOmWNa1WFtKitSXk8PO1WxwrWuKzHxBW1alNkj22Fc8prdgq+a70zOkXsbkXY8owoVkWSFAfAgsSQYPmKxTpsRrs0p1ynGRFoGxYw/ihha1YvhZ2UtRfEVPeaEIaRE2MdjZ9woMDeJBc9Bg8ra3IVjj5NiuP0u17EXnIybesj8ld8XqK78+8JHnn/lJhd3PPxuyO/ByvLK+dbqxOqHRCCmQu6rUJXgzK+8BeiXkwniglFr6ZhpSkiBXJMPnreXJhPcZ3KkEiuukH5dqsnzIwrvdFd6zZFyb3qs12uVIMHmrd6I6bYTa8UNO4sLTEQWfNharfHbf6RT4tbFanJZ0yxGVmCxR/nTpn3/3xNSlPhNytlG4lM7G9JqBBQMTA8qiEK3r5W7aNkSM3Uq653Fqhw4jyVPMiSRhcXe8qUPk70sHP/hiFVtxzYJfBUKqRRDCRvBzJSJZQ/wDPsfyrdeDvXqh01xGMYVanUkegK73JBW1WqrIs6hdrIsRZ4G914fA/JWRW1UxJ0WxZ2VkCt8jtYrJsan51tkkk5dtNmDgOm2zYx1YJJESIxkJWqNobbme0PcDyKEvr/JkK8lPd2s7dR5VrKjUZxXZHF5MyWTZmZXX2OkmwhCShF8ASxs2s33veX1vde7XvP2WZGwVBJEyKs1INgCQ3NzhZNsZjqtm3H863ch+STciDpbVZiGBW5kkYcArJJRI6XFtoU1JQyHsDZGx5mz5j/pC+YLMe8F/UJ/2sZ6I+czyJjVrzHgYl/sOpTnCSGmY90IGw/SeKhtFHM4goow9j2aN1zRXx8hueQhxVgBR4D5/8Fm+Pgeyfh7JmU4Bw9Y558rPYP0f9T+migLZ2H5D7NufKh5EF/EROWGGwQ9d+BeQ+jwkeKide/YkI/wBx7uZvWnuJLZxrNqYVXMbrmzxtmyGUrFippsetEPzPVnrz1AtJKKv+DIq+cZGpW1H58rFkKU5GUQaEJ+VRCsQ8Dp2R+DZrksBsyJsM4qB0KfJjarXpYk5tkbzaIZjZA3jCiqZ7EX6DRiv5K32kJU63FqGqVIynVWK7WHsSDJ1N5yZucwkrqZFaAL+0NA2TslQmmBXhIo/eit9iPGx1iSgpribbmeyPaElR5YIMIESxHoxQfUegJaVjgQ19Ct+R+sSvHYCKVRShRIpFL+5H+p7MQVmam9zHkYla8zY6kAwJiGKxKSvzPREX4GCmA2pseRsI2iGlkYWhQhFLE65CsgoIZ1XCspb5fWxXE61iuZ+C94GyvKqOl3pL3j7O94OH+mVxbjdSUS6ZnvrKwaOTN0Ho/gNOWB/KQ/vA0W/IgyyQKP4fosHWVPdxKDxcxEm55TaHS8fAysQ8/wCGklzfgv6w4eomWPIxL+t+k37/ANGKFqX1WF8akuvTPUIlp0PwKEULCjE1+ehPFktsS7myRQvndDwszVbmETOieoFW6SxyEpfSelIMOSeoKRIfYjRVTsbRDQhYENCBV8vsUEU/xgw+JBFkHXjpbIFZ05g3cN7oagv8iwbyjfh/kxnyYHhW71ca6sOxJXE82l53t+T7Xu+73ZFwCuNXww/1Zf44oqW0vYWkQwIVkDno/QQoIQ2kIzJPi7i11tSMhecKeGsRFizMbyreWvGvPO39LJVpIuJaOwrCbR+Q7WIdvmbE3cN2NnfdjdvVjpRiJsZ4eRg2OyTvIwIkTtx/6VWOmX/DJuYvjUdyviDpF3yN7yne+t54eK91K7XuydbZsk4PJGBwu9te5r6f54lLizPG3EK4/iZCGkZmTGFuJYUFgJoSKzpBsbTe1r2aXRmVyLGVPzA3dp8SltbXQxk7Cs3lzJTzs8Ha9kXBseDO673IOjOiu07KMG6q+SMCtX+Bv/jiHYj4nYm743W2STqR0CxqyBJbZ9wr9q4zStehcixqHil7qF3zGh0a61HvHgbFaCvzarqcf9iuZ2uOTVt4alAU3GxV8H2LAyslJVoNTiBFrkUHQbJueC1sX+ROk9rJuNg69lm9kWdQuwipESSWBOo60a+ziPzu5edCpLW6z+WSSO1icRNis6Y6G70hg8LG7cUwK1EjkhTmL/X+HJJ1i7WK54PW5BicCt2cbqEsFdaPhJJJsk4lQtmyTo7qTyHMnc3ER1RtB9UatnsbYuZ7Q9mUK8wwO+Qi/e3Iy2RLh0sqx2M3HyY9Fpp/kyRXad9yEKyojrHayNqvkaaslgQO+OBjUwAVxJjm4V8k/tox7Qnr+BvCapVEwXMI6ParcN4ze6ze8tovQ+fsuTZ2nayXahCcr2sVzeCYJrYrPBa3VUuFwyrOkIk7JVmP8GAkgR1RvCoqykPAR5eZQKnhPdWLE79hqxBp/Y2hgnXjdfI4nMPS5x6s9UIlVWMh+oSeHKPKQvQE/wDIw5nXNR0Kp4CSyKgjiZq+ahYsq/cxOeHUeNRLHPIxatwjQSdLS1Hgv08V+iiqTYBZTXCFmS+Ba7kivi5I8RDZ/A1QbD2VheBkf7Ch9oXU2FKJ5hJ/Q2nzZIJokUxpjPXEGHKKn1lT6R+lCATO6RtjbG2NIEkiCNiEJIQp/wAZhXmQwLxvLqGMaUmPDoDlKjQ/XrMsKiL4FAQ+BJJYWZmsyMtosyueZ1uyNzF1uhj4ydjcNxD10NP7D/oFAA9WxT+0h397AaM4fpMTrNpxFDzMbXNJaAQQvGiN+I0QImgxJVCXrKf3I3wSzl3ibbDU94U/sFQ7tgups9ZxH6D0p6ocLp5CBHSOP8i1fJG9JP4m1IcQm39p7M8DEi/cl3UkaUnzHF5mw+ZnicwlkkDCbc2h6o2ZgfibI2EbBAhCeLUSENCFoQtCEL0LEETY0NPF3qeBdh8wwLqyvC+V5Kuk3lz+g3eWvFuvBiQvZdxOLdby9Lv/AMDIVEnEVAQGTcOeYcobzmIrdE8Wg04jnCkjrx6+URQUdARcdMafpC7zH9hDzqaIPNfg3Jz5uBWpW4mqm3Er9xJdixy0fN9njv0YdxKKOIbYwDcch6EV8r4HAXbJusRQJ7ib18xvxfOFp8wSLoTUV2GlRE9UetI/xH/OIJDQJWU2hshKyRCcEJCYytVGxA8hoKisaoEthECXq3gZ2Y2vB2DO1YFfCHo4XphWwQYfALBWPESIKhuO71q6hdNE3GdTvNPy2JW4HcdJd76vO+de0eK2K47i+PK67zdl3Fd8nH/PW1q1SSKPwLSchRYMSAkiBavihSBCIrJAroCEcFxjhJk9som4seDW9Orey+bsHd6O4ws6a8TmoomYtiIhWIbyaXsN3PA7i1KzpWYF6tyLEqWI7cWCuTUcvJgKylvjNVdRgjZdqeNte8De70J0V2cuKMrr+HS5NmXzjen48rkmd4wcugnS71f2L/WbGKl8na7mRV4wdCl2VHUYFwK2yQrwE4NpWIm8at55Tp9L3UKnxZFbZMdtaRFnR2vm3rF2GrGRnYseXC9HmXvvsztblDcq70NmSsmyr4jArWrEqFLJFfwmZ+C90nsryVeVbvTHRr2X+e8Bqr3XLtepRbvvd46owrvkboWH+Kv43j2MrmIvh0d1WdhcLrwvp53W7Iy4UOl6MHilsf4QZ0q4rHfgyNRcB2UPC2usofFvZG7si3oL2WeHc0WY2s9xhXGrM8LVgNj52SEkjtnTZTsdnWrteRDS1W0swPgPLdl1zWCtkk7C5JDUViL+yILNEePMNvzPeEP7ndA2JHHUNmZlhPBIpqaD1PIx5WNrnFQSFquuARC7BgnpGAfkI8D9DWjQf2LD/VW5fR9hXXoRj9RGOF9pQixurgNe0WoeDvYPxS9hWNJ5WtDRNp9ST5GSvJUabkHQe17CbmRRIybcV2pPhYpsTQlanKx1CuQ1ZDY8xN/Y9wRhNcrMjAUysk2JRDS0NA9zkzzJmi5x7LYpUsKch+gOa/Ifoip+Z75GdNsopUew3nPwfgPqy1JTUmpPsi85InQKZTyGR/MypreR6UbVRF8CoUh+sMWp/CKglTJI8pEn8zz0J0HD/UhS740ZsrqhI/Uxa/OF5ZFzY9DqT4hDWhHjmGTauRF+ZM56B6A2wlYKQCAbQhoQ0IWhCFthFiTxZ0avqv8Ac8J2fYWCK0EVsfluzsVxWx4fC2bHVuA3KtmxFC8dbskaXHyJuti6GDNDUq849kP+QGKJuzahJZSvi+Y3uYeNyFbBWVhPIiZeEiZfiUA00mo4MfM2g2vOx06+4xuJU8ifYPKpx8EEa+Uj+YlwGegtByPEkedHqEeIidcFZ5CJEU5+w8TH/YCC3V3G7zMya8zYNodaWYI1xG1VYlYILQlInHGhGUknAbSIUkNBbp5GNKMCCK2NHUsi1naZJJt8raxKphaimGqbsFF3q4Z011ule1mNV6mHX9L2T5Tdr4RSnZdWqXlBX/ix3FZKUnlD2YsHqorfWPakeXuQ3hk6PQW4Uxtz+ZTPpFA7mE0oQFDOQ5o6n6NFuQYxiPH/AIeR/DKYUlhPT1jwUeZ6JlT7/wC2HeoEqiG45BankiX8X4UMXke1JcAr0HuYlncXF78yX1M43iOvwFA9WL+eJGHIPQFH6hBMMY20JNER0IENhRHnA4BJQMQQhBCCGYLOtXb/AA/K1Cwl33qEQrGrKOC7kVjcowBY2pmFcR5XeeuxFjdmA1DeTcRhb1iujgaWXehZ0V3wN7yVt3a9NDZ3vYHfdxOA0v2XfJ2OgF/pFqJuklP8Fu/AS8htIWmIRQjzQRAkrIQvNGHgIsxMh0Uma0szuJW8vN2VqtXl3kJ+DiRF1adgrciV5O1sRWySq3pMSsefmHceBh3IE5Ql26Y6QRNiO6rkiZrM/aybZGhPlS3EgxEi9krqrGE3d2vhEbpiN13vdd7r1K5re4fxRXXgzpt1ZQvy3+Er/DRr+E3cfBXQVitk4NZg8BWKx4MZXl6irdntyu17DwDuqdqJQi52N6vxhLGybVvClNlXHc3qTgDm50QtI1cxux01it6lCwTM7WUN/NDS60cAMqJCshybBtDYnc6y7jDVLe70BP4V5LC7jdna8lXd3vdC7L2Bukmk18P/AMD+gztViS5aDK3Mg1mc6A+bjzO9tm4Cuu3x12/0gnyne6gmtbLy87cwuVOjvPAaGFs2d9dk6hmd3MTgdJbBB1Al8BBBFmJx7jAIuTqCupyRF3B+HuNM2YFzqF2u4wzmJJteD4XClEJEfGIhVRtuZ7I96Q/mK7kcz3p70qUcbA8aZiljyZ5GGj+hS+xZRqhV7NybE/4Cgn4yt+BU/A9oiELbjZ3jfw8Z+DDPNEksHJ03/VW4NbjOyE8IyQxE2Y7edFbmYDKZL2PiXnngu3+W4mexPni0dlTQVsDh4MR0sbKxZAsXDcVickRbFlNXH6XsXEvPPFZk2LZStjcRId4wqU1PclCesVYrcbMVcXUSlk0Y1/wzLnmHlY2ucNOuni1GKCeREX5IXqjykVN50TP2Q9ZyFOeUKy+Znq0Eledi1o+VTxqYq4aG3CDgRti44sIo4ORXmnJHoEVfxPKX5ZjYfeHoRVyYlVkt7se9DZ/YwA+bK8y5sq/o2h6YWYlI8OCMqMD0B6g9ZZWCRbZsIhaELQhaCeboRd4zi5XqI7vvdTnh+R/4Oy7XJsaJTkNLFch0SMiTgMyZVJvZNzrN5szNdrraFRSvaP8AvDT+h7hFZtxSpTjNZiTExGp5kyvEuY3zSZCzyQ9tPOhB0e7gdIOAg96jEq5BT3jjQbAZq8XA9qxe3OHqKaqhSeoYqE+TidiAQJquNuGM4nojWfkj1iPIRSH3QySna7Ih/Se5G5zjwNij4rLqT0sGNLKs2BFUnI7BJISbE2h28BUHA46BfxEK1CFWAhJQQiEQiEKUrs/ld5EJM3JxcwUZK7iCc2672rRvMPhdj5ON7EbXlKrzj7K63euXf/hT5COxDNo2XMrKeah5iPhZxtVkI8chMY2j+BNmvMNjnmXU4xaSqwo6/wAL9POX6LH+Kn6YXcR76C48VJuqx5RR+xm1c7PGGJPjzH6YXl5knIOPAp6JHr0V69En/WD4mjYe7m78Q8zjQhpv5Yjq3SFJi/nnqz0YyEpIizI0x4ZtELQhaEKxpQscSCU71txeHvYrKslvd3MJZ7CR8N5MfVeWRqxWOgWxsJGlLVksI6sNL9rywLWUJ2ezVpFhdeHxXqbhAlQpZXE+SsTWjFi473ffe6ko3nQXfD2f6QvJ3veT1sVtXCXf/hZeNSmlR8Cf8RLUdM9eEj8BaATXTCQ0RGwkQQInNrFSTsiNrMyBoq+fvdodSveVteXl7it7gkDk8Y2K3O0aXohI4NqyyKnDiJTEM7VjfmROg+XYIwSsc2H8mltUElS4eDQoZN2jAlXVNTyZjcbjnYIRSteyFsTQmSMKGIDnlBtAkVjKsBEBJLYiEdQoiTwO4sLkCli2dXbwbK5tGSVXFZBQbKFqZaC0YvMKjsuaxoY796ll4Tdq4oblLvibid3Ebu17xt3eflunT/Y/U/wn/CHI6q9gZ3ql286S8kVte93cb/QQkpfKXcwRAiMVYx6mOXDFVg/qnQiIeBKz/QNTbBTnfzEiSyaKZjGQzaCXFNURUqifPYKz9LY0SpkNFg70wmmg574iEfmgkkoVyhNy9ilMxMYVETMVjpgUpj95QcxrgCY0DNRGgnZkbwhNnIeLHToJosRMjBsRcokycZEwlWvI3GHuYLlbniNLtIfAmM2sCQTwC0CElQ1mAougrHwFHFXa8vlZ3ekOjXUnjdwrqNu0q5WZ3M3D3vNT3Xepncd/8dDS92/YVxFISwu1p3nTkCMrZR4vva7fM2vefteXS97ILEXpI6FT47EBTXxKpFAq2pUZmMap0FypxKIJDqVpY1yrHhzpLUT1X2GJUDuIpZDqyqwKIyHIFYqJWdJ0w0g4ohOTEJgY8kcAO6OlwxmHS+1yco0NUhIe4WFtxPDViycQLVCUx2NUOsEYPgBNREobjF7iESbCSsaYGrHmzEwK5B2QrIsFU3YRNkyLUFY0hgpcETcJHTtqFC/FLkklGpYxozRsuZ7gz+qOB6eolMqjFjRjzrM2Z40xiq+TN7mFOe+bfOPabBVuibMoT2Tzl+nuv0eGiFUfwM1zlhqUVCDTBRpP40PbPwn+xlNiePHNHhUj+F/pH9b9Esxq+hy0fZhLd/41vv0exoK1CTU9wsLmBjt50NidvAwuPdeebmmx/FpezPb3JxsYK1BiVhLZkybq1EjT6iIWKAtas1ecqJGuGluytwlr9xgco20KRsFiqcKDyCwtvezU9AkfAICojMRNRBL5Kk5NBSSGM2hcl08xC0NE2jteeiHSKoh/Yf8AcH/PD/tEnqHvTYkUSjGgmsXMNNi+QtMgNOf87MxEv4KEV0Q2uhseMil9yKir5LEaeUVVXisied/LBNKloXyGEF8h1U8uMSvNeZH8DK32v0z7+CgQVECs1xgFD+RveSFmM+Een/B46HEYrk3+1lQIkzc8KlMnG4xZ4GKsw+bPC2bKyHXLT0F/LPXWZ6Ip4eQnDTGhsIhoRsQJPEmC2lnaiu06Tbve6T2V1ZA7z/abOiViszFBhFMWoyFxNZ0a6+B3+6ybnXbJJJswu1pkkrUgmbaiGZ9kkVan5EYnOMExxaN3YeNV1EoxYZKMb+vMksgaUjT85SEeOv0R5RGbgoB4ZwsejhGajoSJGHN/gv67KseuNih0cGRTOKlEaRKxkUPP1KOcImluMYIyrkK/0fgTV5CrSov4n4PAR70lMkj/AGCllyZic3zhvczKk9zN9zNoYPDAL+GR/kL+ERfhYGFGIjOAk0IWljVGdDckr4w6a88KyYHQrAqK4xIYwkRg5rSSVYi+MU2tAvyRiN7PP2vdJd68PyP84eJ2vdj2u9b7GNx/5yPK5EVSUStjeRD+gxFRkqRL7j21ieNM3OYINYmRJ1Wmsj/In/meP+jR56KWX4iFC1LrxFfy9Cv9gl8usVWPKz2L9H4S/mUMKg7mOAf8P8HgL8KdeeSsapNR/wBObjxY1ZfMS/7ZtSLKF4ZyQt2hdkHjBFUk4sWaKWbSHOzO4luIwIgSsqW+xCNsymeh8NSTIa1JGXyu9iJJRQz8PeyRpCpWJctYrcjohSImxuCBMqfdeBMvNW6x+Xa7MPuOju9MYQx2kp8q2t2IlA8TyNhDFZJzFa0KhE5f+AKPNhe6h97vVzpFdq8St5uVedLYVvktB29n/XNqsCUk1+tiq2Er+MLM5Y6Uvb3EsEEjBGwbAlsJgMwk8NWItSEI0Fc8ra1XiRa3h4utlSNroSbVBISVmO8pViXZFnRMrZEJhNMqeQpRIU/O72ytTg8VsYhUWLo7rOzKiVpxQhYel05KvcK7GhZlYqHTs6G71owhrFQVSjwYiwK2sdLyytUGichoErubhvT+N2vZXhN1ZG6NdlJ5uAv8zXyExWITkMah5p/hG3+GhGgrkQYQrVkddtbKxlB6vCt6cfz5IwtysWveGnXw9bGiQxJRW9GdUJMkyt6R3UHdWu28PnGx1JEsWQJnY3ah+kbrrTeVdqO/GuusCzdk2UMXhcDG6E9mB6bErFBlT+FRYXHmNCaMpguv1LzL4xveFte8trdfksrbttkTFZTScJJLNJ7hXY/L7XJs7XvbJJJiSf8AIrmVjok20s8nqIpbgNz5nNLEZWVRULwkwFZQd7SKN/7rUOx4fGN6oSSk4XJ7UOxTah5kIQ8FiR04+xXD8m5NjQyaidfCTawzDbK2oxnUrtewW+xrmP5Vu6LoeB1AeeFadjMWBWomZLBiYvYMrJHYdeza5I3m5iSBtD2hD+om+lTM92e5H/RsrwJiy1vJk2DcmeFzxuaHMjDrLEdZplQerR56/SqHRXFGPny0oEx1l3F6uzcGy40/FwJs1ZavGBOOb8njUjXyM9g/bCOhrVTZB5VN7yHqkY31lC9/9otRO2TAd+XiNdr48m4IpIrlT+Vb3Ru17wm954G680HTTAXAoOIkh1WmJmVkrOkzYEPWKgjFaShnRDt42tVGpQZU3GrxKZBdhuIToMj3xBjzLJP+mavNFrGJD/DKePmPO9lJPZWo2bHJ05YneHIQvxSPPRyTVFHuUYyrC2x8z+Efz9CPON5BQXME/wC5nB1lWMOYmrkYg1w8BXXuv08z+iOeBSKR5nEmh3tIWL0UanSMEpWfsxDdSKP3z2sx+5PAxxOYiWBpzUp4LI9aUo6Z6sTR8ER/geiNkQ0IaITr3cD4HRLsOCzYdzH54O814dbuhSrf/TX/ACbzepksrb1w6cYCi553WzMzMmSdK7XHYujskRQkaXqHvhp/Yaf2PeHvBpZWsjITqdrJ8/gw8ufzHDIMYowpJ0gfohxtRPAnp3UbowKuZtxDVEqNntP4aXPY3N/YVezNQnwyUdDJUEkkgIlXw8p/Kh/yEQCrbQofz/DwUR8f5IusSO/ErpqO4kVebF7Q3nOxNgOqQ0JGHLPWEP4D0BDgpgdUD0EPGaExhmK5abK0vhJApAx1R0Qjqx5TBjUQws8YdHY+SdXobuDOkMO5j8zC8qiIHUITsx+eH+lF03exWSih1q90l2PxjCu5168VrdhnU/f+7GwQsKE2JkrUVDD+5AlTzIVXliEDpTwpNFJH1LI8hKu+azXuprJ5SPJ/QnEzeSzsV5Hz/wAmhzf4Nv7s8IYuJMqabCzz7UN7yHoUavDoKHeFqnUlm4JP6T3kUibTfInxViMPJn1EsF/B6UX88Wn5G2FqKgKGAk2EZJyICZY1NgiasmiARijJSQEtx2Ir4wsLj1FpDcYBrGRYw2wryJ8u95W1lIsjIjKjoIQmY9TPQTaU2MeDOsGOhHgQ0GyqdSH5JVx6kiTAkhGcHQCdjzZW9B4bj3CniswxG0hxBnWAaooxMwKDQpGoYbrA3MojIdVVbM7sabaXmCFdljRbSYu2lWMEm6u4ldRW7IYFd5O9eC2vdz3/AOBUFVQQePPiLFq84mxd/LsiaLPRHogkfiJWHIFpDaFqhmFXxCGhQi3xutudiOuXa5nZSa23no7u97mbDO4zQMDMHlOAqwQOrQ5QiQS2VZ2GIdfluRYlYHsqiSKpTwyauC1CNWZcrYWIVNDkhDose4/6BKaoITmLsMq3YunMzGpXx5kKxjwMRu11GTfjYxlStjoyZQjZCBAnPlfAsaMpSJ9TbyPkMWUspl6iqVXFEU8VCE0Q2dJYLMeGY7ho1dkSmhB1CfuRZTmKRFL5pUlV4zYtSRI2fyrOu3FLxqxaQWWQkHzQdnscdhoIk20FElviOig0xDDETSUhGa+ljJ/NZhcLuo94sLuL2d6hXHvZP+yiV3BeMiwu9cOjEWKzA8rrYrkPmVrHlZ2t7zGqvUU7GauRr41iyY3itUI6TAhy5ZOToSgOqmDJQjSAxYExxhXV2RWSlUkFWzIZJxuKaSp6tBsxSE/iIBtZ0wgwcY1ZRRFBGD3XYxjNZSRZlEd0snW1fcc+/Goo4ZjWoY0xR2DHLESkfKiJUYJWrFEK+o6SxLDQnJIWsKM9hBM9Yc1EzijKVQUBpMvUXUMFFBBkJHEsOkiErchWNc13tifGQoySxlYmJSUOxOPcWTizyFqy1U3hTA+RolVlbuKCWpiyQ3Ksm4ZOyl2KE2xg42Rem9Nkd/8AQrJtbycxO7146ZckzR57WxW1OuXa92N7V3qZlmZoWVstismVh04yApWYjN+HrtFUGkXh4jynAm4qkjUpOpMODXgIakW4PA81sREJkUzNEk0Wlkupa4GQm+cSOzPURPlDUoaa2ksZx4syGkCFhGgTWArIGha+LuROKMoKkgtR4DJrY2ZI2oqYFXFHTjQkLGh1UtBFQ4zKmVXiYehlCguLTuWIuRnp6mw5myGjJzJZ1D3os6lEe3NuQNproNjhuCYuJ1qURsLaSAgiAwfQeAjykRkXEkab80KxmRlsq4yItYjMpDCWbJ/pY/GReKY/4rE5JG4rMA2XILV8kLW8kbhXoeWioTkvsIf2DZ+w4kP9Yt87cVqsrTzqLBXesCWStzzGt6Ju6FZlasW6d72O+L/A1jc7uzAOkID1EJTE+GFo0s8bGRQkU3jDJ9RXWlBLAoRYFGv89iMDOe4y2JMR7FKK62FVSwHtrBVfvQ/44f8ACCkUFINiac/ka085sc8WVz4vm+TYRulT0R6BHmfo9mj1ARSLOx5H8PD/AIUTI5+BlPgfJsfWRq5GUfuClrzhVkUMPQQxQYVA+VBIbcl8Cg+pEpwVhQ2N7Gv0zxu2gIM8xZmL+yPK5vOaw7QVgkqV/DMDtHphfzD0BhdwDYRG1zCci6QseTEgSsWaA1WtjoV2fK7mAdyXyOxKUK2lnYFfn/Cvi1fNqtXM/izCiluYvOHTBEWOymwFcd/N2E2/JQmquTuK4+BIKGpthqyvk9ue1H3UlUzDpqeNMx/tKWHNPdzaBvKoneHLHlEHESVkbE/4Cf8AgZF1QKWDxwPP/h7An2zg6zEMJ4JkggeqTTFaeb5t+DwoRltMskejX4LM6RMsP5JZmWZTRm+lx6k36TxMPC7ijECjFIr1Q7hJ/EX8s9AeqPRGCskQiLkF4cLwRpy1xbjbSlxmJwKuHdSeMH5V2EpwMA7mBwrrcm1im1dNeofGtaR6D1Liw8GYra7XwypXXr44DkDiBH5s7jR8foV+F/h4G9iJt87coJIGy5jQ/vNreoiuukprgbEnwnwTPMx7wSYODkotqyWo15vIw+s0StwsZMaoPcBqBYFOIt3KxpskUia/Kj1iHh541pqL+mbmj3ApVb8h56fNikVGAetIn9J64p/WJP4CzEqjbFTAhEEEjNGIU3gM0rBIlb115015G8nXrzBCuZuyvdI7Cod2t8WxoVpndfe4zI6a7WjcdLe+BXZ3q6p3uxveVtapIeYlFnRqybWh4wKybWr5YM+HyTNc6TuhX4X+Gvhwu4o+pQ1ekJ/6Cr6I9xFiHgqs8WLQfNi0zKn1HqhIfQUYuGgw7MhtiSRIhYQSLKyLUVIR/wAPxqGt41HcdUO5SuJ1BXehsUudcvT+V3vNYvNbynZhe65dv8AanG40vxXoxjC71oeeFd6cwK7gErrc52trbmWzvarfO2vd1dhU1mFYo3OmFnZ9ipO8etxD4P8ACf8ADte5lYrVlfKohDt6UarqlZncm5H7r2sy7bzweMb2BBf4JNq813usfa931uFr0dribPEbXsG8mNCJN3xNr01mm1sdfI7k3YxjCxW9Ex5fGV3qh0V1o8mIv88xW/veaht7Lz0/Nkk2QraxuQTeg5rEjDoLAxwqpg9XC2RlLshf5fNqKFM23cWFitnColhcRP4yrge1lbkyuBWLFHFWFY7G6Vewj2vOrZld6u2bfEaXZv8APy7Ea4kxKSnNvVrz6nvemvg73VfByBCspyRvOjJVy0IV5WKXO9bJI3IG5RNkknXB5fsiuhJIgMpvBSINMY9wol3j3h7s98OX7yiaQ2BJgwONPNutSXIFicqnhSPJQn+LuP8AsI3vITFVuB4n8JPL2JP0fg3k5jMSwcysRLTUSRZnP/prD2ArYBiNjpCHX5eFPwkSVVjFNnQbuPzyLW35C06SliHnM80iAtUE8nzZ42zOgQwgV+blLnlbiwuwj5VGuvz5lNFqtw3BSx6W1pWtKLsZitbI1Ju9U+wrrc8Uk3I1dXa95G17obEYE6bpgt8Jta7A4gebig3EfPGv9D3p79GR0hALSFxmbOb1V6ifg7+VnloCS3Y+A5HIkjeAjePn9CTNoRjAZmRTDFCvLyPO/hKlA4OR3+RJkY6VI8lbfJo8pnpmavOfpwnzqbN53MORV6zb8p4FPXD06Ni1sJkqclBT+89gM72cxB01jLpwajxMeVuwISQVYRV1gqsED6T1p6gWl5G3EZcotBXKFflVRBS50l1Qp0G34xBYRc6iPi6Dgag/AdDqiMEWYXlWysZc7YWF+hrfdcjuLBE2TZgV94rq88dPcmxYx2k2tyLpjVbgJu8yhKRvDRk5nvBqmV/KMkEsjoD3ZthPirkze5g29YXqFqPzGuRvMjx0aPRKI7lxLQv4Y8CWN8v+Htn4YwEuIbaJ9wSzPkY8nnP0en2cwVpNY0GbbkFL5VL6HKflDkPwskaKUTOLntokxshTUoS6riL2hJwQwUm7FJ9Z609SiH8BL/IhwqRtIhov8XPUdSIZyhISsToGpWgnKHpLS2LZxLyf+d6Qr4dx+QLUthgXcPDFcYwGsUfgPPJtJEapBVDWqrU7pTizZHbVurzvYaS3lJN2RrUyN8rPL3PgN0pdw7iv0Ha7ErJz8O4sFW4mYJlgSTZKzZiBYEiymZD+41x3BNcJ3zInj0MzUz4MSrOrMaZMOP8ABgx0DG7iH7QpBSQhLhz2S2XUOD6XYplM0M8Ap/UhDHiIJVeLubuYNTnzLtXMLXc2bU9aJH5HqBeBxZbC0Ztm2LQIaCLC8q2LaOL7Xk5vZdYVO+wVkyde1mCZG4lgrOiFTpRZltaikzle8He8sC8JiO1sjdPemEngn22K4zx6+9sKEpCupD+BfcyV7j30KU4skSCba0ujHWoUIcqNBRyNClLTFjhVCQimnqNygjdNIKRDUp2aASJLCorWPOhUhELGj+RpR7WZNUORhqiaJG4TbyGr3ZwNa6hUalMRJPCsDQhERAtAUBCVQnEuSe7PcQq1YlbjF3KW+Yiw/wA6XJUtKcynU2yQqfgUq8hChifkSB8Mak2qijTvD2UX9DFOCu7KYy5K0lwLK5JBkKZAhTYiRBBGBEkvhEWxZ1HuK73IsDO51TsLA0sViq8fF2FYrerdrVYyfyO07t3JrhnQ3sN1AhSdtBUTSNDKOL7jU2R5UyPGclY6KWxhNMCkWkre1x5RECGU8RIUrsw3uUAdIQ67VeJihEOYrFaOzvOxqVA6BsxfGpELBQOqbtlEknL4kfoqEpMliMbdjK6h24km7b9hsyKsVGAiilgK44oh6yK/uziAS+bqLUQSFFi3IqjpJNiQiCmHiQMztQtCDIiJDLgLfyKG1mQ+iCu0i0ROn3JkyIRK51v2LD/eflqIpc3PcLCyBKyXxHT3GrEWEMCtBW8jaL/Hu8MrqzxvYWQ7mKg5XW8ugrFbTxva6mkngOsdrZLFquZhkhEJuNqLKdrfW5jRFZ1+yDIlJNNEzuZxQOqH9Iknn1Jy35MVNe5SqIUtXmVwqZJNmDDhWqghqfgI1cTZi4lrUmLI2GGcP4GlnGMFSba2OwumNeaNVfwKCLUbWmYtLUKkrOTGOVeY94yQ6eKiprMRdOikTFQpqSIlREMR4wgpc49CQWQrW8upS4lgQa8HcbhCjL+IiC1EoUEbWfB0YplBkWRsCj9hEvsInXs4mBX4/wAPLxvPP3Gm3SzrA1echWbIuRW5W2lLWTj1fveZVdxYXZ+fKxjsZ5WwsP8AP+u9rr0Y6QqxSSDidijnAOLQZDLEiUKg3PdiynYenqK1lYj50MpsjFbhp/JLMpCJjfkQwhWVKka2YjhElYyf2F2wTlK2J4KW9B4Mzl7r12hS4xkTfTIkESgxLvVF1pOJGjmUYfzD2hCCYlSsnqJilO/kS4LnmzzrJIpjbg4YJ6rofph9xDpQ74HiUWYnngV1JOPCF/UDeTmM8qiWvlZ4D9IBXlT8CjgC1PIeuRDSdXgJBPnIi0WkOD3AU/3RJ/sTKsvljZCywJpMjaWJ6Q2YsdJCMLh/wZa3UWPD7DAQKxHUhY4a6ismYsStr0tl750r3CFh2yanyhM0uYqyruI1hd87axWyKWMitEeqx6WxSm3q3a10m5CLGj5RIbQwlOKPukYGLwEDvo5ke0sdq9zxsR5ih5S35xPcCGRaX1L9HppGpLtTM5QqG0wpAoYTUHF/B8FbY8U56HB1CepkJnoGKj2GS5fyPb/08H+lNqDamj+Yv5g9WNTlId3XQ8lEv7iCxu/PezWoeYS9XFmSOX1lWYLKWgwHkTPI0PRm1NsbCO37iURArVckrvjdr2F2KtTocxn93QoU9X3sVjHNaSkqGCruM3GF/tB5uIsLIFZ5G4rFas8A6SZCJixmptlbpbZUt6nZL1JteOIxbk2QNxGH3qL+wYXdPcCZg3gzTBlDDWbzkzxsbfOEz9Fi2z8RGJSN+q/SlPXRveasKbJU8OplCnl4FLN4vwmin8tnD1En4spHZGgj6529SG0Aw+wPHQxJbmiokD7qIQ1uLkScRY1Gw+bEMg27Ci/EX89Ef5HpBOgwyC0EQtLI2s6sK1gRbY7C8nSvdfenV1XsadXdwMlVxizK3oJ5GFdoXDveZ2vYG4aaOA5QfO63M+qFfjjB4Xn02X+WV2NfbuYLsPmXcTUFDAkk6JiQhZISjiQ048waF9YcP2mHeI8qY0Ke+JktP+a7iaPpPEX6ShS1FKHky+TafGx7pk6XmyNB8MzhthtxrPyQv56POQ3480jVPV4upR+4R/qK0w54s2Z6IdUjHQUKLYchQ4TaWROUqDAjYoRYtDb2Fd8Ha94G1lfonIlb52ztaJDzEbJLE652v1W1Wde73IsdWybx0l55W17r17vrrwY88O7D4jDvSVit8ra9Fbb9itQkOoqGDxVsk4hkMbcEUGFZ0F3qR0qvzverZLs8x3Y6k6eoeU5cCKCeV/SShanqCbE9A8tC9Ma3MK0pFMTNGsT5NNWcdxk3ydhJW7oYMr4KjoEoKNBCFqIRCFVWyzuY/dc0s6x9r1G79RXdzIK72l7GKu4xaoO7x43PqLBWroCQkpMbu7C/whW+W2uKxuml6qXg65draf4t3V1iReIfkE3MHgFdxm/tezrZ3/wMrHbnzICSWB1YbkBMcJJuv0C5P+fj43mRFYi2pS0HdfRebmrUrMELpLVavPXcjqHefyaCtmzszBdaPgFdclhdx0+EZXJMflgLC7Pw5E2Jsk62881t/is/4o9ONL3XXuoXVMbdBiTFZXGiUtjzxh011el3Fhd8ja94u9s2SPl5+1iHOg5ti7m8ivlUeYghLMVEqpRqOlODS4raG3EpT1Ojf5QZXJYuf2YArkqJgV3BwGYxhbSycDrwrqV5uoXut9hDFb4GwruEFQm52AsLrR8IrvYCwtkk8nAVkkkjrwZWtpYiSzrXe6ewrlJ6aSd/AkoO3LQlyFuA1asInyTISA4ohWOYRm/5M2nUS8sJUP4uTY0mllcYsgITpNVFUlSutSPHnoaf0sdUUznCpD25eGBCdOtm5fM3sLKB6NCWeGR+jVaKrGD1w3XIfB4TwP4eX/CW7VFENvIT/qZi/piWrkZ4/wDTX+A4TSesLCPSfg8pWA83nRzAFqEmPUKP7YumpYCAVVWhKpR8BKJxY1OEzWgtMCcDqGyICaA83182zd8LcWF1+h3FgruJwMXtYrYOr3MIslTTGNxk3jKHxZdhD43G8WgndenDFbNlXwE3eliusl8BldbpXp5DNCGo46hzHDg+We5N/dXNlM5c+wHgkoMhUBwqqjTZNLmjebGS/kjPlOlCGvkiGppOTBJWlF6gx8ix5NYNSVBFVIiqjnP+D0zKWd41MUT2UD8SrnIddBJOgpMIPlURVn8IRw6B7Qww+XHnr8K35fhJjziZPZR1LxMnRuIbXMtmaZgETcsqyF/CErBCGiENMZUFYyUIh8rGRMRkVJiXnwGceUEE55RPMnGTUyIMDF8mG7MHBvYrxlXKBLErymZxJEkoo6mFm7dCodlUeBAY0U+CQynXYdK8xi9kamgars/2Y0cRiwV3pzArkGB2RKsRlZT5sBE3F4mrszuUAJmdqOp9hDkpbmFIlVo2HMh/Yzuue/FWj5mWueMLZjqOhMpY8wRR54X9STix/SbOWUPzMskzQsjlLE00Hgfwmy/kUMk4SRRD5WexGyn9gr0pAm7oyR6xHhowVYPcSYxZ8NjJ9Z/SEGKvZD7aW+Il+ZRHxNhR4DYENCBMTqMnx1LJjRm0OpS6Ers6JkhNGw6iwEuNElhEoYiWuKuOLxF0F3qDoF6Pz3WrFQK0h6rYqZjoj0t2caJWODjaUkYCj5vFmAnyVRjYfyVJiHqUKsMrXCT59kYW6NQPCAcptVswOeAoJU7EHDi6Dk2SJsWVaoilrSxhgbBsisOjwYrE5YS+qX2U8cwKxYXLgXXgzhKEK2dSPdC0C4xz055FlOM+GedxNX3xJnJVhoLK6K+zS56N+HiA98/BocJCGgk6q14Jk2V8v2znmQ9MhRbM7aCbjzje8UvsG/zjj/kMoaU5cixRjUkVVyj1R6wTTpVJopsjaRDQhaCrCBCCLYHKyP8AGGHgCvFDsPmkpmYgTK7EsntJOo1SaEIKHdZckqYjYkiONKzn5DOjMLiLAdGmQ9VqNEQZNBRSx1WIqksysuESksqAkoMrKj1W2uuBVeBqISVmdrdrZoh68SxwMzjAnMC2Qr2flBEKykgJfmEwuLJEKSQ6mhihnLVMMiRehS3zm01SPiiVUx5VNxUaD1q0rUxOWxFI82Us+GdOxDw6ySnixpEC1WUis7Afk36/4QGgu4jT6JSJID2bJBAthHSo/DPOfp8IN3yR61EJ4/wNeV1kzJ683ucL3D1x6wgOBTTYS8F5C0wtIhoUIUuAhCudCERYrEnaKu9uLC70IwXehiwvEyup5WYrkkylbFnQxLoMcpaRHA0TQcpMlK8DHESUGkmtjNjwj3JpDN1aj4VkQr+SNZGi1ELxDB1qQcEwp1JiRQFQhObVKO3LLAd8otRpblNrUXLUUyFJQJoSsfkKxYDwEV1CTS3PAU5LA7K42U8YY+LaSTVRE4Qsk6CzWs1xxswNwCFlWZSpqNuMTETqV3K9KSmzHlKzBm8yUOrcbyk5xh7LVdSQKzYDBmeBJuJbEJVkgyTU5GPxd7JNluMjDDsRP4Tp/wDfExmYLFaluHE1sYsJxuwedtZFrGNnbRFmf3u5DiWA7mHgGC668zG+5gu+M1FhdynkxXfBaiu9AIhpjl0OCWSfcSpIUxyGdJZjkSH6DUBAWVYlLcaI2AkUpEPqxRKOFiJyjn5CVhAiAow5i3aiwJ20OzqRY3CFZRQ6jUkNyhKLO85ih6+FjUqNRTZpwjLLEKTIXaurkGZKylDCEkcBuUK2sY1QKrHOWFErGRCqqNRiuUVIOLqIe2Y4vGUTaLOHMwW0s8zYTsmyNiF8Mk3EIssmyRQIi/UXoUu5s2BKp8GZnHuZ4XFgsDNQU2Cd2n+GLiZhXZmwOFlSCCdhQwsQ9rH8ehW7NCwrdx7mdqo0uT+AK9xWKxWMWF3zOosLcyR0lr7hYE3MPwqLBXXgJzQWBWzZ8zLwqV0YelUyVtBMVSJmo3FBUyWA5MIqwoOIxhCiBOeBkI9wshyTYimkrGtTyHaFJxqJMdGtiTwoyJZqDci+DdcDdipIHgQcsWYlkNyREk2ro7tAYp1JFD5bD/qjzOQI8H7SOJyGs3RvST+jG1zTY4Oqo2ZETVrQdTFVWn6KclzQlROlwGzHmPw9sGaBKmb1GgqdZ5VIbL+X6eN/TTXkFKiulUoV/pVjLOaGzHmCjjzSGjSDx3GzKSBUshkMEkTJsBShnIaENCFYqfD+yvjuxXZ/wx8TGlOFudnUSq4TZGOzd7W5exlaq2OxdLWdzeej4oKtiswJAYFbgSNmR+gnRXK2SwLuB5VFgrqeLUal2EfOo1CbmF5VJoLAgMLBBKYakxmoxceKIEpxZrDxRWIvkaG5pMUwVJ6TE/PzEYm9YgJdevJdfoPTIeF8k/o0eURIMdAfGSYjWSXBQdUyFR1i2k1KvkZM/wBBo6cmPjP2wdWqcou0+jEC9GwQzBNrQvsWAJ6L8HlqzvfE56YUlPMkhFHDmHlbGHSUzRI0mDcoSsOUbA0mmkRQKRuIsdJoYlCH0CZ7XGKbBsVqYtl5K/itsW02VXKwuL/xxvd5mDbnZWargXtXV3PizpnaxCwslmA/NSbZJIc+yd7NLMfCEybMbIiNbwISNZcBCwDV+yPeEOPMI69cYgdWFHhPAjccmeVhf2JAVwTcS/yNHkGm/ah7hG9DNaqioaRPbjF9rEq5jzPZv0yFShB7Ylx6A2/mhepEwFqeQxbUlSVa4hRRLmxPWt6jCj/IQgRTkL+QQ/kL+AbaI0ITkRJSyKW4qQiDAkxXEhNrYxWMhuQ7HYyWsDSHd1IxbXm5tVg1Y7j14114HT3ehZhXWjgzC7i91qt8ra71sajivzfY3wh7JW6nMUcBWzb3HckkhLs7G0Gj7R74oBFr+CLcv5Bf2Q1y5ROPzNHmfoeuGsUuK7GkbIfMYvORKDmThZrG1wxTAXqo9QiavaJv0slA1acWFF9w9iJ8nzZ5GUsImRjIo+wTfkL+ObMgymBpwNyIojYRTQgjYhLwqYFYrUn4u4h3OuXcwIoTbicV3Fhd8ze4yINLlj/R+uCu97Y/+AyLtXZNBnvNRNqs6uazK1WMUsLZJu2rZ1X0ZXOrmIt3+qcOzGbjAIT/AMjF+n9PK/RNg3NDKHFSqNrgaHME6Txp8MlFt/gNYyq8Eif+X4a3NMFXfI9lOM/lkTauGo5Ez+gyC+Cv9BFkI6C8OZBBU+DI8PYQ7nZCwHgK4jAikXOy7mBWZW4kaq9R+RdzArFbj8V3MCu9oNREXIS4ruLAdzuLuJPWxWwrEsFYrXQp2J2z6nlebO1sdx6Wq/zXIo+NXJsa1TZUbruMWeNOhXUn4hXdVeE6d3r4nO2yTcVqtky2pBt2WQrIF+djpgrFcUriuFgKx+dsdzn2+witisSlWQWFk2rR4VMCHBhYjsu5gJuUPx7jCu9Uu5gWK13ILCxHzamou1cZdzAGLhbR8l3FhZS3D8qiuxiWi1E2Y/PARNk2T+ddgxfEQ7nXL3Yf6ZizqF8wGKptWeOuFNjVcV3E6XKkGHmb/Me+IcU8XBW+80FJMsUHE5MX9EeoJnuZaf8ADaqeEM7akfnFfAXESV0coYhDIuFArXZDFcLO70EYYrcCsUCiz5JsTrXcwWIdiyrddzBd7HuYLFbWCwV2FQwrU7OztJJsqZbruKYu4flUwXcLgFMXcEdAsLlCJMldb5mxGV0k3ZUuA2w1489DT+Q9qPSnHPRm9zCpEc0mJ5UJn8RJJPVmhKwWUiUo9ck+kKOApDqPwaaljmx3fha3Ih9bEvyf3Z1emH0pbITUC9kanMnsZxhAS1bkScOUQfgLRGwiNAlkCCFanOf8GvSHQB2IqdUJPhP8KUuQ+EUsZk2JPjYXvD2tkysr4MV3tO5hu473QsCbnXIwKyXcOBYpt6AwraWY4YFcrExWNyB00uSRN8dx4SpsDZcz2J7wwOaGQeX22RtCk3Lms0ylMSzkYkeKOkS9BQp4uJ7gR6CjIL05oB83+E2T8/wn+pjq56PEVOHUNQ+lnun6PL8/EprGNSLNYPgU1W5Rfx/weT+DxkcV+ZELd+0pYibsWfyNmbOC/miThyzb8iGiOAo+O93ROnlUk2w1r4Kx4MjQVArmeMH+cdkK50zIdDfpcVuA8m6Jd6ZicOF5p4HEVtdlGrKEKylbO2bfD2FcTFbUsFiqTZV5MTALAlWJjw74DKCROCOpvD9FkIJaGpAq89HsRp/WwKgBXZfJjX/Y2eaJ5Njg/G6bELuUY9fNE2UVfD0Jj9owhGKxIrwYYmx+MbQrb8FFmclCD+0NhPK1If1moMlf3Jf6Y2Kq3IiD0Iv4J6cX8lCbQqqr8kRUENBEWJPmxFRf56me3/GSt7m88F72VkXMfEIPqhLkxA2zc7Nb36Uwq60eHC9m4brwfAbBkr6UNX2ga8tdqRuuwzUxcS48iKHRrJMCaEjc8J1MeY6DiuhI2jA0ercbKfuIJOGOomsOBgaWmkjqjQyNJQqUh4H4GP2EUvpQvNtqsYFKgTOcvcxQJOPUDq90MzXyuSD+mThFWmPWC2TUy3Ia7BBlEBtBaIRKmhEIMLVvpVS2KxOUKkdjDvNKIi4tIwLveQsLFiMZWQsLjMHBFYrJPM2FdaNyRXMB6e9isd7k1tepNzTiqzsSte7TZMC3Kypfil3IwfhuQOrcDBeJJP/EACcQAQACAgEDBAMBAQEBAAAAAAEAESExQVFhcRCBkbGhwdHw4fEg/9oACAEBAAE/EEEJSNXriU1dw3BxHdRnAxX5gpejiB1mxjFTWS5ehiAEqZNmym7jy80g98sswkHMbf2FAK8xob5fnCkFu6g5hRGmo1J1g7UTzUsi7YU3bLrTLe99xLvFyiA1R8wmmvQNjj+XFtHMv0LWWnZKY72qL6bSXMZgOwKnvYxKag4qVBoJuLoELdYiFUV6E6MjMFVZD4tM91zuAdICahiwgWghrHhB/DKo0Tkg+l9YvBse9IlaqNXdT66Rq9pETAVrKTZcsNSyXQMIzbmd5lTbMntKlW7iEStkSYbNWJgYcS8MEKmUiOuoMyqoDyNOyLK60SwpkLSQO4ESW1BMs+GqigVH02rGPcAyRGkxYK4vMuG44lgUzT7ynobSWS62LDQ3iJKjaFuSprDDYPAQau1ppO8wkwqLqCYJfC3C/aSSLtslG8/+9xMyfkZcmqsMRpNu2KvaVtGPDV5U82G7N2JppL7+PYZscm7dTwXC4C9LvyCRBL3on6jE1Ybg6iBQ5buRYOFLwoVCqs9jzcAk7oUQahZQn+ot4ZYMB6pBMEXQ8P8Aa5TofmDEx2jNMf7+YAB70Bs69BbTjMaMNl/4QQpNgVH7TabO57GYYoUyEG+u0oxzKFx9pm5dGN0UZXqvjPuQ0krIJgNVjPBG1QBARftHQiLptbwcwFgVJOvW0jbSqZXmB+oFlRa6VKQoltfzLGC5XbdOe+ZliUpoR1yYZSPTNi1ih5/yYYi2rx87jAG+GiSoqwFb3TAvnHspi9wGsNUmLbf66wUxt/1kjadRvIV8kTlCt3qhP2hgqs3vfjMbMf5+ZWU33vWNJgPLWBRrvOP9gWJza6tKQxCYl4lNFW3C960ou4UTZK8/EWXMA3KwS8ZJliiCIurdMA178DNSZmtsMYZC003xZ+4i/V/SIZmPfNtMrtwaKGhxArba6MFmdTdfsnjqurLhIqJ5aaqrhQvDqGKtoxppPaVLY4BJWhgen7wcvxL6ipfd1/cQcJeRdtttoVNh+g85i3ONz+LMUFjbz/aKbvExUsM02IHeGKl26Uw0jp/rcLiyvmtfcvqq+f8A2ltY/N33BddXP9oOpp1AdDMUl+dNico4pB7x9bB+4trUxZ/URoGc0Y/mXxCqxA9hmPtyFlov8fpBb8crmQuolOIKqrXGIzx8sMmGNtSNtCvZkX/hf7zFeb/W2IHrw5X2Yl/z+zLbxzc7PlKo3MTilp/DKLrRqOanypZWMRJq6dhBHT0x/SZ0S7/8wrQEdWkIjlnVZ+Io0IrozGVp+536I2geX/nLFJprQ/iW4Ber1LKrWt3uLdL745kqmP8AX3mYfZxn5idPkqe+7PPWjKIUgAb6WspVGk5RdqP3HPQVXN9wYIY2q+wRwaeJARsWmq7VDDANmf8Azhq9qZelHkBjjQDVrUOe+n+RNJefBAzxUmrD0kPeY7T9QThT/e0ubnu8KCkaI1J2MB/UwNtii/6zrf5+8bwg7GCy1Z6/9o2A0OVxTzAtPdL9sEFOuj/WW1BXv/uNDf8Ar7xBteqjB0Tljt8pXqCmGEuUIKA8Jjjt4yu2WILnHGDbmFNTBuJQVAJvBRfdHNLjU2PcgDRjg6pC12xzGgcOjmVSnMFosUrtAuCD9pVsyZhVMrVMAJBLTehVFkAsgW1E7bl9jT9MKgYi4k1qWtASu+oTvYPdIYqpTE3AMCJSSrEhuthMbVxdMVBLgDMQ9GZLQrPeHZrQKF6rqVQo6xQZR8F6rrB16cAGFQlZgxqdpA0QTfM4cw1A3AlbD+ojbAxfFSiVV8xpWYkdFNHxaDm4StbmhWiC5fw5gnaQqW1KQ9PIi2wGIHFzMw2RzMBVdve5QjPFxluIpbiFSqguC6VoT4mTf6qDbKVmJcQl+Nyld/PdlW9GVvGoZIc1WJR4h7t+EWXyMWDpEgTF0egpcUxd8ZmK1B44mwJWJUBqc/lUACBzcByQwHpVAzYdiaLJiGOI1quYjEJUDb5YlViGDioY6MpiUM4YgM6p4OKmjiYUKigYc4JUm2p7oJUxqOWOKrMCVxWLx6FoEuZdTU94uBD5KSs16F8YMGmpbGnV/WylYjWZQgAsUCd8E/BBsuKwp4lxcK5lQ6Lv5hL9HKUQ6/VNz7nibmFRxtAziKs6/uUCGX0K9WFqlW1VbXeKOOKKwovT3gsLYFRVQojlb8pVt4nMSpRUWNozejtSG5UKJULt8zX2M3vhq5ioQIRcKvcyTqIRpDxLluJh1JdGoQxuahqpdyKvqAN9Y1c8xhp3gtjr4IlRoBwFS4Zh2QT8ZZZg/RZPvCEZdY7EdPeP4KgZhMRWEw00eHdJZEPMEqvmGGXiEPpomYX+JmbjVZm8aWr3YDeoLfoIADQZ1EECCvKUEBWNVOlTHWXgqUhcqpicpSFLZcesjSY4gNbNSoHWIlc4C1/EdsJlj4gdULg5Y7JgjoblTxliDmAANqsdV4qvKO02magtEdPWChKsq38EDOYmL7Qp0L56E2AzRKtz+NyonEtrM8VeR6PMqyYoLgVxqfFL6A0QeWN8ssFfAmODLuLtqXY6TAtXS6hHGCagBPvlzEARsSxjTA6LN4FmzLEaxAgIopQmPlUQ621AQg1uZ8QhF0TV5gAWtAWx2wlvQ/THAaj6kGyG5cttxfzqJoKqC+3SFYxKrxArG2mP4oNtzcvrGoRiVV/2IiSQLRLraBniEaRnXMTVTs/gJniGcJDIRgVuDV1EK1p96XNCsS1wXnEDFC9Oxitf81DWVoqvxCCRZRheDJ3ZupisMN4oRbqtRBjyyjMXW5m492qyPeVWkhR5gHEeIgJeUY901+4gaXEsTtBriETYVYe4jRFxNwWoH5QUXPx5xdMKazFL3HEtqt/VDT7JwRXEA3HCXdFUvvFXUEgzEE6RYrc4fiFTpPeVfM4gK7y34EsDIEla6Ev0gBUkzacLKlcAnmFMdRaIxgOr8MxWYJNMEvEGtks7lEhiWi5gN7jV3xKgVm6fMHtNx12G8kvf3ru8IR0KzKS8zfEvA+miluDZKXcKmF83AbXUFe6X+agAKSmpSK5uXilo3FrvLY92/BGqAypXcmBsVcK1DmFFzENlwNRxgxBiNwXOdVHcaGzvKIcnMot2ofAf7K7bjN/SIrEbSZzuiCMS/qNpm/p9A0DqdZweel7ZjRhiYZuFfKAoLmmaqNUWGL5Z0wsPaGpiviQKIijhxLZCAXZwzFkQUQ+TR8MQU9DbIqjYQY7CYwcsywj4S+tRlVi7WiKQgtgNsCOVX3YI1Ag2swivlEaDN1LshUxLszL6MSAq5reI2cwTGNARVmVf8kTynpQO5edTiI2LwvtcFFWSoQUpQqhQZd7mJXW4+4YjPidYeZdk5jcjnP8AKDuxEJZVrCgWObbhF3OBgk47Vj7w3qf0xigJe2Kwk4mFowgdaMD0K9m+lOnPaXLVOWZ1AtHst+pjCSiZTlgO6iuJavCFA7h8Y0MMm3IFQVWcZjrBLvvXT0oPtEzWZWs8zTHWENmYrf8AHae0AVCnUbIdLn9Etn6ILLEhiXAqXk+jM4zPacKj0uEUA2f1TN5nF3As9M1iJvLhK7Jia9CdGGe4NMbZfQHSA5cMQqG9G/ohU60SsHSVhhxHEdKdbfqYhVxlzcSPi/vqZMYURBcRYup0CVC7VyoDCBnZTSBlqpbuyCsaI0LjfcfRjDzBN9WXwlvSBA5P5I7vbt81DDcNstJfUlkOdjUcCgxxjCfiWnF4PkjXWEUzb9cxVrrMhX/wxcATGiVouyGJkIebiaqA43qEswMKaOiyMo+Vb6wSyoExZ0M+KYZNMq8ywalR7kXSzoLm1w0e+EDGPRfMNVZCrELFL5U77uGAw/4xOmSYMVlmlAUPMtjoh3HqTKqSl61G129OLDBqEU5MWPxQLQXXmZSo2jaQpTaGUGk7Pa4uZd8TJ9FaGxT4gxFzL2pEAQX2hWZSwr3wzBqGnrMrL0QtBQmLZPdzCy4JQ7/KCRyDncOGWYzCK3d3mssB6QOCZMXcvNQczEK18VoWiaYWxyMsF6ENMC9lgGK4oMgKwmn/ALqK2/zU4YhitgkbOOKwUxF5RR5DMV7ELLg2lL6QXBZn8SoDaSZmWy5aq/MALbesCu8Hmswhst/kjOmaPTPhFxcLlpsqICNd6vcFjYRNSrDlo+PRpI17J10gURO0QBgwffLjcdYhCf79TB29R3DRMWcykXtH15PqzLMQkMO4o9IQKHT8KniEsimYPeC0pr6SzM3eYCyHK473FRXkbfLKUSqTG2UYDy2MdcxHsJZUQ2zHECUdOxreH0NpWbsRwuJubpqXrRB38QuJfEtIGzauJmbroOYNabgWWQ4IzuQUw/c6LmVi4pw4wyvPmPyIHxxDcN5mMWmZ4B4faYXLb5JQgzEu8zCZius5ZZvqt+ap3LSVf3Egln5jjHR4KktHsayu8HNVCZ6xWjGipVwKPBcI6jltUEdSP8YX3N8z3oifXF13cFx4l4j4lBW0XbkFRjAoe1UmcWThNTMoqmI2ZWOqYOahpK4ygjVS7fEwLKtau64ISkO6pqYgAUTVNO7tW4OwETvttIbmNqdy9LeDoILGGiWvkF9Lmsu9elh5ue8eW6p15tBtriVqYcxDEzWcTHCtvyTlVljSMuGaVArERncnyooOY+UUWMotQ6PEHMQoZSoo/XgDVbIWM1dQI5sti4ztySjIBziFIfqtuMNcbhccnDGLBwLIDZixf9lSscpalUlBGQg7PviUr91EwhoXu7w3ArtjyRzAi0JVuLlw/cFlI+aXuFkm1kkNyl0KjpXYr0WLag9DqWMAj/L4i4Ancr+oocw4+vErqqt4vqGTkLaKlYqALtnaQwYlK6bPS/UUdYV85lLre2KK9yyyzcRW/ZNfcpI7JR+4WVfZ19oKl/JJLg6WMAojNipNpllLIPFwsce9O0unzJNH+TxBFFMuuMb1H1MGzfG3Kbmr3spuKurKXEhb6x9Zir06myg6EfYObfuQUanyoDzY939zK34D71iEC+f7QV+SlMVWzmYcXSXF5uhBnvF2/qDnTx/UW9U4L9we8LVGs2YF7S3h8D9sKnL5OIMZyriqF2XtD2jPLgpAPpG0nBCC4/CfqB5XrqfqTWJrsfqG0WgW1caiaEEOf5m7p9f4l12/ah9EoZMekIOeTnv2yZOs69/Uk9limVwgtrv/AHmVQuysh/LFqXU8v5lhAxBVdDzBbhKAAauoDwXE3C5yy8xK8QUSsbme06Yj5may7YOfuc8FxYqNaTVYCwGqEWucpOEfrW+Khq1NX/hlnQ1AsH4G+o1qyFQLrzK+gAxQVZbAA5XQxYaCvUv3P+a1Blk9j/Zuq+tH9Jl5Gdw5QXizlqz8zPl8Ap74ZdUgE5TrSBXzkd9yuX6SQzYfuGDGtC2ttwUdCWFqyloSFAQ61+8XqfYgdqvEnWGq++xWFE9xaTh+YiAvRuDSNt8Fv5gpwFcFwaWTsSXTcV70dGYM6Pf/AHEtk4r+0FVNZ0K/MUFDtHZo6GdsqR83KOJfZFurQp0uvpERaPmELGvSbvM1qsJhXKFzeIoGi+3+Thsfl+I9gzn/AElaCPDSvxHUeT/zKbRWjcmBqYDC3yH5RMSSskrKhgzV+JQw2uE/qVqwORIoRA2TyxCrAhrM42NNkfchghPNSu29qbK+EhgWbz0hju43S/bBrxD5/uWGvG//AFLgK7lhwTPWlP0syFVwRxu5ERLwXgkr65QEYRG34grwaAZZDmF6sOjEXmvoIfUYgS01KFA+OMx7uUwj2qgrYbesLMt0uJq+kAvhYXSQ9KvFMKUX8p9sMd/4eYK0g7ppVwzXtXT/ALy4p/l+WOYuO6v3KNbt2RGrUotqjR2yxWOItzdkm8qvpK3H4aYDlhXUOQnDcCejzC8BdWEZZj8KNJW3kWRLVTGsaiWAIV+GYATDwTsdxPb0lq3uZ3u3Tw0i2U8yrJDnYZtiqsMogBMCr5uKRlVKBuUMTrqaF4CJTMZx6VcaC1pmfU/XLOyZBipyJQdY0YLda8JWowpmSDB5g3vcHJQL7QbWIM4c0ldJxZBRg9I5zTGUxhd9+6S9TojOX0LNzV/7UHPE6RqJBiSDFeyC1cvnRcFwst6SyZMzA93i0ZwjL0InW7wg8+WXRkYgSwKmAt/pNpVQVhgDCMBMbqUpiWFEvGvTs4VSsKKqO6lZKJgLcq4XBxCDANUjrJMXGz8QagKSwFxSdIRZyo6IBXtdodGqlao4uDqYGbrEpIUcmmN3bVSs2SgipUTG0YFNyrekqViW3xgQrBcqyc1MdPRdzL/wzdQK6k0RySog/TZ4ky83HTc4niI4uEIMDvwhQCswNQZzLzGDGaHBTzeJjQYpDBT0hgYNwxDzVX1YyjdzliBbMZxEIazj6twAwk5hDi5c9ii3yiJA9AC4wvgBPIQlah5nMZTXh2vpHM5RPMds32JkqiOEtUZGWMSyqqWbLNwmKmq2zHYvUtJupfV3VouKxuDKC42yrzAEp5na4MhRmTgqIbF4hq5WJWfRSVxp7tTFQBRGMGg1LGLdr2pTi5dxFO0RXC0h3ZQ9b/AEpzcVRl0SxXoAJavoIPi5ykvEvWeIsqc2qIfar8RYzMNkK7XMZmLGou+KGmb1GzVzcQt20PhjroFcGuajcA7AgCXex5lxuwsqVVmvpUTLmJc4hQzUd7lS6CoeZagPFZrykCr9so3DdO4krvMGmpRV5l2h2+XbEUWKAdPRhhzVHpwQOstMUu7azBZaHv4bgtRKaJWZdN7BB4ggdoJHVXPBqDqLOJqX2hgVtjxChwcS7IhijEMmR2y+Y/8AOaQQIq1HWDAMJwJn8IDrHgZFeURAzkANfxlStFFcV1ggVqmujcoryWPzUWCDi47aXrZXm4BDlgtSVRGnBGvc9GrurD4Rg8zIiUQMRrOIb2gF8JiuGahcalyhTIvws0uOcRMEyQipyrMfcTCD19HYGoyMhCTEEaUWllRWCNIVcxRjMrTcDEwXfXsGBicTbLMCI0GZAMVXXWXdV0BeI5iti5iKZwKdFzUBnAQMQVQdeu6gUTpOYhd+j939qXYTiBAiqWdjkwwA4YmgVmZvMLBl1UXIygvKU+Il3KJc1QUHl6Q8WKiwr8QU1MezcbWDFwQDSiwQziA51UwHDLXECZhKZ1+uF26ihW0rUY66P3mVFSPEROcTvk/ICKdStziiAzdRKiCBQKrmM6ka0zMBxf8AnFuPYjqrzUNW+jBh/glUxn5gxusPGPM/OqDvPosGVrzbLs+IPoeUKzKsF2U7jmNzIx0S0gHCMKaz9EIdUapo2+JG3xBY4OIBEtU3S6wUGks9FArv97CDOySfiBxMBwxYBy1/EsR/sglRUtl2LJ0hwJLjDRNlQDa8BDLV+ZXyzOYMOAm0TidU9VMsuAFdC1eEgOM6hzFZW7Z0FgsvpupzHfWfEMP1LGA3mtTKFswIhiNQTPi4jIU22nSxNImpdNXFS8xu3hxEUuBj1yl4Y1VrfzM1DZM5iKpjs4dd5r5Mv3Mca3Rh8MuReXSFvoiO5TSBFla6ZlCkruUAPDDmWhFld5ribED7SHCZAb5og5q+JedEfEckpx57mUQrcxZEqVXMIgvCr3IvilS4RYEC5yCWK2NUQCWRmzMuZBguDktqAEdw+9GkmIbaGLB+CjGMOKvgnaOaqAsrESq7BnEUPTMud4OC8Q9LiWVmLQ4RAoliRemhbZd6m2OoDy37m4tj0j0L1AqdJXxO4QYt+5BKBbqB0wMuoY+arSJXxVlz/RNoMx1hAlf9GoT2EUxHCPklG819eGiO4C9FLXE0V5ilRcukOcsXrCjjc1U7JYo0n8KGDUuZNzjEG4ykWBb1tIOKCOKmcRGtQat2VCVHT8mI1xc4MypWczXGnZ0lrGslwLZUq/EA3nRByl0e+aZT1TKGx14MQFMt8JKmIyjJtXDcrtLNK/B4ZnEJ9sKAhQbGlYQwk4iOiRuztLQLlkGT0GWKrW2BhgpDdQ8NjJ1BPQS0I5YmIV2iqvOBDyYTpAZSMA+F3YRuEsdlyvMOFrtJdShuWl+6QdQnXdwxDT6JiUcss4lel3BugmcXMtpS0WTv4w94u6P3CCK7PEHULbsKiUzCjEKsqiuvOBDK0rZ5hvi3iGicInqcyqaKGElc6fmXZKTRVwSAMShKY9Hxmrr4PTEv4jrKdbhLrkMNQjVi8/tWDiDBVvtMdYWyOf14AKuCX9alazicNxADjQh+AltRjWm+IHoplmHqxeI7U0t+JbMZa8uARq31gxPfcMbhVek2C5Qi/wDJAo1Abgeude8PmD2mPVhmwtS7MZly/Sqoot3Da8AfIjkhSWzHSHMbYlz5R8ygTvCrO0agOctXVQ4FaUyxqNIWpdKjpgmaCFSoML1hY3+NplzModh+6B68QFzzdOs43B1ZVkek9o6T/dJmvS9TcaKqYs1oL7kQAei0QuHiG25VwVnxKZhecTZYZi1FLjoF28LKZjwU8xKEqmJVhqIhm7+6bSjFqUgCdGPiE5awl53Lpv0CnMQ2uqkYYFI6RmCKVSq1GNAUq5VeVYtStE3OuKM9IZTZv2jWMS70eZUEdI+UTNrTOPPvDdZMsWSo2DFbgrjKvfzRJt+Qmfk9yCrTnmWB4MlnTmUS5DolZ9oiVfmMsRPMGD0JpRBx0Dt2GaniFBLYQvEcxjgZQcTzgZJkUJx3SB0rErF3GqIHf1fwxvG4vBMB1bADMAnocrggqq+wTKK/mHAaaeZazxE3qoQABWgm6q1NeY1glATAl8TUp4/0ImpiWQThhkjcN/8AeLbmLGIZ9NEZk/2ZYEfRlouQqDZ5lRUoS32nM8In00Ze2Jga3PGsoKZWFublVWd+mQbVcJuPTPiWcJLaJrKns7vhLUG4PuIJFAM8y7RBT/TBH4gs3B9AEAo8J/KWUW+gAYG75gi9azM7VH7ipiq4hVtEErVTcV3W5c6XmXxU1tnViaU89EKf14eh1ZAsKnQ4qHvK41Yw0LSTkENg/MjDXZgByLBT1zgSuz8GXILYOme0tYov/GIMof7+IZvxSXhtui/REnYtWnXWLH1+fjxDm83/ADny0y1S1uv3TJEcgnJtukoD1gMjxh/7Rw140zRHiaMCFwdnDzEepsg5M8YWNx7AxNl76McmR5/5Swopsn+RAcObUP5QTSvC5FbXA0/PCCqibkvx/wDGKJDeqfogefYMopgLNUwarPSbVxa5/wAw/RIEBr+KMiuLhvZIgRd7xSpyAOl1YZCR2/cweC/dbMa14GhS09JqsesdI4gukW8vwS/oeyv5UFS0DtAd8zeP1Ga/Zsr6g3HeK6fUbr8dI5eXzJyWzpdMXq/NUyspr8Ut6hXRdIfudVL/ANbm7kKv/vL7s74YACFqotT7im17t9sABV1DAYhfRMsC0HSAmJKM3yWHzkVjXFplG2cgr3jKv5ZZj8ONDwAi7DcMHUY91YNCD5PaBWg+BHwb0Jhx8U4nbKIeMkub5iMuJ2iRiiVK6SdCpghomm8w4jpckobq/wBbCK6EpdVjDAIArFNWLH4rxog39rfTBfYa0/MTjj6a+5WeCBfKqblbFOiVeMsVAda7PqBhbqLD+jL8Hyn9wsTX2Iwguncyi9WsxtUnRCkFIT63r+YiKTP+uSW1h0VA/lHOuisq1jW5DFMFP+8VShuMLBojYspExNAwP94Fd+NH94RWkpXauCV0eZGU1UMqnLShMBk/ZGsHwGOyZdlxQbqoLZBje/xFoe7+2IqY95QNbUuWz8UjVo6Zv6ijKWlCfMIqbm7W9RMB38v6g1dyqpfnEaovkvolHGfqyoLb29guNgLKrbagMJLcXgadNnIga/mX7I2MPP8ApgEdTsIv8wZgABd/coYb2X7gwKR1H/WLWv0SKjbe3+wl+bVmb3dspG2tSMT5Q/nOQt8AfqOo+GFjo7BBvQqDAW1eDcoNop1w/EvzZ7f5EWlrDSyjdv8AX8RZnBAZXK7bjEGTh/1uZ/t/pDnuf+8ryreGn9wzqp6/eZdbcJzUmQ01mBTCn3fuFtsA6GEyBM+fgjH4CKzZFLPZMArR0kCARygRD5K2mWrOrAeag1aogOu1hAysTnSVF/iJ0AlMqICjijGqpFIYZRnmCWzFq2xe0Tfz9E3CG9wtBMGb+mKwHGIpRCOyWuqtXwhKMTFOJgpqWu+JXapY3+6RC4mJV3qZvcamkXu+TBPiURgu5qY9KCtRqWvwilkSVmm4U1UzbOXm3ZHbCZFS1kcU1BxBlytfF2pDsihzBqo5m53i+YTJUumoGo6uo5ipDN/Qh0SZv0zZcd0S52uH8M5JQwojmvMDgAFmXiJolsrdRegS9thr4oQuWqMNNQltxqZmH0ItbINIb9vR12uUrMQj2kqvalZQTT7lAl21LzhdTAg3HYiYsh9k4y1AIUU9IZrWIQccPqiWsCdZgq01ey4/QXUohQJZ1HEI9MkFQuVpibdU55IbSWv1KsjBFjDjdAZR8EovcSiCogxHHq6x+0dtypnxAY2XNN8yioQxwp7Fw0G/y4hGWMO5TagxXTmrmWWDX/jMSsUQTMOYNSrlHsVDvZOJ0IGNTExXoabHe8ZpYYILUuEsKvSdcSi4ai3crBGqLgbcVV9RAQXGZsCY6ZlkC7r9zHLDmUbeuPQUFRcBCMQcQszKJcxzFRjX2JfWKWF6WQfRfeqTXmWUf6Jb/wDNQyS836UMFpen6oM3aDiHXJZHHMzyTFdVw1Nel4lZmIL3RHG5gLMA2QVJiUPeEpF3xLJGoNenO4kLGPdzjAcShlLmD5eL2l2ttK8noxpqFBUKmFjX8Es49BV7qYzmcxFFF+4VUrTN7EzcJuI6S9+SXq4MIje5YpjNwFA4PsQqo2BK/hVZKYR0y5ibuxLi2SyLmLMab6gJR0iN+l4jDcelS6uLMzsyjFpFqpp7ywwYl1FnzTbCaq+bYDxN7lbqVlgGyoTVx8awVpFYxTA90x0uBOayidGALi2H3ZRW5h9KnMa6YgA1rXu5eVrZTsqCYF/Vj1gXxzKBCtcEoBfLuMLWvvMrtVzUCnM49F7kTPxEOLnMI6qEwUYOBsl+gCcS2O7zBxqPnq/rjqxCE+Qlj5TAqRf4YtL1lUIPSUPDMYYHRGoKKRUSrLgplE4ZdW+GO01gnVOJljECJZW+5mmMEIQWypj9MOrKGJcDJcDE5B9upkmbHaF1ioVVVKBf4tL9HIVArwRvpH4LPqVFlYhuDKzwOU90Zs0kYJONMe7i4wl3lVV3KjekO4s6siUY9NsVG2qV4TMZtqCMpcVSMm4EM1oRVRW84hhOKLXhTSvSzmWQa3N7lr6l5S+mYNtTbCV2xGBeAr8QuOA0ZhxLzUV5Br87fTgIszdzUeqIVYfomFx4x6GcsxuGk6mDcwabxLP0/oDGmyHdRFHvZN6liBAOvj7IS2pZiD2YuMzdTFa5I3gshuZxFyhDzzNBaPlvcDPggmgMAcCtBHuoqmXLZBMsq/YgGSxu8VLb+CZnB6HWHZdvhqKx1Lqco3UxWWKytzKY6Tjcp1lV6eYEw1U5KJWGozOMB0/dgC9PQ21LVknG+YsAyIPmqgJTVR6LFvaXB3GHFdIVfaIQQrdziALgBHOmATYmZv3Enm/qEsv00cw09yrq4bXJCZXuwIAnYI7fc+OtzLXoQBfRKwzOdWMQWAF6ZqZu9ZfaLN1y+0vMC6ipZ7zBZg58RXT1fxDcoLUfi9poHZzgqVzRRsYRsGQdNSiuv0QV6KxAAGBtkuRG3iLHoWQTrAreTEe2PBDJ6E0zm6ek9q5gVAJQLcNHoAPNTGMwqNk07xUxMBz/ADcMsKgxVKYMV8y3OIBXblPxKyTEfRbQbuXFmahlMYj8zBeIcIMjMwrzdYTPJBBl9552L+SJfAQcEs6TBii49AuUteL5GWG46hslejwussJMI23GQuJfWGuuqerkgxED04mNkeAuATxccmIPStQ3n4Y9GwTtUCoWFSoFxsbn9pDAEbQDGJlDlrk37Sq5hkmkW4GjLWpjH02zmHtOVIhn0Ezr9sjKFLYlwEMogo/6qWIsFS2O5eUGXOIWDqQCck1MUtbmZo3k9L1MS2DnvzGWnFSsdrioYzBYUb4zTwHvnSkHFkKb3GiNZjml4D6YpiNVdcO5elb/ADFSwM8iXEopXvUc7guWbrMWZeZRNQao95UYM6EV+90AFyQDFelzr+5IZDUM+g5C5cxG0lt6IJn0XtWZVwFBdjXtMYb+uWYUl4mMygKuWKMp9MGgwxqo3eBnpMsiS5Xi5qa3wws3/mSoPAPwQ1HzMXkv0w291L/Gm1cVB2ywF5iwIdjAfXlGXSEGCWMWG+xKzcusMVcwuWmpXOHsRM+hcq2UFSrbtPxaCEFvUsVMJL4fzLzCOvJ+JDccyrjqZuXK7AX3hTqcSqlhAPjZaGytwxWZeYhEpqBtFw2yG892Y/hMWkosYZzcezQ3ziXUBJtTuPcJcy7P8KEuouUFGNdZX8J7yN1CLXx6QJGo+xxfMsbzDEsiHAwvCKrKFXUdYYs7xezLa9IZqxh5uFSxnvAF5OjkleE/JM6C9ck3sPWyLYrQlOozMBebTWCXSY4SC2Htm/5awZAddUZepWRJu3E01m6NxIHC6hcNOyCJI0acykKwXN5pcTaPff8AXEfGdIJUU1/H7Rsy7Lwn0RDMpP8A4xxMQNN+LIBT38EpoSzrD8zOx4azFMZOa1HqEPo4jEnIYPpaxZmu03WY2QuV2IC6eZSPiJ+JWUviXikirUYPRb7CPEZH2IXd1iWf2Krtg4qqjfEoXmFnfBLzjrBh7Spcd5zegwXVYz4gQqDZL6RA1TCMXWa0+6C9INcLX5Zjk3TiGNQWMx53D48YFEeS4sZijGsK/JGf4NQ2+nSYIi7dJ8EJWxIXqI3KadyypVNaH646L24VRmMB0g2VgmQdg+5LL4TBDErT3hXWYzDtUjhMoaXB0qUSKVLmCqFur2SgWBltkiewStXZVwGiDxt++JiEXzL8uHuQMqj2RYDpsrBF4+tZUK6IaTlhj+jEvsrEOF4wtI1dDiWDWHtjsrKZUIkjTWsjH1w6zZiVgEh17NfzhgXIEMv1GkV+B9REEe+n8pYA2eJX2BiL7csu1SXV2cyio3j+kUKZeoPtiGpwzWOsQyCvzh85hgMw2YgbmcXDK1c61QsK8lhlv3Y/ky5faXQ66lm4fKaWA8yc4POKBKJ5y/O48LTFtyxduprry2/uBuWh2ICHPDUld6pbsfE4HyfiYOLmEwPU/csajGduUtgoE/ySa13sQVjN1M7XEGwHwQuJmNu/1DMLeC/UtK+CfRKpD2jKDL5t75hgIvnNDOKj1/rBW/YxfcBb5OA+oqtLsxf95f0Vy8vmXOw6/wBobk2pVgqstdbga/fq5RCGCiYUWOmYSDWqOGX7wlZCFRVV3gwC6+DK+Z3oznuFNbnomhV7Zix4alFqvpSVYCPASsEQewseUQ1UgKFKHGJRwmKCMwXQzKTRv0wwwptEKDQohAOZRcrpxAS5A/hiLK38tIdp0hmYvco9VuexCsojANwAaYllXBaanOCfb/ck3IYl76iJ2OE4T6JdD/LxUrz7jNzolNbFxDF/iH3u3khGKMIXL4lwsp66/cozTCB/DE2jz0ryZlvgOqDPzLtmx82Gdwx7O9jPTMJ4fDUi7JdSLhPj/OYygXmRgnrPdE8Es1X0/wDaZ+Be9saYoa5JuNk1DGKTDFWJpNK1dBi9OckggOdTP8w83zn6ihXlLgMu0uDaharPqdg5/gibp83ZNM+yuLSll5FlL0lOt3gNtvUN1Hca1uqpbgfQ/wC8M1XyFn3KUwcFoVS28ZV9wCnCRjivMUWShtCxaHYH7jjUHaRCLS+/LgEdCCEpFxuxziL50ECn6lC7d8DX4lJl6KOn4JbvGdf4lIFf8dJa6Owj/I6qxLZQz2ILjywpRgvlrLLtPMN/S6v2xBmXZuY0/JxX7yiX5TTYjIAKvptUBWpsQBrnUrvw5XQfYMJA+FNA+JCisXSkJkeKKwEsq2rqGZcfFgA0Hsmh/AQGmrVEwFOmOjLQx+CCqglmtbxUrNkp0hFYyM+I4iwytkQPpnaMOAdIhqJUrtCg6ko1uH7hktSuKi6ZVQ0TlM+JgtbM6SxYcRqOpNO+IwGZV1EWExfpjXyLBmMvEaqMaNdUvIohGPnlEovXpgNmF+RN8QzzN+gGSKguImVj0NbjmI6WCEzmV0hg3UKvZhfyJWJa8vooQ10ucy8nd+Zus+hWYvcNXN/2+NhLKZqO4GYrXhjlakCpmGki53HDBa60z/Z6QrE0noF4xHc4CDjLHcuZUTpzxFseZ0L9DD3mL6FfCZlQVfzCtELFczyHeIHHMCwtjtgoE190gaRlYohdkGYY4IK5Ql7zh+SVnJL6S1SyNC5nEYb0pZqLdYqFy5iFsFtDXWFFJxBzLuJZuZazFGcoj3qNSmYAxx0lcMYbsN/VNgYQkMKLTuGtRb0EBBMWi1GCR26wyjfESplhhcApKnSiqgHWj0xTevT3dEPw4VEu5hMzUtoL/wAIbxYomoOIM3DwRGf/AGjCXKzKIJ7S6ldrhKvaBhFqqlyhlQCtZsfmCLlfSBOJ+otFKwtwYX7abar06pM3qUVKlI/+SXUHc6ZgcoBzFocmnTMxMyhba0zBey2X2WX+SrhLzImGJgiHSZqGHB3eyavS6jnESdKt+dTWo55iRItcTNq1kfDmdxNoKOs6GLDVThL4ay7mYaQgIkS6N/K4VLPQ4cSrcWXn4ENziZudZt4/pl41DkYuKlDXZtDrFR5cwUjBxgwjY+GAXzv9xSFGbie0ZZk9MQObjRhlYvSXqrjI7+lYmzPWApKjX25Q05mY7mYle6pJnl/8YajqYGGJhF1BwXNwoS+phf5heBc3HMrWZzjUPuAB2pr4MY9ct+YJZqOytTOYUJkgUq4ra7NQ5u+Jq2LBlbFs0tOgoSbhY9v0JKzsnfC7bjzCxJQ9hV8s2HiVaFzWIMNS1OnVgCKuVy2MZdoJeKHmMdh7oqDLE8NwToAFOiVhkFhQxkyVBnMqyEz9WJpLdZ+uJgXM2gqyV5+hY6cjTD8WhGGG/HpxODM+Hm9oR2ljPUgVULFhdTUdK6F/EaoFWnyQVxY9GIai5ZofhlsvQj6GCFRb0/xBkIcspwQLxNMQW7XFUV6aIOe851Ga2NsvG/BnhXtdQg2d8cRahkL6xxqvSsYJs1u/4TcxAzDnEqBKLynLKEQhoq5yaIogwuFrMxkTZusQYbvGVHAhZuPiHLemPYRuDpCptqanBDzN/wAy2ExCiriPSIxvLnLxAlRdE9YZgsNzDKPVp7y4MemSdGLLGKqsfhUOIc+mGVQ0qIOfDMpuGvQU0zqpFpqWLuW3qoPIZWQqu8yl49Ac4jf6dwL6IsWEareSYSxsMoCe0oU7VfiSsTh6Yj1qO0snPoVx4h6W9qbupuI95aAegZmfSpn5ngz3pQ2ty2mA6S23NTvcuoKKg7Bc9hAocJ9piWBh8wu5l4qFGJTqq0e0mbnHZhBGMPRQQVVySl+sH0xq7iIOXPHoRWOx+W4FBc5gy6FTpW+I27fiBxipWFDC1GuxL+hp0VCC6OBj7mQE1gAfuWYBqpRyaqgDZMkxnX4gamMwsnVN9dMESXVdHuEMSAXLUbv1vcXADG1Yvea26Lbhm2HatmKbacsA1x6NaIwL0CTCK0AOwY9GxxDTALuW6z9cu3FQTzFuUyyZyAL30g+NBUEwygNSoqW8hjxmauXg9BloBXVV/DNCGdbl49KvEdhWX+ISxTrMiukq9T1algibCWBconDDCZnQnaowl4H5qVTDKcemYQCzmt8+gMisCNSGrBYrrLUXbp9pUq0ElzT0WZeqXSfBgw8QRc1hgQXLAFugy94XQTlK7zgzExCeb36H9gVcFX5mYhEAleo1eTmFXUTDUKTNJOEIWEz+BQ8zEWs3NtyvhkxHVPkuAgPS48KsO35hdDL5qftEZrc4lF4y/wAMGJ9TZLNRcwBqttizU618QqaYu+kRc6D4cu3crma9GOwv5qGMLJV8ypio3iokOzEueGFLUKrKTuGahfMaQy1LxxKO+y/wkxWMEqresRSoJLxrn0FFr+GbzOIBpi1KgkyorcN4MQCmq/kIMzcpv0WzMxm9j4HM4yyDOc4h6xM3UDqSdaIPAsQS1UW18EtMoZoqNXiBqUI3qK1KSiVrUGD6ZqD5kQuqQwaYl00XcYBL0XEVOAAHE8rzQqbJ3YpF3qVRpK8p1ahgjmg9KzvE8w+uOv8AdiOKhcvU2S0MjB21bDB5l5uPHoxncVps4ly6bl3uXHTHBT4hAzUqX3iqUYPQmhDUMzV2GoqrL2bmc6wjPoD1LqpkEM/QExZKn6mLSUl69D+H0slqUQa6pazB9ER3cUumfQU6zuRvUKX8BgEd70V6wZWXROuky2oTySo5vEqwa+SkRsGOsqN4YItTBVkQbcRNIui9YwxvNmJXdvdih9A1AcsIBK3S5zRpymFFvwYOWaeDBQWOirdRC7LlZiWBaKtGHiWBmsRLhypVUz6WQVIk5pS8vR/nUfkBncYXiY7EP9YqPUa+z9R/J7n9kQCvhoV8HGR9y7C+8aiVUeSfuBwZnB/UKcZTGP6jwQqMp94UjcEllw5uLl/ye8Sz7BQSZDuI33fcsQhG+B/NQhYd5zVZC0Pf/wDMyOXyiBlRHZP6hv8ABP2EwWF7FpcQ7tRgahMXMEykpg+nuzxiUnOCJmO8QclyufeXDVrNWxnqTKGrcQbmPzN05CMXfFzQMccIXhNYArLIChGxBIBW9fWS2RLKDn0JqdY9jT30QQpahLSE8MGxyD7kZ3P6o7hudri4lD7NXSor76g9KmCDncusTTcq+FjaltBbDPoZSoMXaCyxQn5mJd5ZeYVzFJR58ZR3m7ssqr9pZeGXG6rIy8Zs+I4oMyL1ItgM7DUoM9zJHKw31jFSgFwO/rilwxDf0rFma/GUyvgxO/qS9k4weSKIXaznpMOT4blWxNWPwy0sV9BR4QocSgirw0WlnjB4U8SLKE3IEp4qo+9UDm7lBQ72U4mLoygYV7o/scK7pi/wxK677/1MIaTkQvSY/wARmpuHVk46CeEwKHz/AMQiqVLKBg00xN2D5/yPCpxn/IYMF7zfqYmxlitHPVZuKaG9rBXfxceheE/cFx5acXDxut/cWVXgz11ViYBR1fuZ1l7GOf4QvbXGEIBYB/npCACzTv4JnDV0lnr8EsbefeZX3Wa6K+Am+T2h9QQXsLUVY8kFG7s8+nBQW9dv6SXmaZqik6F/3BWhbO5EeLemLSntmM30VsDbtDi9uKmy94jnssENWQwjqyOL4s1fVmDR+DHa/FgWwkwY6CGavjIVavaZbk4qDcI4x+iEzm/ohXXEpjz6FdYQu1g80lY9vSqlc5iUWQjYqgrrYTiDcZqvS2rL+wlyoucGJUywt/z/ACxlbgbxGqzOIFDit/CdS39WoSpz6W9ZnrCUVKZlMziaWPeO4tVAHaWGN3Ut9B4sBroi7Aubr+4EoJ3g/YR4CFuL6X6hSHbVcNuY1RxSJSx6OFFc+x/7l5WPZr5nCauT/cLYPFVJz1Jgs3HFIhWXMdR9w4m95qYovwI4Fy9EP3C2T4IsXeV2JoxCsPwkRBGeSeT5f+ZcvV5cGnV3UMJGxXuuahNDBRWFnaLL8D/yg2UVuUI6QJW7bf4gMy2zGMPKHoa3Lra5F1Vi8kLC6zyfcS48xL/MLdHzi8DP/vWPWFRs6fmMw40zoEbuLBiu37Job+2aWDfszGA7uP4R+VPb+MLuE0U69xmHWlYMPqOSi+f4lxS/s/kvRLqzVD4JTfvlswq6lpAfEFV+KqF+OKVgZK6861itSCasqVpf5RVrGjHzMtEdP0ENiz1qCADAygXyp2HiGUTWsJfX0oMAgACW+EwQXDuhE4+RDV8MgZg1zO1mpRLRQXJUxMBUDeoFaJ4IGeLhSl9Jvs5uBNkAjQU2RteK/qFITLiFeg6Qu+/riMGX6VcoU3X5mAXGCqiy9CcoDPDmC5sIVUSXD1JpvkI73AWWiwwuGNeq/wAxqPTHpriYq6/ZGa4x6JMoYgY7zGtxHm6mpaPdG1iaVLPsm6doGH0rOJbGXhjWt/pgskviPVgR5F5X4xYIKSnNnToSwGYznNzHZlP4gIXVSmpUz1mOInA2v5isuZcXqo4luuIsXdFfhgMzLyS8sHZ3WBDvAD4g3C8wMzW4mqmMErMxKepBu5S89aiXm5dkGomBMgzXF4lTitYgL4YeTpEyVqpQQNkQZ0t9yngmggKyGAIVnvBvxoA6rFagXicSsZ9DEVw3hCwKu4EsQ7MNTM0x+uVcWiPYqVCxSVA/MNhW1MsWfSo3B3HVQaEAgJQEN5RZyhzNR4hjQ9R5hRJXaYauPOLn0MuATE03FZncpGHcX1Emqsh3iBWosuXxf5I6qyQMvoKIhiA7V/gIxoOCHjMNzJHFSvRJmLVBqKVc6xUMuMcsZX4oESpZlLH7S9ftKiLfSAwDf5v0PRlxxGLXfUlnOJYfeSgKi+1ygyLWRggqMsG83zAU3BgmmJhqZ+Nizl5yPRhHrLJlzQT3AlXcqDt4gcsomsiEa/Sy4alwtva+alNrhxNBZmKpG8VGH6/flFutw9GXQRK4UY4CwinSOAmCLTWKmA2NJOWEYNzPyP4MuIEpugi1kl02r0CDTWVWwmV6uyMEtB6wCtZHXvCvSGL7q3LU5fWi2+ZpL71hm/QMVX+4/pFnSmURb0xaKmKvBTNwxLbnEqOthGJ5v7xSrqCEajuc4qG4ktBq3F3M7feWiWoXFK1budP2DxNqttNJ15l3lNhFaMS4hhU4D3hgg/JKpwOsF4nJMsoMon7cpmbgvWMLuMzmvpMwoTPoea6QxvpOMwYi/wCkO3Zlb9otM5g2MrEKcWUrgAFioLU0SwKy0MXLJCZzKz0YzXTitJbxj/m4krivR5Y7QUN5px2pK2XGqqVgsjtUTJjDEropdJ0uFzfiPoctZxEKdSpjtUB03O8UJGoZ/STmrluZDEHHpkdcEs8KYZiGvQFDCP15m29O9wzcz0mj1e/iUo/M8zEEpJwGMx6xAGpVSc/cTsR9Ki66wWkwYuXNkRqyPBuHUahL2TuMMkyXiLkssc4A+0b2mZ/IZiKTrQyyl7q0fCwU1Ro0ifYzPSYaY2uJdSi0uoaodIhK16BDrwy/BONwti5nEPEu8S5nxAdwUyzSe8xjeZj035gy1RbxUCxFeSLeJc+UIvWITG7RvVtnEXoW9BD83ClF3WrhVF6+iCLNBHVMSaNoEoHaMX9LCIXkslJgGAiO45Quwvpmy1KlT1FYYq2snW0uqbqOyCBcqZNP4UTBGqIhiZ0RDLc1HXfmiGyFkPQe1G+jAH5lK3OSVkzMsumYuUOn0vqldCI0tDuFO2Z4YqpL+RgwzI3wohd5G/iXVNkPKF1GlszT5lg9FI6xTaBeYQJRuax1SGQKtXE6PMyzeo8wnLLxOjRHNVHdRnWrM+MFsXZCcQ1uZQzMbsml8SvP9eJSDx1Yal4l3wS+3QQupyMDPh8EsxyBGHzBLGJssUkddb8ExoHPUdrlkc3OI476jQmCg+EQ5mK1KJSkIaYy2SoSjCeEQG6nAndEcblhd13EuJ0lOMS9ymqSIrdQtOr+mfB+qBccE4m2dzg8SOTgmztBviaYwXX/AOkvQ+g4uHmCy4/efJCUggeg3Ra0zFJa6iKrzaDXMGsxE2PS86jeZ0g0zmamovLfwRhB6S9vRHNmn8NS4kuL2lWZhJ1vTFAt6wNQNZi8pDOiB6T48ZuJUIqBiINtv54Dqm9o0EqZSnkEEySnExeYVMdYkB4x95UQeZYsXcC2oTieFeGoPo1iYsZqQUSHjMbGGCuJRwyleiQwHm+6b3Lx0lYuFH0o730pKOJQlNwe8xcNHhsfCD3gjp4imKl95gC7+mIadAIVK1XMdx1uZzBpnEe0vz6DW2aQdcTvU6scTSQ9LiyXdCvaURgURrLprVcxaMoktdRSuOaYO3EY7hbSMADNGQazuMVUVFnNVdZA0MYZaDMs7GXxD5A+DN/GiCTNQMQ2JQ2mX4mWTGLxUYmgxLx6HqZGKJm1ZauJJq27S6o4aLlV1KBCcOQUco1iFqS17er2c3GahFcEFcVff9BsqYuVFQhaTANbcw8S83UvM7wr0KZkuyF360vUOiwhUEcP4QlJKhmMxdbfUTL0wslOZXMrmZAb/bGhLNTMzUHXoqt/2oDwzVWzhuW2Ftw9JV6QePTEZUfG/wBCc7jCibiwXr9SI06RwE6wl6jKHSvvmUoYLlH5lkL/AF4J2G09NOsaNKesSVcTYC6s9AwAVMbslHH3pEMPxpW039GBSiEr/WpAazld0juIhuZrmFb6cbHJXQSlw3i0UhMQOiaxG0sey/qMw9MoN9EUyd4HfqW2V4f6ju/j+UqVigLseLEMN+L/AJQqPcRreG8KDa+P/YMMrxK+WUnk0FYeqkoLzXqTxL7wc35mAn2/0QMom9cSOpDHVhiF+9E1DyMGiu/gfqXV0jG0b8hi43SU4hkujqQXZq8/qhxy/vFyHitShx8Zx/jSuCXV/g94d8/xmkVk7K6DH+NP3C2z98UtpCt7sZMwjkdqkMZHiQekz7Qdit8T21yohYdhKV1i33QhmCuVtio1MGYM4h59TXHeYHxMNa3LsijDkQgDyy9FJhRSSDdDibLHGmJZxXaY4lW1vV8oOa7TOQMxRpC4IWBRo5IQABwRY7zn8S0EvIXKGKMzZc6dD9o6A8YPaCz5iVBmbWWHo/XEf7celkHJmXbHlcfCF/uBTBRLLilx6PoazFSalxjx9mbzBsYvXpCeYpL3qWrd5hiXFjbcCjNwFWg0lvRQoOpjMG0l7x3PhSlyHtgEaa6IZTFERcyJ+PAT8tY41elYgp+XSKC29RdkI0AEyamwTjcW0nrUtJ80E1LPH85azrVh9wGdw04ZwsbRux8sibh/E5t2PSA9DbK4YHmEMxpECDFfyEsoV1uybJZ0siLVpYw6S2qOdKjZir5kX/fIl4ehKj7FDOCjguYlk99ZiEPzhyh4Nysr+NZbkRW7MQ3qMkA1VU4qJE2JXUEsZB4EyObpIZioXQZa3FB+ikMi39Ap9TbdvwQoz8xFgD5pQMAKKGGXDqSAG0xWZG+UHWcHSsd2Nt/HRZaSIqj6ZZv/AA95vtuOWi1dB1YuBaNpqScCSAcidMFVy9YUNnwZZoOTxRsM1o7s2oMo+IgNuNsKhH6SUXXwEBKAEQezca2EWriUyAIAGITNdErJBb+cZqpQyiztOkFLH/NzwnSITGUcQWbzq61K+0mBldo8MzVzY6J9kM4Ms4xKqVqVNrtQXviVRGoYKJsRKXB9CVA6suoXjEAlls33InCqXN+j4m03MTcOs8GZM5nhmbTUoaSznVzkwqFXjDuohu2YDYrtcHaKuK/lOEzOJr8Ji8563/3hU+UlfjEGVAQWWJumusQGS3GUO3N4y+5wu3Bki3XtuNJb8fuHlE3ZdsEdl1jd9y1U3cZNmLgP3jLLp+8ivTXD+iCisF7b0hGpUvOnbBGgMtWttwKnJmC8MtNNH1BrMr3z6JTUjM9mFMzXkJqsSmGA5/8AaW79v+0aSDjrXARgXqfshY+GUv8ALGwS8y8vNwy0PShCblXgamw8tbKDGdpDmgNNhlAyl3UtLa+MH1LSubin0Rei7hKlFcDIpjJiqDqoAZQwTILz2fuFyrlEex+X+2KZ97acsisS7ZNqllXjcTkPzFqdXQZTWtastTC4DgRERsaZzNEzsICo9oENOO71BY/GgavAdot1hf8AEyLQh00DDBKXomCilUtZkQ/jcQEwZCWbJ1ID0V9SCrsTDiUaqBwIhK3dIKY5gemJRLl0B81G9QkEDEkqJw/cwNPopdyvpbXhCfCKOpTdSh6FgYcwMB8KdiViA0yjEBks/VCNJj9UBMTLVwAtS7G0cPbMj4h6XHTK8VmPuiUYrpKHFshr0LMVe16AgZJUq27j9ug+TOZjmdI8TEtuKfw2mDNhNcw3qEb5mrLaZfaLeePQUI5LmFZUWoMHtCYxDcytEFmxHzCEgJp943Ts8eY4uoQVZVUq4Qr7s9/Rfee8tK9jfkmRD/6gu4BMdJRquIaeLlPWXBZcyEsTcq27I2bQs4ThKVasr8iS7Gb9tDCHU1Yisi7rUoFAHSULODY9t4dUsXiNq4SIxZEMwllLSfglWHWVqoFTGoAm5mJuPdBMWUagEKlVU5nerZ+ITert9L9GWZNEsW8/djVQVzUC5vcNx4LHU84zqbxMJF3HdrCIv/W0soZ83PaHaVG9Qq7Za+VuE2uYv0zNyriot9GkWPeXglKHBBXgq8HoelBONvBMAkku6blVmObjLuPqTIdaJiUxwxZcfOQPhz6ZGqPe2XrFwx4XMIxuBiiLFaSVrMauFVfllahrL1HctxLmTk+vTPpWSC3KiW/2tnOIqo42sLVcSri0AK2505xPOYOc3LAAzVoS5hNiKIUSpixb2JfYzAxLY8TRM323ynSHwJoetnQe0wshFi3UAARVKy2PskzHiXiUlZiZ8RFdP/ZMUQFYwwRC8kaqWpwUVKYzxOTaiBaja/IjUHcupa1mVM1Uv4Qc5gIq6hiIY62th8YGXxDFWiIGGOleCOeWa9gzUWBbmn2KuLcwiyiGIwG1nyRa2z9AQgwSUXqMVtmDRO3oWCBRCi2GYQcQo8OIfrDBSraKOh3azYhSXKJvEKqaKAF/WcsKGwIRR60mIIynmDSZ5j0V+qmaE6sLvEvBhXEoUNDly/dJQeiYsgy8zQN2jUtpfiCGagZuGOJaXcui2V85mDcHMvEDHjMV7mvueiYqLxjcZwp4RF2FYyMGkl2LygPqDfI0xawGbKriUQlCxrmbo9iA1AgbhCrhojoy+yi9pVr4lUSoLN6X4jF+30Gsx4gkrJecxvUxwckc73KsgObnWocwZH7QHhxLpIrl3FzKhTjLz6KBVuog2BJkS7IC7owaMS+CpzOlDlbQRYpeYmXW5Z/z3F4QX4hFwlaDy+IGYPpQMNxGlYCjzHOITfpVQPYYz/NqPSLY9oyAlV6ErzQtzeIWDBlvpX14+tIChgtUwQzqDLZU3X8L6FYupcu2U7ln3MzEfEFuXbW2CnQ/JaKwWlVKhwdWfiIlo/nMw8w3K7zbZz/jDCVKY2R3MM2yjrUImRpd4JhwXW8XqQLSB03HS5at2q15jRDUSdJjG3OJRwaJ2wJUpnV3j1qOT0SodPQtRgXUrPCUYqUvJmCIhDQXVF3Bm8I/KUZZc3CualU7PEyDExJwu70YIGolBwkLqCBb1Yu45puIZsbfRu6gweIYWWiMH7i3az/ES2DgRWDqVmViBnrCLaWj27IUsYAA5SiUYXgzCwzVzDJvEt7TCO8yjTPoE0e/pTCMAh1H6JmJKLLxKAHuSR6z2IYte2RYuTv+/qxPRKlKD4YN1LPVYZqVqHAHs5pVlcHqFg9GFpdhu+X0zN0+jqnodsk/Gy27jvMOJQrEF4/qUewIOYJLwSxIQfURhbvUG4M1phBR6DUygOoWNhBFNSnWLYVVUSj1X3CsNU+hLC1AYhxnNNPackvYy30a3LG3/bEstgXMlywqXG2RjVLdAX0xBu6xNKmLOVfBPxU3nMbyzJgRBwSlFRLowApbJUWKZ6u6CGqiD0i0lykpB2p83aZjqVMRzaS1tw/exA1BB9LyZl5V/wA+pjrBGViLcOl6H6pSuyDFwMs5ikQq5/OP1LmSWF5gNw7pdja/ApesyyDCkMMuyyilQD04IOYrKrMuzcuU7nvKXriFNVFE46czuafQKDRV+KmPO+yJ0NRILyznMEuWFpPEzduRrtKtYmBCfyUldSEAasa6TOmG2GhXL0DvcK6+Zg0xwRO/WX6kf4lrDpmIRNYjkglgTO0IV6BN5FNFxeEWXw3CBFWXEvsR62hjGBKzMe363GDeJqLGesGjHEJzNj74mJoiqR9K47P2PEYdYzFS5XYbsuAXU2iyjK63AoYfqUzcMkLd4m1nK6Mtk3T1I5YUV/qxBg0MsER3ZEy7OIFMOftHbXxBikG4AXcuK6kuSozCowh0gNIx30S6BZaSwRhLThZxcVKcu5isTibTMWmyYyob5mOjuAoVAiOpMO5drCIEHB4lZgQigWd4cmrrES/yTlPIiKVRopAd3eMxuXwgAmjtgrMa6RcskgAybI0Ba8xJLmg/qUFWN8jSwU16f+Mqe5BowOdkVBXsX9QYeLrOoGpMlX3UrW3JwUiuhYg9HnWtaGXvCB2/2F5QHVJX7Ppcr9Y3qSK9bqyX/UziLooYMm47C8lFgMharRef+IZ69/8A5gpY+mbbFF742ykEKi7r6k+ahwe4/wCegweVkpnr7SOnYLEO+ZU/T/SWOd+IDmv8oxYL/OsOuWsqrz5YrLw1mhqdLppPwCNxj8YfxHHb9wP1GxuEW1OQoniG8ZRor8D6IsfaZ/EK+x0fogkPsaRRHOLbOWIDazHLTQfM1mNfbD6ZaH+LwzVtnTZBVeq+IucsxUFqXK0zHEvL6XEJo1AVune5WKOIhUcEylekFU9bfKJcDDuWYguUO3SMMb97SZrowcQnqioGYMqql1tfiXSe4neoC2IZ0hgwe0FWuz1xGCf8EHQF1KcMEg517x05KqUqxVPQe0pqVd59KHa/7Y9WYfQcTdS5ZyldmHKKYlkY1eYqG4pvu3iPUIVujzK+Oe8SQ5O5E7v5SMKGEwMDhjsW9KShZX4QdNnFJWWU8wXcnWbhSaSucpiTY9hiC1s8N9EcdJfFpn04/wA4mMjE4mgTQUabhpe2pcbV6vP+2NCvdJVKbzITojacVBMjgFqjixDLIzJCiAogKjViMRWvePF7sdii01JrLGiV5FUvkYARj8w/QdhxCrC6WmFr4UDboDGIsX2EDu/smM3+CO0p4TFX4CX2FJ6UyzlviK8VvDCm+Ktwaps9kHH25VNA295hmtF6uiWtvz5hGiQcDckVYfJHe0pLXUo2Xzn7mFoO7MFW+cy2n8CGMMWsMMWkq2sOmWUPwoA5PDEML8cooPihuH/nMIFhzM+mZRWE5RAlYJcALKPhDOXc2gXhlS9IUwyjiA92x5EoQqpQ8QFmpgAqUZOU/LGukCFtSqxDvKUCnL7hl8QyVK9AvneIMI6E+H0PqXucEszYExUbMwbjRq4mHz6XXGuXyyoayQ4i9pVZ9BBbf1Zeeanv7wnSOk7kJ0kq92JUL4mmpqYjrZLlT3impuXTZxHPhzDCzKwmAXVxwNYPkizjfCxLa833+I4EVjCU/U4VqiQ2V9f7EVoB1Q5GQqJWb3lUyL3FUyLvegf7K8R2/OEoY+Gn9RS4Foo1oVAJYXn9bFqObf8AWI5zvCc6QLggX7in0oFjZIV1KAEewVzGJRjxJAqIVcb/AMRDiruuUs5OoRgzCm6P7YF9DFVPuTANDttpCbdtVP3Ob4Sfayy7B4mQFa4tgmgbllFzcW0PxV+YWc/BC0H99/Evou0Z/wCYA3+bAW2GUzEP+aI8vmR57fP95dht3X/cwBTyj9y2Kh+kQvPWrzFAJrV5hQih7QJYBopMoCLvSYhfRehD/ho9v9iHEfgJQAfGQyNXaCBGK8cXqPTgFYRNalGohTemIIZp+6lHSYiRR1lgd0J08h6UqNU3ACYm2yV62EK9Bq0juZ60AKGADcWuQ7jrwRNSI8vwmkH0C4sxXoKfEJ7xrEK6zmVex+W5R6D1mDdkpNJyUmxIAHW54QiHQw62RA1aYN44JBRUCe0Yac/HxLmTh1qCddpnuVAKGxuGDO45cMS7NzBEZ/4DASs36XiPQDkhhdkVvBTO+LlWMCiXVYhti3TESJkXyX6DbFzuI3ubSjLp/ATyIHWNw2FRslVhYdeFKmhxD29Cgcwr7aaSafR/MXJ1+ayHaGWvTioyrV0vzOn/AMGEq9xCfKR8ONHmXNBMTwy5S16UTOMSp2gBMBZZfWGCmsyiNW7/ACIVkNmWANhAZ1TA61RmNmExdYKogsQKnHaMEqpgqX/xyoLHUHcDGZVSuJ018HtLZ8ub4jS6gwRJ4PSajxMjwYE1uoZH0CXioVY9JV0gvznaYqCiVj0djQ++bnX0vEFlRKcwV2z/AAM6GI5mOINVV4jezpAJXBHxMswwQXmXNH1Wz0bTm1z9pyEd+hMIxAjUKuFwI3LuDSuMtVQFEIagSgX/AJZn4SYQZRqyKsZuICCcOEKghhVdpcZcBpx3LqsxYi/QgqrSdSPkTBO32REW3upSjRFcYCV1ME+QxyIV4lZmCFcl51Lmdh+KZA7wNPQBKlTrbmgrV+J2I6yphSpiWhc34034+gDpVEVklhVioV0wZ75murhonEyj04CGz1D4SYijB7QY1fFuGobilxS9TWljKDovzi0RiyXEom/0y9+qJ5JdqzoPoOCbG6/JSUl5Zd4ZksiyqjeEHGyb9DUp4lpABfWoXUKqXKanSyV2lt7l4WV3Z0DCM0TN7hWkhVYhgUXXEsdAgvipWo3mFnhgrTviE6dL5uOmahV7zOJd5iajCuqa6vQl6hnEy1TLaLuYUuUbWsP4lqbbD/EbZrzNKo2PxLgLBP6g+B4w3PC8Mvmvkvw1AKnBOIbnJKlq0ufdNZm/TiHWMXcpXnM41GGmZlEpnXT98Jcax6NrUvBdnN8LEVg0RAR7yZQ5jBjSmpetTH7npUOkxZFaYAC4KvlM0xOfQmwcMREpQ1AmLhK2zIu/M+ATENsslzioW6OQ+Ya8ELISz0YGFzqQZfohUJqQYzVUQiqPSriEnNK8XMw1axeku9zDDT+D7It5myOoWohCx2YH8oTiF4g1qLB3V5qKj6D+JRghex9LgrbVY9hL5VUTtK2+ItMuq5lq6fdkdVB5YtD6ZqMAeaDw+guV6UQe+P8ACembi26lQGGm5d/lsdSlZj6EkbS/EyZf/CUU+o4qEBVZX5pNAhQTEI5LNSnxv4h6OvRqaPhfIYQmyZnaYt9LZnoTHWYmKG4aZ1YWqJfYMvcf8HMvOepLMXOYtDHiW8gSjk+0oZwNzv8AEGjllwuWJRdylVxEjl2fWmZMvS1eJ53CuBzp8Tg2/wDEq91krN9KlZ4apl9X4S4BrvekxaWsswHoP5Q3KnEumOeLhm8W/KZW7lxrEvcbKgFyLYXwTcckNMI7gMO7X8EMMZbzzyR6vG1AzetnGoNiUEZzBhouB2CV5vZuFxbzBti6lzJ2n5m53uGpzDJHYvA/DjvcDXr+GxAl3ibY16WpAJrVwy8CCLghVwvRNGO98d+OHoMFpR3gR2EuDBX02ytiNonCKpqZqabgqrf0uXiBTMc4jhDWpfLyvyZ1xBQXWAD0zMar7XqSmEsd03m4BeblodQoG4YJZBq9Ql3liYKlKW5Vxou6qI4qadyHt6KVPnl9ox5JZOcu2F5ZflhbfQE4ZiIxKt4PbOpiDGFuZEHOJUTa/iDL3DhOTbM3qIewgrMluCNiKICWDSPfUIb/AM0f+pMyfhQJ+wSqjb2xgRVVNjn0EJ5lZJWY36VL2TRADITo3KemdwvHiPLziFmlikLiwWdljbSp4ckrOWY0UqVn4l0wReLY6szELg300wbWMvkMRQviO8nMyzKYYTLpbW/FoDFr9cUwwoollxdVDeIlWKqFI30mYwP1qVuFgZg2RC5aJxEvXMUMHS+l8SlqKzvX0H0cXNJOYw9vH8pBYhSWbPxBqITghRBYUazLaTMO5dy9uMo1cNE0lxtojPTW9lzDuxiiW5hsl8uz8zjslMoYxG3iEj8I0vcWiCRcGY87quO7ORELWHeAcwm7crj6S6lkWlfWFE6RJ7IYBLICEATqDbMvENbJfURbX0TVki6Eq1t83KSiHJd2GNWfhR5h7ImBZ+yIm+aZoqO288JSax7wg7GmE2mzpco37JbDtKCl08y/TTrcSttz6L+piUv4/nDSH/vpDlueVdEIo0ha0ZcrNdq6Ra0+P+2bupuv6lHNLSHmmVRSB/3lgq4Tvb9wWkr74o4hV3CN2hrrRy1DKiLxLq766f5Bgr3P4inQXyguo9yS2z/V4j1VQMr0g4GPrnBQaDj+0wZPMC1QfMClKHOT+5pA79UtrFy3geu+YMN+yJpr4wX5meJ8Jq/3qN4leQ4y2M68Vsq+36CNel7f8zrfMK+CNQhdTam6QDuipc6fBTqL8f4YXPZxzXd/nrBaWrnxTvBReFV/cx1cQSPrJSrjsZvETh2VO4lzP+jLeiveOZVRq1jC0r4sDdbd3WFwAgGiwgSqCW164/8Aii4FxEJmtblcVMGNY+ZjhfaVws5rrUCMCwMcbigbuXAcX7ZuqGLqyREKhgdFRxpVYZ9IhZdfpzQ8S+X5mIj8zC0X+bZHTvGvpiFSjVTwcXLJL4MLhdn2bY8dbhFD/kucy4i3MvKy8kBoybve5eFgAzZBi95pLB6OWFOpSLNVFAckprJOx+YbRqMOCfqG8PthvyBJRRH2x4nkANzZ8ggGCMDPYkuMfJMI4nF0zWbvC+iVF4ZCWnnYGc7l31KVb8Odl3uTdSMbwPubUz8spVtOtH9geItisW95nPz1/cHGG/Z/MN4CDtGnSoyvpw7EODswtY0VbCxdFvU1LjJ54gKrzHVZuAl5mm0qG1THjC/KKhZErkbsFapG4dUYrLradKym0/hE5axbKJ4/sEDVj2vT2r/WWVf431Aire94ptPfCE4q7TWOIWj3ctixl22M+mD4v5T9y5bed5QqV+TMuZXHVvmAH6ocfwQLHxI4vpQZgvAmbuaaIH0fEN0RX+qYgpATSGEgi38EbKpA0q45MEaBiUKsw94/qPSlDcfQCE/8o7PZPMXomKx6G16KfGUW1qLPoJMQ1cYfzI6YGrjkpYaYG7mrefxL6EJiZJf/AD3JrFw6xzN1Lgj0IYYlbl1CZy9qvo3AwdahcQlL6BX4HfvKic5nHo6hQnf+ZNQ1Lf8A5qWy3OocnWOnWaN8zMc3KHgze9DgWAnCeLxqafwsGwXxAvou42fFTVntE38RiWBSp0ckRkTrS+wgz8ZARZ51EAqPfZ/ZRYfOcfvB5B6Cw6KUbaC26/iFLweT8ssFA8zMlF5P8igWOtuECllLBq1KVK8dBS/ks9X9EvLWvWXACjea/uVrr7XQ4TTBaNS8tPm5uDZ0ftguJhhWu0VGqyuP5ykA87gHMBXYHKicxopfVf0EBT4Yb7fPVDNwHnljlb/xuKBjoDirlvM8jPMRTkvRp+5h0d8qzK5cryX3zDRwS5dCWAA+PKr2O8YM5G8Y4B+FEhSDJWI5CGlaxgt4/EL9LmumoXaQxe0ombze4mHEHXiUpR0JRfSEod/siZlFelRaOsJU7FK2X1h0TGphRUqX8JHfXSscsLbgbI4lUrxFLzoQI4JUy3GCMh90Oh2i5h6gV6frNVD0cpDzMHOjBE9eZpbmAOS+MhKgV6X6Osmd/gjbUIoiXcvNwlFrAflOWycRz6Jw/wCSG4thqOTcJvqE4Za2rr6UHB4lROJWR9LH6L7ehvDiHobiqmaf29CPC+l4lx1r6MvIzPo6goxXhqqV4R6bmPiNYgVDm0TW2Kah6cXun5QaBnOpcx6a8bvF9oQ9MXKm0uZjQ2ZlYhmJgQi4Ku5zTEUlV5Sxo3QlnBuF4AozLrrS6iF6GoG3m3cY9i08zjUXTAJUilNQ6erKws1AxrdfhKNVoFyidekDpNe6XBV3DUlFwOwrmV+fQirmsFSlcIBqbw/DIDfpeSvRLDKRR2sviJmUVCdJZiH2oB0xZxmMtZtGtxBFP68wUkNpfM2mPJLlWxp+M51B9zqnMuAHN7fCW6wW4MIbjaHgz5jCcRalw3iLO67XmLqIGITLWZnbA3Y7EsKVH6MbmI2cJh4iDGBWLi4YdkBS5G26kMp1ZitxXExWwz98R0R3U3E9MfG+hnEyRmZh7q8LL7QZd+gx3x1l8DFI6y4uo6Yrs4H4foLYSrLYKJ/slSjye0RupUHEqMFi3X4MzL1AcTIQJdYiqdj8pioYl43LLwS87ht7x+6OCDUuXxLxMdPH8ZiYoYVLpg3txNZwfAZLl1DlLxcXJPqh30ael1ZLltTnbwh8MHEGopLmyIteEuS6hB6ELx6U1uPMKmO8xcQpTrrCHUrpHuZrE0yg47bv8JYDNRYjVhAcWbmA8ygB3d85QJ23FjWgjQ4LjVFQE5jClRlXmVNnvDI3WZnNIOXEzIecTri/49Bw4maMVKuG81M0inBWMWlGKqrglyy4Vi42kXpFLWo6nT0yZVUzVXVXWsBdyzlhpCD9R00zM3d/RlYrvE47RQhGgiQSKOB9kVnebyZgl1j7IVqDLMR8t3f8CFQ9Bl9I0WwlXhY7PW1i7stc7MJU4gYjBdfOWCcofQDpCsMxcYumlfiKvHM8SyyzNywlttf0iHxR3BCJdcQzUfTxv4Zay4S2E4PYzUDB6eZqYE3mswtxYtxdJdQlLdWeaxaQ9acESmt192MuKhBEg39EaG5T6IK7lhKwRwjUTavgoQUHiZKluqnHpf8Ay4YE0jODMCW3wp9xGGtSpSUJhmpZt31iiB6EKqK+198dDD0LelQ3iMj8qLOf5Jz6GKYsq532NQqoNyu8olmSY4S0faVocRt54fTMN4nX0x6MSvzLRoCdcRqljkgG7D8BBZbLcneVqN1iHK46y9jragY1KibyQipLGWI6p9AGIccmYjXVL+EyLfEOp7wqLijlM1bzTEZEeTJqK3ryyq5j0EG5zuPKnERg0B+UFbmhMAQe8HMwyXk8XWJvFS8Tm6gxeIzFyv4kbGiUcZuEyzdFQkqbic4/MObcQYiXHeOi/wCkwsITKoqziMcAyUWV1EHRHKy6KisBB5LqJUlUyQl3K1BuANbCOVVDKWXiHKyyJ6VH+YpqFzC5ZwzqaziFc31el1dzBFl3HbePD0i6qZM+m+YkQ6n3N7GvRmF+hBrQhCDccEFmaiCzbcc69WvRNuEHwzXpqJ6xvWZj3vrxVIqK9Kbl0xAJx72cc7JRKNEBUCiJlRK3LXq1NytRpSWXALNUPwjE9DBBJc94VhhJ4/pDWmFLhsXLlOZQy1RHUxcErcXc0Mxr072LbDpiXjcFarMvzLz0YPzAQMNDfZxHQSgp+SU5/MRNyPuEK1owRnKH4+3DpK9++YdU8FiAYXnOsYNKX4tqExeTWZXefwLCxk8JBamvSWWskrvcjaGgRhk9F6el36kvu+hwIisQ13uLimb1DMQEVsLu0x5pgxFuWiWWoF4v650xqI+lek6wjxlFPaXENDXCKgoFiAep+GYZLQpbomVLWrMSh83V9R2vLqvPi0raiyir5YsUFpd6nAcX/j0phzqFWxtJY6D7MFJUqDnGJdx8eJnpctpomKupc6a3uwXVQSrzNbZnLWYN3LBziz3nlGZoqIHzCBmdVgrgKZQYIWIUmovTRDtQ4PcTtLVuXLup0jzXqIlARtHOWCscGpVyodyXTOksIb9oi3VoEN2ErhZZW5gyxTEoLvNjtcJFVwC7mAzCpVO+ftEVGtQE7hOXZKNiFauE3Bg/LFmfhSizR5IjbH1sqa1+FCVVq3kommipKHliQIxhu06karDOsOY8vRVw7uINfmw6mfRP1KOcuiRWO3o8R/XXmMgMNsE58MgBo8ND7YZ91Xr+ohauOr/Uuld60VB0zvgEVuYY7BhmVXsia094fyWs/wB3xGCjekf5wTZoQqP1GpVfN4vgmSweY5DTuWle3+TvHGvgt/WYwcNp+414N80+kKM+e8JVhvZT9wtzXUqStbTDdQmx9aEq0u9f+EvsqdKIU767fxEBrOgfxA3pTK8DDWoKaDsCN6vFDd/jjzZZa9x3R+ViOy9H1y0ys2w6o/NxEZ4aD9yzbeWiAHE1lI7ArqsXZbPwcEeXXBTAFaBAw/izIafbBDnBibbgZALZlBd1pDiDwQ8T2mEfwEpsAy44pABQSnBAciNGJwAhDmLDNdbJSD6ZlLM4j6W9ZgQRrxuF6nErLM3HgxEF5Pt0QbqbIbdztMruDd1Z8tLAApCBpya6DgIphcFiAwpo5pgZbKpLntFzqUiVoPsSGfwqJQtRxaWG2vnpiAd4qF7FXBqsy8srzB2wRTvOa4ajtCqQOuGRbqXe5Y69AEoJ5b8EG5biXxCkxcos48y2aLbXFSVuSPmF790EXj8krbLyIFyfkR7GteD2RzH4cRmY0oME5ZrZB1n2prjtcdi8ETtM66f2RvD/AE+JccrBYZSCxrGUDwmOTGsa1QFmOYdyWhqFLmtaJtyPkQsPsoMWpPfBM2qoPNijreqXj91/yXj8b/kt2p62/kbX2szF4brHd5iO8lHGGpbkD1t/YtvJwP8AsNc9mUKWgkUiBcFWo/hrisqFtXFEWCzp0BMst5P4mYrlupa+UGItfaNv35nj8qc5Y5cIB8Dlw5Kwc4jz53llKjXXAFV3urMYpRMBGHzbCkhioo6ViGMafEBKM3UR8BrEwei/HaA5LPEWq5cdfiasECNEqKgtfiAcELhA9cS5zAPCdYIerj6xPEbkoAmBMTJjE3GwjR0lTmFx81iYIMHpJUrEGSoWNeI1XtDEIhCmIUrHylwMGZXeYpjj0tIW7elkITM0TJDS8C9/6JeKnEI5ld4RTyz7ziHrX22ZEEM3g9OPWl7oZ7BhWCH/AMZIvOL3sQ0EOJicRhCVuX2jTUNVLJdVGtwLqZF3UcHtyqLS5TQoOglUtMaAyus80RUfBi/U3PunL0xAy8qKcXOSCAj1vMd6gakbwkAvUdRNYZc6H2xRleQfOYdA87jXiKWtBn+iXaI6wbcynF/RURlLNU/nqLX+dTRYETdxFYogtRj4iuBONke+JScXxjKuwch91y3aJ5f6Ib6Xs/6hwtV1xF3EsFLuj+4Z8ebxh/EcdECNf8os2js/sYqwU7f4ImH0hqttbcRhSz5n1KBLL3ADDa6/3goIo4P9wd1k3Cw+Nk0hgxKELitGiL2y/jGFGvgzZPhy5qKqrRUCK8NTNoOJXgwdoFgitwG5prUPXGj4zD5ssC4JXwSmDEUlNpw+krDQmHxDLdAgVmCaoiaamfuy+PYiF5JWIDU9pV4uBAVAKErqzi4uDiVae+aqUEVfzAsxKUxCg6wHspbc4uNTFVUdezHeiqiQ7whfE5Ov3wj4oGczRUBzEMJVw/qDokDGZdzriMr/AIdk1cKEJbOkNw4KJUoFl2RlQd5Wi8YPFBGGouJ2iDLgiuD3pmGsxFwwwbqbKIbqXYQJd0euYSht/wC5Dt6Ucx4l1BBwv0lwc2+lxq5YPqL+R6IczrUqYjHaPgp6e0K9A0husSpW6BNyoEYbx6fqlKP/AIwRgwdJEYNsDRPf0K5fTHMpg2sx6F1EoxN5mAzGpFgVtA3BFFbvCfphKGwgq1e4ddbnhCfOZDBq4CfAlIFq1qOYZFUKkKyzEKvOJVHUoGSxv4mDwUic3A59FAMLrHSZ2NQynW11cyMNVKJXVh3YDgbJ8EN+hqAYgE4Nqc3PBMhEWalMO6lg1lYZBm7ZimDMUqBZWPSruHVly4rx9hLetBxEcirB0GoAJLFqQHRj7BjUFxczmPiEJTevslVZcGZQg4qZLDqXr6I+GHj1AmKSd+GC3CKNYlR8HETzCVqMxr0WBTy/DDslwMTJiXoQ5vb+00lZqNJZAgrHwQChIHMW816UGWCOVn5SWKjOJx6JHIP6sMcE8V6DjiN1FjSUB+UC4TNTtAvk1XiJVdpv0zRBx6JUZf2EKRLlzmMr6TR+UCDePVccbtvx6DRLly7hF7sUdqzEFxmDmKhpxO0xf3NQ6ypmEKN2vpmE8y1oUFV9kFFXM4hDUPSu8ZT0PmaqO2mXjRM5uGmYV1qJ5uVBsw9xMQarvFaTAjHPE1SsdCZgLYOpbEwrHidMTBqYqahDrMj4kR4VKCgl6xvUBXEFBdWpdWrQly69V2EGNCy68V/CJZ1JWEnviUTnFR6SsJ8GMbx4g2xMyypbdY1+Ag3xHJEzXE8xGoEIbumMyrxMJmyqx1gLjbKm4QpyQUyty6dYwvmLrsgBVQFVMNod2DQpW78Y2UMrFzi4UzhjtRbLfMrE4miPEbprpNHn7QCBhKxqN1Pm8ufrHIhBzMBKtlqvhA5jggMI5Bc6QFCY/bNvtBYZDEsJVS1f8xEBLyxg81AxK7M0+dQMRMS1Wa5gVcq3ref3ZjdQpjU7kXNx4cUfbS7Z0hfSdKl1vXSLtvk90Aqc0w9Ke4mz1+j0Dcr0C0NOPwkZRj0IVj0DbOBfiknSUSpXphqzAGErHpRD+P8AFJolw9DcskaP4XpodTj026oNXWK7d0Tn1qAxtOd9iAre5V9Zz6OH/wCKJ5S8xlblnS8w6S8RZWLPrYV5Q0ZyQq+W5ZMptzuWJihXIoVi6O84hAMtgsbHzGg3wll1zKbI01nUDiAV4RlUC6BUvo59LwzOIXeUJS0wavfOlehcv0Ix1keUM3mJqAdZdzgmDGRT7wVcQbI0WOMRoVia+n5xl4lrOIU5IO8QWBSPuTNxUBzNX3hywdlyp8GEUoolrKWddoLqLFRjpvzSLZBs9DBGOpuO95lx63GmEGm46adfdBuAGVn0ys65TzkzPeXLjnOWS+ToQq4uYZ5jMa+i+E2TglZhKlObgxnX/EQSVcrpKEIB1mTcqh5pgaGEDFkHGZaG4WFpPyMVq5YEuK2HmUA4v+RLL3Ny5XWVcpMr862+h1mhTKInDu0PqX1SiWSyD1YA3QPwx8nEvMsjdgLOjGgwr+LM1BasJbOmbMJdOL31gizi7kSWLHRKf4p/4qNS/gzAc2GGYGBebNoVqOBnMKREdVlLVMlmGctMbxFUVl0NQuroiXPtf9RwYz/3qNtcP+8QoAl82lRAlKWVcsGV+DTmSFo4KH2xAV18AWTD1j/Ny5/d+kZYZlpbg8QJS7zLcwebhwzKMxiXn1qBEvEvdwG1hHUNH+xpHr2lWkKTrOlEHNysG2L02ixnpCGPR4gz6yzErjiiUcmJeTLOeblpKn3lLBM0C4daIM1YdIal5FYuBk2Jfo1NEfGoP0ZqFFZl5lsz1iCLEPhkel8MsIhiYUVcQ12Oj5jVQcRZuoBjonRc6tTR0vNw06ZhslbxAbx0nR1TDbvACjrUwom68RuEtfapUGqf0T04jOMzBbcXdlfmYJh3MSkVFsZn/rcCiHEXE7wls2pa41WJZpddYg5zC+SXAzIrrcKkS70DMpF05m3D3h/wUpPqRERPyY4yEoDzKYXhkuKF+aWuPaZlSayw/MqC6C5YhgLUsFHLiSUqqtwGaFf87JYrJcYH03bNTDYxvAlkRK6f1Aj0P83Bh0OWku0ULCGbmI73cwnwEESMFf8Aekx58S4CrQd1HI09LfyXOzxKoolrVZ5g5W0NENK1PDG4Dev+kOf/ADd4VWQGjnd+Zkpo7O/uGLLneAy71CP0Q6EGnhunKYJSsSvcjjo/b+YkpB6gX6ilbf8AOkWba+qR7nGkud2RDd4zb7SIsPu8kPobu/Ylmz3v7QwMuXbcsRavVbS1duOrDDRL3D3uhBiNCRClIuU21TC5RXvGKCdoLotQD+aYUx9KKglU+lEr6yxx5mX9EOjnZzoCZNFjKLDP4LSjpAIElFQSNZF+ILxULfidYRlRUuGlZ1MQsvTn0M0MFJjjn0xPIhZUvULFzMUwV3oh1qWrqBhm8nksBYRepdxLU01C8WynmurzIw5iD0t0MESnVQgMIqlwTos9o2QLbmRd1FqnETRxlBc94y80VOlQi7l8SgPijuMvWYO7lnDDhGMy8vKkokuyDdw4sl05MSkEZY+EiTJeUl2GDlRGpWjd0iAsq5hUCz2EqWQL4wv9gYRjzcXLpR0FheqYnS5jjD+JbVHvGCA7qLxUwa9XMhq3pLhdnFH9hlUsWXt+ZcPBZmAMigALMTBFXWsGuqq/3Ux6sav/ACYWrHqv5KR/Pm9El13SLPJcWTJa+kDlXuH9nJX0yYu/Q/7F3CMLe2jMyT8WOXORqXXjHL1uAloYa3R/Efe2krrLzQ9dvyRoHyjNi++JEZu98oK4BxDDYLhppKwXKqvsTqvO8syZb5WGRWlxTksIAabVkukPtNzP3JklR4IFQwarowpYa6QeHwSiSepFQsNQI4SVuGpSAI41OkTF7NP4jq4hKajVVCnI8R7Ss2AEe9wBEdJZYixHMNZuFFcxtJRRjNkJ1nvFhKzEzAjYYaHQ/cuv/io3S5R8Ccwl3CVBv/qw1UZzMxY0IwVHXBUcVB/+C3eJ7XFbh5lei5jcw4p97el+mekxNbZN0ug+D0fUdDEonqEygKwOkbeZxNUzmURQTEMwMV1jQwM7m3apWbrUu+Ijl1xiOKsYsxKqMHl4M0R015ELKT+O/pcq4cccSOkcWOO//CDsXVxX3VKteBOqxlcFo8COdH+wxAa02cuYS4GtP9y4R94Eru9LHfzNTdamNlHkV+otGxK3b+JQ2CisPwTZa3vchdV1LFLqE+rd+4E76R/0UMOAvf8A6mOu3G28t3KhMjWenC5t8H+ojFV7QLAFHuGn0Sv+Y+iNVAQRi4uU25gdD7cxgRdE/bAco7r+4V2GtLLDkDoljACZSzTbCjTdSArzYQcocYEp7nZEkUHhFvSUqxlYAtdZxBVCmsINZR8QscQKgwV97iKREwlQEaqyAzYTFCVlFkDMGUgaSW3Mw0kpQmsx4QTM5MQLXEdROvSO6D/AhiXtplYl5wQAZmXOX5YsH01xOGAGbrEwIhZiJEpdsYrpJGEqwgSphcaTMqbpCvPiiY7ei5ZZKvaM0i5xbqGajEXC/wAMHVCgxKtTNzlcM5Ch8kVWfRckchc7osI5YAwq5iWQcFyoV9X4nTE536AVcQMtEIIq7x0zMw6RmamZYf5TJuz0IVHtKFnhPwhLm/TBmXXqo/Nr1GYjBHVL+RPf0uXOZhezf8gwYVUuYmR9UQjM21viG+vrepYYNP4VqO2HFPeYTNVULxMetVKeh6YdERmmOUBsSLpg6UN3kslS4k7rNBmK1AjHxQWrK6Q6RKCXQcdS0pVmGAZRZUETUsKoGm7Ii+0Fx0qVS6iYIZIxBmFtpar+YYaN3C45mISq1LVxxb6BRqFkJczTtkpipi4rxOZogD9SmKFhl9N0QKhkGf3QsQx6DMyjzsD7sqnEwuLn2jULbDAM7WL8xbGme8OxOdxcuIgydf4jiBDd2+i0CIjB9EXKDJUuydBtgkdxMo/9oMTUIstbxOP6JHcbUsqfi8B6VRARsnSZ4m+ZmBm4/HRU3KMdxkxD/pYuiYUjcKJBK6x5+4OpaLZKkUUntHKNRYcnvDLZWR6Ki91V+5lgUTCxJiX1lScaeKJX/wAChb3LjC6C/f0uXCED3/U1eqJcLJzCyKqloteAwwZlwYlHoq8N4yQmYTgjcQdIFdrnuTHpoj2Y/A+YtM3CL6Hx0x+YD8R3LnErEua1Q+p3MgMJl9cy30dblFqTLL3ud4MotOpcTdqys5B1gt/qOaPzCyOKomOvJO1qXoetQpxc0lt7huIPZAlnumWYka3ESXq6iaiOQbp94ubhMhOIRNVVimxgl+hzcZU6AqvgS+vSV6Xr0dkwHvzcFh2hdk3LrMGOi1qPe25SjcKNRl3UK4lFph/cwuocQ2y+sEwEDDSohcJPlcH0LAVZb4lZpYJOZcslAji/iGUvMAu4AYnZPR4g4gQhccXGHeAUPAzNHRzXozMNgcqUibqpTUBKl1HE0HDZ13COG4hijmLrtFMP9sy7SWcpZ4ltxUmZa3MfdQbKRYOdRXpDA3G7svqYFwFELgz6GDbG/CwhmSwEgw8en4L6ITid5ePTWcYcZWJl9D8iJI7bvNelelXFmDRfwzQ9j04lNeiq5wPuiFD6M0bjVwNDId8D06Sp0jcwPFH5IXcJmVN8zFnHo2zEY1GFDPTDFarf0wc+l1ibY+ueh8Tep1pl5oZvnE4xKaxHvKpzmvltM0hVHWbiFKlqUQ00oyvYWoXtOOQJzEaXqZc4i51Q97T6hyGVRxi+Jkl4YzC6ws5pTX2ZyQcW9WO/idJeZsUznmx9x3DR1gTMAEQBIOno4JevQtefx5uENEWG48wDzb7KcQO8Q1UTxkm0yE1SPyxM3d5zDbGic1FC5fTz/LFgfRMQus8ReiYi5y9KxBvKS+rDJZPadY+c4/SBSWNTVejoR5HBGzMWXg9NWOi10Hq3B6JaYVRUHBLZ4uUfNwjmVHoYuoAt4gfYo26zAq4eh8Gm+AzoOCAm9xAu2Gc1EknFL8Uw5IlpKAYZqJbHsvf0RGLhR0m55qNRb/H0JiOmFi5boIVVy5YpOVyn4S8y81UfROHpEFym0ouJQgy93MxeqJzdMslwotQhQyfMSAi3xcz7Ucx6T5BKL+hEVG7xlS2Y8B6VxoKcyi7sK0Igl5izCX0wl4blOcXWmoMNX8JLHcg0dQekw7/37QYUfYSbvwXzNVncUWT3IWsAtW+pqa69wH2zuR6L+4MjDe9fuX4Udb/uZcN5kBEhYa1hgP70l/FC7Jb0vGHXctfyMPOK2LuPLHmHj1d5M+mJZ1PS07QrlCCU6Cb7IPMGoMIMhUdLlsFZoFw4LhsZWs8owOopLVU0KIVN8xYgdwzzqZVtYSrLIJFOEbUAjrVRV9wfuWYju5Rbq5dcT8whj6suuJj0bxUeYQqqh/CczEuyY4jkJh0MR83GXcuyo2upZgMqmEcnaDS3dl7WzkixNQogJQ27iDaK2MwvVrefMM0sbbJomj7oFiSnVvpZzZcrO5RRy00YlXAWyC5eNQC4NtYL7Ag1dxSDPeLVsV5rZ1A9eNZhOqgNOlMoophmTBU1E1FDXWOLV5IJaMOzG2MpYi4lvvYxEOh00zC4uqKXKsO7rCVaoN3EsjHSZrsSuyyWF/6lC5Fb/wCMvwHl/wA4w4aBp1gYtzAtnXI+40dvTGIGlo2Ufliqa1zk/qFLh/zvGoMBRrOEqLV4IcORoDfZjqsHVRj8Sn73/mW/GSZL/EtxV7v5Bvj50FVG8UsctV5vKJhR4VGZuJGyqWFKEatL9xhUPlCgG/rp9ymDblpM/Z1DKut5NENkLBdmtv4lycXSsfxFVSrpUqirfc/kuy3bRiyyl4vqXWa+6WY+FRUpiBN6/wDe4c2rFZ/vE0HZdG5i9zNZtJhN8cWr4hXJz299YQpGYsQlpLeVSlvzYR2fgTT9CNg6OxD0B0Q6w5DAu12nZQ6CZdIGjH7ZRAOkomozVHJ9Ex6aPQMw05UHne0WpcHPpdfw35jKdfrmYanPqyifEzqWKkxOKq4Qzc0N9IncjpPl4i7Zc64WZvHBG0mOutjBxSdyLNts4gW3MDc7vFTHFV4INLMwqopj5TKNZNQW6WuB5YBXoC6qZu+hFL3xGto0uRrrLgjrZLJffERusWnuJUui+JtoGXmncHtCaYrN7bgGwxpHEVyHdBDl+CjifsAXMJgko526INK5g1Y6hTQb6CPwEAO2Xh/1C3PsfwlSxs6q+yFFN/LhC2DhWe7i6v8AG/bMqUYoGfe46qN7DfmCZPE/1iWHuBKed7EKM7up1N/+6i3UNXhO628/yiLK3ypSWjiqsF7jVML1pP8AXMA2RWcoO4N0prfOWUfQHHF94cGHWMoipbzXjowYPhFf4jYSDbRng/maLs3g+iL79sEO6JZpcVBm85kvMOXrTEwOk5hmfehbhtJgYDyaoY65AqK84LURWA9aLlcwV0RL8LLUW2/sQMANEQ6mNVG5al6Ii4dg7TguTx6QKcEoIFwTw8+bjjg1M10QQ0TsQKI0OoDB2JR0lT69BbrVnxMVMXMzPp3Nc/MrDtnxFt4X1vtMuuNzBqGPXn9GU5rpQnmJ3nSZCXKVFRuZmiXA9YP8Tg6pL9bxLjdfkpMdJeiFeiwGVmr69OY+qaLC336Y9biXX9Ez0MTmXbM0q/4orTOh6V6b/wDizozqy0x8+g816UkVLrJHYs6j3krOiNkprC9wSgMvQyDwnEKzhdNI0DH6KHVMiT0LcEpxKrik2SxFQX/smU09Rf1MtHpxBIdGLUyVm4gNujUFlP4T9wg8IteNQUep1Mq28C+rlBBqO/8AiDl9sUc51ClKb3mrw1LyBdFSFwbLerP3L4I9phCxeF+4p4VJu1/nEFw0zsmOA1Xr/nDGPkB/Uvtbd6/qOnjqg/QJZhCF5G7W1DEKRAM2lyh+4UI3O/8AWHhhoWhNaoM+pgXluDH8ZhRWI4TANfEgqLimgjgLeFkp1LD9YdB8ExsHTRRuVnMIh2fmYlV/CuvExuYUhiae0VeGEfhSijGpSrogFaJczOE2QpZl1/7Q2+lnbV6jKW1HiXmXh2v1nENZhOPRg6Xg8URGoeh6VGH/ALwRvNyig9ZgSa9CICYlEjmUo+IAHJY2VcMsNYnSVylmIwjzLxcTZhGs230lQaZ+2ZeGoLN+hdWyahOPXL2YoJgkQneGESz0qDuTQxwC0TXpU3afeTMHDL9FczV/vKL6MTU7lj8kxHsleozn6N1gGImvV1D7tfwMs1DUuK36NO435/8AlmYB0/I2X+fQzvAnzhD2EZR/mYANyxWYuEex6Ho78yr9GvToxezD32PMPHEHfpwkDDRWX0r11gMgdaoQF18cAACnQOESHDo6Eq6FQUqpmxG1uHIxlrxAB/olMGETGiBSYjLKEo3KLer/ACnLmUTVkKpaiKiGuU/7RNQqVCBd4hshHf3YPQHrCXhlreP3QMQlxuN1fRNgzHPYnfeKdusNXMNmX24vZ1plQH/UWF4XEA9Dsk5lSZZiaUZe2DLHE7WBxFlpkdP2twMegAt04g0bUPadYlOZXV2QZYgt0EAqQscMo41wwGCjbtRCPQm//i5czz+KL77jHooCsuDNOZXpYwmIsiAPEpVVdw7rQSQl9orQppl8utsV3pbDQCkosXG4eGEVtrZioTHhcxTKwxHNpTGY8E6Sq9BbQTJUbfEK9SCZC7DOvRhhqLb4jMc0csfZqKrtvynM5ia1AjkaWJHk9OJZQlMStPr0vEuXiEvgrxeLTEGEzMXr+EubOfoirgnEvEvtMkf7rAxF9Ll3D7BPeK9M+pv6/g9CvVLqFYCqH5lGIejWYfJX6QU+gD5i6xD1Ny/S3WdLzcCqWAIYlFyhqY11hcBPWCPXBBz7YhquJcOstz3lRyqq83CkKlbxDEOtyiU6Iks2lYP4l4uOoGBixfxmUjq+yNFXCdmFxdQrk0/oYvaBu4FvM6eljDV3/CZ9Pf0q5nEKZLbzxCsTmxh0lFadQgDFmYpQuy4vKXDBGcwat6s5IN4hBKzGZiMCnicZYrNZMzRqUw7Rco8E/EuNToUPYmF+1EspYLi0YyBpYgElKNuIUEtxTiUZcYHRLg+g34o7yZrKuCoB1tViOl5O8HSQItG0ItmR4iE234hTMlbPZDQ0erQUx9SDoXKIq8h4eIkcoF3LVmcxIFtc1KxMwUoYsfDUuFS04bZZQmKZWrAuOox9EVBmxCISpByhBOY0srwC4DmAHmpnl6hzK4UGriedyKTjcMmoFsRda+EsRYQfS4aJmyErXnH5MDpMm/RWpebpy1KOO7ZaoZU1EjgMVBW2iEphAyW6F+7FNlxbUUwUUy8EvTzzChd9LqGGfXbLzNyf9rQJUrcauCw4WR3o/wCcrMLnQr0DKqkvpjmcPExD1EWnfBRAgwvoSzLZYfD9BltwrLLhaOEPfM0zEvMQYB0QTl6nvhEuEupbeIePROrKJohu8LzKKMwvbCVUQmul/wDsThZDcd3cNizaMWXhzzA6dJjELMmqnnUzolzi7MO9THM6wDhlEAZdDEs3DSXHlUudi9QW5lWCXWIdypQcozfLSLBzuWG69Ny50kp5glw1C2XcB5PvTzEaoA3LHIaFxANpbACgjODU5RywLiudTD/ASG0kxBmxjU1nrHeXMsVtDAVGc5vHox9LQ3K0dsuyXKGFvvtaXMNtHuDDFBFWhHJF33UNILSLC0RDSEfMe7LqGUVxioU2PUgCxibDBi8QKhd2HZGPPWoAY+Eek3SbA5IcrWU/GcS2DLj2cIpptrLIYIbvAupivS5cZWao3mUhFWVGSwKo9C5gYiZ24alSAjK1zzKAsuw93Z1iUGE6e2ZZJQqeIFiwIKgJQmSUFVTLpv5RXRVJ8GVxMs5mPRtUpSRwmPCRTPQiVLIbtSFxlOq7nOaC/FRYxDcRlMyoGypgCU8sBQbzbtuDjcINTom0aRFAeBfMDjWJfUilQBm8RMBssDfAyiPzkebv4TJX48wuFq61Ck7FYMOHgkC7MVHqy9YRGrK9QubtluoCg1D4m+kFL90c/BEhSq8K/FRovj1LMn4iDAebOXsEBvW8UuVj2/qDKodL/mLsnwEYC8/f+4APYkJQ1YwQWG0dsKyNa9wjzoOtf1Gm9QFH5tBx3X1iMTX+LoRabPelg4mupGx8BV+Y5Pg/ZAnT6CP3GM4pRk5q1R0hMH+YrZkhVEsa9Bmq9boYnPpw3GpwS601LLimsusDiL74uXuG+lTKr3HxmHPNIdLbqU4CXUN5jo1ChikXxiOqTjLBKtjLkmKdyi8xU2gqpEWv3TOEmY51K5zVM3KLyPPkJqzGoMtzOqELl7XiLse0uqg6GdYUzRDgflHFdC5bkAoVLMXTNuWVeCP4H6gvLSfMKRUeB6kDjivBi2BPpDGaY6Pwfclqrqa2rBIw3O6ZB1cFILA7YGW6KHtHDgseG4L8iKcDLyXYEOsGrilGYdV+FWzglPDk8IhhcwOkMu0kcgYKExLm1LWoMcJRoQU6CNZGRmzcBmo5TLl8wbyrr96QzsYLOmGOmUV2ICZJCtGNx2ge4g9/Dg8J45gJL6pjACDTwOrzL2pOEfxbOhHUUM3p/wA4l+Fgn+yCVsGlTiOY7AiMWe8iXNHZr/qK6Fch9sM42s0K/MSR8EpH2kWqvAo/cvuXvEhLBLysLVBnRTn8SsdtwOhEApwc/wCRJzR5QVanyT6jY+6JJ8TF36WjFuCnJ6wqPwF+5a2f4O8svQ1w33CxUO1f2ZznObQ9/QEUqzpcPn44JdZ4mQx7JiitXpzA1GOjg/mbvEXi8ITleEBK8+w4G3a92zBpmgvpi9td7R/EyEjBu924dDCF9jIY/wDaXHKCja/mU8vtDt1JsGCHm3hDZl8ID3HoTLqveEMQMrgRKOFvTMquizwQ6OAOEo3glLA4CAIxZCrlWZRAXlUVgqErvPeZiejP3DB9CYld5pnU+ZcMM8zHMvEQPX6JShzluVKYSsQenpxPaGpedM4I4GmNSwIzcPWb/BcaqIjRyysLZyTDbXzq4lV4g3bc04bxMpn5wnjIfiGr8r9EQeW8wMw32xHiqi5bQtMUBfnF6S15mLFuGVl53GBb/kSz+RAykAEsvcadxXBgXsUiUqFcU63OakoJIxQG1harQkBv9tkmufgK5giZoAl2N3e4GqYzKLiJtmsCoEvUV9Alcy0c/wAIaixqy0RdOHh9sMuuKD9xuKeTOK7ExvwsyX3oFXBze+lP0TAqx/28RTYrKtVtrqW4QYMmzet1w5sPW8R5wRimBObdPFJDJUyb6y4Lgov5EBgDplb/AIWHqwUATCyx3fyTeCkyAC+lh8TPf9HaBlum9D/EcJVXSs6sdbS/a5vLQiswbXJLT6s0X0xtHOSGGR7tOsmbypSZ8VsqJsHKCP14aHxoB6OsIaXwI+4dCXgsr10Y5VL8QPGZ9JRWoXtOoSrfCPWEax6N13PiIxdEQ6Q1CJLtVWVvyTZNUS8RkBlFlhCEUTJGsfmahUx0l5bosh9SgQG1/CF6YGVhJl15uTY49Ky9Ivl8VXKkWxlsl6hWJXSVqMqGdb8j06HpliLGvYj2gwlYnwvwksbsjcrm46naG7OGPN1DRK9GXBSPIHzGuJZ6ENMeO83eG+kpGZ6TmCjTE18/cZj0sJdy93OlTp6GbIuYDpMiKc1LbltUmLue7TVCxhdYxLb8pTh+YhhN/RJdQdSJocF5i1feskKc/FjipfGWALbv83xBSxA3/wCMLjCMR81iFWp10IslP7T9wJf1v3GpTRyw1WvJy9AtssqQWrdby6EblcdWoW4PdPojonffGBqz8JX5mEMvb+SAu4WYqZ3LcKuUA+NsGbTWKP4ylWF6SFDp4uSvA6wPol3ekLzLuRu83+9wrbzhy/zdwU5WW1v8ysCznfNLSl/JcuRpBNCWYGjLfDfWZy2pQuE7UtBxHVRLvszpfFAzItVaQZiYo04ZTFBAFITJqewwXt2vcgawQvMBHwxNkaU/AQ50zNyssolp/AlxRJLDcLJW4YymfxqNU+kCXgQzKChMGYVtbH1XfENzumWa3n7TgaBBQiCWN6QhrefQ3Axfo6gh1X9kvJMzLVegsfDLGqHiEVEG9QXach8kYoaSk8S2mZ36XxbIzw8EpSxjUQtTqXLKXI/wYaJVFGJS0yagCgmiJqUP+0vQXxctZO4mmXKYe2rPzk9DcVEWyya1/EJ2lXHyxczHpfoNi8bPIYy9S5cvTK1C4C3sozxMxcSmcvh64lbb39UbqDFl4hQ4/jBogwm4MIu5P6Z4hlcTPo2zEOt/fDF9Azeqmj12QQukhBhDN+moHobWXUPMzcdCMvitw8M9TTmG2xerfuB2hw2WPsxxcXaYFF0Ky3leyPoKLAWcIIgzpUQuGPWzmUA8oOcI7Z4jpVwE9CydpTDRuADUo6cSmoGrzcG4ar9xRKchlIwMSqYKcErNfGFVDT6EqL8S2pz++UIMZSc46zxAO4F8z0ZXsbkzLwjIDoTp4HokyiqXzDIaISuEFYZlov8AnLtDcqnHHCRfgFlhlwK42s3Hb+ExCWXnENOYomlC6/mGXu+JkOjfxEgLg9Y1Lw/mViFS5u5ibl9+z6wIqhqMcTAk6stbdCwg+jACIf6sx2QYMGmXxGuBmMx5RbtYhSz/AIsQgV8YS98xc+iRwuS+OFdQzzKojpK2XVfUIMMeoCpS6N3E1ej9iUTcxAgtktiks5tD9RNFw1HIXHfmVTBAjF3eyy7uFtxmKJuJDWMHuPS6wzbB9Ai6PuRb4nSDsm4wuUPxOj/8IqzJLazC5ixk/CRwx6W59Elcrr8qIehKzCIpMpfsgqUYEUdHf8oXWm3slQRmEqXOMmoZhqeD0fMMM8emrjhjp7dV8jcNRVE9K6vEKEiz6wgdxohDkXBLtjgxrE0UFjnI17R5TgT3hdGGyICB0NzcI/2R1hg8XDveoJq5esZuEcgNusiuUpIU5lNMc5hzAeYk+1zCwxdxS+PQpSVvHI985cSiIwAABCom4XsLiAPEGP4nCC9pdMIr0/XCARrrmA54i7y3Kqu6/JZM6hduZmyhrODdQQhiKfdZC0QUThj0IYZnUgJfi6Pmceg5jgiVlqXVjYTbcVmoVE2TfMSaACvh6G5dxZRMteej/Mchw1OJeZfTcQcB+yPnEULGZJqI91GlhwTmCRZgWiF2bcQ/Zjl3OnM3cuCUsOBW+gY8K6S4a9N8KplxWKfkYLE8+ubJ2kX51NLv0Anv6I26GldyDFwmJWrjWIwEu/2jialmJ7TE4TZhxWCH0Wj04D/yj719MsqW4iYgQK0lUhGGVOJ1CxiTUGWeiF1ZE85x9FIWqaqGH6/hcuDE9fQhK3iMOCMY3B0eh6DL7sdIYmVWTaZiwu50XMcXArWj3bharuD9Ew1LgSMr64IzC+ku0uJ2geVMI6H6IrvYrBt7S3WX4Mq5oSFEHH34XSCuIOalKC0b1pl7irr9IKHn0xiXMKqBTo8G7jMuAvi4rLmCMrurePHqxDAelhxYFeUZReCkgDTwhmE3cYwWs/ioOQhW6fPXU7xMrWTxEXKNUSnJv7SXFaxq0mXTmOX87T2kT0lkuiLCoCg9JeV3n/LDDU1BzOhHe2pQvrceh09HLRHoC8RWd5Sr/VJvFwx6LHG4E6DN6YMzMo5ZlIjp0Hw4uJmV2iYwQpW05DeIYYVcQjzguo7bzibDmkw4goyQzEE3WPuPxVGp0uKJXLakq7YLKgXMbiJspia1GL0X+qGCCN4SXm2MEHQ/qSheSoUOSIbH3CVBZeyOMh5MaQozQGpq+nG0+vmDLQOtJeWOdmJUI7ZJtVtK0LjRAub4q/JCp2pppa+CCaHX+ckEa8uj7lwu2XjKDgEvErGMxW6b/HLNKQkEYqCJfzCuyJmMQyUGr0gY44YwMBVA2dRC7AOf9I3tV1u+/iLbPln0pf3MNBS2xFwOi6QtVo64UOX/AF94O2iF4IFteG7+ya3MIYUKUZZ4L/esVrtzUGus/WK9WPj+cOo2+jPsEwY0bZxiGJuE7xnSWdX1wpcxZObijknEz7tPsgYgWalmIbGal0Mwjjv4Uy6lrUxnrUMWS7OtRwtaioNPB7RnBQoDxZBsiqqY6YOJuUXd0fwybq+GF7uWQeJw+Zs9bj2Sis1P76Ixajoy80/MYTcthFq79yCRnnWfMvqy5xTOCdMx7pj9hMxtN15bJQSjmkrUERbQyptl9we7LhL5fRMkrSmhi1nUBkHB8kscxDpiyg0mdyluIZFch6LEGVTJAplEr/aIJUWrN0+5ZDiXAHAsTD0yh96pQJOY42zFziWWOLvLovVbKcRPKHsjrHNZMRCxvsha+nFyxVwiKKF3M8IZiX/eNJPgkHF29l+iNS2/H8Y8Ant+TEKB6C4qyClo643Bsv2Pti9hrX/SPD+H+4FeAtlX6Y4KdiM9ob0iDDj6f4QfHuw0YtZyhtxC1Fz7R2NBVrjX8jDs+tLuPZj+2KcgHSDa9cg7C+6ypDsOaA8PzoBl8JX7WAt0O0FXMYE/LF7HlJBbV4i0BYP81FqKCZoP0TCMZ3MxWXxWS6svx+odqXXLxiAbPdthcPS/3cw2Xpf95eUr6Of7mnH+veUJZs2c4rcML5Mwopy9oXdTcA6YuilZlDdT2MKVYgAxa3C9j9sP+QgGjz0IndGdHyVAvC/7xo2EDEArU/kCmF5H4lGjpegE+PR0LiwHBcBRXT0MuI4lS7g/kIS4QJi5UtZVn6TMpnL6Vo9Zu2K1+RntAmevoc9JpvE9pZLx0JzScwJbDxUM5xM3BkXOUDBUEbzLc+YbRGcy45VlvhlVldTcwrFM24cwpL5hKk2HyS2/jgqzKKuXLYZSqtJyN2ebcvjvKgXAjYiZIJMkZUJil9r+4PEMJ2hS7izvnMURLMkrT0/Ks3aXj0WxjfEvK8M76mAmAy0bImKh5BBrT9stLD2xLP4cx35jNggnaheGGVwSPSqWSveP0QFUzf5xEIKXw1g6tgnZUX0RZm+SJFGP86zMvOxnFR+ky+tCyiX1JC1OxyX8RpIImKjV8QbJ7sGxDdYaZfq77qLRQa6n5MS9USr2fsjadEFIMwADb+xW6qx/7ZsPgIDl66ooRT/H4lL7qhbdVki7VdcSP+nCkVEySwl6DLv5jhRgqgiyoKZWuyl5jSpsrMRlN4cdhVZUv2CJVWLWIQyVQkzwe4ZUYq4wgCg/BiFfwkLSN8Q4HjOaJR6WsQghA5qMaXBQlW3VLbEgAC6+1EVqDthIBcQ2YuX8UY5nQhGlOKI8FC5gHSJY5+qCieTAoiDqZRshEiBEGG7K1HQVa6xIvaWbGVGUXZonCpr+OBFRCCcwsESqxLNbXLvliFyqlxyw8RpUlNhzioDK9aHiCmrDlOylSjPqJcy6WMTS8UHaio1UGXMzJ0Jj2KRl3OJUVUNoveibC8emIxamJfVcV5n5xOhKi8+mL1vN7Icy4g1MxSgaiK+6/lHBCc79DllzVSnqRNEqm5bLua7TBcRc3SmrHXMNAGeCIEtpl0PVIxbqFyUjVFo2XFAZcqTuIYpnVgsLbOKDA0uOqbfEa6TbRbAwLiBPHYhk6QKf6I4LO7/ygmsXWZoMibpDcIOmh9stsMPeBnfOLvWeumO049G/iIL8T+MCOH5RgMwZz/4SuSdcsfWzmJLprUab/b+mKWOZwVmHNXj/AFAlti/84gjdDnR9RRWXtFZcMKK7Iv8AVTSX7/8AWYm2f88xSAOqRRfkFYRLdFYsBERruhmqsGbrBlBe2aZ8KFPFMZqsA6VLAUl20gRaJaVC5ZxKR4Fg14MrscLtcdDOy6wQzzArpKKlqUY/MkxmpmIusZmb0MO/EyK5YdA7S5feXlphG4fRbd1mDfE4u4nMPBpxMekATIkP+jCqIO/ShUVxUqXGqntLsjGO5XEND1L8mVCz+qExNIYSIBVb0w8RNLAMIqxX3TFjb0ioFNZ9GEdZqw5iFe7+0GqqG1enSFKt5jrIxBuWbAzee0JamkQ0aXo8wA1ku99oIMwFEWJQTQTGopmkbUvOoqOgSiVXa4gixsDrhAuF1GmNUEFuJtWNC5JQIAFY5kC1LKTmXsxVaQ3+ETqAOHhYspQWxxGzUMPo1uVVQYrZGKP5mN+iZAF9JcWF3hQOxDiAuVyhLXdxgnzQdYtwZu48LZe7cx1niYqLL3HEemuFuvTmG0uhcHEx6Lo9EnSaT3i1r1WrYNsIWWZhiBqbZxMYmIHpuXOQriW7eYL0h05j5lxrAEarLkYVr7jc+Sv+OsHVr5f7ZpeQf9w120YUhJkNrggYbmx6wMKD2wRoL2QyV26IEOBGnS+q7QSGL/OQHhAQUHSIS65zKCF1jUInXEnvlF6lEqlRK1ZBVyvfbX2RKOjCyXUagoIOCyZfSs74hj0uZptf2BLzc7X6f2GJif8AjULCVdLfEOOY+AIZMQYNJb4g0xFRBfaC85EBv5Ati7SnBsiOUt4UkfYQMxT4VZc3Mas9PT05l1lcKgOMTPplKrNXDNc6w5uWM5rdQApfLKG+ZiRiq4wp0n72KJCmsSny9RAq13AAuMXQPeVA4NfmKqjzC7KUPvKI4fCFghKwkN3DH6t+BMBcSiF0MqqIWTkDMdqrBEqgK3wKjwjBiGLpRsd8pwEiGU1MPNxbxD0xcNUdEZ5wYCUMwCK1AQPEvwRWKxSpSeZ5KlGW3KQUecxvNSIJZRU263GAsBR2xYHpeItZRCpY/hWCsqDmKPgtda6ywVwNzIvJegEEhAaMJbqzGHqhDnxqZIBNviI5ivbzwT3c+8BMlGXlBxLK4erxVxhiKIBUBIZyW5k3cpoxl8li6CMalVLfDUuO5w1HudIpZU0l1iV9LOy9RoQOqqG/wUJQtdEqWrbq43cJ7KZjzGjMorcIPY/jmQfXmYIcpxSe9P6lag1cU36MRyrh7wdIei+1zvfExLmJfRhFwTAr6KmPRxLw5ncX0kDHWBmMbiYu/GApZmdPSnATjqR8RX64KA2F+IorcOKZlt9o7JmKlHH2ZeJe53l5mXmVK4/nM12lZzKY7y2EdbgB3i/L6XOVlMxUzVdGd7gw0+hVEWZDLFe1VLwuXEbx7ILiOa1DVSteSDdYCVH0YLrEEpKxjRzBFUc3LyK6pjCXV7QFVQ5OGUzFoOPEQvE0QBuGqImIBq8gis9LFjv0q3LRMq9CIRrWHhlkdJcoQ6uirMJimcbJQZZ1eLYyrq4eMlZqR2vzApUIrp0VeW4UqYzyBdRqyVFMJetcR5hSWeEMth6SiMC7lErC7cwmdRVIa8ovXodpcYd1cKu19aI5wurQlCtAxqWa2bKm5szGt5sZlW8EJajmwhS4h5PZgEtdXRGSBcQI9MkK98RawxAJHhhox3NY4tl6luM9LYCFoKhBtGU6Q8UqK5ioPcmIotbZblq35nRdFwJQtdEDiKgADuqCFViVV09PCwhsCBn0HjaIWcRhr39T0KiUDTZNMaLjXJBmJftXeJK1Qa4oahjh+yBoVOJcPMfFkfywWRbDdTJ49AeNKp7xWOXvYzAVNUqX6LJeZhfGK/hArMslwp6VfNT4glZZcOoS1PMOhHSdF51OIaetem+J7JgCc16cPo5MHVssICkFTdy74mVYzUKtzqP3KqGlP5JMA1Lm81L139Ftxi/Ebd1v81LNyjiO2Fs35uZsxMNFfe411i5uKJTBKo3BV6JTfdUkDjiNFTBLWu8RKJpuICS8r6ZZ0qAucigruTpmDUzLLl7qotjAfUJWrOKl4BywUQsFllKUapwzzF8xuP3jGcAQlwhrms4iDsG0drutfmCGil+IaOvSUiFKhBachPDLXiXUsizKbAi8zqhrU8sjLjewxTTBKzp/UTAaH4gvdS1RQWdpXV4XxwxRmHX4SLOkJHuFTHgym0XBaSHpKm64+xUFhLKjoeIZSU7uoPGRtr1gkGoAORKechLzYX01BEO916TgYBLe5vTjANI8vEwjUxA6Ui+FblBQAqqhovIPuRDXnGHdkS7YtJi/xFcFpcFOiohGlItuJKZe4hTBUKalUl5BlVPNQMpriCLYokel6mAyzFtHduhZcDrL4Epazncl4tfhEIqvFmIIN72xLiGN4FT+ROrp7WiJZ7Isx0izmfcPNrg6Mws9S1ZoWNN8XObhAIdmVABBsbIMqeBI/lgNAvth+Y7/AGb/ALjaSotoM3UcmUaGSt1eiP5BLEK11/iMtEvSSGI0AN1oUTxELxKwxW5jrLAanvRwVy25/wDSIyEX3vuHZAa2OvdlCZxFB2C/m425o7SNdoPEhqufpR9SxUONAVZ4gIa+u31FQq13D6I+QXhGVCjYXDffm4Aytb8vDcMwuHExiNQ0zfoYgpzBuCdCWurmamIc/OnyxLg28QLhmk4IKtDzLuCrfJ8Fj+AnFcwcly4NjOZm/qlFecJeIWvtKprELnTrHaNacdo5hdTbBAcktwJOAn9EpVETm4dRuWhuC7iJgg3TLfaOoS+sAWOL5DFHiDs9LLqXEe39CZxqA4Y4g6TpLg6xzGmDbZlMJZ3ha6zSWNoZI1jBACbwEBlhXovOYYMMLeoq1fMPLcDjr0c1mUl61cWTFEKnEsRhoQFH5ItoQuM0YYQzhoOSGqI7KowiVXeX+GCLidgxw01VMA0YrsyjGWnS5VVZmszMrkTeMcgl5BOQa6JAq8MA5dEGgqNkcDgrLTUuCwPRf1Hjexf1KDCnZf1HY+H/AGREN7srAzKAtmLH81BqRjwfubaTvBYK9wGUgjpxTCgJcqSlbrUHHD9oxGLrf8w5nt3f0RoLG+5/UdbDKzlRpbRgsDKx+SL9zXR+f6xSnxf1nCOuA/bBBsDIfuKYsu39xcp4A/azdeCakeEO0DfzBi1/zwQ+GKtKP4uXvgYrH4Jc5FcX/Es4fPjKY+zAM2+XNeXcDLHgunien+H7iiKvT/1nbPusK6UhRMASsMtW2vbA7BprDDMQNPRLAnd6YArV7IFa9RTqQxfVKjYJmnAoSitQA0Ryw258MrMOSIVqVMKhABUzFlxIRc8CodfrPxGOa7+qIwNXGrJmDCM3X2MBWUjqF+hCGi48vMWI0uosdehCcS7dfB6LvcGL0lXAPTyl4i01sqDqZvEKl5uXiXElJR2RlhdNstkuoGd6JUVLBEvwsQk+gCwlkqrVMhvg9pmN3ydYLeN+jdwNjBbLYaCv/WOawzA3Nt6Iysb5mZ6KfeAe0HNGmWi24imuqBgXmAQP/QlmN4hmsTiWMbSh9J9gwwKDHWpyYPJNubuCUouTtiS3s4LFue4axE8+mMqzKXbt/wApW5Phr9JC9SdKmJpvEAGuMIzWdILVvuA9rYWwprqgEuDzl+Y6LeQhjCetkQCU0Sc48QV1b3cVezTaA/Fq/wDJvDP3UHGzvbk/GIUT0bQrvDzOy2x5uUacrlXHjOf4zAs5PGoHiyeH9TPyUVeBFfwzGS3jofoj+KwJxIK6orUcgqUx7t62SyKzefoP0y/CLNwQZaeiJaMCbxOhIBr+1WMtyqr4ss83hNPHrDEx1+BMFUeyFwy7ypxoMp0lUaxKCoBPEg15MvSlXphQTNzUvJBFWW+CzMXDUEUOJQwoeS/ubSFX6AeYLM5REJqrNHSOSc+tb6l+Jiu2fU43MYPQvD0WOxO59BlzCtonyTu9cTEq6f8AH05Ihx5JhmSU6rb9n6gFXLq5uVj0CG10+GXCiWnoLntCc1DcPFsYxJyfQJ4ZzOY9u8MSLjMYejGHOa/lL/AKTeZeXZyyTjglHoQbyZWJcdS5aXLnPodZfPDCsAzJj0C5WJS2sXCw1qPHoKzFuNBxYNkUoa6jMCmHVMPWJOT8ggQfBWYs2ZozAeYcnR7yqkngfLf6lpvxhXVN3wfMuV1KBQhezAuW2YYQl7P2zjbG6ccYTZt+IYKa6Lv6lgIT3THxMH60nDtUKGyz/jMyR74/slzG/hK/tltYHqJ93LdF4/hLYHpcm1jU21vZ/IPfu2XZXlpWBm0YvKdWralzpJbOqg+26XBhD6FYEFfGlov3jBKA8CD1AUx4jmr2CcQTtkpRggL1NyZPqMjXVCiwy8EIDxUozUuUdNnwJCJmJioCbJiMpTf46gYmPSo3B3H8pmO7mbMRajFR3n9hLxD7lNzC+i0XZx7ywRVXqeIWObHH0qGlgy509CJ13OuE6YSvR2lejbLdH7DPMsIcGDJKz6Mnm0/BCYhOkpUdl6TG9MD1X0B1APkjzdT6dPTiC7L1b7Mdt1PQrDBiwKhyJ8MFTcvBBr0uJ30NvxBl59esOxX72DcvMN+uIqtKx4wm4YiPWi4GBjtG9czQu6KX3hhH0apsExfFFuZ4gzEq7/3l4HQ9EhBHT9wjcvDKGSmsQIHryRYVKnc9NXKooIwmLJrcq5yiMFIteSlz8QRROep+iUzJjNzRZTuVfELVM3T+sTLNLgM5Ynv9ZGKZglz7sMAXt3hAgVuykBUc9A4lK5aPchdVZRYCCOjMscVAXoglXceFuDcV1phS8cyr81AONS3dAfNQI9ukTNwKxucSlxEN6UPxcJ16ehmaxzNorHHbmoaJyXHM1LyWxzCpfgXLqvS4dRg4lYGld54qApSx2MQjFPTrW/Qruj+ZUWItzpMu5i5WYZLqdkKixK4g4uj+JfocTMrUwXD+EQMyswjiDmNWx2+P+vQMykISpYdYP5u4al5uDdxIS3YafjBhuEcwzKY9WliRcQVcMUS5dx7PA/D6KeYMY3TW6la0wxLhmcxxGJYps+IyUzS4tEFxdS5iG5sSjUqDcWWa2v0M0INM5l8V6MW6cMLBl2xOIXLrqG9rTUvmLEbQistRrb5ExRA9GZlFRxej3jUCBE6ypBYInWiZ3RxUdh4S/Cm4uNGnIfKgDKyOe5GyvBB7ymb5jDps38QWt6mZkl+hN5lO0SBdxEnTUrOZ4zBKLjzNgH4yFCsYlcxamLYEryCX/hBdTCCyNTBMBAu/4ICHUWVGphtOLuBRKf8AsYbNSHyQrJcMFTp+YMV1bfghVoqG93DUqyVfMvddHRHEMziErOouBn8FQxMlzjUzGfk/SAVLu4bR4lwFP+2IZqX+IQocRtSNFmoqaYN+hcJmMmMKQiZJTwuZnGtyqkue/FSvS50MTkirl/r6PaHqujn9oTF1C+JxUGmCD1J8sI9yYmAxPeOxHrPeBg59BitKQBHDH7l49Al1OZRKQOj+FMjOoOIejgiX+apdDiJziCxuC/8ANiIxSw10uF+maxLxmZcbiit7vHMsSbnNXxGZC6/nmQRJWG/S6hFF0q81K9Cusr023oDcJubmQdnx6hRGYxADxQ/ao1RUKQDGW8LP7EtVcgg9LSjhaLLoQSox5WYzE2LZZTxAgrVZfiMHi9u6TPRzOvYz2lTOKjbQUNdd/wBmJCoSrmrlsNTEqlMTxC7GOc+loGEqVFN2VQLJnHouwj3iDlD7wQ4LDzmXcJRbyT5Ssb3FsGSiZdJRTLTidbZdDJV8MsFINVWmZ9OLqDfphPXE2bgohVa1FVrMpLq2VvwzMxA1MylIbBy5/hnvFyQcQrM43D7X0wY5OkMrkh1uDqG0tx8cQvHMashQJjErMd3daKxhxHdQQaZfovrKc/ghMDBWPWWzc8/ol4IHZihgcRdJLuX9xl9F4X3JeJqDeSc7mY6w7zeBHqS7SoRg5jQeP2pUr0uaQVR0t8Q9KhMc9IBhzeYhJzmK0rHMuYBYK0pKmWDimMDa2eW4sGFPRb1V8xJR4Z+YJBrbKwOrgI9/1AdNIlOIMTMNzImw/VMROW+S5WTapbEo9KI0csgtjAqdY6INsL1Epw3+E3a/GJNUPjBC/btFKota4xUNgh7wBa/H8oGxXldDBWVrJfZLKCyr2jHkzDXbFDDSvf8A6RRaSua/qMV+SACyYX48qUIJEdUxit1BXAnekGFV3vN5xnWSmFjlVCW6HuU5y/dNs8UxTp9pRROxqn7Zds3rXMxrq3VZe1Ae9bjxKQBWgfvBWtAgeNBM0XgwIWLAd4qNwHeWdSqOK2rm2sZKXWMXM0QFq5ZZx2PF7zS5pqGXYnGoH7JkHSOM3C9TEqVOCeUMzjWeZzKo5ld5eSDifMRIKNupkg1uD0ZeJdaXS/ASYC2GoLeWC1UNDjDGKa/4RVWawfEPRXTTc5I2wprv98ozlgViZg7RVyMOxdkrCmK2xYqVYRqsMyFm533Kqn0bTTLsoZgeZn0gMRCYMy5fVibQMfEwitxqWwlzt61qKkV0uZCZqZ64hSKqiHUtE9Uu4vmt7ReYNy4PLLq4Va6r6SFRo8OXDLWqyl4Zcsm1eK08tGXpllMAPGlYiUWxuVgphhzsL5u5FMh7IkWh5JEjX5kXeTCsqR1pM0uCgJYruZMLXRYTCWDYLHsQF9oX9QcKt4T9Ra0icH8pcMMZD7k2We2LKuz2f2NxVfVD+40qZWJDNDZgvnEuGMttTSmwq/5gdaEOrfqLxgsX/ao/jFpgQ6ACFFhsaVjXezgf7wozxV/7QS/AqS7XgJfzCrgB3KwN8VCDvuwpDR0K4Nt56RxZ8h/Gf739TFmV4yxziB5hZofIy4DhcID6JdS/FILl0wZ1fzEilR0Lx7E8Sv4ucqPz/WDmVCvZfdYGgRNF5mIxX0M7sBxgID8OAa+NAaHwIFgHwEAqlPF2ZQPqh0rBqUGQlVHJsgFYzX7QABEtqczMvOoESqFZhdTnMq/RDJwL+IiKk51tgoDpA6Ss1HbBYukX3IytLU+SEHBc8qIPijKvdbimoC1pTzMbchNii1SfMN9FKmbH0AZsZ+9pHgXEvcJxF1MMNSuqXZCMWE5uc+/oQFTPxJGSHK5dpDKbYylpdPms1vFQBvrP5MXlg2WywLch+JWvtg056zHGoW8aY0ZdoVKlLHL5mjmYzmOBBbuWYtIKenEwDrmaYsrJepliWdIvyuU6zAwcMsXcziOguqKdaCYHWYM0CW19yxCpPwJkwHEmtcLUTpzMBC+ELK9sssSW8PZhFGrdMRsRw/71D0sq4uKwJMOvClT2el4W64Zx/s5L+2L+WCX3W/7lnEVLDibRV1Z62x5kPaJRm/8AiC5wdFxjql6rH4EWg82wxm7pjRgGusoGg9BftiapdRb6hOTtLP7grkPH9sBYXMHQiC3PUCZh2wAfQltx5MfiO3CU0lPRsmIFDpJoELVCJWCWmccy6bZJoPMC3WYFOHrDH7qZcMEpmBV5EzmACWHQwOjRoTC5vLI1i9kpqLwJYhczxxbBDPxRP+BKMYLNQKhLCXh+cWVdxMlyvRkRTFilJdhYQngCUXGTzZjLW6UQk3UAVlMVRDMKVCxg1moAQrJfZjn0r0elpZFaUDnHq8HobzVbIsDSK9K9GpNmcU5PDEuCo8S8krpiXiILnBAXVy79LDeI8CpFTUG9esV3tFAiCHZVmNwWWdJxCEGGVIVlhdzqXCUalPwRTgVZe0OPVqEnexjPklj4Jgi7ZXHkYpoYOKp44ZnrNWMCL7YS2lxJtyyQ49BlbalR8QmizMLZUzcqoZ9K6pTFGWG8zLmoqhm8xKaSX7EVjVEcucR0RRrMuntAqbIWfaCOtoY75zAUjOS2VGA953VUL7S0sl2G6j1XnjBLHZdJI7RHAPpLWn5JdgQmy34CMJZXD4Ww1C+0N4zPuZ2KDmv6Ybx98fzMlBA3PCD5ydVVorVcUQBsd5FjD7qJFF1bv3Dnu/3rFFZe3CNvMwGgarXeW0+IX6jg+2A/ARvuLXWNeKnKxbeWl1qsamFV3dtEa63cCcneBYuyur9yxVs7iIFH0wimWwXNIYGMlcLQgV5agVAama64+4IaPeW00hxplgQGMyra4gLwSpzK2+184TEox6NQLpOLviYS6gNkqF3dnV7BjKsTp/iCQZN0stRFUpgSLbe/pno5/wASqR13XDXpg9HccJ4UgYxEIVCXkm5RX6wB6A9CFYl5Soiocn5fS8zE4mQ3VMojoXyelQ6WLbYg6EwLXXKAoyk3RXMWdwlcwCMANUxhv0KtJnsS5D6CgPaEozYsIgHWS21OHMCdFmnZOIgMoeWI5s8wRtiqnPc0RV9LlQAazpDsW0EwEEA1yRZ0AygwTZqmMcW8qQzQ6JlSn67lgEvoihyFBIOAjyMfDFOJiga+JZmsHdZb8MSrSRAQeF8DF0nfoMvJGzqmabsv7g1s7XLWE+YQLjAtiHfQ8dIBWzhfmEIoDACs3wRV0NwwwRhtAgmmehuUzQazkhT83KqwYJnyR2nFpvWDM85KvBGEZW31wS7mdenvY96m0Hpe4whRqU9GdsShg0lTa2U2zPSDV3KlpaFQJsHp/bLciuxv8sLFquwMHQFxkx/iBT6Zov4IEXAA4F7YIDHtYzJQOgfTBNrfC/7h3I+yPthcYbeVYKkTcXxE0mKKqwqIK6GXD6oBgEDcAMC0O8ImV4vhgdOmYijGeJXWI5Uq4oJ3gAYrVzeYZXmUGIajbpNkLlRoq8wLTdTd5l3Faq5eJTvVKwi+yHMuOIq6CXzAsRc4cyousCMdclvxLlN8S9E47+j6O4RpvMWaQZitRvLn78JyXKLOrKJxuMUcl+IY9yNrW1mWTkcFomIctXjL49FQXG5J6Uvbuj6gzFwgAXrmHei6WpXhdJSneKh1kVFoW0W14IYqqdwhtl7LF+YVZmMQASghSbZFxE3cQouCcEI3TG4oolWHG69IWRNAMtHUaY3GI8WDVG7RLqIrm4NPoOPSjU4J83CGGDt9CODAKuyGJZ2mDLuvvZd4qM9kXk4l4IvFqzk83Ao1vEWwONy9wTrK5yqo7Hu7UMSLyhaCLOphjEZZtaJh0YfF92OLa47UI9q08RlgBiwDRj7iDtLQCFBEtl2Fe0AF08ucRm7jS1Ur6qt6jD0FQGadqG66NQXDdQCw1TwRxFzGwkcFXaX02qL6FWMXM2hgBPBNWAu6/LNeWYnnKBAmhOElfI8lBCzLVXAAAg0NY/RFDWl8uWZM49cMAPu6RYF1dBU049Kz63LmLySsXHkJUwelfk3EhcGPeFiBlm5WDEdwhG7TKrrBhwvLPuViFCRplVO7a8Sj48UzxUC+0zguITwczI5D90zTiMEpkMRqvaY55mJ9h+YZJcy8Tr6AXCqZ5zLyYqMKuWvF5ll1cog29J4l6OAI5dEJvmVwwOx+xMISJB4Zm/RN2V/owWl1km3195SN1b+00mzLLWxenobCWV/nB1ifgnMvtNMVjzPIH894XeWLCJtjjN92mEvdij5YEPxatE3759lk1CcGnP2gLHgKhLyl9xry4g41EtqFQu1nepYIMtfbT9pGneZdB5acwt0mF9EuQzshiAoQR6w+HsaLcwrtvsJmZRS+CDMCvBog630F1C4DsMt4wONMKoyuCVKJjFJCAdoKIuVAAVWZbAzB5mUuXNdY5cIApIhZ3Z0g+0zrn+IsA2vpnMzJLlQgt8fpT6lqHEG4XYYtssGCAricQvLiO+RuxH4tR7SwCaYAi1bo/EA26tqpvAhQ3UllWt1I+6B97amwjr1mF1oTRRG3DLzNAjHGK/yY1LllC5zANE8MWEHe1+IyckKsqXmXFIXiBcgeXuEWoOfQlWNiAZYzqpFnaVwvUQuYpJmraTO41f4buZNRTbdUMIg0rGZVl+SIYN7IqL7ojRQHa6wlaviETU6T5h3Js36PaY2MuzcvrUdwck26hBL8e00qVDMpuEYWTBd8YgLlymo0kVZY5nfYT4JklrzeSMKcWeGU1mZ6TdXeGWKKuYuXaETG5m9zCM7zK8pKwV4hVHTzHMpe4u7A9gQOsKdSxq4ziB9lgwzL6kXNEuN3KFAtfwJhVTJExMCDwstzFWVP4UGGZuHr7sV+Ej59DZL9C4nBd3LkKq50zL3LlJVDmPLKfsCi4gLqLTbLlWDGkEGJ1twxoU9Zh4QELUaB9rhom/NoIvgkTUuAsrj9YJyTWUq6SGQGx0kvK3NYcw0WIqBtUOjN2zwwAMJVYmXxOHzKrBTFgwX04Cbih4UVxa/f0hqXWIwRtMzNBkId7hGrdNQVDoVLgFYqBLNTTN1mOrm+gyzFVLJY1mYsxFvk8TVGvvmMJTrLO/pshopSun0GSlriOlBq9wR+jBGY4uzox2iXV8jLHGN4L81MwZnVGLcj0zDA6E6DqQ5QwuohrT5H7CVuK+f/ADiXJ3HUHik60iKJsEB1WMwuUIaasDorztH9wKOrNITpODWh9/piLXhoXSr5dI3OHvg/Etlk7wHpvxKqs3ykW42+tJrUSqOsZq5Xlm6EgrvuFMEw/wC/tLwFtVjXtHPTmpwBMxOWKTEX5ZBt8i/bKLL8v9sSFPKTVcQvanOLlHoNAwVXaZOsKq/ESrv7wgTZf4ICscAq8kVIbqKLN+nSXdysStZ9OBIMv06Tnc64nX8hXXMNFEzmFhKnvC/zHWeXy1qdjiHdMpTc00w7Fq7HiCXdAexFeuNQoTMtfmEFVGYL5L8zVoAgFzLzBZQYzl/MvMwjiF0Ax1uOFqU3tPtILVy22q9OI8cwkhdvyINYuIPDBqLVzIEuVdJvRy5TBu48r1FECGpcA6VfpqLAE6Tqy8HoslN/wxLTki1zBjuMefej7qVjCQ5BamOsqomQANTAgJHioaIzWtgWRTVwZR1mLVs4HXSo5hAui+S4kUJvNMexi8oE3+Yi02+RiUm+u6BzIzRSRF3NmInm9u5KIXlJxZDwJ4bmNRfSl9EF5ZOF/UcRfwn0RxwK6/Yq41YY6n7anKvwv3MRu6VB14NiMdojoGvMVmILFCtV3c/yXUPM1/Uvk83u5IxDKm0HrQlAKt7rlKBNhrOYoUB3luBOf/eZwe6v3Cos89SAkvBqmfNqDzld3ub/AGRMGWPmAxv2DiesnXF+IJeQOGmvxKoEGHLI7yTlfaR+pdt5E2p0XHiY6AI3Lmesbu5owRh7RS81/wDrMc2Vc5RMgHJluB0/iuMYXEgvUahFzUQOvqwpxSdpio+GB4KuxDr4v8CVdsxKMGyoQKlhMAF+Eg1NM3QS9YjtzLne/A+omcRmFQFa/aA8zq+gAtAtRTC3EPxDygFvsyUJKxio6BuP6rwHHLGI0sGvPocEpi7zC7WMnTUbl2gwgS3rOJXHpmHJLDiOpohKvcBZFyvGPNZenRJzC5mpbmXLqqr+kR2HRJzODcs3zB6So42fxFt/2EWl5uZ14mSoJR3gKiqi2iLbdwxgio3C1uN6x2it8Rz/ACMupbSTBXeY6zxTHSYz9pDsxB4Gb9FtkEobi5IWR8RYToiII+IApZHPfksltcKVUxAKG2umWC/AZde4zVYCtZdgOpfVnxmLIITgyu69pohm1nh/1BS/LISzFJuQxnKIpgOaA4aC5jI1vQ/sSYxnW8FQPeylPOZg5ZOozrkkc5jDkUOLqXChoM35ge9VtSCNuq/8Eu1InUJsa/DfuFSpVmZrkuUrSK8r+Y3A11Klnr6Cg/Ew7Zv/AMIWZToJ+pBiCGASi8IRxrxyobFvKQ0BVNiOmWL+8CFffDMKYO7fbBkAAmUaIZRYZSC6r4sGFDIcVh1jANB7IwBYgAC4YSk1dJXVE5wSisBdwGgEThJjWU/QzhmOW5QURaOQQuEVwLmDrLflhEzAx6gP2+sNTtUNX6N5I7su6n4JnEFAjOYXdXLKQJpm2amPeXKhQ1dfdC2eCZuG2eypmY4t+azOIH5elYuoRd0XeEMtbdFRnEwy4ldf9YLj0uXTOsYZeIhwehmvR5uJ7p/uBOc+lJ3UTxiAIbMTpMUZ6jjqCXO0S3jFH4IhMWweSLDloQnWpfWNcMyr6ort4MR3CdZc4I+l0605guZwjzAN3MNwULuLyHwnO9kGWViECKk3VfuiprcEVD4ggK0xJiy55EeH/VSwlgLeSo3VYMSY5upNAqLyC/EYXj4gG6I81mYHa+zzLlCznI1V4IFo/C/gIZShew+1IoIzzifc3UrwFfuGXUDBFXmBw64up9Raq6zNuFRaKMZv1MAvVZSNatbi6/zKLU2N0CzDTG1oCuBCjIktzuhbd5eCleMSowL4q/iGnapVbBwy3LJuGJlz/jMyE3ckGS5HPpqCsOiUErmpmy12gbYPekoCz2gCV8U7KvEr46pgJQNdbqVEwwQNoh4uUPEtpZxfKdCRTDxKlS28koK1p9oeJVrC+aiiVU6kFvnFvylYg2Vf4aUHBC9ba3NvtO3ysSNFdJqNMgNSjarR2zAoOJY6dX5QbI8YhnxO8qwoj6+j+CGHoFeJosGuYwu5p9h6c5myiATSElwjoxr53PeGGYZlfTFaq6O+N+hv1oq5ytUr4QGXhYZzDc51Hi6QOYLqVv0WiNoL/wC8r5lVfpi7lPYYbDmFupfpcotMLuPl4JcKqXMBDxXX2UykaluIYZ1uUFxuTqNet54mAdJ/D/Uobm2cSqIL14gCBghKelMcSip8y8rLs8pnsnVy9ZWGGw4xFfLjcqXOkVnNaKJjU4llYMX/AOKdUbFhOJj2nFREbpJRcqfoeECcOFU/5DiPpapbgO5J9zPQcZzf3EOPwoCz/EAvDuw59DAU7Rm8FfyTk09P/ME23tX6lRYL1S/pGLb+FjWEnKh3oWdXVWSPywsaICxtqGD43EoDrTAeyY9gQo8XCor4wzXXoLrxRmoUQS0BA9lgEA26yvsmjUNLcGpet8JLKYvchp9G9kob+f3gVImvMvtNO/RF5c4V5MdUSxgWYeIGJy9Ja3glUtRbmsy7nBOmYFZiyac/QzPJxDjpOu9QnmEuej6ZpiLDUYNVqWaWv+WClmSnNQZBUMQWZzCws0j0yWWsnJjE43K3DBvDXXcHGaxX1jI1xiU3czurjrECddWKfiWvquJHQddfZg5xDOJVOJ1XUplAdCn3g4hvHp7TEvl4aIVm4Gdznfpcws5Q+E736FIbgssaq/khmoYZiMUY8ldQIdZeqhNV7Sg+fw1LxMxqMZm1aFi0GECRWhjbF1v+8TiMFg6jC9FT4zl4j6UpKhYxauOm04ju4lHpcwO8EumIJ5bQtqzhiJtde42Q2jU3Olx7TdOrFlkLouD34lnowwRs9U/ErvNBLww9DpzMdYZ5hMYbY7iW4MXKxOkx6H7gYEPbpNkNc4hdjKKCF6opPZmogTSoahi8SmUyiMsZz+alrsHOJWXOYtVQR7wQYTTwb+IY0x8QLLMy1TFQLI7xY/rEq+4Qw+Y+WUZjVxDlK3ypAVdM6QuXggsa15avhhSacRUh4hDGCFTeLHy4cFuY6Mw1gipylxVucXOYsNXGoVM9cQqvuWfkdJoNziEtT0qSXk38LNXiaYMs9KZLUK9lDsmaYF7lmIjiMMWwX5UdjGCdyGOPQmr6vw4jVAxvmIwQ9Dpb4Pkljdz2mOILMpMWr/1i8EK9MziW8CfziDiXCFbl7g46q7flJzOcEFyVG61FXBLSITLvZMxnS5nPoAIssv4h5ntcLv0sqFy1momb1Excr5lXKWwMsdnItsNSsStyuWPyAdcQaebYDxM3rjHBCpcHvGTWf4pqmJZeYVK1OE8/y4RqyXmbMMvjpOpS69mWKYiZYsabYSxT+CXdSinOD3NMx1iueBDNV/mBzIBY6RXlAAl61iadAulUMHTRBZWOrMpaRTzL7nPAmiMxN/qPQTGfTQwtmGX3gTRE1uFEWWQbIUm4bp/6CZV6qLLAHmp1eKj4gQbY+5jRqoX2gUVKqFSnatMlXK81OYZj84+PQ4WMkBWSBWbnfvLKEhgI41tJfCv7giT23KK9/Q5xD1v+5C9s1zPMCKyytNBfL3MAbuaEQRzz6Pm7vlEoQglXO9zpHeSitwQ4agSicQiWaqWRSXgxD6hsluZraLjoR9Ce0T5US1IuWLGzO6PKtxf8iJAvpLxDCOXNegFzXD3UFQqN8w26VcdQJM3CbcwrBLYsMysy1H+8TIblIxIEp3C+4yZHBSx4Lggaj0sLfe5RBZFONmCF2lkslnWOjWXam69wxXyaB+GPAiVWEmOWDEW+CDioWyMRSryCPOOMc4Qc3LJZKbYOdWyshgdRwY3K0NCF4wzJLFrHfBmWsfhrY9SUsPFsth8OWVTNcNwfAWaCXvsC7VC2L0qhY7hHHXjftI0CeE/3CVy1QYjKDV8vuIqBb7VcPZgpRp3QRpKXV2Uy4r1MCnC/rHKeO0MVFgEW5lTG5tH5uNsqEsmz6f8AtMRQPlJmbV9k+WUVKgOoTiXUtn+uJRv4b6gopUeLH0RTWW+lfohO35KHVoMlzZy3HWu+v9YoBkIT5Ms4hLdFKbDMSJUdGOgadBfSWQ1okRK3DWLYphaLmPAQapSiD0sZc1ppDuwqUTVStSpnqhy+hlVTmFW5gXzLDbKGPf4Q2OtSswIMvdMYXJv+MvohmpTUsBheblR+iiEDhwSHGZwzMigxMbhCNMRxebYXfWdMzAUG7Q8TEm0va5iqsuOah1H9xao4jh36VGC63d9QRNVcEual4lrFzntB665+imKgMHmDyS8M9tsfKWB0i1B2VBi4DmWVNZo8FtxbhqcIPWYMsEhIUwWb5nF+lbe39zQqIcwFZTdeiKTcwKY9B9LGY7OEoWB6acsXozuTL0P1YQ5KfMUVjqjcownWDyfDhFwjxUMQczVV6Q2mddIkkwpW1jDmMBUvmhj8Dht5qmql2E9/+EEaX4i4AdxSqNarwuUuAf7O8chiA3IuavWrU+oDArGArvTFvJhwexFK3oX88TFgXJnySrGwYRzGBYrjtC+E+lP+5jHytQQlC2n7MXkykquKwUGfeCFvwXCy7xBFfrF9EzFp0aRHegwFoxXPmxmn/P2i8Nnl/QSuHshOplYbbN3ATBRjKzi7aYCN+cn7jZcinqvaqwxZM7S5S1gcV3isRbth2humoIfpwyhnglOD4pTtiyrTD0zYO5qU5yCntElDM0DFhORNrbXTsJsy1qg0cn7BF6uVJsMLKQDiFqOGbBM/wbSMZt/8WFYqOyUQH0qZGj0MMqcRsg5eVF/th3PKiwFezLkKhL4lyghlU643CuZoDzMmdRijYBcK40edNtLEW5Ri2oEfNQqtYPLBWya5g4g6lGfTb6VAZyLHZ6YsZwrmWvGMT0shLs6juAuZfVna9y2+qLfSkZkgcQszN+nAqoBK262RinFPwQyTxEOusWw57MEvpcCCtP6SmLiqwFmovfEwAXBykqIbQfaAWDzU3SF0sf1HJMXzHJUaeyLnrcWm5bLcI2/4cVVbAFfmGnR3E1ZFOZXsBzwYYOPKshTj4UsA7q1uVGhpawqvD1CxbGp2i4vMHbt4ArBHNDg09GVFqdVSmy3hJQOwFs8R4V8Z9wyT3WQqM5ewp9xVNxuqQX4zKLDvT/3L9oMLYoOMMo8DGYdFI5LBG5wb01/UNfuqgNnMxSRXMGq21ULDOpMcNAlGbP3Ba+x/cKqbuxA1fx5fIw5O0GKu8KTWVQfpIVIuPcP4CBodaMRhntSphKXOlH7goXG61sTzKmRhyq/mYEWFtBcowDYkMTHAuDYLwYZg52AOUB9An/mQEqkVKonKFNmhQ1PhBshrVJnEVu2HBGqN7r0Nrr+4wccsLJeAGkg9UGN2RLHArPmV0tD7jFwGIlpcMMZc7QdC5pVWYhEiajquzDvq4x7ywtyzO5xr0qEVdPtg9EyTUuESy1SdSBPFzJqXmBQZ6IQoyi4thwJXkgAzLr85mW8kwGWYYjyxG7PMFlTmkdcNty/Ckv2MExLzxMRspG0xoC0iVKqdPyCQ4lUEMZdSkurQVzBEG8VhOYzcXDHRgj2i7YD00TuQcTXUJAwlAexlymhu+JLFZ0HRhA62kR/SWwcdYTQ2VCwEg8NwXkCcFkp0m6mUNn5cQKjFCXAlY2xmClntXo4GGY2TcUhmaTB0ZVfJNN6TFSlmPM5c8SmYEoU7CTG8dEJpl2upeZRxcNRlCWRjoxNycbg1sxCq43BimzzKG/wIr11yxyEVW25wX6lBu0dER5rGm+iPVVuv+MUV5q/sIAClckpS3+Zl2ji/3RqfCZHF7x/NDEIK6zf0xL3hq9kKc626gq7lUe6wLsdlIYHyy868ky0tfB3+Jeh4tywvFEJuj0wjZPAKoi+Vc8Srjwo/cCG8mW3+2Oxc3BhUw6GAfp7gwDetJy5e4ZYipWhGJQeNYZFqpQFF7EQ0PtKQZdEywpGMmJhAv90Ch3EQGFJXWVbCLLzFtYm6v0Wq1qCQ3kq4ZxGmYhKtqoD8T1i1mGJcNYhfEDS6CZB436BkHSaGrVUSlgZt3n+WdhbIgnI61HOPIC7jig8owCU7j9ZPgNRQ9FRTAeV8woRFUhm3ZKxT9Op+bhVx4xlKuqlMrV1Gqh1Ks3/DMW4Bf1EsJdEa8igGXmwvxK7Gs82x/jDLCBa55axBDq+OjOVdJQKNsFPsfBOCCArQE2WLjJlGZ4YZ9oX1CzjcQF3T8S8eiwHeLIB5bTHe4zQ2hV0jTiENcMxh6IMe8BsqKTq+bi0pkotNbhp1ZB6zTMRrJ2gUyholx2CxmKAYEuUJ8CaY1k1UeJckOTOwJY3oX5IyCsRuWQ2qV3MQXiFZghq7qHifwVSx0G7VTAWIlnRJkJxfFGCqSKDhsa6VCjmLr3rML5mSRmS6/G4qB01Ky1VR0LlCpY4pu9naCjMoxA2Oh+5CVp4/m/Sy5ix5hmVLJcWlLU43DIZ9GqYaFgXvdxFG7Rh5622MdnBiy/UstU4w9fcJoUWZzf0RxtHufRKGBC2y1Y8ymf8AS4ZfdF0LwMmzs0y4LLon11LMI+Az8MA11HbwPEPQEapCVUmObt+bhRv75/m7h1c7q7TBbt24L8fHhcOxkYsRPD60JXaydpgIfRJfRA6drL2GKZgL0Sjkl4V1cPMGty/BRBVckaqkotxOguOXBL7XN+IcY6RqDUvOtz8JBYr00rymKl1L9E7yKKViNZJc6eiEu++IQHSMxVV6WXUpY/5YACoQcSu8qWX8PGHPomYX6FZN/YzQrpGaLjtLlTsJEQJdQRIOqVTAspqKbzEMvTrqBOf4Eu5ivJYzCZyRnjoDzEY9Jc/zsmhYMvW5WV8BJ3OJQjlZfE9rwEpf8lWukZxvEl6uQgbgoHESa9mVthXQdCKFRRRi4kByKohl2PmFxtOyyUF0G3rbMl2aV7yipzUbhdiU4AirpshipVx0KKxMt6RwcIg7vICwQUCNrrEBKKLEiK6wGfdIGpd16bIXEpbPuLKYXLLKM6ixq4HAInSNrMC4Jc9qgviZj0BfWLRMGzDgmhVhwyglWIK3TKgwA/OamwG2xdhE1Fb30go9FStMjGaaqtBg4h+hVMjZNKp6SxzLW5aXVxuBdavMd1EroEWGsg8YuETpDum5DnbEgDjJJYmJzTMmqd9iqlFTBmusZuvAuNwJhSj7hdCuwxWQ3ywR5SLKMHZmCs9yo11l5LX9RFUuKhlbnEOSdYZuW9SY83MjuJCyO8PtA6w8woAYVsN06YxLCIbnjmV2JQdWXZ+MQrEXLGGAzMLeKhZAU0vMNkop86hWdy7guuIuW6r+M86hRgpe2DzUGfMAnQfDKSmW584nRkj1S6gLE2BhLs3Bg1mYFUbMvaeGWtT3Jhcq55INsqA8nK4ErU079DaTKqbGA4nknSHFSkhHO25/e5pKjaahrVxumHJAJOoqoSefQ1CNEt/akuRgyiLVEddrPGNdiLcH0HZMFlWkyywLHWHTteHxAoDwRX5V06kGDgymtsgWzehFouQbjFxVOItJkllOq48YiimwZimgRhUcZRiIWBausys4GvmWmyYmCpu0oWWFvvWSokssWhThiRebNTRbSFyTns5lsdtiG08Lhpaa+9xxSwT7yF4jMl6lrMirUzw4q4FNkDAZGNiduGMArGCZRpOs2P8AFS5TNSsbly3X4ERR1FO7A3M2pRhUDaTnMUfxArGSMTlETtDfSCivNVbZnrqqYU1U+rLrqUExcJQRVrc0IioL0ujAvBN3OsxMWN1EiiMO4j3syycktYhhngWUTNrIAgBeHwtxwHAd5ssODMJkGrHRKKAVtQlQWgemWaAg6kCzDeLYoWBrk9yFAWnBgexHB9P4yyBRVsX9CEK5l6eIqQ65ntgGJdD5he19Lm8wyZLzczztNkYpqy/nMrmYXU5m9YgRm1hCmuwQrFwthILZL3gjSyCM+Kd7gCIdwixkiWvwitZziJixx9hAVtQVEZ1Kg7hbpxKA7rO+9y954iqUJZG2XlizRaYdcXA13mNygbgUiVjhhSjJj8iSibHEDZhFeOJ0Qq4BTT9UOB7RthxCXemGyRrJ8woGeCV6LawzJcRJj/8ASNDipe8wuCsxW50mbPkErNsvLn1LJob+9algRoS1ILiW3qOlq6p7WZ3mou8QZxcGoK62GfMNo0tcQw+5qPiVfcypk4U3mYpwFkqRRujVVKgmcMOOcDUIp26hDbbCUIzQNwgvCxKNIKx8sdaju3Dlp8Sx8ElIbgXY7FAIR9aYOKgOYRqOxbY6lpZ5DjlUNS8MuZxVwnJyXDZjgUlQ4YpgZaI6ASWhIAkMPOygl6pTFFrsSlWwik8S5VxZ29csJctHTGuSrjCt6ZzUTRRLbS7GZTL+LDa3UYL/ADgKk5MStLcF0MCl9IQ24W2OVfUKgtwUXkOzngebZWKdgV+2Jq5kPT2UuV7DNV94ACBjNMzQZ5/kjaU19WfSje7u9H1K1MtRHAealpSvuioWdj2lUNDyXBjvfw/3DS0nzH5lsphutSqSW5OHOX6iHM9bBv2JWbJ6xRGG8EvxLqPm/wCsvwsaW3Yi2fI5iRVGEYiVOrwQOk82l1D/AJ5AijVTAyqVMus5qzKGAPb9I+6ynvNkpOku2qZzObluhF7xyFQUmIHRnEbyARKDoq/BAXW7Q4vdagXbU7NQ5zFeR4K6yvgEWrh6WCKl+Nw4l0H4ZYyy501mXQY4mVoofxKNGHJ4xqC1uDRiZm3NRA1ctTNlMzr4iwuFpc0aiBpZ117kGBqVioMvESg7H2lRLDfzEUStVDwiojuzxcSUXqX1ltbmI6BmisbXzHMYqW3LqXRcHhUGbp9kuWM3zM1iYB/MNFYhXKCPvgMV+ImZcGncJaPP+MREs6wVnvLuIX/6MdMomIZfRYhJa/SIryq5YGHVwyUl1G2lcpGWMFNsJjU5AzFNTAk3LFK+HM1niSPB3FZXnvW8qNjOs8TFCdKzfiYLsYX9QDvtBr/EozeHf8IOA6hj26W2xAMDPi+2WQKeBAoqkzTEgoovU/yMwlyhyTHlAt2vOaGNN8n/AFESsd2bNj1CGpXcJ/3ibeIeTzmFLKtzMPkmDT4wh1/6+8FGBzUm2rWWGD13EFEWpLNExdYIKZd7/wDCLVjgWq3KrWP4hTlrM5MPxLEXsUT9S8acliHL1IVCfMrAvh/6Syio7t/3CgMzyDOHnGNDFpi7HiBFHPBgTS5cJcVSplwoECFvEuen7Yg4lVFAB2zKQNGpzDnCNxYx6e8xBiAWll77THRqEokKjMPST8MKTLEoh6cQgnLPchI4oogbuiYSoWMOX1UHiDPox16IF74hz5C8VCqh2eY4mWGpmyZ6k1WJgQouHiDbOTMPshEHXEe0vldg10mHpBl3FZElx1lVRiL4TD5lE6wGdT3uXCJv9kTZ8yi3MsFguEwmHJLnnvwl3tgq8wUuYYYkx1oUDzBabqXQOpSoxiGqup3qXgzxGgXSZcXiogqHMtjC5oQPKSgOuI99kKw2BCsLjVSu1xRA1mWPEE4YItrjUp2JRbsLvo3A0QxeUxBi+jLhO7hiOAPyCIBVJsD9QGqKA3Ze4cwVyH2TA6RvEl85SotJ22/iOqOzLNRQh75I0ZdcUH8sEL9kX8svwXd/7ygwnepGKb13kwlcwa++t/RHH7l/wg1UfmCbPFirXFbmBJTpj64TMUGqzGn8sEC1dIJWEGq/eMQqv7/xALmEqsD8VM86Dlbp8wRGobd+bgnZHdypB7BMKWsj0u4Zhe9BAJzaC0WqYoyl1sStQfgE0ip6CdMvaZmu5ghrqF1xhQPMpqiBLTNjCpbHYP1YTiNtQS0tMgKW0g9SWfxBnCfnPaCFPfEhc0hKpVRRhmgFL7hFgkxfozHPFhgiBzDUO8vMEtezyeiqsTiN5zAlwiNG+bzOjc01Lhm5a/Sm4QI4/D0NXfpbcrlBMxHd5suPWHpm8R1Vx35hhDUFJ0m6qEynI/CMZVy1SusUrMsXdP5DAzBhbFhUbw/TLQ5Jnywv05ms3Mno8kC8kIS9ZhzUyu2ELVqyip4CWQdYbl0QDnX+qVH/AC1DJL6uPRplEd0f8MOY1d1PEsbwSmLwMYZi8l7wiO8HcmXDnKmBfzzldnNXEl28ExZ2CpWRvuQYcuqSc4+0+2ZFK1ZdP3B/mLAm6A0WCOSgKjs4Uy7A/K/k36Srg+YfbCJ7DN/7L9h4+uYCzGpGarcx+PQlgF/w41LTS7GL+I1h8wB+o66a5EMJ9pGmHtbhivdmKA22eU+2byjzKylb3VNFY5HTOnC2urK6pXmkVZtuB0hVrCK0/jlqiOPCuYHlDBdRhqHH3mpRDulU8MqeEOSgfYZym8biEp6Ep3f8RG0aggX6VTCObT/Ag5ro3Lwb9BgxjOIVZAIXj6xLgPQ9MYyRUPF8giwemXbKilStjonlFg8RhVTOZdcRA20n3sYX6B3shYwUuLDs+DFxYj0INRcelrzVX96g3LXguCeldpcU5J+RhcvJn0NeiosZ/eWOJTU6QxUGMALyQKS5kJdc+gAJhyQ4mM0wVWCZOY4GIqOJeMzwxTp6VCDwFzMHL6t9pD8xYdJe5f1KaWbRGHWR9yYGXgltTSo1SO4ni1g5MuVKHEdjX/jFqazQKqGHXob3B9PiDcAyVO70gSqZoIn3KHBusK0FG7B8sVgZ7D9sGAXdcfuCw+yBrPsy3++psxughCF5FhrsMN/h4vqXpVfO2U84zwmO+ZSHKmhV9y1z7ARalfFTsc7zEwVHNEhKcK+B9EXYst4n8QrynUf6y0pC6LZ92U7yy24e6KmXFOGukUKB4QBNPGmYIKDwTXhRKfHjuJ/ZUTxayt8EBFwpuowL6mXSEV5cqhMpkKjuVTqLFSX0TZBi5zcN6ipm+jXKz8KdTMAbhAZVSnKHsiHxExCsJeAZqmXEVP7JkHtic6lZLPT6YsoeOuqKgMWoy1TM8sK0ufpgGDpLvZAjxNMDqtvD3nxUeghdbgPogj/kR4WzCoJW5fWc6hsMxssr0Zp2l3icMzeFVS8s23U0l2TMAJ6KmDUWuYTUb9EKa4+CoOJfWC16ZttiFeyfxcKpiuGDcvFwb8xc6n8LM4qc9oS6YJLFvKq/MbCNVuEM+h4VSxf7lS2nE6paRsJtRyTRmCuZjF3uHwy7v0ueUrXX6Zk3C3yTEoNyu811geJcdmazc49KrUrbawz5JiiF95UwZqWMoa8L7aJgCKLLNXEGoVE6vwSg+iTPvUscYZ4SlXOdx1K7xXwSnOalauWmJePfEyLqBu7tTGlj9EAug4hZo+IBUtitw0OBPhIbtgDrAxFREhfXmMrz1PeBxcF5CZ6S6c14iyQUFmLB0lBFsz01HCl61FjnJFRMsJHN4jjZHOm+sBQYgMHEzcYG6G/JjwHaUuIGA5i6nvM4GrWHWrFadZxTFNO4QbmeNxlgLLvaL2RZQwluyUuad4X4jIRDVQ8y+k4pjs9PipcsAwYEOnoq4uXvBoexG/EWNwdwuArGKd0bho+JmoI2pWi+8aSrzFlRxS15mH7GZdy0g3UuEA1XL4R/DNNTuR0jWZUbYVh44MahV3CNOPQuF0nxFAq5ZMMupZ1lnGkJRF5xFQBXpuPzY/KiaiuYYxBxZkjZ+QqDZonMy8y4LOZ5XGWiKqGZlmWOmXgr39LjqamC8bYVx3MqOxlzBRKljJilHsRxK5mYPeWwp1Hs5igQDbBFxI5Y1W4wL2H4jw6ASoXGBJUhivjBCpTcvC1LHPBLK1nrPCOGxchGSTqCIUbDDSopDNYpi4g16oN+JflHgl1CBadhTLgRrJAIl8F0WULesp7fwF/lIwzqa4FbwsQ16P0Il5hdGrnExiJ6itwutxu4WtQcJ1hzmNAYlBen2IWlj9hBvDrDLBjHwAyqDHUhVQaNTNRF3CFQK1U6UwNagLqbXMuZRo1Lj4bK/Eq8e8u9VKObgdgVLYbw44PJLwcWxlBeYrv3mKI73HStLevNJAQcR1jcNVeQjF6E010kahTiChwZYEaqHaEz2H7yGgmpdk806QyRdQGAob334DFgRqkuAss5gWl6wgIc/hDGIbuwmo1zDWIX8y51KXwGZ0egxqYEI9YC0cD+SK/FLKlksqNYlwoCi2cA0TjxLsiQuXdX/qOxC84gukyv0Npj+KJlr0zRmZucwiXT8JYLDe5m9wgd/S9Y1LALvBGFS+86xttOZ64ZakozL9Ltpnta+oZ8EdEMmyCdeZdccyjpglOJZBvZqNcMC5e84wealMHMvsy6vdSrzTAzqeKcl9Fmr7CL0TyU2EDXXWMcwZbSdLa+JupEJSXjsQa6/wAfaZn0H5qYwZ+8l+Ers/bCGhThpf5gBwq6QejmWfrDEt94IrJTUcijb8Q8Svhsh+MVZuarxCfgGktTBVgezfuZdid0YuHlejEFt+Q4gGkxsz4hZfIIMQVXa6X1UVq7v/IwHlK0r9sOT3lZSHKPrAr+EhoFXQbgT9MrK4tVKtHXSFcCvsUTKohUAJQcEJxYPrltOCksld5riXBmKxMy3Fy8S2nM6SpVYl94zQMXhMbi/wDAwOHiGc+iujcCYDQxpOz56hdQpqNlT2gdesV7cIXvcMXmGkAC4hm25rGsQ1LyWTsOJQtHMXhNu/RmG7+o23/0ihwRy54cQKlcVKYS3uD3gtDMz1uCo7y4A6wIuirFgukolQdCZouZINVLJpzMhNQ0RqcQiQgtfdMwkB03uVPfUG8RUnJR8xhmxUvLmCKXM3vxLxFYrjA+Fl60polXmKmmF03NwDYR+OSxCYgaXFPaYkdNhvjUzOFxUBlMehiF2WPZuNB0l4nk9N6hWTSoC1SU19koP1o0K1D0xDZe2Oo4LQjQwB9ebc+eG5UDd7LCgOHI/wCpixh1KvqUY1Nkz8hCqH7CucZGrusFTEdaH7i4Ve4+biq0Z6P9mZhot0r0xK5q9/4Tl8F/4ljYZ3d/E2NbyxmQr6ssp5oh6OYcR+WRei9q/uZyiK60Afl3/iNgjbPD8sp+fTBhDpcArXx+6yFWdm2hlFbe0ijw+D9RioPuffEBllMm6eIb1nrYmz0dIjiLju/7ShxXX9rFtt0tX7gNL8dJZdwOD48zfwsDyW8UJWV+CUvIlretcUagtZcTEvBAM3DepidUHyXNHSVjs+2IRL1erCGzvhg1aijpMAhvcqcErRoA/DKBlwxCPM5zyr49KmgJ4gXCrq78Qs/k9pephj39U0DYKMTtc4YYJRKvie+YjYDcHBMguUVLKlghHGrflsmeM7PBULxudGYOZeJXpfyhBGcJekxWGD0lkrD4h5ntQzBDKL0JzUyaSdZuDFIyqSWM3xDB1ipKKBbC8WJLpwYgqNyzctiae/22uNi64jaahq2JyFQtOE+GPGjMvLE7FMbInMs5ZkC0XfEUDTxGO3ibOpL6MqGzTPOAs6rGGnNcSobNQdkPMNKIgln5nXZ5F4Rgxn7MygOsjShmrRKYSjmv7jcGxTWC2W2gZ4mUuci8Ofgmqme38ZfVg6sgEyFcf0kMrHJTD4YQdpuJwfo3QooHkzQwJeVDwJ8n6l1Qbok12sjUMpyX7gcr52n7ZYYHwP2sRSr2H8y02zpT+owmo0lfqBYi9M+gliq+YXDZH/W485R/nmNK08U/2mn/ACZdZY1cGEsjZ+vMD6LA8exWYJikr9CRiOzroSm2kBWD8Q0slG6ikWhb8BhorZUou4D5PTm7Iy9NfbB0S9wBdxqXqEhQpT4YUAYiVfmAVBSXuoC7o89MQpiEV+ZsqCpqBc6V84V14ldpxZ6VAX3/AIyz0LpmCWcRvtQKyxcG2bjjctu1JVigE75uDG0yo9TRHAl6zMHsgo+QmWpo1Bsl0R5wtHiL4iOmDqdMstjYZV/tHDHeIOJY1iXLKNln5YVFgxQmZ1tRqB0ZeoZl6r0b6wz8TsMyS9QvBAjwweKg3iuYA6v/AISXM/8AuS3PablbJ07zsKCp+xmx9NMGezPCbzy/yxxLzUupYFfMcUb/AIdsT3pJlmDapydJsWS7qGTzUupUMjBkFeZhZdE5qZMJcWm73ZUr1tav8qMYsFybM1JPVtO2KHMW1b8kzkdSL+wu5zN2/cuy7XR+YGI4rr9ly0t0mptC8PQf1FXB8U32CBox7yZgaq6JLBcnKJtJWAksti6BEMHGV5d4VFxG5fHLc5ZcSp+Opobq1YlcGWNBLELRuiiJ8cIlAPFQoKL2hGj4Isl1FNd4AFGiAMxDToSrxNMsLqVDYHiKyzFEq8+lUa5xNnpcSo9nn0yEUmlku90IanDA1OWNKukI7hKQYmBlyy1wPw3OB6BdxKxfJGE/z5iwYxaTaphqDYTH+Y6MvF+hzFX/AMb5S8+iz3F92UwVHFY5lUsvJCN0at8ehLx0laLnKRAEopb+IhBGhCvQXT6C2umF1RLxfNQzEyjOPaNV0UZPQ8oPMyBccMMxW1Xc0ExuBLQZUb2iD4Savx6VhHVwnCP3Ux09LqWs0I0AOa/K/wAgBDLOJsZhAoIogG7j9BhKx6XgZWCOU90//9k=;" vertex="1" parent="1">
                    <mxGeometry x="150" y="80" width="1528.43" height="920" as="geometry"/>
                </mxCell>
            </root>
        </mxGraphModel>
    </diagram>
</mxfile>